<svg width="809" height="106" viewBox="0 0 809 106" fill="none" xmlns="http://www.w3.org/2000/svg">
<path d="M760 106H0L49 54H809L760 106Z" fill="#333333"/>
<path d="M264.4 44.4998L255.6 13.6997H255.3C255.4 14.4997 255.5 15.5998 255.5 16.9998C255.6 18.3998 255.7 19.7998 255.7 21.3998C255.8 22.9998 255.8 24.4998 255.8 25.9998V44.5997H245.5V1.7998H260.9L269.8 32.1997H270L278.8 1.7998H294.2V44.5997H283.6V25.7998C283.6 24.4998 283.6 22.9998 283.7 21.3998C283.7 19.7998 283.8 18.3998 283.9 16.9998C284 15.5998 284 14.4997 284.1 13.6997H283.8L275.2 44.4998H264.4Z" fill="#333333"/>
<path d="M340.8 1.69983L326.8 44.4999H313.2L299.2 1.69983H312.2L318 23.3999C318.2 24.1999 318.5 25.2999 318.7 26.4999C319 27.7999 319.2 29.0999 319.5 30.2999C319.7 31.5999 319.9 32.5999 320 33.3999C320.1 32.5999 320.2 31.5999 320.4 30.2999C320.6 29.0999 320.9 27.7999 321.1 26.4999C321.3 25.1999 321.6 24.1999 321.8 23.3999L327.7 1.59985H340.8V1.69983Z" fill="#333333"/>
<path d="M360.2 1.69983C365.6 1.69983 369.7 2.89983 372.4 5.19983C375.1 7.59983 376.5 10.8999 376.5 15.2999C376.5 17.2999 376.2 19.0999 375.7 20.8999C375.1 22.6999 374.2 24.2998 373 25.6998C371.8 27.0998 370.1 28.1999 368 28.9999C365.9 29.7999 363.4 30.1998 360.3 30.1998H357V44.3999H345.4V1.59985H360.2V1.69983ZM360 10.9999H357V20.7999H359.3C360.3 20.7999 361.2 20.5999 362.1 20.2999C363 19.9999 363.6 19.3999 364.2 18.5999C364.7 17.7999 365 16.7999 365 15.4999C365 14.1999 364.6 13.0998 363.8 12.1998C362.9 11.4998 361.6 10.9999 360 10.9999Z" fill="#333333"/>
<path d="M395.2 44.4998L404.3 1.69971H429.6L427.6 10.9998H413.8L412.1 19.1997H424.9L422.9 28.4998H410L406.7 44.4998H395.2Z" fill="#79D48B"/>
<path d="M429.4 44.4998L438.5 1.69971H450L442.9 35.1997H456.9L454.9 44.4998H429.4Z" fill="#79D48B"/>
<path d="M456.5 44.4998L478.3 1.69971H493L496.6 44.4998H485.4L485.1 36.4998H472L468.3 44.4998H456.5ZM476.2 27.3998H484.8L484.4 15.0997C484.4 14.0997 484.4 13.1998 484.3 12.2998C484.2 11.3998 484.3 10.4997 484.3 9.59973H484.1C483.8 10.4997 483.5 11.3997 483.1 12.1997C482.8 13.0997 482.4 13.8998 482 14.7998L476.2 27.3998Z" fill="#79D48B"/>
<path d="M512.9 45.0999C510.8 45.0999 508.7 44.8999 506.8 44.3999C504.9 43.8999 503.2 43.1999 501.8 42.2999V31.9999C503.4 32.9999 505.2 33.7999 507.3 34.4999C509.4 35.1999 511.4 35.5999 513.2 35.5999C513.9 35.5999 514.6 35.4999 515.1 35.3999C515.6 35.1999 516.1 34.9998 516.5 34.6998C516.9 34.3998 517.1 33.9999 517.3 33.5999C517.5 33.1999 517.6 32.6999 517.6 32.0999C517.6 31.3999 517.4 30.6999 517 30.0999C516.6 29.4999 516 28.8998 515.3 28.1998C514.6 27.4998 513.8 26.8998 512.9 26.1998C511.6 25.0998 510.4 23.9999 509.5 22.7999C508.6 21.5999 507.8 20.2999 507.2 18.8999C506.7 17.4999 506.4 15.8998 506.4 14.1998C506.4 12.2998 506.8 10.4999 507.5 8.8999C508.2 7.2999 509.3 5.89983 510.6 4.69983C511.9 3.49983 513.5 2.5999 515.4 1.8999C517.3 1.1999 519.3 0.899902 521.6 0.899902C523.9 0.899902 526.1 1.19983 528.3 1.69983C530.5 2.19983 532.4 2.99988 534.2 3.99988L530.2 12.6998C528.8 11.9998 527.4 11.3999 525.9 10.8999C524.4 10.3999 523 10.0999 521.7 10.0999C520.9 10.0999 520.2 10.1999 519.7 10.3999C519.2 10.5999 518.8 10.8998 518.5 11.1998C518.2 11.4998 518 11.8998 517.9 12.1998C517.8 12.5998 517.7 12.8999 517.7 13.2999C517.7 13.8999 517.8 14.4999 518.1 14.9999C518.4 15.4999 518.8 16.1999 519.5 16.7999C520.2 17.3999 521.2 18.2998 522.4 19.1998C524 20.3998 525.3 21.5999 526.3 22.7999C527.3 23.9999 528 25.2999 528.5 26.5999C529 27.8999 529.2 29.3999 529.2 30.9999C529.2 33.0999 528.8 34.9998 528.1 36.6998C527.4 38.3998 526.3 39.7999 524.9 40.9999C523.5 42.1999 521.8 43.0998 519.8 43.6998C517.8 44.2998 515.5 45.0999 512.9 45.0999Z" fill="#79D48B"/>
<path d="M534.4 44.4998L543.5 1.69971H555L551.7 17.5997H561.9L565.2 1.69971H576.7L567.6 44.4998H556L559.7 26.9998H549.6L545.9 44.4998H534.4Z" fill="#79D48B"/>
<path d="M84.3 87.4998V67.1997H86.7V85.3998H95.7V87.4998H84.3Z" fill="#79D48B"/>
<path d="M104.5 72.0999C106.3 72.0999 107.7 72.4999 108.5 73.2999C109.4 74.0999 109.8 75.3998 109.8 77.1998V87.4999H108.1L107.7 85.2999H107.6C107.2 85.8999 106.7 86.2998 106.3 86.6998C105.8 87.0998 105.3 87.3999 104.7 87.4999C104.1 87.5999 103.4 87.7999 102.5 87.7999C101.6 87.7999 100.8 87.5999 100 87.2999C99.3 86.9999 98.7 86.4999 98.3 85.7999C97.9 85.0999 97.7 84.2999 97.7 83.2999C97.7 81.7999 98.3 80.5999 99.5 79.7999C100.7 78.9999 102.5 78.4999 105 78.4999L107.6 78.3999V77.4999C107.6 76.1999 107.3 75.2998 106.8 74.6998C106.3 74.0998 105.4 73.8999 104.4 73.8999C103.6 73.8999 102.8 73.9998 102.1 74.1998C101.4 74.3998 100.7 74.6999 100 74.9999L99.3 73.2999C100 72.8999 100.8 72.5999 101.7 72.3999C102.6 72.1999 103.5 72.0999 104.5 72.0999ZM107.6 79.9999L105.3 80.0999C103.4 80.1999 102.1 80.4999 101.3 80.9999C100.5 81.4999 100.1 82.2999 100.1 83.2999C100.1 84.1999 100.4 84.7998 100.9 85.1998C101.4 85.5998 102.1 85.7999 103 85.7999C104.4 85.7999 105.5 85.3998 106.3 84.6998C107.2 83.9998 107.6 82.7999 107.6 81.2999V79.9999Z" fill="#79D48B"/>
<path d="M127.8 72C129.1 72 130.2 72.3 131.1 72.9C132 73.5 132.7 74.3 133.2 75.3C133.7 76.3 133.9 77.5 133.9 78.9V80.3H123.4C123.4 82.1 123.9 83.4 124.7 84.4C125.6 85.3 126.8 85.8 128.3 85.8C129.3 85.8 130.1 85.7 130.9 85.5C131.7 85.3 132.4 85.1 133.2 84.7V86.7C132.4 87 131.7 87.3 130.9 87.4C130.1 87.5 129.3 87.6 128.2 87.6C126.7 87.6 125.5 87.3 124.4 86.7C123.3 86.1 122.5 85.2 121.9 84.1C121.3 82.9 121 81.5 121 79.9C121 78.3 121.3 76.8 121.8 75.6C122.4 74.4 123.1 73.5 124.1 72.8C125.3 72.4 126.5 72 127.8 72ZM127.8 73.9C126.6 73.9 125.6 74.3 124.9 75.1C124.2 75.9 123.7 77 123.6 78.5H131.7C131.7 77.6 131.5 76.8 131.3 76.1C131.1 75.4 130.6 74.9 130.1 74.5C129.4 74.1 128.7 73.9 127.8 73.9Z" fill="#79D48B"/>
<path d="M147.8 83.3998C147.8 84.3998 147.6 85.1998 147.1 85.7998C146.6 86.3998 145.9 86.9998 145 87.2998C144.1 87.5998 143 87.7998 141.8 87.7998C140.7 87.7998 139.8 87.6997 139 87.5997C138.2 87.4997 137.5 87.1998 137 86.8998V84.7998C137.6 85.0998 138.4 85.3997 139.2 85.5997C140.1 85.7997 140.9 85.9998 141.8 85.9998C143.1 85.9998 144.1 85.7998 144.7 85.3998C145.3 84.9998 145.6 84.3997 145.6 83.6997C145.6 83.2997 145.5 82.8997 145.2 82.5997C145 82.2997 144.6 81.9997 144 81.6997C143.4 81.3997 142.7 81.0997 141.7 80.6997C140.7 80.2997 139.9 79.9997 139.2 79.5997C138.5 79.1997 137.9 78.7998 137.6 78.2998C137.2 77.7998 137 77.0997 137 76.1997C137 74.8997 137.5 73.8997 138.6 73.1997C139.6 72.4997 141 72.1997 142.7 72.1997C143.6 72.1997 144.5 72.2998 145.3 72.4998C146.1 72.6998 146.8 72.8997 147.5 73.1997L146.7 74.9998C146.1 74.6998 145.4 74.4998 144.7 74.2998C144 74.0998 143.3 73.9998 142.5 73.9998C141.4 73.9998 140.6 74.1998 140 74.4998C139.4 74.8998 139.1 75.2998 139.1 75.8998C139.1 76.3998 139.2 76.7997 139.5 77.0997C139.8 77.3997 140.2 77.6998 140.8 77.9998C141.4 78.2998 142.2 78.5998 143.1 78.8998C144.1 79.2998 144.9 79.5998 145.6 79.9998C146.3 80.3998 146.8 80.7998 147.2 81.3998C147.6 81.7998 147.8 82.4998 147.8 83.3998Z" fill="#79D48B"/>
<path d="M156.4 85.8999C156.8 85.8999 157.2 85.8999 157.6 85.7999C158 85.6999 158.3 85.6999 158.6 85.5999V87.3999C158.3 87.4999 158 87.5998 157.5 87.6998C157 87.7998 156.6 87.7999 156.1 87.7999C155.3 87.7999 154.6 87.6999 153.9 87.3999C153.2 87.0999 152.7 86.5999 152.3 85.9999C151.9 85.2999 151.7 84.3998 151.7 83.1998V74.1998H149.5V73.0999L151.7 72.1998L152.6 68.8999H154V72.3999H158.5V74.1998H154V83.1998C154 84.1998 154.2 84.8999 154.7 85.2999C155.1 85.6999 155.7 85.8999 156.4 85.8999Z" fill="#79D48B"/>
<path d="M168.5 72C168.8 72 169.1 72 169.5 72C169.8 72 170.1 72.1 170.4 72.1L170.1 74.2C169.9 74.1 169.6 74.1 169.3 74C169 74 168.7 73.9 168.4 73.9C167.8 73.9 167.2 74 166.7 74.3C166.2 74.5 165.7 74.9 165.3 75.4C164.9 75.9 164.6 76.4 164.3 77.1C164.1 77.7 164 78.5 164 79.2V87.4H161.7V72.2H163.6L163.8 75H163.9C164.2 74.4 164.6 73.9 165 73.5C165.4 73 166 72.7 166.5 72.4C167.1 72.2 167.8 72 168.5 72Z" fill="#79D48B"/>
<path d="M178.9 72.0999C180.7 72.0999 182.1 72.4999 182.9 73.2999C183.8 74.0999 184.2 75.3998 184.2 77.1998V87.4999H182.5L182.1 85.2999H182C181.6 85.8999 181.1 86.2998 180.7 86.6998C180.2 87.0998 179.7 87.3999 179.1 87.4999C178.5 87.5999 177.8 87.7999 176.9 87.7999C176 87.7999 175.2 87.5999 174.4 87.2999C173.7 86.9999 173.1 86.4999 172.7 85.7999C172.3 85.0999 172.1 84.2999 172.1 83.2999C172.1 81.7999 172.7 80.5999 173.9 79.7999C175.1 78.9999 176.9 78.4999 179.4 78.4999L182 78.3999V77.4999C182 76.1999 181.7 75.2998 181.2 74.6998C180.7 74.0998 179.8 73.8999 178.8 73.8999C178 73.8999 177.2 73.9998 176.5 74.1998C175.8 74.3998 175.1 74.6999 174.4 74.9999L173.7 73.2999C174.4 72.8999 175.2 72.5999 176.1 72.3999C177 72.1999 177.9 72.0999 178.9 72.0999ZM182 79.9999L179.7 80.0999C177.8 80.1999 176.5 80.4999 175.7 80.9999C174.9 81.4999 174.5 82.2999 174.5 83.2999C174.5 84.1999 174.8 84.7998 175.3 85.1998C175.8 85.5998 176.5 85.7999 177.4 85.7999C178.8 85.7999 179.9 85.3998 180.7 84.6998C181.6 83.9998 182 82.7999 182 81.2999V79.9999Z" fill="#79D48B"/>
<path d="M193.9 85.8999C194.3 85.8999 194.7 85.8999 195.1 85.7999C195.5 85.6999 195.8 85.6999 196.1 85.5999V87.3999C195.8 87.4999 195.5 87.5998 195 87.6998C194.5 87.7998 194.1 87.7999 193.6 87.7999C192.8 87.7999 192.1 87.6999 191.4 87.3999C190.7 87.0999 190.2 86.5999 189.8 85.9999C189.4 85.2999 189.2 84.3998 189.2 83.1998V74.1998H187V73.0999L189.2 72.1998L190.1 68.8999H191.5V72.3999H196V74.1998H191.5V83.1998C191.5 84.1998 191.7 84.8999 192.2 85.2999C192.6 85.6999 193.2 85.8999 193.9 85.8999Z" fill="#79D48B"/>
<path d="M205 72C206.3 72 207.4 72.3 208.3 72.9C209.2 73.5 209.9 74.3 210.4 75.3C210.9 76.3 211.1 77.5 211.1 78.9V80.3H200.6C200.6 82.1 201.1 83.4 201.9 84.4C202.8 85.3 204 85.8 205.5 85.8C206.5 85.8 207.3 85.7 208.1 85.5C208.9 85.3 209.6 85.1 210.4 84.7V86.7C209.6 87 208.9 87.3 208.1 87.4C207.3 87.5 206.5 87.6 205.4 87.6C203.9 87.6 202.7 87.3 201.6 86.7C200.5 86.1 199.7 85.2 199.1 84.1C198.5 82.9 198.2 81.5 198.2 79.9C198.2 78.3 198.5 76.8 199 75.6C199.6 74.4 200.3 73.5 201.3 72.8C202.5 72.4 203.7 72 205 72ZM205 73.9C203.8 73.9 202.8 74.3 202.1 75.1C201.4 75.9 200.9 77 200.8 78.5H208.9C208.9 77.6 208.7 76.8 208.5 76.1C208.3 75.4 207.8 74.9 207.3 74.5C206.6 74.1 205.9 73.9 205 73.9Z" fill="#79D48B"/>
<path d="M219.4 94.3998C217.4 94.3998 215.9 93.9998 214.8 93.2998C213.7 92.5998 213.2 91.4997 213.2 90.1997C213.2 89.1997 213.5 88.3998 214.1 87.7998C214.7 87.1998 215.5 86.6998 216.6 86.4998C216.2 86.2998 215.9 85.9997 215.6 85.6997C215.3 85.2997 215.2 84.8998 215.2 84.3998C215.2 83.7998 215.4 83.3998 215.7 82.8998C216 82.4998 216.5 82.0997 217.1 81.6997C216.3 81.3997 215.7 80.7997 215.2 80.0997C214.7 79.2997 214.5 78.3998 214.5 77.3998C214.5 76.2998 214.7 75.3997 215.2 74.5997C215.7 73.7997 216.3 73.1998 217.2 72.7998C218.1 72.3998 219.1 72.1997 220.3 72.1997C220.6 72.1997 220.8 72.1997 221.1 72.1997C221.4 72.1997 221.6 72.2998 221.9 72.2998C222.1 72.2998 222.4 72.3998 222.6 72.3998H227.8V73.8998L225 74.1997C225.3 74.5997 225.5 74.9998 225.7 75.4998C225.9 75.9998 226 76.5997 226 77.1997C226 78.6997 225.5 79.8998 224.5 80.7998C223.5 81.6998 222.1 82.0997 220.3 82.0997C219.9 82.0997 219.4 82.0998 219 81.9998C218.5 82.1998 218.2 82.4998 218 82.7998C217.8 83.0998 217.6 83.4998 217.6 83.8998C217.6 84.1998 217.7 84.3997 217.9 84.5997C218.1 84.7997 218.3 84.8998 218.7 84.9998C219.1 85.0998 219.5 85.0997 219.9 85.0997H222.6C224.3 85.0997 225.5 85.3997 226.4 86.0997C227.3 86.7997 227.7 87.7997 227.7 89.0997C227.7 90.7997 227 92.0998 225.6 92.9998C224.2 93.8998 222 94.3998 219.4 94.3998ZM219.4 92.4998C220.7 92.4998 221.7 92.3997 222.5 92.0997C223.3 91.7997 223.9 91.4998 224.4 90.9998C224.8 90.4998 225 89.9998 225 89.2998C225 88.6998 224.9 88.1998 224.6 87.8998C224.3 87.5998 223.9 87.3998 223.4 87.2998C222.9 87.1998 222.2 87.0997 221.4 87.0997H218.8C218.1 87.0997 217.5 87.1998 217 87.3998C216.5 87.5998 216.1 87.8998 215.8 88.2998C215.5 88.6998 215.4 89.1998 215.4 89.8998C215.4 90.6998 215.7 91.3998 216.4 91.7998C217.2 92.2998 218.1 92.4998 219.4 92.4998ZM220 80.3998C221.1 80.3998 221.9 80.0997 222.5 79.5997C223.1 79.0997 223.3 78.1997 223.3 77.1997C223.3 76.0997 223 75.1997 222.5 74.5997C221.9 73.9997 221.1 73.6997 220 73.6997C218.9 73.6997 218.1 73.9997 217.6 74.5997C217 75.1997 216.7 75.9997 216.7 77.1997C216.7 78.1997 217 78.9997 217.6 79.5997C218.1 80.0997 219 80.3998 220 80.3998Z" fill="#79D48B"/>
<path d="M231.7 66.5999C232.1 66.5999 232.4 66.6999 232.7 66.9999C233 67.2999 233.1 67.5999 233.1 68.0999C233.1 68.5999 233 68.9998 232.7 69.1998C232.4 69.3998 232.1 69.5999 231.7 69.5999C231.3 69.5999 231 69.4998 230.7 69.1998C230.4 68.8998 230.3 68.5999 230.3 68.0999C230.3 67.5999 230.4 67.1999 230.7 66.9999C231 66.7999 231.3 66.5999 231.7 66.5999ZM232.9 72.2999V87.4999H230.6V72.2999H232.9Z" fill="#79D48B"/>
<path d="M243.4 72.0999C245.2 72.0999 246.6 72.4999 247.4 73.2999C248.3 74.0999 248.7 75.3998 248.7 77.1998V87.4999H247L246.6 85.2999H246.5C246.1 85.8999 245.6 86.2998 245.2 86.6998C244.7 87.0998 244.2 87.3999 243.6 87.4999C243 87.5999 242.3 87.7999 241.4 87.7999C240.5 87.7999 239.7 87.5999 238.9 87.2999C238.2 86.9999 237.6 86.4999 237.2 85.7999C236.8 85.0999 236.6 84.2999 236.6 83.2999C236.6 81.7999 237.2 80.5999 238.4 79.7999C239.6 78.9999 241.4 78.4999 243.9 78.4999L246.5 78.3999V77.4999C246.5 76.1999 246.2 75.2998 245.7 74.6998C245.2 74.0998 244.3 73.8999 243.3 73.8999C242.5 73.8999 241.7 73.9998 241 74.1998C240.3 74.3998 239.6 74.6999 238.9 74.9999L238.2 73.2999C238.9 72.8999 239.7 72.5999 240.6 72.3999C241.5 72.1999 242.4 72.0999 243.4 72.0999ZM246.5 79.9999L244.2 80.0999C242.3 80.1999 241 80.4999 240.2 80.9999C239.4 81.4999 239 82.2999 239 83.2999C239 84.1999 239.3 84.7998 239.8 85.1998C240.3 85.5998 241 85.7999 241.9 85.7999C243.3 85.7999 244.4 85.3998 245.2 84.6998C246.1 83.9998 246.5 82.7999 246.5 81.2999V79.9999Z" fill="#79D48B"/>
<path d="M266.3 87.7999C264.4 87.7999 262.9 87.0999 261.7 85.7999C260.6 84.4999 260 82.4999 260 79.8999C260 77.2999 260.6 75.2999 261.7 73.9999C262.8 72.6999 264.4 71.9999 266.3 71.9999C267.1 71.9999 267.8 72.0999 268.4 72.2999C269 72.4999 269.5 72.7998 270 73.1998C270.4 73.5998 270.8 73.9999 271.1 74.3999H271.3C271.3 74.0999 271.2 73.6998 271.2 73.1998C271.2 72.6998 271.1 72.2999 271.1 71.9999V65.8999H273.4V87.4999H271.5L271.2 85.2999H271.1C270.8 85.7999 270.4 86.1999 270 86.4999C269.6 86.8999 269 87.1999 268.4 87.3999C267.9 87.6999 267.1 87.7999 266.3 87.7999ZM266.7 85.8999C268.3 85.8999 269.5 85.3999 270.2 84.4999C270.9 83.5999 271.2 82.1999 271.2 80.3999V79.9999C271.2 78.0999 270.9 76.5999 270.2 75.4999C269.6 74.4999 268.4 73.8999 266.7 73.8999C265.3 73.8999 264.2 74.3999 263.5 75.4999C262.8 76.5999 262.4 78.0999 262.4 79.8999C262.4 81.7999 262.7 83.1998 263.4 84.1998C264.2 85.3998 265.3 85.8999 266.7 85.8999Z" fill="#79D48B"/>
<path d="M284.2 72C285.5 72 286.6 72.3 287.5 72.9C288.4 73.5 289.1 74.3 289.6 75.3C290.1 76.3 290.3 77.5 290.3 78.9V80.3H279.8C279.8 82.1 280.3 83.4 281.1 84.4C282 85.3 283.2 85.8 284.7 85.8C285.7 85.8 286.5 85.7 287.3 85.5C288.1 85.3 288.8 85.1 289.6 84.7V86.7C288.8 87 288.1 87.3 287.3 87.4C286.5 87.5 285.7 87.6 284.6 87.6C283.1 87.6 281.9 87.3 280.8 86.7C279.7 86.1 278.9 85.2 278.3 84.1C277.7 82.9 277.4 81.5 277.4 79.9C277.4 78.3 277.7 76.8 278.2 75.6C278.8 74.4 279.5 73.5 280.5 72.8C281.6 72.4 282.8 72 284.2 72ZM284.1 73.9C282.9 73.9 281.9 74.3 281.2 75.1C280.5 75.9 280 77 279.9 78.5H288C288 77.6 287.8 76.8 287.6 76.1C287.4 75.4 286.9 74.9 286.4 74.5C285.7 74.1 285 73.9 284.1 73.9Z" fill="#79D48B"/>
<path d="M309.5 76.0999H317.6V86.5999C316.5 86.9999 315.4 87.1999 314.3 87.3999C313.2 87.5999 311.9 87.6998 310.4 87.6998C308.4 87.6998 306.7 87.2999 305.3 86.4999C303.9 85.6999 302.8 84.4999 302.1 82.9999C301.4 81.3999 301 79.4999 301 77.2999C301 75.1999 301.4 73.2999 302.2 71.7999C303 70.2999 304.2 68.9998 305.8 68.1998C307.4 67.2998 309.3 66.8999 311.6 66.8999C312.7 66.8999 313.7 66.9998 314.8 67.1998C315.8 67.3998 316.8 67.6999 317.6 68.0999L316.2 71.4999C315.6 71.1999 314.9 70.8998 314.1 70.6998C313.3 70.4998 312.5 70.3999 311.6 70.3999C310.4 70.3999 309.3 70.6999 308.3 71.2999C307.4 71.8999 306.7 72.6998 306.2 73.6998C305.7 74.6998 305.4 75.8999 305.4 77.2999C305.4 78.5999 305.6 79.7999 305.9 80.7999C306.3 81.7999 306.8 82.5998 307.6 83.1998C308.4 83.7998 309.4 84.0999 310.6 84.0999C311.2 84.0999 311.7 84.0999 312.1 83.9999C312.5 83.8999 312.9 83.8999 313.3 83.7999V79.5999H309.5V76.0999Z" fill="#79D48B"/>
<path d="M336.1 79.6997C336.1 80.9997 335.9 82.0997 335.6 83.0997C335.3 84.0997 334.7 84.8997 334.1 85.5997C333.4 86.2997 332.6 86.7997 331.7 87.1997C330.8 87.5997 329.7 87.6997 328.6 87.6997C327.5 87.6997 326.5 87.4997 325.6 87.1997C324.7 86.7997 323.9 86.2997 323.2 85.5997C322.5 84.8997 322 84.0997 321.6 83.0997C321.2 82.0997 321.1 80.9997 321.1 79.6997C321.1 77.9997 321.4 76.4998 322 75.2998C322.6 74.0998 323.5 73.1997 324.6 72.5997C325.7 71.9997 327.1 71.6997 328.6 71.6997C330.1 71.6997 331.3 71.9997 332.5 72.5997C333.6 73.1997 334.5 74.0998 335.2 75.2998C335.8 76.5998 336.1 77.9997 336.1 79.6997ZM325.4 79.6997C325.4 80.6997 325.5 81.5998 325.7 82.2998C325.9 82.9998 326.3 83.4998 326.7 83.8998C327.2 84.2998 327.8 84.3998 328.5 84.3998C329.2 84.3998 329.9 84.1998 330.3 83.8998C330.8 83.4998 331.1 82.9998 331.3 82.2998C331.5 81.5998 331.6 80.7997 331.6 79.6997C331.6 78.6997 331.5 77.7997 331.3 77.0997C331.1 76.3997 330.7 75.8997 330.3 75.5997C329.8 75.2997 329.2 75.0997 328.5 75.0997C327.4 75.0997 326.6 75.4998 326.1 76.2998C325.7 76.9998 325.4 78.1997 325.4 79.6997Z" fill="#79D48B"/>
<path d="M353.7 79.6997C353.7 80.9997 353.5 82.0997 353.2 83.0997C352.9 84.0997 352.3 84.8997 351.7 85.5997C351 86.2997 350.2 86.7997 349.3 87.1997C348.4 87.5997 347.3 87.6997 346.2 87.6997C345.1 87.6997 344.1 87.4997 343.2 87.1997C342.3 86.7997 341.5 86.2997 340.8 85.5997C340.1 84.8997 339.6 84.0997 339.2 83.0997C338.8 82.0997 338.7 80.9997 338.7 79.6997C338.7 77.9997 339 76.4998 339.6 75.2998C340.2 74.0998 341.1 73.1997 342.2 72.5997C343.3 71.9997 344.7 71.6997 346.2 71.6997C347.7 71.6997 348.9 71.9997 350.1 72.5997C351.2 73.1997 352.1 74.0998 352.8 75.2998C353.4 76.5998 353.7 77.9997 353.7 79.6997ZM343 79.6997C343 80.6997 343.1 81.5998 343.3 82.2998C343.5 82.9998 343.9 83.4998 344.3 83.8998C344.8 84.2998 345.4 84.3998 346.1 84.3998C346.8 84.3998 347.5 84.1998 347.9 83.8998C348.4 83.4998 348.7 82.9998 348.9 82.2998C349.1 81.5998 349.2 80.7997 349.2 79.6997C349.2 78.6997 349.1 77.7997 348.9 77.0997C348.7 76.3997 348.3 75.8997 347.9 75.5997C347.4 75.2997 346.8 75.0997 346.1 75.0997C345 75.0997 344.2 75.4998 343.7 76.2998C343.3 76.9998 343 78.1997 343 79.6997Z" fill="#79D48B"/>
<path d="M361.8 94.3999C359.6 94.3999 358 93.9999 356.8 93.2999C355.7 92.4999 355.1 91.4999 355.1 90.0999C355.1 89.1999 355.4 88.3999 356 87.7999C356.6 87.1999 357.4 86.6999 358.6 86.4999C358.2 86.2999 357.8 85.9999 357.5 85.5999C357.2 85.1999 357 84.6999 357 84.2999C357 83.6999 357.2 83.1999 357.5 82.7999C357.8 82.3999 358.3 81.9999 359 81.5999C358.2 81.1999 357.5 80.6999 357.1 79.8999C356.6 79.0999 356.4 78.1998 356.4 77.1998C356.4 76.0998 356.6 75.0999 357.1 74.2999C357.6 73.4999 358.3 72.8999 359.3 72.4999C360.3 72.0999 361.4 71.8999 362.8 71.8999C363.1 71.8999 363.4 71.8999 363.8 71.9999C364.2 71.9999 364.5 72.0999 364.8 72.0999C365.1 72.0999 365.3 72.1998 365.4 72.1998H370.8V74.3999L368.4 74.9999C368.6 75.2999 368.8 75.6999 368.9 76.0999C369 76.4999 369.1 76.8999 369.1 77.2999C369.1 78.9999 368.5 80.2998 367.4 81.1998C366.2 82.0998 364.6 82.5999 362.6 82.5999C362.1 82.5999 361.6 82.4999 361.2 82.4999C361 82.6999 360.8 82.7999 360.7 82.9999C360.6 83.1999 360.5 83.3999 360.5 83.5999C360.5 83.7999 360.6 83.9999 360.8 84.0999C361 84.1999 361.2 84.2999 361.6 84.3999C361.9 84.4999 362.4 84.4999 362.9 84.4999H365.5C367.2 84.4999 368.5 84.8999 369.4 85.5999C370.3 86.2999 370.7 87.3999 370.7 88.7999C370.7 90.5999 369.9 91.9999 368.4 92.9999C366.8 93.8999 364.6 94.3999 361.8 94.3999ZM361.9 91.5999C362.9 91.5999 363.8 91.4999 364.5 91.2999C365.2 91.0999 365.8 90.7999 366.2 90.4999C366.6 90.1999 366.8 89.6999 366.8 89.2999C366.8 88.8999 366.7 88.5999 366.5 88.3999C366.3 88.1999 365.9 87.9999 365.5 87.8999C365.1 87.7999 364.5 87.7999 363.7 87.7999H361.5C361 87.7999 360.5 87.8999 360.1 87.9999C359.7 88.1999 359.4 88.3998 359.1 88.6998C358.9 88.9998 358.7 89.3998 358.7 89.6998C358.7 90.2998 359 90.6999 359.5 91.0999C360.2 91.3999 360.9 91.5999 361.9 91.5999ZM362.6 79.7999C363.4 79.7999 364 79.5999 364.3 79.0999C364.7 78.5999 364.9 77.8999 364.9 77.0999C364.9 76.1999 364.7 75.4999 364.3 74.9999C363.9 74.4999 363.3 74.2999 362.6 74.2999C361.8 74.2999 361.2 74.4999 360.9 74.9999C360.6 75.4999 360.3 76.1999 360.3 77.0999C360.3 77.8999 360.5 78.5999 360.9 79.0999C361.3 79.5999 361.8 79.7999 362.6 79.7999Z" fill="#79D48B"/>
<path d="M377.5 87.4999H373.3V65.8999H377.5V87.4999Z" fill="#79D48B"/>
<path d="M388.4 71.6997C389.8 71.6997 391.1 71.9998 392.1 72.4998C393.1 73.0998 393.9 73.7998 394.5 74.8998C395.1 75.9998 395.3 77.1997 395.3 78.6997V80.7998H385.3C385.3 81.9998 385.7 82.8997 386.4 83.5997C387.1 84.2997 388 84.5997 389.2 84.5997C390.2 84.5997 391.1 84.4998 391.9 84.2998C392.7 84.0998 393.6 83.7998 394.4 83.3998V86.6997C393.6 87.0997 392.8 87.3998 392 87.4998C391.2 87.6998 390.1 87.7998 389 87.7998C387.4 87.7998 386.1 87.4998 384.9 86.8998C383.7 86.2998 382.8 85.4998 382.1 84.2998C381.4 83.0998 381.1 81.5998 381.1 79.8998C381.1 78.0998 381.4 76.5998 382 75.3998C382.6 74.1998 383.5 73.2997 384.6 72.6997C385.6 71.9997 386.9 71.6997 388.4 71.6997ZM388.4 74.6997C387.6 74.6997 386.9 74.9998 386.4 75.4998C385.9 75.9998 385.5 76.8998 385.5 77.9998H391.4C391.4 77.3998 391.3 76.7998 391.1 76.2998C390.9 75.7998 390.6 75.3997 390.1 75.0997C389.6 74.8997 389.1 74.6997 388.4 74.6997Z" fill="#79D48B"/>
<path d="M413.5 72C415.4 72 416.9 72.7 418 74C419.1 75.3 419.7 77.3 419.7 79.9C419.7 81.6 419.4 83.1 418.9 84.3C418.4 85.5 417.7 86.4 416.7 87C415.7 87.6 414.7 87.9 413.4 87.9C412.6 87.9 411.9 87.8 411.3 87.6C410.7 87.4 410.2 87.1 409.7 86.7C409.3 86.3 408.9 85.9 408.6 85.5H408.4C408.4 85.9 408.5 86.3 408.5 86.8C408.5 87.3 408.6 87.8 408.6 88.1V94.3H406.3V72.3H408.2L408.5 74.5H408.6C408.9 74 409.3 73.6 409.7 73.2C410.1 72.8 410.6 72.5 411.3 72.3C411.9 72.1 412.7 72 413.5 72ZM413.1 74C412 74 411.2 74.2 410.6 74.6C410 75 409.5 75.6 409.2 76.4C408.9 77.2 408.7 78.2 408.7 79.4V79.8C408.7 81.1 408.8 82.2 409.1 83.1C409.4 84 409.9 84.7 410.5 85.1C411.2 85.6 412 85.8 413.1 85.8C414 85.8 414.8 85.5 415.5 85C416.2 84.5 416.6 83.8 416.9 82.9C417.2 82 417.4 80.9 417.4 79.8C417.4 78 417.1 76.6 416.4 75.5C415.6 74.5 414.5 74 413.1 74Z" fill="#79D48B"/>
<path d="M436.9 79.9C436.9 81.1 436.7 82.3 436.4 83.2C436.1 84.1 435.6 85 435 85.7C434.4 86.4 433.7 86.9 432.8 87.2C431.9 87.5 431 87.7 429.9 87.7C428.9 87.7 427.9 87.5 427.1 87.2C426.3 86.9 425.5 86.3 424.9 85.7C424.3 85 423.8 84.2 423.5 83.2C423.2 82.2 423 81.1 423 79.9C423 78.2 423.3 76.8 423.8 75.6C424.4 74.4 425.2 73.5 426.2 72.9C427.2 72.3 428.5 72 430 72C431.4 72 432.6 72.3 433.6 72.9C434.6 73.5 435.5 74.4 436 75.6C436.5 76.8 436.9 78.2 436.9 79.9ZM425.3 79.9C425.3 81.1 425.5 82.2 425.8 83.1C426.1 84 426.6 84.7 427.3 85.2C428 85.7 428.8 85.9 429.9 85.9C431 85.9 431.8 85.7 432.5 85.2C433.2 84.7 433.7 84 434 83.1C434.3 82.2 434.5 81.1 434.5 79.9C434.5 78.7 434.3 77.6 434 76.8C433.7 76 433.2 75.2 432.5 74.8C431.8 74.3 431 74.1 429.9 74.1C428.3 74.1 427.2 74.6 426.4 75.7C425.7 76.6 425.3 78 425.3 79.9Z" fill="#79D48B"/>
<path d="M445.8 85.8999C446.2 85.8999 446.6 85.8999 447 85.7999C447.4 85.6999 447.7 85.6999 448 85.5999V87.3999C447.7 87.4999 447.4 87.5998 446.9 87.6998C446.4 87.7998 446 87.7999 445.5 87.7999C444.7 87.7999 444 87.6999 443.3 87.3999C442.6 87.0999 442.1 86.5999 441.7 85.9999C441.3 85.2999 441.1 84.3998 441.1 83.1998V74.1998H438.9V73.0999L441.1 72.1998L442 68.8999H443.4V72.3999H447.9V74.1998H443.4V83.1998C443.4 84.1998 443.6 84.8999 444.1 85.2999C444.4 85.6999 445 85.8999 445.8 85.8999Z" fill="#79D48B"/>
<path d="M456.8 72C458.1 72 459.2 72.3 460.1 72.9C461 73.5 461.7 74.3 462.2 75.3C462.7 76.3 462.9 77.5 462.9 78.9V80.3H452.4C452.4 82.1 452.9 83.4 453.7 84.4C454.6 85.3 455.8 85.8 457.3 85.8C458.3 85.8 459.1 85.7 459.9 85.5C460.7 85.3 461.4 85.1 462.2 84.7V86.7C461.4 87 460.7 87.3 459.9 87.4C459.1 87.6 458.3 87.6 457.2 87.6C455.7 87.6 454.5 87.3 453.4 86.7C452.3 86.1 451.5 85.2 450.9 84.1C450.3 83 450 81.5 450 79.9C450 78.3 450.3 76.8 450.8 75.6C451.4 74.4 452.1 73.5 453.1 72.8C454.3 72.4 455.5 72 456.8 72ZM456.8 73.9C455.6 73.9 454.6 74.3 453.9 75.1C453.2 75.9 452.7 77 452.6 78.5H460.7C460.7 77.6 460.5 76.8 460.3 76.1C460 75.4 459.6 74.9 459.1 74.5C458.4 74.1 457.7 73.9 456.8 73.9Z" fill="#79D48B"/>
<path d="M474.1 72C475.9 72 477.3 72.4 478.2 73.3C479.1 74.2 479.6 75.6 479.6 77.6V87.5H477.3V77.7C477.3 76.4 477 75.5 476.4 74.9C475.8 74.3 474.9 74 473.7 74C472 74 470.8 74.5 470.1 75.4C469.4 76.4 469.1 77.7 469.1 79.6V87.6H466.8V72.4H468.7L469 74.6H469.1C469.4 74.1 469.8 73.6 470.3 73.2C470.8 72.8 471.4 72.6 472 72.4C472.8 72.1 473.5 72 474.1 72Z" fill="#79D48B"/>
<path d="M490.5 87.7999C489.1 87.7999 487.9 87.4999 486.9 86.9999C485.9 86.3999 485 85.5999 484.5 84.3999C484 83.1999 483.6 81.7999 483.6 79.9999C483.6 78.1999 483.9 76.6999 484.5 75.4999C485.1 74.2999 486 73.4999 487 72.8999C488.1 72.2999 489.3 72.0999 490.7 72.0999C491.5 72.0999 492.2 72.1999 492.9 72.2999C493.6 72.4999 494.2 72.5999 494.6 72.8999L493.9 74.7999C493.4 74.5999 492.9 74.3999 492.3 74.2999C491.7 74.1999 491.1 74.0999 490.6 74.0999C489.5 74.0999 488.7 74.2999 488 74.7999C487.3 75.2999 486.8 75.8999 486.4 76.7999C486.1 77.6999 485.9 78.7999 485.9 79.9999C485.9 81.1999 486.1 82.2998 486.4 83.1998C486.7 84.0998 487.2 84.6998 487.9 85.1998C488.6 85.6998 489.4 85.8999 490.4 85.8999C491.2 85.8999 491.9 85.7999 492.6 85.5999C493.2 85.3999 493.8 85.1999 494.4 84.9999V87.0999C493.9 87.3999 493.3 87.5998 492.7 87.6998C492.1 87.6998 491.3 87.7999 490.5 87.7999Z" fill="#79D48B"/>
<path d="M499.2 66.5999C499.6 66.5999 499.9 66.6999 500.2 66.9999C500.5 67.1999 500.6 67.5999 500.6 68.0999C500.6 68.5999 500.5 68.9998 500.2 69.1998C499.9 69.3998 499.6 69.5999 499.2 69.5999C498.8 69.5999 498.5 69.4998 498.2 69.1998C497.9 68.8998 497.8 68.5999 497.8 68.0999C497.8 67.5999 497.9 67.1999 498.2 66.9999C498.5 66.7999 498.8 66.5999 499.2 66.5999ZM500.3 72.2999V87.4999H498V72.2999H500.3Z" fill="#79D48B"/>
<path d="M510.9 72.0999C512.7 72.0999 514.1 72.4999 514.9 73.2999C515.8 74.0999 516.2 75.3998 516.2 77.1998V87.4999H514.5L514.1 85.2999H514C513.6 85.8999 513.1 86.2998 512.7 86.6998C512.2 87.0998 511.7 87.3999 511.1 87.4999C510.5 87.6999 509.8 87.7999 508.9 87.7999C508 87.7999 507.2 87.5999 506.4 87.2999C505.7 86.9999 505.1 86.4999 504.7 85.7999C504.3 85.0999 504.1 84.2999 504.1 83.2999C504.1 81.7999 504.7 80.5999 505.9 79.7999C507.1 78.9999 508.9 78.4999 511.4 78.4999L514 78.3999V77.4999C514 76.1999 513.7 75.2998 513.2 74.6998C512.7 74.0998 511.8 73.8999 510.8 73.8999C510 73.8999 509.2 73.9998 508.5 74.1998C507.8 74.3998 507.1 74.6999 506.4 74.9999L505.7 73.2999C506.4 72.8999 507.2 72.5999 508.1 72.3999C508.9 72.1999 509.9 72.0999 510.9 72.0999ZM513.9 79.9999L511.6 80.0999C509.7 80.1999 508.4 80.4999 507.6 80.9999C506.8 81.4999 506.4 82.2999 506.4 83.2999C506.4 84.1999 506.7 84.7998 507.2 85.1998C507.7 85.5998 508.4 85.7999 509.3 85.7999C510.7 85.7999 511.8 85.3998 512.6 84.6998C513.4 83.9998 513.9 82.7999 513.9 81.2999V79.9999Z" fill="#79D48B"/>
<path d="M526.4 87.7999C524.5 87.7999 522.9 87.0999 521.8 85.7999C520.7 84.4999 520.1 82.4999 520.1 79.8999C520.1 77.2999 520.7 75.2999 521.8 73.9999C522.9 72.6999 524.5 71.9999 526.4 71.9999C527.2 71.9999 527.9 72.0999 528.5 72.2999C529.1 72.4999 529.6 72.7998 530.1 73.1998C530.5 73.5998 530.9 73.9999 531.2 74.3999H531.4C531.4 74.0999 531.3 73.6998 531.3 73.1998C531.3 72.6998 531.2 72.2999 531.2 71.9999V65.8999H533.5V87.4999H531.6L531.3 85.2999H531.2C530.9 85.7999 530.5 86.1999 530.1 86.4999C529.7 86.8999 529.1 87.1999 528.5 87.3999C527.9 87.6999 527.2 87.7999 526.4 87.7999ZM526.7 85.8999C528.3 85.8999 529.5 85.3999 530.2 84.4999C530.9 83.5999 531.2 82.1999 531.2 80.3999V79.9999C531.2 78.0999 530.9 76.5999 530.2 75.4999C529.6 74.4999 528.4 73.8999 526.7 73.8999C525.3 73.8999 524.2 74.3999 523.5 75.4999C522.8 76.5999 522.4 78.0999 522.4 79.8999C522.4 81.7999 522.7 83.1998 523.4 84.1998C524.3 85.3998 525.3 85.8999 526.7 85.8999Z" fill="#79D48B"/>
<path d="M544.1 72.0999C545.9 72.0999 547.3 72.4999 548.1 73.2999C549 74.0999 549.4 75.3998 549.4 77.1998V87.4999H547.7L547.3 85.2999H547.2C546.8 85.8999 546.3 86.2998 545.9 86.6998C545.4 87.0998 544.9 87.3999 544.3 87.4999C543.7 87.6999 543 87.7999 542.1 87.7999C541.2 87.7999 540.4 87.5999 539.6 87.2999C538.9 86.9999 538.3 86.4999 537.9 85.7999C537.5 85.0999 537.3 84.2999 537.3 83.2999C537.3 81.7999 537.9 80.5999 539.1 79.7999C540.3 78.9999 542.1 78.4999 544.6 78.4999L547.2 78.3999V77.4999C547.2 76.1999 546.9 75.2998 546.4 74.6998C545.9 74.0998 545 73.8999 544 73.8999C543.2 73.8999 542.4 73.9998 541.7 74.1998C541 74.3998 540.3 74.6999 539.6 74.9999L538.9 73.2999C539.6 72.8999 540.4 72.5999 541.3 72.3999C542.1 72.1999 543.1 72.0999 544.1 72.0999ZM547.1 79.9999L544.8 80.0999C542.9 80.1999 541.6 80.4999 540.8 80.9999C540 81.4999 539.6 82.2999 539.6 83.2999C539.6 84.1999 539.9 84.7998 540.4 85.1998C540.9 85.5998 541.6 85.7999 542.5 85.7999C543.9 85.7999 545 85.3998 545.8 84.6998C546.6 83.9998 547.1 82.7999 547.1 81.2999V79.9999Z" fill="#79D48B"/>
<path d="M567.6 87.7999C566.2 87.7999 565 87.4999 564 86.9999C563 86.3999 562.1 85.5999 561.6 84.3999C561.1 83.1999 560.7 81.7999 560.7 79.9999C560.7 78.1999 561 76.6999 561.6 75.4999C562.2 74.2999 563.1 73.4999 564.1 72.8999C565.2 72.2999 566.4 72.0999 567.8 72.0999C568.6 72.0999 569.3 72.1999 570 72.2999C570.7 72.4999 571.3 72.5999 571.7 72.8999L571 74.7999C570.5 74.5999 570 74.3999 569.4 74.2999C568.8 74.1999 568.2 74.0999 567.7 74.0999C566.6 74.0999 565.8 74.2999 565.1 74.7999C564.4 75.2999 563.9 75.8999 563.5 76.7999C563.2 77.6999 563 78.7999 563 79.9999C563 81.1999 563.2 82.2998 563.5 83.1998C563.8 84.0998 564.3 84.6998 565 85.1998C565.7 85.6998 566.5 85.8999 567.5 85.8999C568.3 85.8999 569 85.7999 569.7 85.5999C570.3 85.3999 570.9 85.1999 571.5 84.9999V87.0999C571 87.3999 570.4 87.5998 569.8 87.6998C569.2 87.6998 568.5 87.7999 567.6 87.7999Z" fill="#79D48B"/>
<path d="M588.3 79.9C588.3 81.1 588.1 82.3 587.8 83.2C587.5 84.1 587 85 586.4 85.7C585.8 86.4 585.1 86.9 584.2 87.2C583.3 87.5 582.4 87.7 581.3 87.7C580.3 87.7 579.3 87.5 578.5 87.2C577.7 86.9 576.9 86.3 576.3 85.7C575.7 85 575.2 84.2 574.9 83.2C574.6 82.2 574.4 81.1 574.4 79.9C574.4 78.2 574.7 76.8 575.2 75.6C575.8 74.4 576.6 73.5 577.6 72.9C578.6 72.3 579.9 72 581.4 72C582.8 72 584 72.3 585 72.9C586 73.5 586.9 74.4 587.4 75.6C587.9 76.8 588.3 78.2 588.3 79.9ZM576.7 79.9C576.7 81.1 576.9 82.2 577.2 83.1C577.5 84 578 84.7 578.7 85.2C579.4 85.7 580.2 85.9 581.3 85.9C582.4 85.9 583.2 85.7 583.9 85.2C584.6 84.7 585.1 84 585.4 83.1C585.7 82.2 585.9 81.1 585.9 79.9C585.9 78.7 585.7 77.6 585.4 76.8C585.1 76 584.6 75.2 583.9 74.8C583.2 74.3 582.4 74.1 581.3 74.1C579.7 74.1 578.6 74.6 577.8 75.7C577.1 76.6 576.7 78 576.7 79.9Z" fill="#79D48B"/>
<path d="M599.5 72C601.3 72 602.7 72.4 603.6 73.3C604.5 74.2 605 75.6 605 77.6V87.5H602.7V77.7C602.7 76.4 602.4 75.5 601.8 74.9C601.2 74.3 600.3 74 599.1 74C597.4 74 596.2 74.5 595.5 75.4C594.8 76.4 594.5 77.7 594.5 79.6V87.6H592.2V72.4H594.1L594.4 74.6H594.5C594.8 74.1 595.2 73.6 595.7 73.2C596.2 72.8 596.8 72.6 597.4 72.4C598.1 72.1 598.8 72 599.5 72Z" fill="#79D48B"/>
<path d="M625.8 70.4999C625 70.4999 624.2 70.6999 623.6 70.9999C623 71.2999 622.4 71.7999 622 72.3999C621.6 72.9999 621.2 73.6999 621 74.5999C620.8 75.4999 620.7 76.3999 620.7 77.4999C620.7 78.8999 620.9 80.1998 621.2 81.1998C621.5 82.1998 622.1 82.9999 622.9 83.4999C623.6 83.9999 624.6 84.2999 625.8 84.2999C626.6 84.2999 627.4 84.1999 628.3 83.9999C629.1 83.7999 630 83.5998 631 83.1998V86.7999C630.1 87.1999 629.2 87.3999 628.3 87.5999C627.4 87.7999 626.5 87.7999 625.4 87.7999C623.3 87.7999 621.6 87.3999 620.2 86.4999C618.9 85.5999 617.9 84.3999 617.2 82.8999C616.6 81.2999 616.2 79.4999 616.2 77.3999C616.2 75.8999 616.4 74.4998 616.8 73.1998C617.2 71.8998 617.8 70.7999 618.6 69.8999C619.4 68.9999 620.4 68.1998 621.6 67.6998C622.8 67.1998 624.1 66.8999 625.7 66.8999C626.7 66.8999 627.7 66.9999 628.7 67.2999C629.7 67.5999 630.7 67.8999 631.6 68.2999L630.2 71.7999C629.4 71.3999 628.7 71.0999 627.9 70.8999C627.3 70.6999 626.6 70.4999 625.8 70.4999Z" fill="#79D48B"/>
<path d="M639.2 65.8999V70.2999C639.2 71.0999 639.2 71.7999 639.1 72.4999C639 73.1999 639 73.6999 639 73.9999H639.2C639.5 73.4999 639.9 72.9998 640.4 72.6998C640.9 72.3998 641.4 72.0999 641.9 71.9999C642.5 71.7999 643.1 71.7999 643.7 71.7999C644.8 71.7999 645.8 71.9999 646.6 72.3999C647.4 72.7999 648.1 73.3998 648.5 74.1998C648.9 74.9998 649.2 76.0999 649.2 77.4999V87.5999H645V78.4999C645 77.3999 644.8 76.5999 644.4 75.9999C644 75.3999 643.4 75.1998 642.5 75.1998C641.6 75.1998 641 75.3999 640.5 75.7999C640 76.1999 639.7 76.7999 639.5 77.4999C639.3 78.2999 639.2 79.1999 639.2 80.2999V87.5999H635V65.9999H639.2V65.8999Z" fill="#79D48B"/>
<path d="M660 71.6997C662.1 71.6997 663.7 72.1997 664.8 73.0997C665.9 73.9997 666.5 75.3997 666.5 77.1997V87.4998H663.5L662.7 85.3998H662.6C662.2 85.9998 661.7 86.3998 661.2 86.7998C660.7 87.1998 660.2 87.3997 659.6 87.5997C659 87.7997 658.3 87.7998 657.4 87.7998C656.5 87.7998 655.7 87.5998 654.9 87.2998C654.1 86.9998 653.6 86.3997 653.2 85.6997C652.8 84.9997 652.6 84.0998 652.6 82.8998C652.6 81.2998 653.2 79.9998 654.3 79.2998C655.5 78.4998 657.2 78.0998 659.5 77.9998L662.2 77.8998V77.1997C662.2 76.3997 662 75.7998 661.6 75.3998C661.2 74.9998 660.6 74.7998 659.8 74.7998C659 74.7998 658.3 74.8997 657.6 75.0997C656.9 75.2997 656.2 75.5998 655.4 75.8998L654 72.9998C654.8 72.5998 655.7 72.1998 656.8 71.9998C657.9 71.7998 658.9 71.6997 660 71.6997ZM662.3 80.2998L660.7 80.3998C659.3 80.3998 658.4 80.6997 657.8 81.0997C657.3 81.5997 657 82.1998 657 82.8998C657 83.4998 657.2 83.9998 657.6 84.2998C658 84.5998 658.5 84.6997 659.1 84.6997C660 84.6997 660.8 84.3998 661.4 83.8998C662 83.3998 662.3 82.5997 662.3 81.5997V80.2998Z" fill="#79D48B"/>
<path d="M677.4 84.3998C677.9 84.3998 678.3 84.3998 678.8 84.2998C679.2 84.1998 679.7 84.0998 680.1 83.9998V87.1997C679.6 87.3997 679.1 87.5997 678.4 87.6997C677.7 87.7997 677 87.8998 676.2 87.8998C675.3 87.8998 674.4 87.6998 673.7 87.3998C673 87.0998 672.4 86.5998 672 85.7998C671.6 85.0998 671.4 83.9997 671.4 82.6997V75.1997H669.4V73.3998L671.7 71.9998L672.9 68.6997H675.6V71.9998H679.9V75.1997H675.6V82.6997C675.6 83.2997 675.8 83.6998 676.1 83.9998C676.4 84.2998 676.8 84.3998 677.4 84.3998Z" fill="#79D48B"/>
<path d="M691.2 76.0999H699.3V86.5999C698.2 86.9999 697.1 87.1999 696 87.3999C694.9 87.5999 693.6 87.6998 692.1 87.6998C690.1 87.6998 688.4 87.2999 687 86.4999C685.6 85.6999 684.5 84.4999 683.8 82.9999C683.1 81.3999 682.7 79.4999 682.7 77.2999C682.7 75.1999 683.1 73.2999 683.9 71.7999C684.7 70.1999 685.9 68.9998 687.5 68.1998C689.1 67.2998 691 66.8999 693.3 66.8999C694.4 66.8999 695.4 66.9998 696.5 67.1998C697.6 67.3998 698.5 67.6999 699.3 68.0999L697.9 71.4999C697.3 71.1999 696.6 70.8998 695.8 70.6998C695 70.4998 694.2 70.3999 693.3 70.3999C692.1 70.3999 691 70.6999 690 71.2999C689 71.8999 688.4 72.6998 687.9 73.6998C687.4 74.6998 687.1 75.8999 687.1 77.2999C687.1 78.5999 687.3 79.7999 687.6 80.7999C688 81.7999 688.5 82.5998 689.3 83.1998C690.1 83.7998 691.1 84.0999 692.3 84.0999C692.9 84.0999 693.4 84.0999 693.8 83.9999C694.2 83.8999 694.6 83.8999 695 83.7999V79.5999H691.2V76.0999Z" fill="#79D48B"/>
<path d="M710.6 67.1998C713.2 67.1998 715.1 67.7999 716.3 68.8999C717.5 69.9999 718.1 71.5999 718.1 73.4999C718.1 74.3999 718 75.1999 717.7 75.9999C717.4 76.7999 717 77.4998 716.4 78.1998C715.8 78.7998 715 79.2998 714 79.6998C713 80.0998 711.7 80.1998 710.3 80.1998H708.5V87.3999H704.2V67.0999H710.6V67.1998ZM710.4 70.7999H708.4V76.7999H709.8C710.6 76.7999 711.3 76.6999 711.9 76.4999C712.5 76.2999 712.9 75.9999 713.3 75.4999C713.6 74.9999 713.8 74.4999 713.8 73.7999C713.8 72.7999 713.5 72.0999 713 71.5999C712.4 70.9999 711.5 70.7999 710.4 70.7999Z" fill="#79D48B"/>
<path d="M729.8 87.4998H725.5V70.7998H720V67.1997H735.3V70.7998H729.8V87.4998Z" fill="#79D48B"/>
</svg>
