<svg width="32" height="32" viewBox="0 0 32 32" fill="none" xmlns="http://www.w3.org/2000/svg">
<path d="M4.26847 8.20996V15.6626H7.26749L7.09282 17.1961H2.66296V8.20996H4.26847Z" fill="#54983C"/>
<path d="M12.9708 8.20996L12.7961 9.59754H10.0591V11.9347H12.443V13.3136H10.0572V15.795H12.9936V17.1974H8.45105V8.20996H12.9708Z" fill="#54983C"/>
<path d="M19.4743 8.20996L19.2971 9.70147H17.379V17.1961H15.7728V9.70147H13.7592V8.20996H19.4743Z" fill="#54983C"/>
<path d="M20.4673 11.7794L20.2723 8.20996H21.7165L21.519 11.7794H20.4673Z" fill="#54983C"/>
<path d="M25.6021 8.00042C26.1506 8.00042 26.6269 8.09383 27.0311 8.28065C27.4613 8.48632 27.8436 8.77628 28.1544 9.1325L27.3874 10.1842C27.1529 9.94995 26.8786 9.75737 26.5767 9.61503C26.3057 9.49307 26.0106 9.43078 25.7123 9.43254C25.375 9.43254 25.1073 9.51667 24.9073 9.68494C24.7073 9.85321 24.6067 10.0945 24.6067 10.4063C24.5989 10.5917 24.6426 10.7758 24.7333 10.9389C24.8176 11.0775 24.9653 11.2072 25.1762 11.328C25.482 11.4916 25.8012 11.6301 26.1306 11.7419C26.8824 12.0281 27.4441 12.3811 27.8158 12.801C28.1875 13.2208 28.3738 13.8203 28.3746 14.5993C28.3746 15.1557 28.2575 15.6436 28.0234 16.063C27.7909 16.4827 27.4366 16.8258 27.0051 17.0491C26.5588 17.2854 26.0365 17.4036 25.4382 17.4036C24.886 17.4136 24.339 17.298 23.8403 17.0658C23.3772 16.8436 22.9666 16.5295 22.6348 16.1434L23.4575 15.0664C23.7182 15.3376 24.0244 15.5631 24.363 15.7333C24.684 15.8869 25.0372 15.9651 25.3946 15.9615C25.7873 15.9615 26.1027 15.8531 26.3407 15.6361C26.5786 15.4192 26.6976 15.1159 26.6976 14.7261C26.7045 14.5184 26.6611 14.3119 26.571 14.1236C26.4675 13.9448 26.3181 13.7955 26.1375 13.6906C25.8576 13.5254 25.5606 13.3895 25.2515 13.2854C24.4259 12.9835 23.8353 12.6203 23.4796 12.1959C23.1239 11.7716 22.9482 11.2185 22.9525 10.5368C22.943 10.071 23.0598 9.61106 23.291 9.20365C23.5108 8.82475 23.8378 8.51587 24.2327 8.31406C24.6555 8.10019 25.1261 7.99241 25.6021 8.00042Z" fill="#54983C"/>
<mask id="mask0_641_90" style="mask-type:luminance" maskUnits="userSpaceOnUse" x="24" y="17" width="7" height="6">
<path d="M30.6933 17.551H24.8174V22.3318H30.6933V17.551Z" fill="white"/>
</mask>
<g mask="url(#mask0_641_90)">
<path d="M26.6875 21.3053L25.2952 19.8354L24.8225 20.334L26.6875 22.3025L30.694 18.0736L30.2212 17.575L26.6875 21.3053Z" fill="#CCC476" fill-opacity="0.4"/>
</g>
<mask id="mask1_641_90" style="mask-type:luminance" maskUnits="userSpaceOnUse" x="24" y="17" width="7" height="6">
<path d="M30.3179 17.5317H24.442V22.3125H30.3179V17.5317Z" fill="white"/>
</mask>
<g mask="url(#mask1_641_90)">
<path d="M26.3122 21.2855L24.92 19.8156L24.4479 20.3149L26.3128 22.2827L30.3187 18.0538L29.846 17.5552L26.3122 21.2855Z" fill="#272727"/>
</g>
<g opacity="0.4">
<path d="M7.8232 15.596C7.44349 16.4373 6.70814 18.6359 6.48538 19.4092C5.71142 19.0999 4.07174 19.3003 3.08831 20.8475C1.97388 22.6514 2.09159 25.0542 3.6528 24.9991C4.53118 24.9719 5.27856 24.0897 5.65889 23.2082C5.50195 24.198 5.89494 24.8785 6.55056 24.8636C7.67891 24.8364 8.54463 23.1673 9.05533 21.8509C9.11861 21.6746 8.7541 21.4989 8.70157 21.6338C8.22948 22.8958 7.40299 24.2258 6.77395 24.2258C5.61966 24.2258 7.74409 17.7129 8.50476 15.8675C8.63449 15.5687 7.89977 15.4067 7.8232 15.596ZM6.31325 20.0062C6.19491 20.5215 5.9848 21.3758 5.74876 22.0142C5.10643 23.7507 4.01731 24.7411 3.45662 24.1714C3.01363 23.7235 3.16805 22.3396 3.69267 21.3875C4.3717 20.1416 5.47347 19.7074 6.31325 20.0062Z" fill="#CCC476"/>
</g>
<g opacity="0.4">
<path d="M11.4487 19.5786C9.95334 19.6404 8.64211 20.9847 8.37948 22.574C8.0909 24.2851 9.02244 24.8722 10.0059 24.8722C10.8583 24.8722 11.5139 24.5177 12.0385 23.9442C13.0093 24.2133 14.0712 23.8824 14.8585 22.0617C14.9369 21.8761 14.5566 21.7438 14.5041 21.8539C13.8352 23.4431 13.0485 23.6262 12.3796 23.5774C13.4023 21.9751 13.6523 19.4932 11.4487 19.5786ZM11.3962 20.178C12.7075 20.1044 12.498 21.7914 11.8291 23.0509C11.5405 22.8919 11.1602 23.2829 11.4494 23.625C11.0956 24.016 10.6229 24.2733 10.1375 24.2733C9.25912 24.2733 9.08826 23.4419 9.2066 22.6346C9.35025 21.6442 10.321 20.2386 11.3962 20.178Z" fill="#CCC476"/>
</g>
<path d="M18.4169 18.3396C18.6795 18.3396 18.9288 18.1806 18.9421 17.875C18.9554 17.5694 18.732 17.4104 18.4694 17.4104C18.2068 17.4104 17.9587 17.5694 17.9454 17.875C17.9321 18.1806 18.1549 18.3396 18.4169 18.3396ZM17.2974 24.8847C18.5168 24.8964 19.4883 23.2218 19.9863 22.0724C20.0781 21.8769 19.6977 21.7179 19.6325 21.8651C19.1858 22.9651 18.2283 24.2852 17.4942 24.31C17.1006 24.3223 17.1923 23.906 17.324 23.4055C17.5859 22.4033 17.7302 21.9134 18.3365 19.9208C18.389 19.7253 17.7068 19.5298 17.6151 19.8354C17.0771 21.6325 16.8557 22.3539 16.5658 23.4909C16.3399 24.383 16.5367 24.8723 17.2974 24.8847Z" fill="#CCC476" fill-opacity="0.4"/>
<path d="M20.6812 24.8846C21.9399 24.8574 22.9632 23.5725 23.6321 21.7723C23.7112 21.5694 23.3436 21.3943 23.291 21.5292C22.9234 22.5573 21.9273 24.2078 20.878 24.2078C20.1186 24.2078 20.0515 23.1933 20.3401 21.8137C20.4578 21.2316 20.6565 20.4602 20.8647 19.6887H22.3203C22.4646 19.6758 22.5962 19.2019 22.3994 19.0942H21.0223C21.3628 17.998 21.7184 16.9161 22.0064 16.1718C22.0975 15.9281 21.4027 15.7258 21.3103 15.9553C20.9818 16.7676 20.5629 17.9442 20.2218 19.0942H19.6181C19.4611 19.2019 19.3687 19.5539 19.5921 19.6887H20.0642C19.5269 21.7339 18.6612 24.9248 20.6812 24.8846Z" fill="#CCC476" fill-opacity="0.4"/>
<path d="M7.47322 15.2383C7.09351 16.079 6.35816 18.2776 6.13603 19.0509C5.36207 18.7416 3.72239 18.942 2.73833 20.4892C1.62137 22.2907 1.74224 24.6934 3.30282 24.6415C4.1812 24.6142 4.92921 23.7321 5.30891 22.8474C5.15197 23.8372 5.54496 24.5177 6.20121 24.5029C7.32893 24.4757 8.19465 22.8066 8.70598 21.4908C8.76927 21.3139 8.40412 21.1382 8.35159 21.2737C7.88013 22.5381 7.05365 23.8657 6.42461 23.8657C5.27031 23.8657 7.39474 17.3528 8.15478 15.5074C8.28641 15.2092 7.55232 15.0465 7.47322 15.2383ZM5.96517 19.646C5.84746 20.162 5.63672 21.0163 5.40067 21.6541C4.75835 23.3912 3.66987 24.3816 3.10601 23.8113C2.66302 23.364 2.81743 21.9801 3.34206 21.0274C4.02615 19.7815 5.12602 19.3479 5.96517 19.646Z" fill="#152216"/>
<path d="M11.1006 19.2546C9.6052 19.3164 8.29396 20.6607 8.03197 22.25C7.7434 23.9611 8.6743 24.5482 9.65836 24.5482C10.5102 24.5482 11.1664 24.1937 11.691 23.6202C12.6618 23.8893 13.7237 23.5584 14.511 21.7378C14.5888 21.5522 14.2091 21.4198 14.1566 21.5299C13.4877 23.1192 12.701 23.3023 12.0321 23.2534C13.0548 21.6512 13.3041 19.1692 11.1006 19.2546ZM11.0481 19.854C12.3593 19.7804 12.1498 21.4674 11.4809 22.7269C11.1924 22.568 10.812 22.9589 11.1012 23.301C10.7475 23.692 10.2747 23.9494 9.78936 23.9494C8.91098 23.9494 8.74075 23.1179 8.85846 22.3106C9.00211 21.3202 9.97478 19.9147 11.0506 19.854H11.0481Z" fill="#152216"/>
<path d="M18.1922 18.2561C18.4549 18.2561 18.7042 18.0971 18.7175 17.7915C18.7308 17.4859 18.5074 17.3269 18.2448 17.3269C17.9821 17.3269 17.7341 17.4859 17.7208 17.7915C17.7075 18.0971 17.9302 18.2561 18.1922 18.2561ZM16.95 24.5605C18.1695 24.5723 19.1402 22.8976 19.6383 21.7482C19.73 21.5528 19.3497 21.3938 19.2845 21.541C18.8384 22.6409 17.8809 23.9611 17.1468 23.9858C16.7532 23.9982 16.8443 23.5819 16.9759 23.0814C17.2385 22.0792 17.3828 21.5893 17.9885 19.5966C18.041 19.4012 17.3556 19.2057 17.267 19.5113C16.7291 21.3084 16.5076 22.0297 16.2178 23.1668C15.9925 24.0588 16.1893 24.5481 16.95 24.5605Z" fill="#152216"/>
<path d="M20.3338 24.526C21.5925 24.4987 22.6158 23.2138 23.2847 21.4136C23.3632 21.2107 22.9961 21.0357 22.9436 21.1705C22.5759 22.1993 21.5792 23.8492 20.5306 23.8492C19.7712 23.8492 19.7041 22.8346 19.992 21.4551C20.1104 20.873 20.3084 20.1015 20.5166 19.3301H21.9722C22.1165 19.3171 22.2481 18.8432 22.0513 18.7356H20.6749C21.0153 17.6394 21.371 16.5574 21.6583 15.8132C21.75 15.5695 21.0546 15.3672 20.9622 15.5967C20.6337 16.4089 20.2142 17.5856 19.8731 18.7356H19.2712C19.1136 18.8432 19.0213 19.1952 19.2446 19.3301H19.7205C19.1795 21.3734 18.3137 24.5662 20.3338 24.526Z" fill="#152216"/>
<path d="M26.4583 24.7652H26.1083L25.623 23.6455C25.635 23.7445 25.6445 23.8311 25.6502 23.914C25.6559 23.9969 25.6597 24.0897 25.6597 24.2004V24.7652H25.416V23.3826H25.7584L26.252 24.5035C26.2438 24.4503 26.2355 24.3798 26.2273 24.2926C26.2191 24.2053 26.2153 24.1181 26.2153 24.0309V23.3826H26.4608L26.4583 24.7652Z" fill="#54983C"/>
<path d="M27.6632 23.4365C27.7586 23.4957 27.8333 23.582 27.8771 23.6839C27.9771 23.9345 27.9771 24.2127 27.8771 24.4634C27.8316 24.5646 27.7568 24.6506 27.6619 24.7108C27.5634 24.7697 27.4495 24.7996 27.3341 24.7968C27.2183 24.7999 27.1039 24.7707 27.0044 24.7127C26.9086 24.6535 26.8335 24.5672 26.7892 24.4652C26.6879 24.2153 26.6879 23.937 26.7892 23.687C26.8341 23.5852 26.9093 23.499 27.005 23.4395C27.1054 23.3838 27.2189 23.3545 27.3344 23.3545C27.4499 23.3545 27.5634 23.3838 27.6638 23.4395L27.6632 23.4365ZM27.0835 23.6796C27.0257 23.7621 26.997 23.894 26.9974 24.0755C26.9974 24.4211 27.1094 24.5939 27.3335 24.5939C27.3823 24.5962 27.431 24.5861 27.4746 24.5644C27.5183 24.5427 27.5553 24.5102 27.5822 24.4702C27.6391 24.3879 27.667 24.2555 27.667 24.0736C27.667 23.8918 27.6391 23.7643 27.5822 23.6796C27.5537 23.641 27.5162 23.6096 27.4728 23.5879C27.4295 23.5662 27.3815 23.5549 27.3328 23.5549C27.2841 23.5549 27.2362 23.5662 27.1928 23.5879C27.1495 23.6096 27.112 23.641 27.0835 23.6796Z" fill="#54983C"/>
<path d="M29.7192 23.3826L29.4617 24.7652H29.1092L28.8965 23.6628L28.6731 24.7652H28.3308L28.0776 23.3813H28.346L28.5263 24.5567L28.7573 23.3813H29.044L29.2718 24.5567L29.4686 23.3813L29.7192 23.3826Z" fill="#54983C"/>
</svg>
