<svg width="40" height="40" viewBox="0 0 40 40" fill="none" xmlns="http://www.w3.org/2000/svg">
<circle cx="20" cy="20" r="20" fill="url(#paint0_linear_116_1718)"/>
<path d="M12.2727 25.6058C11.6869 26.1916 11.6869 27.1414 12.2727 27.7272C12.8585 28.313 13.8082 28.313 14.394 27.7272L12.2727 25.6058ZM28.8334 12.6665C28.8334 11.8381 28.1618 11.1665 27.3334 11.1665H13.8334C13.0049 11.1665 12.3334 11.8381 12.3334 12.6665C12.3334 13.4949 13.0049 14.1665 13.8334 14.1665H25.8334V26.1665C25.8334 26.9949 26.5049 27.6665 27.3334 27.6665C28.1618 27.6665 28.8334 26.9949 28.8334 26.1665V12.6665ZM14.394 27.7272L28.394 13.7272L26.2727 11.6058L12.2727 25.6058L14.394 27.7272Z" fill="#446347"/>
<defs>
<linearGradient id="paint0_linear_116_1718" x1="4.65826e-07" y1="19.9061" x2="40" y2="19.9061" gradientUnits="userSpaceOnUse">
<stop stop-color="#79DB92"/>
<stop offset="1" stop-color="#9CCE7C"/>
</linearGradient>
</defs>
</svg>
