<svg width="1440" height="1024" viewBox="0 0 1440 1024" fill="none" xmlns="http://www.w3.org/2000/svg">
<g clip-path="url(#clip0_120_2746)">
<mask id="mask0_120_2746" style="mask-type:luminance" maskUnits="userSpaceOnUse" x="0" y="0" width="1440" height="1024">
<path d="M1440 0H0V1024H1440V0Z" fill="white"/>
</mask>
<g mask="url(#mask0_120_2746)">
<path d="M170.31 1196.88C341.49 1144.57 382.87 664.44 638.71 655.38C894.54 646.32 872.91 783.38 1107.1 783.38C1341.3 783.38 1454.11 656.53 1575.5 655.38" stroke="#AEAEAE" stroke-width="2"/>
<path d="M618.18 1162.93C813.89 1054.91 750.12 483.7 1075.95 394.83C1401.79 305.96 1406.32 175.54 1533.73 169.55" stroke="#AEAEAE" stroke-width="2"/>
<path d="M360.35 1210.09C519.96 1204.13 601.25 976.3 942.87 947.69C1284.49 919.08 1341.64 513.6 1525.39 486.89" stroke="#AEAEAE" stroke-width="2"/>
<path d="M746.51 1214.94C868.29 1208.64 907.47 1032.27 1180.9 993.09C1454.33 953.91 1462.13 572.37 1615.29 532.29" stroke="#AEAEAE" stroke-width="2"/>
<path d="M673.58 1147.86C859.22 1050.9 800.54 521.42 1114.58 435.6C1428.62 349.78 1429.63 197.95 1555.58 189.84" stroke="#AEAEAE" stroke-width="2"/>
</g>
</g>
<defs>
<clipPath id="clip0_120_2746">
<rect width="1440" height="1024" fill="white"/>
</clipPath>
</defs>
</svg>
