<svg width="1440" height="1024" viewBox="0 0 1440 1024" fill="none" xmlns="http://www.w3.org/2000/svg">
<mask id="mask0_78_784" style="mask-type:luminance" maskUnits="userSpaceOnUse" x="0" y="0" width="1440" height="1024">
<path d="M0 0H1440V1024H0V0Z" fill="white"/>
</mask>
<g mask="url(#mask0_78_784)">
<path d="M1508.82 694.16L1384.91 704.9" stroke="#9CCE7C" stroke-width="1.5"/>
<path d="M1516.55 849.16L1368.55 817.22" stroke="#9CCE7C" stroke-width="1.5"/>
<path d="M1516.55 849.16L1384.91 704.9" stroke="#9CCE7C" stroke-width="1.5"/>
<path d="M1524.09 1114.94L1374.16 1009.54" stroke="#9CCE7C" stroke-width="1.5"/>
<path d="M1384.91 704.9L1368.55 817.22" stroke="#9CCE7C" stroke-width="1.5"/>
<path d="M1384.91 704.9L1217.25 673.36" stroke="#9CCE7C" stroke-width="1.5"/>
<path d="M1384.91 704.9L1237.42 795.01" stroke="#9CCE7C" stroke-width="1.5"/>
<path d="M1384.91 704.9L1536.07 953.19" stroke="#9CCE7C" stroke-width="1.5"/>
<path d="M1368.55 817.22L1237.42 795.01" stroke="#9CCE7C" stroke-width="1.5"/>
<path d="M1374.16 1009.54L1333.17 1096.06" stroke="#9CCE7C" stroke-width="1.5"/>
<path d="M1374.16 1009.54L1225.77 968.74" stroke="#9CCE7C" stroke-width="1.5"/>
<path d="M1374.16 1009.54L1536.07 953.19" stroke="#9CCE7C" stroke-width="1.5"/>
<path d="M1217.25 673.36L1237.42 795.01" stroke="#9CCE7C" stroke-width="1.5"/>
<path d="M1217.25 673.36L1074.19 638.67" stroke="#9CCE7C" stroke-width="1.5"/>
<path d="M1217.25 673.36L1368.55 817.22" stroke="#9CCE7C" stroke-width="1.5"/>
<path d="M1225.77 968.74L1094.43 942.73" stroke="#9CCE7C" stroke-width="1.5"/>
<path d="M1225.77 968.74L1333.17 1096.06" stroke="#9CCE7C" stroke-width="1.5"/>
<path d="M1179.89 1140.11L1225.77 968.74" stroke="#9CCE7C" stroke-width="1.5"/>
<path d="M1179.89 1140.11L1094.43 942.73" stroke="#9CCE7C" stroke-width="1.5"/>
<path d="M1179.89 1140.11L1374.16 1009.54" stroke="#9CCE7C" stroke-width="1.5"/>
<path d="M1074.19 638.67L929.58 706.15" stroke="#9CCE7C" stroke-width="1.5"/>
<path d="M1074.19 638.67L910.98 511.89" stroke="#9CCE7C" stroke-width="1.5"/>
<path d="M1078.89 857.87L1094.43 942.73" stroke="#9CCE7C" stroke-width="1.5"/>
<path d="M1078.89 857.87L925.52 790.83" stroke="#9CCE7C" stroke-width="1.5"/>
<path d="M1078.89 857.87L1237.42 795.01" stroke="#9CCE7C" stroke-width="1.5"/>
<path d="M1078.89 857.87L1225.77 968.74" stroke="#9CCE7C" stroke-width="1.5"/>
<path d="M1078.89 857.87L929.58 706.15" stroke="#9CCE7C" stroke-width="1.5"/>
<path d="M1078.89 857.87L1074.19 638.67" stroke="#9CCE7C" stroke-width="1.5"/>
<path d="M1094.43 942.73L911.55 1000.33" stroke="#9CCE7C" stroke-width="1.5"/>
<path d="M1094.43 942.73L1237.42 795.01" stroke="#9CCE7C" stroke-width="1.5"/>
<path d="M910.98 511.89L741.45 492.6" stroke="#9CCE7C" stroke-width="1.5"/>
<path d="M910.98 511.89L929.58 706.15" stroke="#9CCE7C" stroke-width="1.5"/>
<path d="M910.98 511.89L767.56 675.74" stroke="#9CCE7C" stroke-width="1.5"/>
<path d="M910.98 511.89L925.52 790.83" stroke="#9CCE7C" stroke-width="1.5"/>
<path d="M910.98 511.89L650.17 407.07" stroke="#9CCE7C" stroke-width="1.5"/>
<path d="M929.58 706.15L925.52 790.83" stroke="#9CCE7C" stroke-width="1.5"/>
<path d="M929.58 706.15L767.56 675.74" stroke="#9CCE7C" stroke-width="1.5"/>
<path d="M925.52 790.83L770.27 810.18" stroke="#9CCE7C" stroke-width="1.5"/>
<path d="M925.52 790.83L767.56 675.74" stroke="#9CCE7C" stroke-width="1.5"/>
<path d="M925.52 790.83L911.55 1000.33" stroke="#9CCE7C" stroke-width="1.5"/>
<path d="M925.52 790.83L1074.19 638.67" stroke="#9CCE7C" stroke-width="1.5"/>
<path d="M911.55 1000.33L914.99 1119.6" stroke="#9CCE7C" stroke-width="1.5"/>
<path d="M911.55 1000.33L758.02 1006.95" stroke="#9CCE7C" stroke-width="1.5"/>
<path d="M741.45 492.6L650.17 407.07" stroke="#9CCE7C" stroke-width="1.5"/>
<path d="M741.45 492.6L579.29 523.85" stroke="#9CCE7C" stroke-width="1.5"/>
<path d="M767.56 675.74L770.27 810.18" stroke="#9CCE7C" stroke-width="1.5"/>
<path d="M767.56 675.74L592.85 711.16" stroke="#9CCE7C" stroke-width="1.5"/>
<path d="M767.56 675.74L741.45 492.6" stroke="#9CCE7C" stroke-width="1.5"/>
<path d="M767.56 675.74L632.46 803.59" stroke="#9CCE7C" stroke-width="1.5"/>
<path d="M770.27 810.18L632.46 803.59" stroke="#9CCE7C" stroke-width="1.5"/>
<path d="M770.27 810.18L929.58 706.15" stroke="#9CCE7C" stroke-width="1.5"/>
<path d="M758.02 1006.95L758.86 1104.19" stroke="#9CCE7C" stroke-width="1.5"/>
<path d="M758.02 1006.95L914.99 1119.6" stroke="#9CCE7C" stroke-width="1.5"/>
<path d="M758.02 1006.95L770.27 810.18" stroke="#9CCE7C" stroke-width="1.5"/>
<path d="M758.02 1006.95L607.95 1143.32" stroke="#9CCE7C" stroke-width="1.5"/>
<path d="M758.02 1006.95L632.46 803.59" stroke="#9CCE7C" stroke-width="1.5"/>
<path d="M650.17 407.07L579.29 523.85" stroke="#9CCE7C" stroke-width="1.5"/>
<path d="M650.17 407.07L489.01 407.04" stroke="#9CCE7C" stroke-width="1.5"/>
<path d="M650.17 407.07L435.25 551.37" stroke="#9CCE7C" stroke-width="1.5"/>
<path d="M650.17 407.07L452.7 212.29" stroke="#9CCE7C" stroke-width="1.5"/>
<path d="M579.29 523.85L435.25 551.37" stroke="#9CCE7C" stroke-width="1.5"/>
<path d="M592.85 711.16L632.46 803.59" stroke="#9CCE7C" stroke-width="1.5"/>
<path d="M592.85 711.16L475.33 710.04" stroke="#9CCE7C" stroke-width="1.5"/>
<path d="M592.85 711.16L454.33 797.95" stroke="#9CCE7C" stroke-width="1.5"/>
<path d="M632.46 803.59L454.33 797.95" stroke="#9CCE7C" stroke-width="1.5"/>
<path d="M632.46 803.59L475.33 710.04" stroke="#9CCE7C" stroke-width="1.5"/>
<path d="M476.43 -79.5302L458.34 69.8598" stroke="#9CCE7C" stroke-width="1.5"/>
<path d="M476.43 -79.5302L345.11 66.5898" stroke="#9CCE7C" stroke-width="1.5"/>
<path d="M476.43 -79.5302L452.7 212.29" stroke="#9CCE7C" stroke-width="1.5"/>
<path d="M476.43 -79.5302L318.06 248.46" stroke="#9CCE7C" stroke-width="1.5"/>
<path d="M458.34 69.86L345.11 66.59" stroke="#9CCE7C" stroke-width="1.5"/>
<path d="M458.34 69.86L452.7 212.29" stroke="#9CCE7C" stroke-width="1.5"/>
<path d="M452.7 212.29L318.06 248.46" stroke="#9CCE7C" stroke-width="1.5"/>
<path d="M452.7 212.29L345.11 66.59" stroke="#9CCE7C" stroke-width="1.5"/>
<path d="M452.7 212.29L489.01 407.04" stroke="#9CCE7C" stroke-width="1.5"/>
<path d="M452.7 212.29L291.16 403.15" stroke="#9CCE7C" stroke-width="1.5"/>
<path d="M489.01 407.04L579.29 523.85" stroke="#9CCE7C" stroke-width="1.5"/>
<path d="M489.01 407.04L435.25 551.37" stroke="#9CCE7C" stroke-width="1.5"/>
<path d="M435.25 551.37L289.5 498.97" stroke="#9CCE7C" stroke-width="1.5"/>
<path d="M475.33 710.04L454.33 797.95" stroke="#9CCE7C" stroke-width="1.5"/>
<path d="M475.33 710.04L435.25 551.37" stroke="#9CCE7C" stroke-width="1.5"/>
<path d="M475.33 710.04L350.99 835.19" stroke="#9CCE7C" stroke-width="1.5"/>
<path d="M454.33 797.95L350.99 835.19" stroke="#9CCE7C" stroke-width="1.5"/>
<path d="M454.33 797.95L297.78 953.44" stroke="#9CCE7C" stroke-width="1.5"/>
<path d="M303.52 -70.2001L345.11 66.5899" stroke="#9CCE7C" stroke-width="1.5"/>
<path d="M303.52 -70.2001L458.34 69.8599" stroke="#9CCE7C" stroke-width="1.5"/>
<path d="M303.52 -70.2001L145.12 86.1999" stroke="#9CCE7C" stroke-width="1.5"/>
<path d="M345.11 66.59L318.06 248.46" stroke="#9CCE7C" stroke-width="1.5"/>
<path d="M318.06 248.46L291.16 403.15" stroke="#9CCE7C" stroke-width="1.5"/>
<path d="M318.06 248.46L183.12 371.45" stroke="#9CCE7C" stroke-width="1.5"/>
<path d="M318.06 248.46L127.54 215.37" stroke="#9CCE7C" stroke-width="1.5"/>
<path d="M318.06 248.46L458.34 69.86" stroke="#9CCE7C" stroke-width="1.5"/>
<path d="M291.16 403.15L289.5 498.97" stroke="#9CCE7C" stroke-width="1.5"/>
<path d="M291.16 403.15L183.12 371.45" stroke="#9CCE7C" stroke-width="1.5"/>
<path d="M291.16 403.15L189.71 508.8" stroke="#9CCE7C" stroke-width="1.5"/>
<path d="M289.5 498.97L189.71 508.8" stroke="#9CCE7C" stroke-width="1.5"/>
<path d="M289.5 498.97L277.51 648.18" stroke="#9CCE7C" stroke-width="1.5"/>
<path d="M289.5 498.97L183.12 371.45" stroke="#9CCE7C" stroke-width="1.5"/>
<path d="M289.5 498.97L489.01 407.04" stroke="#9CCE7C" stroke-width="1.5"/>
<path d="M277.51 648.18L132.74 677.02" stroke="#9CCE7C" stroke-width="1.5"/>
<path d="M277.51 648.18L189.71 508.8" stroke="#9CCE7C" stroke-width="1.5"/>
<path d="M350.99 835.19L297.78 953.44" stroke="#9CCE7C" stroke-width="1.5"/>
<path d="M297.78 953.44L296.15 1106.72" stroke="#9CCE7C" stroke-width="1.5"/>
<path d="M297.78 953.44L128.7 942.66" stroke="#9CCE7C" stroke-width="1.5"/>
<path d="M297.78 953.44L157.47 814.52" stroke="#9CCE7C" stroke-width="1.5"/>
<path d="M297.78 953.44L434.92 1117.04" stroke="#9CCE7C" stroke-width="1.5"/>
<path d="M296.15 1106.72L128.7 942.66" stroke="#9CCE7C" stroke-width="1.5"/>
<path d="M296.15 1106.72L350.99 835.19" stroke="#9CCE7C" stroke-width="1.5"/>
<path d="M296.15 1106.72L32.1998 1012.39" stroke="#9CCE7C" stroke-width="1.5"/>
<path d="M129.34 -63.2301L145.12 86.1999" stroke="#9CCE7C" stroke-width="1.5"/>
<path d="M129.34 -63.2301L345.11 66.5899" stroke="#9CCE7C" stroke-width="1.5"/>
<path d="M145.12 86.2001L127.54 215.37" stroke="#9CCE7C" stroke-width="1.5"/>
<path d="M145.12 86.2001L32.1799 208.67" stroke="#9CCE7C" stroke-width="1.5"/>
<path d="M127.54 215.37L32.1799 208.67" stroke="#9CCE7C" stroke-width="1.5"/>
<path d="M183.12 371.45L189.71 508.8" stroke="#9CCE7C" stroke-width="1.5"/>
<path d="M183.12 371.45L127.54 215.37" stroke="#9CCE7C" stroke-width="1.5"/>
<path d="M132.74 677.02L9.41992 670.94" stroke="#9CCE7C" stroke-width="1.5"/>
<path d="M132.74 677.02L157.47 814.52" stroke="#9CCE7C" stroke-width="1.5"/>
<path d="M132.74 677.02L189.71 508.8" stroke="#9CCE7C" stroke-width="1.5"/>
<path d="M157.47 814.52L128.7 942.66" stroke="#9CCE7C" stroke-width="1.5"/>
<path d="M157.47 814.52L-7.15015 857.31" stroke="#9CCE7C" stroke-width="1.5"/>
<path d="M157.47 814.52L350.99 835.19" stroke="#9CCE7C" stroke-width="1.5"/>
<path d="M128.7 942.66L32.1998 1012.39" stroke="#9CCE7C" stroke-width="1.5"/>
<path d="M41.6299 -80.9L145.12 86.2" stroke="#9CCE7C" stroke-width="1.5"/>
<path d="M41.6298 -80.9L-153.57 50.68" stroke="#9CCE7C" stroke-width="1.5"/>
<path d="M32.1801 208.67L-111.65 261.14" stroke="#9CCE7C" stroke-width="1.5"/>
<path d="M32.1801 208.67L-2.88 393.87" stroke="#9CCE7C" stroke-width="1.5"/>
<path d="M32.1801 208.67L-115.09 364.87" stroke="#9CCE7C" stroke-width="1.5"/>
<path d="M32.1799 208.67L183.12 371.45" stroke="#9CCE7C" stroke-width="1.5"/>
<path d="M-2.88 393.87L10.6801 527.46" stroke="#9CCE7C" stroke-width="1.5"/>
<path d="M10.6801 527.46L-119.96 501.39" stroke="#9CCE7C" stroke-width="1.5"/>
<path d="M10.6801 527.46L9.42004 670.94" stroke="#9CCE7C" stroke-width="1.5"/>
<path d="M10.6801 527.46L-101.17 643.87" stroke="#9CCE7C" stroke-width="1.5"/>
<path d="M9.4198 670.94L-101.17 643.87" stroke="#9CCE7C" stroke-width="1.5"/>
<path d="M9.4198 670.94L-7.15027 857.31" stroke="#9CCE7C" stroke-width="1.5"/>
<path d="M-7.15015 857.31L32.1998 1012.39" stroke="#9CCE7C" stroke-width="1.5"/>
<path d="M-7.15015 857.31L128.7 942.66" stroke="#9CCE7C" stroke-width="1.5"/>
<path d="M-143.71 -50.7601L32.1801 208.67" stroke="#9CCE7C" stroke-width="1.5"/>
<path d="M-143.71 -50.7601L145.12 86.1999" stroke="#9CCE7C" stroke-width="1.5"/>
<path d="M-111.65 261.14L127.54 215.37" stroke="#9CCE7C" stroke-width="1.5"/>
<path d="M-115.09 364.87L10.6801 527.46" stroke="#9CCE7C" stroke-width="1.5"/>
<path d="M-101.17 643.87L132.74 677.02" stroke="#9CCE7C" stroke-width="1.5"/>
<path d="M-147.95 939.3L32.1998 1012.39" stroke="#9CCE7C" stroke-width="1.5"/>
<path d="M-147.95 939.3L128.7 942.66" stroke="#9CCE7C" stroke-width="1.5"/>
<path d="M-165.14 1106.25L32.1998 1012.39" stroke="#9CCE7C" stroke-width="1.5"/>
<path d="M1384.91 709.9C1382.15 709.9 1379.91 707.661 1379.91 704.9C1379.91 702.139 1382.15 699.9 1384.91 699.9C1387.67 699.9 1389.91 702.139 1389.91 704.9C1389.91 707.661 1387.67 709.9 1384.91 709.9Z" fill="#9CCE7C"/>
<path d="M1368.55 822.22C1365.79 822.22 1363.55 819.982 1363.55 817.22C1363.55 814.459 1365.79 812.22 1368.55 812.22C1371.31 812.22 1373.55 814.459 1373.55 817.22C1373.55 819.982 1371.31 822.22 1368.55 822.22Z" fill="#9CCE7C"/>
<path d="M1374.16 1014.54C1371.4 1014.54 1369.16 1012.3 1369.16 1009.54C1369.16 1006.78 1371.4 1004.54 1374.16 1004.54C1376.92 1004.54 1379.16 1006.78 1379.16 1009.54C1379.16 1012.3 1376.92 1014.54 1374.16 1014.54Z" fill="#9CCE7C"/>
<path d="M1217.25 678.36C1214.49 678.36 1212.25 676.121 1212.25 673.36C1212.25 670.599 1214.49 668.36 1217.25 668.36C1220.01 668.36 1222.25 670.599 1222.25 673.36C1222.25 676.121 1220.01 678.36 1217.25 678.36Z" fill="#9CCE7C"/>
<path d="M1237.42 800.01C1234.66 800.01 1232.42 797.772 1232.42 795.01C1232.42 792.249 1234.66 790.01 1237.42 790.01C1240.18 790.01 1242.42 792.249 1242.42 795.01C1242.42 797.772 1240.18 800.01 1237.42 800.01Z" fill="#9CCE7C"/>
<path d="M1225.77 973.74C1223.01 973.74 1220.77 971.501 1220.77 968.74C1220.77 965.979 1223.01 963.74 1225.77 963.74C1228.53 963.74 1230.77 965.979 1230.77 968.74C1230.77 971.501 1228.53 973.74 1225.77 973.74Z" fill="#9CCE7C"/>
<path d="M1074.19 643.67C1071.43 643.67 1069.19 641.431 1069.19 638.67C1069.19 635.909 1071.43 633.67 1074.19 633.67C1076.95 633.67 1079.19 635.909 1079.19 638.67C1079.19 641.431 1076.95 643.67 1074.19 643.67Z" fill="#9CCE7C"/>
<path d="M1078.89 862.87C1076.13 862.87 1073.89 860.632 1073.89 857.87C1073.89 855.109 1076.13 852.87 1078.89 852.87C1081.65 852.87 1083.89 855.109 1083.89 857.87C1083.89 860.632 1081.65 862.87 1078.89 862.87Z" fill="#9CCE7C"/>
<path d="M1094.43 947.73C1091.67 947.73 1089.43 945.491 1089.43 942.73C1089.43 939.969 1091.67 937.73 1094.43 937.73C1097.19 937.73 1099.43 939.969 1099.43 942.73C1099.43 945.491 1097.19 947.73 1094.43 947.73Z" fill="#9CCE7C"/>
<path d="M910.98 516.89C908.218 516.89 905.98 514.651 905.98 511.89C905.98 509.129 908.218 506.89 910.98 506.89C913.741 506.89 915.98 509.129 915.98 511.89C915.98 514.651 913.741 516.89 910.98 516.89Z" fill="#9CCE7C"/>
<path d="M929.58 711.15C926.818 711.15 924.58 708.911 924.58 706.15C924.58 703.389 926.818 701.15 929.58 701.15C932.341 701.15 934.58 703.389 934.58 706.15C934.58 708.911 932.341 711.15 929.58 711.15Z" fill="#9CCE7C"/>
<path d="M925.52 795.83C922.759 795.83 920.52 793.592 920.52 790.83C920.52 788.069 922.759 785.83 925.52 785.83C928.281 785.83 930.52 788.069 930.52 790.83C930.52 793.592 928.281 795.83 925.52 795.83Z" fill="#9CCE7C"/>
<path d="M911.55 1005.33C908.789 1005.33 906.55 1003.09 906.55 1000.33C906.55 997.569 908.789 995.33 911.55 995.33C914.311 995.33 916.55 997.569 916.55 1000.33C916.55 1003.09 914.311 1005.33 911.55 1005.33Z" fill="#9CCE7C"/>
<path d="M741.45 497.6C738.688 497.6 736.45 495.361 736.45 492.6C736.45 489.839 738.688 487.6 741.45 487.6C744.211 487.6 746.45 489.839 746.45 492.6C746.45 495.361 744.211 497.6 741.45 497.6Z" fill="#9CCE7C"/>
<path d="M767.56 680.74C764.799 680.74 762.56 678.502 762.56 675.74C762.56 672.979 764.799 670.74 767.56 670.74C770.321 670.74 772.56 672.979 772.56 675.74C772.56 678.502 770.321 680.74 767.56 680.74Z" fill="#9CCE7C"/>
<path d="M770.27 815.18C767.508 815.18 765.27 812.941 765.27 810.18C765.27 807.419 767.508 805.18 770.27 805.18C773.031 805.18 775.27 807.419 775.27 810.18C775.27 812.941 773.031 815.18 770.27 815.18Z" fill="#9CCE7C"/>
<path d="M758.02 1011.95C755.258 1011.95 753.02 1009.71 753.02 1006.95C753.02 1004.19 755.258 1001.95 758.02 1001.95C760.781 1001.95 763.02 1004.19 763.02 1006.95C763.02 1009.71 760.781 1011.95 758.02 1011.95Z" fill="#9CCE7C"/>
<path d="M650.17 412.07C647.408 412.07 645.17 409.831 645.17 407.07C645.17 404.309 647.408 402.07 650.17 402.07C652.931 402.07 655.17 404.309 655.17 407.07C655.17 409.831 652.931 412.07 650.17 412.07Z" fill="#9CCE7C"/>
<path d="M579.29 528.85C576.528 528.85 574.29 526.611 574.29 523.85C574.29 521.089 576.528 518.85 579.29 518.85C582.051 518.85 584.29 521.089 584.29 523.85C584.29 526.611 582.051 528.85 579.29 528.85Z" fill="#9CCE7C"/>
<path d="M592.85 716.16C590.088 716.16 587.85 713.921 587.85 711.16C587.85 708.399 590.088 706.16 592.85 706.16C595.611 706.16 597.85 708.399 597.85 711.16C597.85 713.921 595.611 716.16 592.85 716.16Z" fill="#9CCE7C"/>
<path d="M632.46 808.59C629.698 808.59 627.46 806.352 627.46 803.59C627.46 800.829 629.698 798.59 632.46 798.59C635.221 798.59 637.46 800.829 637.46 803.59C637.46 806.352 635.221 808.59 632.46 808.59Z" fill="#9CCE7C"/>
<path d="M458.34 74.86C455.578 74.86 453.34 72.6214 453.34 69.86C453.34 67.0986 455.578 64.86 458.34 64.86C461.101 64.86 463.34 67.0986 463.34 69.86C463.34 72.6214 461.101 74.86 458.34 74.86Z" fill="#9CCE7C"/>
<path d="M452.7 217.29C449.938 217.29 447.7 215.051 447.7 212.29C447.7 209.528 449.938 207.29 452.7 207.29C455.461 207.29 457.7 209.528 457.7 212.29C457.7 215.051 455.461 217.29 452.7 217.29Z" fill="#9CCE7C"/>
<path d="M489.01 412.04C486.248 412.04 484.01 409.801 484.01 407.04C484.01 404.278 486.248 402.04 489.01 402.04C491.771 402.04 494.01 404.278 494.01 407.04C494.01 409.801 491.771 412.04 489.01 412.04Z" fill="#9CCE7C"/>
<path d="M435.25 556.37C432.488 556.37 430.25 554.131 430.25 551.37C430.25 548.609 432.488 546.37 435.25 546.37C438.011 546.37 440.25 548.609 440.25 551.37C440.25 554.131 438.011 556.37 435.25 556.37Z" fill="#9CCE7C"/>
<path d="M475.33 715.04C472.568 715.04 470.33 712.802 470.33 710.04C470.33 707.279 472.568 705.04 475.33 705.04C478.091 705.04 480.33 707.279 480.33 710.04C480.33 712.802 478.091 715.04 475.33 715.04Z" fill="#9CCE7C"/>
<path d="M454.33 802.95C451.568 802.95 449.33 800.711 449.33 797.95C449.33 795.189 451.568 792.95 454.33 792.95C457.091 792.95 459.33 795.189 459.33 797.95C459.33 800.711 457.091 802.95 454.33 802.95Z" fill="#9CCE7C"/>
<path d="M345.11 71.59C342.348 71.59 340.11 69.3514 340.11 66.59C340.11 63.8285 342.348 61.59 345.11 61.59C347.871 61.59 350.11 63.8285 350.11 66.59C350.11 69.3514 347.871 71.59 345.11 71.59Z" fill="#9CCE7C"/>
<path d="M318.06 253.46C315.299 253.46 313.06 251.221 313.06 248.46C313.06 245.699 315.299 243.46 318.06 243.46C320.821 243.46 323.06 245.699 323.06 248.46C323.06 251.221 320.821 253.46 318.06 253.46Z" fill="#9CCE7C"/>
<path d="M291.16 408.15C288.398 408.15 286.16 405.911 286.16 403.15C286.16 400.389 288.398 398.15 291.16 398.15C293.921 398.15 296.16 400.389 296.16 403.15C296.16 405.911 293.921 408.15 291.16 408.15Z" fill="#9CCE7C"/>
<path d="M289.5 503.97C286.738 503.97 284.5 501.732 284.5 498.97C284.5 496.209 286.738 493.97 289.5 493.97C292.261 493.97 294.5 496.209 294.5 498.97C294.5 501.732 292.261 503.97 289.5 503.97Z" fill="#9CCE7C"/>
<path d="M277.51 653.18C274.748 653.18 272.51 650.941 272.51 648.18C272.51 645.419 274.748 643.18 277.51 643.18C280.271 643.18 282.51 645.419 282.51 648.18C282.51 650.941 280.271 653.18 277.51 653.18Z" fill="#9CCE7C"/>
<path d="M350.99 840.19C348.228 840.19 345.99 837.951 345.99 835.19C345.99 832.429 348.228 830.19 350.99 830.19C353.751 830.19 355.99 832.429 355.99 835.19C355.99 837.951 353.751 840.19 350.99 840.19Z" fill="#9CCE7C"/>
<path d="M297.78 958.44C295.018 958.44 292.78 956.201 292.78 953.44C292.78 950.679 295.018 948.44 297.78 948.44C300.541 948.44 302.78 950.679 302.78 953.44C302.78 956.201 300.541 958.44 297.78 958.44Z" fill="#9CCE7C"/>
<path d="M145.12 91.2001C142.358 91.2001 140.12 88.9615 140.12 86.2001C140.12 83.4386 142.358 81.2001 145.12 81.2001C147.881 81.2001 150.12 83.4386 150.12 86.2001C150.12 88.9615 147.881 91.2001 145.12 91.2001Z" fill="#9CCE7C"/>
<path d="M127.54 220.37C124.778 220.37 122.54 218.131 122.54 215.37C122.54 212.609 124.778 210.37 127.54 210.37C130.301 210.37 132.54 212.609 132.54 215.37C132.54 218.131 130.301 220.37 127.54 220.37Z" fill="#9CCE7C"/>
<path d="M183.12 376.45C180.358 376.45 178.12 374.211 178.12 371.45C178.12 368.689 180.358 366.45 183.12 366.45C185.881 366.45 188.12 368.689 188.12 371.45C188.12 374.211 185.881 376.45 183.12 376.45Z" fill="#9CCE7C"/>
<path d="M189.71 513.8C186.948 513.8 184.71 511.561 184.71 508.8C184.71 506.039 186.948 503.8 189.71 503.8C192.471 503.8 194.71 506.039 194.71 508.8C194.71 511.561 192.471 513.8 189.71 513.8Z" fill="#9CCE7C"/>
<path d="M132.74 682.02C129.978 682.02 127.74 679.782 127.74 677.02C127.74 674.259 129.978 672.02 132.74 672.02C135.501 672.02 137.74 674.259 137.74 677.02C137.74 679.782 135.501 682.02 132.74 682.02Z" fill="#9CCE7C"/>
<path d="M157.47 819.52C154.708 819.52 152.47 817.282 152.47 814.52C152.47 811.759 154.708 809.52 157.47 809.52C160.231 809.52 162.47 811.759 162.47 814.52C162.47 817.282 160.231 819.52 157.47 819.52Z" fill="#9CCE7C"/>
<path d="M128.7 947.66C125.938 947.66 123.7 945.421 123.7 942.66C123.7 939.898 125.938 937.66 128.7 937.66C131.461 937.66 133.7 939.898 133.7 942.66C133.7 945.421 131.461 947.66 128.7 947.66Z" fill="#9CCE7C"/>
<path d="M32.1801 213.67C29.4186 213.67 27.1801 211.431 27.1801 208.67C27.1801 205.908 29.4186 203.67 32.1801 203.67C34.9415 203.67 37.1801 205.908 37.1801 208.67C37.1801 211.431 34.9415 213.67 32.1801 213.67Z" fill="#9CCE7C"/>
<path d="M-2.88 398.87C-5.64143 398.87 -7.88 396.631 -7.88 393.87C-7.88 391.109 -5.64143 388.87 -2.88 388.87C-0.118581 388.87 2.12 391.109 2.12 393.87C2.12 396.631 -0.118581 398.87 -2.88 398.87Z" fill="#9CCE7C"/>
<path d="M10.6801 532.46C7.91863 532.46 5.68005 530.222 5.68005 527.46C5.68005 524.699 7.91863 522.46 10.6801 522.46C13.4415 522.46 15.6801 524.699 15.6801 527.46C15.6801 530.222 13.4415 532.46 10.6801 532.46Z" fill="#9CCE7C"/>
<path d="M9.4198 675.94C6.65838 675.94 4.4198 673.701 4.4198 670.94C4.4198 668.179 6.65838 665.94 9.4198 665.94C12.1812 665.94 14.4198 668.179 14.4198 670.94C14.4198 673.701 12.1812 675.94 9.4198 675.94Z" fill="#9CCE7C"/>
<path d="M32.1998 1017.39C29.4384 1017.39 27.1998 1015.15 27.1998 1012.39C27.1998 1009.63 29.4384 1007.39 32.1998 1007.39C34.9613 1007.39 37.1998 1009.63 37.1998 1012.39C37.1998 1015.15 34.9613 1017.39 32.1998 1017.39Z" fill="#9CCE7C"/>
<path d="M1332.33 1138.31L1396.75 939.71" stroke="#69C36E" stroke-width="1.5"/>
<path d="M1332.33 1138.31L1232.27 952.12" stroke="#69C36E" stroke-width="1.5"/>
<path d="M1332.33 1138.31L1549.86 1010.41" stroke="#69C36E" stroke-width="1.5"/>
<path d="M1332.33 1138.31L1091.77 971.73" stroke="#69C36E" stroke-width="1.5"/>
<path d="M1232.27 952.12L1091.77 971.73" stroke="#69C36E" stroke-width="1.5"/>
<path d="M1232.27 952.12L1396.75 939.71" stroke="#69C36E" stroke-width="1.5"/>
<path d="M1232.27 952.12L1095.42 816.73" stroke="#69C36E" stroke-width="1.5"/>
<path d="M1033.25 1107.74L1091.77 971.73" stroke="#69C36E" stroke-width="1.5"/>
<path d="M1033.25 1107.74L1232.27 952.12" stroke="#69C36E" stroke-width="1.5"/>
<path d="M1033.25 1107.74L784.75 973.58" stroke="#69C36E" stroke-width="1.5"/>
<path d="M931.95 807.43L1095.42 816.73" stroke="#69C36E" stroke-width="1.5"/>
<path d="M931.95 807.43L763.21 838.11" stroke="#69C36E" stroke-width="1.5"/>
<path d="M931.95 807.43L777.02 687.22" stroke="#69C36E" stroke-width="1.5"/>
<path d="M478.18 1102.22L447.91 956.11" stroke="#69C36E" stroke-width="1.5"/>
<path d="M478.18 1102.22L298.04 1006.62" stroke="#69C36E" stroke-width="1.5"/>
<path d="M277.81 510.59L290.77 651.26" stroke="#69C36E" stroke-width="1.5"/>
<path d="M277.81 510.59L428.18 533.18" stroke="#69C36E" stroke-width="1.5"/>
<path d="M277.81 510.59L130.74 549.72" stroke="#69C36E" stroke-width="1.5"/>
<path d="M277.81 510.59L198.23 645.89" stroke="#69C36E" stroke-width="1.5"/>
<path d="M277.81 510.59L20.1299 525.04" stroke="#69C36E" stroke-width="1.5"/>
<path d="M290.77 651.26L198.23 645.89" stroke="#69C36E" stroke-width="1.5"/>
<path d="M290.77 651.26L428.18 533.18" stroke="#69C36E" stroke-width="1.5"/>
<path d="M158.2 39.7099L170.05 -86.2701" stroke="#69C36E" stroke-width="1.5"/>
<path d="M158.2 39.7098L-9.78015 47.5798" stroke="#69C36E" stroke-width="1.5"/>
<path d="M158.2 39.71L278.77 -86.62" stroke="#69C36E" stroke-width="1.5"/>
<path d="M158.2 39.7098L175.82 217.34" stroke="#69C36E" stroke-width="1.5"/>
<path d="M20.1299 525.04L130.74 549.72" stroke="#69C36E" stroke-width="1.5"/>
<path d="M20.1299 525.04L37.2499 407.29" stroke="#69C36E" stroke-width="1.5"/>
<path d="M20.1298 525.04L-130.26 526.4" stroke="#69C36E" stroke-width="1.5"/>
<path d="M20.1299 525.04L34.6998 676.13" stroke="#69C36E" stroke-width="1.5"/>
<path d="M2.08984 990.75L5.99988 1107.5" stroke="#69C36E" stroke-width="1.5"/>
<path d="M2.08972 990.75L-137.19 954.54" stroke="#69C36E" stroke-width="1.5"/>
<path d="M2.08984 990.75L149.29 950.39" stroke="#69C36E" stroke-width="1.5"/>
<path d="M2.08972 990.75L30.1698 824.08" stroke="#69C36E" stroke-width="1.5"/>
<path d="M2.08972 990.75L-147.67 1104.04" stroke="#69C36E" stroke-width="1.5"/>
<path d="M5.99988 1107.5L-137.19 954.54" stroke="#69C36E" stroke-width="1.5"/>
<path d="M-168.01 198.59L37.4198 243.82" stroke="#69C36E" stroke-width="1.5"/>
<path d="M1549.86 1010.41L1396.75 939.71" stroke="#69C36E" stroke-width="1.5"/>
<path d="M1522.28 1160.33L1396.75 939.71" stroke="#69C36E" stroke-width="1.5"/>
<path d="M1214.8 1151.33L1232.27 952.12" stroke="#69C36E" stroke-width="1.5"/>
<path d="M1214.8 1151.33L1091.77 971.73" stroke="#69C36E" stroke-width="1.5"/>
<path d="M1214.8 1151.33L1396.75 939.71" stroke="#69C36E" stroke-width="1.5"/>
<path d="M1095.42 816.73L1091.77 971.73" stroke="#69C36E" stroke-width="1.5"/>
<path d="M777.02 687.22L763.21 838.11" stroke="#69C36E" stroke-width="1.5"/>
<path d="M777.02 687.22L585.23 684.81" stroke="#69C36E" stroke-width="1.5"/>
<path d="M777.02 687.22L623.05 812.8" stroke="#69C36E" stroke-width="1.5"/>
<path d="M763.21 838.11L784.75 973.58" stroke="#69C36E" stroke-width="1.5"/>
<path d="M763.21 838.11L623.05 812.8" stroke="#69C36E" stroke-width="1.5"/>
<path d="M784.75 973.58L797.8 1105.94" stroke="#69C36E" stroke-width="1.5"/>
<path d="M784.75 973.58L641.17 961.78" stroke="#69C36E" stroke-width="1.5"/>
<path d="M784.75 973.58L892.55 1124.96" stroke="#69C36E" stroke-width="1.5"/>
<path d="M784.75 973.58L931.95 807.43" stroke="#69C36E" stroke-width="1.5"/>
<path d="M585.23 684.81L487.4 677.17" stroke="#69C36E" stroke-width="1.5"/>
<path d="M585.23 684.81L623.05 812.8" stroke="#69C36E" stroke-width="1.5"/>
<path d="M585.23 684.81L452.46 836.38" stroke="#69C36E" stroke-width="1.5"/>
<path d="M585.23 684.81L428.18 533.18" stroke="#69C36E" stroke-width="1.5"/>
<path d="M585.23 684.81L763.21 838.11" stroke="#69C36E" stroke-width="1.5"/>
<path d="M641.17 961.78L623.05 812.8" stroke="#69C36E" stroke-width="1.5"/>
<path d="M641.17 961.78L592.27 1116.64" stroke="#69C36E" stroke-width="1.5"/>
<path d="M592.27 1116.64L447.91 956.11" stroke="#69C36E" stroke-width="1.5"/>
<path d="M592.27 1116.64L784.75 973.58" stroke="#69C36E" stroke-width="1.5"/>
<path d="M428.18 533.18L487.4 677.17" stroke="#69C36E" stroke-width="1.5"/>
<path d="M428.18 533.18L198.23 645.89" stroke="#69C36E" stroke-width="1.5"/>
<path d="M487.4 677.17L452.46 836.38" stroke="#69C36E" stroke-width="1.5"/>
<path d="M487.4 677.17L623.05 812.8" stroke="#69C36E" stroke-width="1.5"/>
<path d="M487.4 677.17L290.77 651.26" stroke="#69C36E" stroke-width="1.5"/>
<path d="M487.4 677.17L277.81 510.59" stroke="#69C36E" stroke-width="1.5"/>
<path d="M452.46 836.38L447.91 956.11" stroke="#69C36E" stroke-width="1.5"/>
<path d="M452.46 836.38L623.05 812.8" stroke="#69C36E" stroke-width="1.5"/>
<path d="M447.91 956.11L298.04 1006.62" stroke="#69C36E" stroke-width="1.5"/>
<path d="M447.91 956.11L641.17 961.78" stroke="#69C36E" stroke-width="1.5"/>
<path d="M278.77 -86.62L316.15 220.32" stroke="#69C36E" stroke-width="1.5"/>
<path d="M316.15 220.32L175.82 217.34" stroke="#69C36E" stroke-width="1.5"/>
<path d="M316.15 220.32L158.2 39.7098" stroke="#69C36E" stroke-width="1.5"/>
<path d="M316.15 220.32L37.4199 243.82" stroke="#69C36E" stroke-width="1.5"/>
<path d="M316.15 220.32L277.81 510.59" stroke="#69C36E" stroke-width="1.5"/>
<path d="M316.15 220.32L428.18 533.18" stroke="#69C36E" stroke-width="1.5"/>
<path d="M298.04 1006.62L149.29 950.39" stroke="#69C36E" stroke-width="1.5"/>
<path d="M130.74 549.72L198.23 645.89" stroke="#69C36E" stroke-width="1.5"/>
<path d="M198.23 645.89L34.6998 676.13" stroke="#69C36E" stroke-width="1.5"/>
<path d="M198.23 645.89L185.6 818.21" stroke="#69C36E" stroke-width="1.5"/>
<path d="M198.23 645.89L20.1299 525.04" stroke="#69C36E" stroke-width="1.5"/>
<path d="M185.6 818.21L149.29 950.39" stroke="#69C36E" stroke-width="1.5"/>
<path d="M185.6 818.21L30.1699 824.08" stroke="#69C36E" stroke-width="1.5"/>
<path d="M147.39 1128.63L149.29 950.39" stroke="#69C36E" stroke-width="1.5"/>
<path d="M-6.25012 -37.9301L158.2 39.7099" stroke="#69C36E" stroke-width="1.5"/>
<path d="M-6.25024 -37.9301L37.4198 243.82" stroke="#69C36E" stroke-width="1.5"/>
<path d="M-9.78027 47.58L37.4198 243.82" stroke="#69C36E" stroke-width="1.5"/>
<path d="M37.4199 243.82L175.82 217.34" stroke="#69C36E" stroke-width="1.5"/>
<path d="M37.4198 243.82L37.2498 407.29" stroke="#69C36E" stroke-width="1.5"/>
<path d="M37.4198 243.82L-133.16 344.16" stroke="#69C36E" stroke-width="1.5"/>
<path d="M37.4199 243.82L158.2 39.7098" stroke="#69C36E" stroke-width="1.5"/>
<path d="M34.6998 676.13L30.1699 824.08" stroke="#69C36E" stroke-width="1.5"/>
<path d="M34.6998 676.13L130.74 549.72" stroke="#69C36E" stroke-width="1.5"/>
<path d="M34.6998 676.13L-128.17 694.57" stroke="#69C36E" stroke-width="1.5"/>
<path d="M30.1698 824.08L-137.23 859.96" stroke="#69C36E" stroke-width="1.5"/>
<path d="M30.1699 824.08L149.29 950.39" stroke="#69C36E" stroke-width="1.5"/>
<path d="M30.1698 824.08L-128.17 694.57" stroke="#69C36E" stroke-width="1.5"/>
<path d="M-133.16 344.16L37.2499 407.29" stroke="#69C36E" stroke-width="1.5"/>
<path d="M-133.16 344.16L20.1298 525.04" stroke="#69C36E" stroke-width="1.5"/>
<path d="M-128.17 694.57L20.1298 525.04" stroke="#69C36E" stroke-width="1.5"/>
<path d="M-137.19 954.54L30.1698 824.08" stroke="#69C36E" stroke-width="1.5"/>
<path d="M1232.27 977.12C1218.46 977.12 1207.27 965.927 1207.27 952.12C1207.27 938.313 1218.46 927.12 1232.27 927.12C1246.08 927.12 1257.27 938.313 1257.27 952.12C1257.27 965.927 1246.08 977.12 1232.27 977.12Z" fill="url(#paint0_radial_78_784)"/>
<path d="M931.95 832.43C918.143 832.43 906.95 821.237 906.95 807.43C906.95 793.623 918.143 782.43 931.95 782.43C945.757 782.43 956.95 793.623 956.95 807.43C956.95 821.237 945.757 832.43 931.95 832.43Z" fill="url(#paint1_radial_78_784)"/>
<path d="M277.81 535.59C264.003 535.59 252.81 524.397 252.81 510.59C252.81 496.783 264.003 485.59 277.81 485.59C291.617 485.59 302.81 496.783 302.81 510.59C302.81 524.397 291.617 535.59 277.81 535.59Z" fill="url(#paint2_radial_78_784)"/>
<path d="M290.77 676.26C276.963 676.26 265.77 665.067 265.77 651.26C265.77 637.453 276.963 626.26 290.77 626.26C304.577 626.26 315.77 637.453 315.77 651.26C315.77 665.067 304.577 676.26 290.77 676.26Z" fill="url(#paint3_radial_78_784)"/>
<path d="M158.2 64.7101C144.393 64.7101 133.2 53.5172 133.2 39.7101C133.2 25.903 144.393 14.7101 158.2 14.7101C172.007 14.7101 183.2 25.903 183.2 39.7101C183.2 53.5172 172.007 64.7101 158.2 64.7101Z" fill="url(#paint4_radial_78_784)"/>
<path d="M20.1298 550.04C6.32264 550.04 -4.87024 538.847 -4.87024 525.04C-4.87024 511.233 6.32264 500.04 20.1298 500.04C33.9369 500.04 45.1298 511.233 45.1298 525.04C45.1298 538.847 33.9369 550.04 20.1298 550.04Z" fill="url(#paint5_radial_78_784)"/>
<path d="M2.08972 1015.75C-11.7174 1015.75 -22.9103 1004.56 -22.9103 990.75C-22.9103 976.943 -11.7174 965.75 2.08972 965.75C15.8968 965.75 27.0897 976.943 27.0897 990.75C27.0897 1004.56 15.8968 1015.75 2.08972 1015.75Z" fill="url(#paint6_radial_78_784)"/>
<path d="M1396.75 944.71C1393.99 944.71 1391.75 942.471 1391.75 939.71C1391.75 936.949 1393.99 934.71 1396.75 934.71C1399.51 934.71 1401.75 936.949 1401.75 939.71C1401.75 942.471 1399.51 944.71 1396.75 944.71Z" fill="#A1D2A3"/>
<path d="M1095.42 821.73C1092.66 821.73 1090.42 819.492 1090.42 816.73C1090.42 813.969 1092.66 811.73 1095.42 811.73C1098.18 811.73 1100.42 813.969 1100.42 816.73C1100.42 819.492 1098.18 821.73 1095.42 821.73Z" fill="#A1D2A3"/>
<path d="M1091.77 976.73C1089.01 976.73 1086.77 974.491 1086.77 971.73C1086.77 968.969 1089.01 966.73 1091.77 966.73C1094.53 966.73 1096.77 968.969 1096.77 971.73C1096.77 974.491 1094.53 976.73 1091.77 976.73Z" fill="#A1D2A3"/>
<path d="M777.02 692.22C774.258 692.22 772.02 689.982 772.02 687.22C772.02 684.459 774.258 682.22 777.02 682.22C779.781 682.22 782.02 684.459 782.02 687.22C782.02 689.982 779.781 692.22 777.02 692.22Z" fill="#A1D2A3"/>
<path d="M763.21 843.11C760.448 843.11 758.21 840.872 758.21 838.11C758.21 835.349 760.448 833.11 763.21 833.11C765.971 833.11 768.21 835.349 768.21 838.11C768.21 840.872 765.971 843.11 763.21 843.11Z" fill="#A1D2A3"/>
<path d="M784.75 978.58C781.988 978.58 779.75 976.342 779.75 973.58C779.75 970.819 781.988 968.58 784.75 968.58C787.511 968.58 789.75 970.819 789.75 973.58C789.75 976.342 787.511 978.58 784.75 978.58Z" fill="#A1D2A3"/>
<path d="M585.23 689.81C582.468 689.81 580.23 687.572 580.23 684.81C580.23 682.049 582.468 679.81 585.23 679.81C587.991 679.81 590.23 682.049 590.23 684.81C590.23 687.572 587.991 689.81 585.23 689.81Z" fill="#A1D2A3"/>
<path d="M623.05 817.8C620.289 817.8 618.05 815.561 618.05 812.8C618.05 810.039 620.289 807.8 623.05 807.8C625.811 807.8 628.05 810.039 628.05 812.8C628.05 815.561 625.811 817.8 623.05 817.8Z" fill="#A1D2A3"/>
<path d="M641.17 966.78C638.408 966.78 636.17 964.541 636.17 961.78C636.17 959.019 638.408 956.78 641.17 956.78C643.931 956.78 646.17 959.019 646.17 961.78C646.17 964.541 643.931 966.78 641.17 966.78Z" fill="#A1D2A3"/>
<path d="M428.18 538.18C425.418 538.18 423.18 535.941 423.18 533.18C423.18 530.419 425.418 528.18 428.18 528.18C430.941 528.18 433.18 530.419 433.18 533.18C433.18 535.941 430.941 538.18 428.18 538.18Z" fill="#A1D2A3"/>
<path d="M487.4 682.17C484.638 682.17 482.4 679.931 482.4 677.17C482.4 674.409 484.638 672.17 487.4 672.17C490.161 672.17 492.4 674.409 492.4 677.17C492.4 679.931 490.161 682.17 487.4 682.17Z" fill="#A1D2A3"/>
<path d="M452.46 841.38C449.698 841.38 447.46 839.142 447.46 836.38C447.46 833.619 449.698 831.38 452.46 831.38C455.221 831.38 457.46 833.619 457.46 836.38C457.46 839.142 455.221 841.38 452.46 841.38Z" fill="#A1D2A3"/>
<path d="M447.91 961.11C445.148 961.11 442.91 958.871 442.91 956.11C442.91 953.348 445.148 951.11 447.91 951.11C450.671 951.11 452.91 953.348 452.91 956.11C452.91 958.871 450.671 961.11 447.91 961.11Z" fill="#A1D2A3"/>
<path d="M316.15 225.32C313.388 225.32 311.15 223.081 311.15 220.32C311.15 217.559 313.388 215.32 316.15 215.32C318.911 215.32 321.15 217.559 321.15 220.32C321.15 223.081 318.911 225.32 316.15 225.32Z" fill="#A1D2A3"/>
<path d="M298.04 1011.62C295.278 1011.62 293.04 1009.38 293.04 1006.62C293.04 1003.86 295.278 1001.62 298.04 1001.62C300.801 1001.62 303.04 1003.86 303.04 1006.62C303.04 1009.38 300.801 1011.62 298.04 1011.62Z" fill="#A1D2A3"/>
<path d="M175.82 222.34C173.058 222.34 170.82 220.101 170.82 217.34C170.82 214.579 173.058 212.34 175.82 212.34C178.581 212.34 180.82 214.579 180.82 217.34C180.82 220.101 178.581 222.34 175.82 222.34Z" fill="#A1D2A3"/>
<path d="M130.74 554.72C127.978 554.72 125.74 552.482 125.74 549.72C125.74 546.959 127.978 544.72 130.74 544.72C133.501 544.72 135.74 546.959 135.74 549.72C135.74 552.482 133.501 554.72 130.74 554.72Z" fill="#A1D2A3"/>
<path d="M198.23 650.89C195.468 650.89 193.23 648.651 193.23 645.89C193.23 643.129 195.468 640.89 198.23 640.89C200.991 640.89 203.23 643.129 203.23 645.89C203.23 648.651 200.991 650.89 198.23 650.89Z" fill="#A1D2A3"/>
<path d="M185.6 823.21C182.838 823.21 180.6 820.972 180.6 818.21C180.6 815.449 182.838 813.21 185.6 813.21C188.361 813.21 190.6 815.449 190.6 818.21C190.6 820.972 188.361 823.21 185.6 823.21Z" fill="#A1D2A3"/>
<path d="M149.29 955.39C146.528 955.39 144.29 953.151 144.29 950.39C144.29 947.628 146.528 945.39 149.29 945.39C152.051 945.39 154.29 947.628 154.29 950.39C154.29 953.151 152.051 955.39 149.29 955.39Z" fill="#A1D2A3"/>
<path d="M37.4198 248.82C34.6584 248.82 32.4198 246.581 32.4198 243.82C32.4198 241.059 34.6584 238.82 37.4198 238.82C40.1812 238.82 42.4198 241.059 42.4198 243.82C42.4198 246.581 40.1812 248.82 37.4198 248.82Z" fill="#A1D2A3"/>
<path d="M37.2499 412.29C34.4885 412.29 32.2499 410.051 32.2499 407.29C32.2499 404.528 34.4885 402.29 37.2499 402.29C40.0113 402.29 42.2499 404.528 42.2499 407.29C42.2499 410.051 40.0113 412.29 37.2499 412.29Z" fill="#A1D2A3"/>
<path d="M34.6998 681.13C31.9384 681.13 29.6998 678.891 29.6998 676.13C29.6998 673.369 31.9384 671.13 34.6998 671.13C37.4613 671.13 39.6998 673.369 39.6998 676.13C39.6998 678.891 37.4613 681.13 34.6998 681.13Z" fill="#A1D2A3"/>
<path d="M30.1698 829.08C27.4084 829.08 25.1698 826.842 25.1698 824.08C25.1698 821.319 27.4084 819.08 30.1698 819.08C32.9312 819.08 35.1698 821.319 35.1698 824.08C35.1698 826.842 32.9312 829.08 30.1698 829.08Z" fill="#A1D2A3"/>
</g>
<defs>
<radialGradient id="paint0_radial_78_784" cx="0" cy="0" r="1" gradientUnits="userSpaceOnUse" gradientTransform="translate(1232.27 952.12) rotate(180) scale(25)">
<stop offset="0.1" stop-color="white"/>
<stop offset="0.2" stop-color="#42A547"/>
<stop offset="1" stop-color="#42A547" stop-opacity="0"/>
</radialGradient>
<radialGradient id="paint1_radial_78_784" cx="0" cy="0" r="1" gradientUnits="userSpaceOnUse" gradientTransform="translate(931.95 807.43) rotate(180) scale(25)">
<stop offset="0.1" stop-color="white"/>
<stop offset="0.2" stop-color="#42A547"/>
<stop offset="1" stop-color="#42A547" stop-opacity="0"/>
</radialGradient>
<radialGradient id="paint2_radial_78_784" cx="0" cy="0" r="1" gradientUnits="userSpaceOnUse" gradientTransform="translate(277.81 510.59) rotate(180) scale(25 25)">
<stop offset="0.1" stop-color="white"/>
<stop offset="0.2" stop-color="#42A547"/>
<stop offset="1" stop-color="#42A547" stop-opacity="0"/>
</radialGradient>
<radialGradient id="paint3_radial_78_784" cx="0" cy="0" r="1" gradientUnits="userSpaceOnUse" gradientTransform="translate(290.77 651.26) rotate(180) scale(25)">
<stop offset="0.1" stop-color="white"/>
<stop offset="0.2" stop-color="#42A547"/>
<stop offset="1" stop-color="#42A547" stop-opacity="0"/>
</radialGradient>
<radialGradient id="paint4_radial_78_784" cx="0" cy="0" r="1" gradientUnits="userSpaceOnUse" gradientTransform="translate(158.2 39.7101) rotate(180) scale(25)">
<stop offset="0.1" stop-color="white"/>
<stop offset="0.2" stop-color="#42A547"/>
<stop offset="1" stop-color="#42A547" stop-opacity="0"/>
</radialGradient>
<radialGradient id="paint5_radial_78_784" cx="0" cy="0" r="1" gradientUnits="userSpaceOnUse" gradientTransform="translate(20.1298 525.04) rotate(180) scale(25 25)">
<stop offset="0.1" stop-color="white"/>
<stop offset="0.2" stop-color="#42A547"/>
<stop offset="1" stop-color="#42A547" stop-opacity="0"/>
</radialGradient>
<radialGradient id="paint6_radial_78_784" cx="0" cy="0" r="1" gradientUnits="userSpaceOnUse" gradientTransform="translate(2.08972 990.75) rotate(180) scale(25)">
<stop offset="0.1" stop-color="white"/>
<stop offset="0.2" stop-color="#42A547"/>
<stop offset="1" stop-color="#42A547" stop-opacity="0"/>
</radialGradient>
</defs>
</svg>
