<svg width="61" height="62" viewBox="0 0 61 62" fill="none" xmlns="http://www.w3.org/2000/svg">
<g id="robot_2">
<mask id="mask0_862_535" style="mask-type:alpha" maskUnits="userSpaceOnUse" x="0" y="0" width="61" height="62">
<rect id="Bounding box" x="0.328125" y="0.487991" width="60.6" height="60.6" fill="#D9D9D9"/>
</mask>
<g mask="url(#mask0_862_535)">
<path id="robot_2_2" d="M10.4277 53.513V40.888C10.4277 39.4992 10.9222 38.3104 11.9112 37.3214C12.9001 36.3325 14.089 35.838 15.4777 35.838H45.7777C47.1665 35.838 48.3553 36.3325 49.3443 37.3214C50.3333 38.3104 50.8277 39.4992 50.8277 40.888V53.513H10.4277ZM23.0527 33.313C19.5598 33.313 16.5824 32.0821 14.1205 29.6202C11.6587 27.1583 10.4277 24.1809 10.4277 20.688C10.4277 17.1951 11.6587 14.2177 14.1205 11.7558C16.5824 9.29393 19.5598 8.06299 23.0527 8.06299H38.2027C41.6957 8.06299 44.673 9.29393 47.1349 11.7558C49.5968 14.2177 50.8277 17.1951 50.8277 20.688C50.8277 24.1809 49.5968 27.1583 47.1349 29.6202C44.673 32.0821 41.6957 33.313 38.2027 33.313H23.0527ZM23.0527 23.213C23.7682 23.213 24.3678 22.971 24.8518 22.4871C25.3358 22.0031 25.5777 21.4034 25.5777 20.688C25.5777 19.9726 25.3358 19.3729 24.8518 18.8889C24.3678 18.405 23.7682 18.163 23.0527 18.163C22.3373 18.163 21.7376 18.405 21.2537 18.8889C20.7697 19.3729 20.5277 19.9726 20.5277 20.688C20.5277 21.4034 20.7697 22.0031 21.2537 22.4871C21.7376 22.971 22.3373 23.213 23.0527 23.213ZM38.2027 23.213C38.9182 23.213 39.5178 22.971 40.0018 22.4871C40.4858 22.0031 40.7277 21.4034 40.7277 20.688C40.7277 19.9726 40.4858 19.3729 40.0018 18.8889C39.5178 18.405 38.9182 18.163 38.2027 18.163C37.4873 18.163 36.8876 18.405 36.4037 18.8889C35.9197 19.3729 35.6777 19.9726 35.6777 20.688C35.6777 21.4034 35.9197 22.0031 36.4037 22.4871C36.8876 22.971 37.4873 23.213 38.2027 23.213Z" fill="#54983C"/>
</g>
</g>
</svg>
