<svg width="56" height="55" viewBox="0 0 56 55" fill="none" xmlns="http://www.w3.org/2000/svg">
<mask id="mask0_2067_42" style="mask-type:alpha" maskUnits="userSpaceOnUse" x="0" y="0" width="56" height="55">
<rect x="0.5" width="55" height="55" fill="#D9D9D9"/>
</mask>
<g mask="url(#mask0_2067_42)">
<path d="M24.2187 38.9584L37.1666 26.0105L33.8437 22.6876L24.1614 32.3699L19.3489 27.5574L16.0833 30.823L24.2187 38.9584ZM15.3958 45.8334C11.9201 45.8334 8.95048 44.6303 6.48694 42.224C4.0234 39.8178 2.79163 36.8768 2.79163 33.4011C2.79163 30.422 3.6892 27.7674 5.48433 25.4376C7.27947 23.1077 9.62843 21.6181 12.5312 20.9688C13.4861 17.4549 15.3958 14.6095 18.2604 12.4324C21.125 10.2553 24.3715 9.16675 28 9.16675C32.4687 9.16675 36.2595 10.7232 39.3724 13.836C42.4852 16.9489 44.0416 20.7397 44.0416 25.2084C46.677 25.514 48.8637 26.6503 50.6015 28.6173C52.3394 30.5843 53.2083 32.8855 53.2083 35.5209C53.2083 38.3855 52.2057 40.8204 50.2005 42.8256C48.1953 44.8308 45.7604 45.8334 42.8958 45.8334H15.3958ZM15.3958 41.2501H42.8958C44.5 41.2501 45.8559 40.6963 46.9635 39.5886C48.0711 38.481 48.625 37.1251 48.625 35.5209C48.625 33.9167 48.0711 32.5608 46.9635 31.4532C45.8559 30.3456 44.5 29.7917 42.8958 29.7917H39.4583V25.2084C39.4583 22.0383 38.3411 19.336 36.1067 17.1016C33.8724 14.8673 31.1701 13.7501 28 13.7501C24.8298 13.7501 22.1276 14.8673 19.8932 17.1016C17.6588 19.336 16.5416 22.0383 16.5416 25.2084H15.3958C13.1805 25.2084 11.2899 25.9914 9.72392 27.5574C8.15795 29.1233 7.37496 31.014 7.37496 33.2292C7.37496 35.4445 8.15795 37.3352 9.72392 38.9011C11.2899 40.4671 13.1805 41.2501 15.3958 41.2501Z" fill="#4C4C4C"/>
</g>
</svg>
