<svg width="49" height="48" viewBox="0 0 49 48" fill="none" xmlns="http://www.w3.org/2000/svg">
<mask id="mask0_1879_9971" style="mask-type:alpha" maskUnits="userSpaceOnUse" x="0" y="0" width="49" height="48">
<rect x="0.333252" width="48" height="48" fill="#D9D9D9"/>
</mask>
<g mask="url(#mask0_1879_9971)">
<path d="M12.9678 38.9999C10.3191 38.9999 8.05112 38.0545 6.16395 36.1638C4.27682 34.2731 3.33325 32.0006 3.33325 29.3461C3.33325 26.8743 4.16145 24.7108 5.81785 22.8557C7.47425 21.0006 9.5127 19.9564 11.9332 19.7231C12.446 16.6179 13.8748 14.0596 16.2197 12.0481C18.5646 10.0365 21.296 9.03076 24.4139 9.03076C27.9405 9.03076 30.901 10.2921 33.2954 12.8147C35.6898 15.3373 36.887 18.3721 36.887 21.9192V23.8115H37.5023C39.6844 23.732 41.535 24.4205 43.0543 25.8769C44.5735 27.3333 45.3331 29.173 45.3331 31.3961C45.3331 33.4781 44.5927 35.2659 43.1119 36.7595C41.6312 38.2531 39.8498 38.9999 37.7678 38.9999H26.0832C25.2989 38.9999 24.6221 38.7152 24.0527 38.1458C23.4833 37.5764 23.1986 36.8995 23.1986 36.1152V23.2537L18.7986 27.673L17.1678 26.0615L24.3332 18.8961L31.4985 26.0615L29.8678 27.673L25.4678 23.2537V36.1152C25.4678 36.2691 25.5319 36.4101 25.6601 36.5384C25.7883 36.6666 25.9293 36.7307 26.0832 36.7307H37.7293C39.2037 36.7307 40.4613 36.2091 41.5023 35.166C42.5434 34.1229 43.0639 32.8684 43.0639 31.4026C43.0639 29.9367 42.5434 28.6832 41.5023 27.6422C40.4613 26.6012 39.2014 26.0807 37.7225 26.0807H34.6178V21.9192C34.6178 19.0163 33.619 16.5207 31.6216 14.4324C29.6242 12.3441 27.171 11.2999 24.262 11.2999C21.353 11.2999 18.8915 12.3441 16.8774 14.4324C14.8633 16.5207 13.8563 19.0163 13.8563 21.9192H12.8486C10.8588 21.9192 9.15369 22.6345 7.73315 24.0653C6.31265 25.4961 5.6024 27.2556 5.6024 29.3439C5.6024 31.3655 6.3214 33.102 7.7594 34.5535C9.1974 36.0049 10.9335 36.7307 12.9678 36.7307H19.4293V38.9999H12.9678Z" fill="url(#paint0_linear_1879_9971)"/>
</g>
<defs>
<linearGradient id="paint0_linear_1879_9971" x1="3.33325" y1="23.945" x2="45.3331" y2="23.945" gradientUnits="userSpaceOnUse">
<stop stop-color="#79DB92"/>
<stop offset="1" stop-color="#9CCE7C"/>
</linearGradient>
</defs>
</svg>
