<svg width="49" height="48" viewBox="0 0 49 48" fill="none" xmlns="http://www.w3.org/2000/svg">
<mask id="mask0_1879_9965" style="mask-type:alpha" maskUnits="userSpaceOnUse" x="0" y="0" width="49" height="48">
<rect x="0.666748" width="48" height="48" fill="#D9D9D9"/>
</mask>
<g mask="url(#mask0_1879_9965)">
<path d="M24.6667 40.9999C19.8129 40.9999 15.7661 40.3147 12.5263 38.9442C9.28661 37.5737 7.66675 35.8615 7.66675 33.8077V14C7.66675 12.0692 9.32571 10.4199 12.6436 9.0519C15.9616 7.68397 19.9693 7 24.6667 7C29.3641 7 33.3718 7.68397 36.6897 9.0519C40.0077 10.4199 41.6667 12.0692 41.6667 14V33.8077C41.6667 35.8615 40.0468 37.5737 36.8071 38.9442C33.5673 40.3147 29.5205 40.9999 24.6667 40.9999ZM24.6667 17.5807C27.5077 17.5807 30.4141 17.1583 33.3859 16.3134C36.3577 15.4685 38.2577 14.5153 39.0859 13.4538C38.2372 12.4 36.3334 11.4391 33.3744 10.5711C30.4154 9.70317 27.5129 9.2692 24.6667 9.2692C21.7718 9.2692 18.8475 9.6865 15.8936 10.5211C12.9398 11.3557 11.0346 12.3077 10.1782 13.3769C11.0218 14.5051 12.9007 15.4878 15.8148 16.325C18.7289 17.1621 21.6795 17.5807 24.6667 17.5807ZM24.636 28.1461C26.0231 28.1461 27.4103 28.0711 28.7974 27.9211C30.1846 27.7711 31.5103 27.5493 32.7744 27.2557C34.0385 26.9621 35.2379 26.6019 36.3725 26.175C37.5071 25.748 38.5154 25.2743 39.3975 24.7538V16.3692C38.4821 16.9025 37.4603 17.3826 36.3321 17.8095C35.2039 18.2364 33.9994 18.5967 32.7186 18.8903C31.4378 19.1839 30.1173 19.4108 28.7571 19.5711C27.3968 19.7313 26.0231 19.8115 24.636 19.8115C23.2231 19.8115 21.8199 19.7281 20.4263 19.5615C19.0327 19.3948 17.7039 19.1647 16.4398 18.8711C15.1757 18.5775 13.9911 18.2204 12.8859 17.7999C11.7808 17.3794 10.7975 16.9025 9.93595 16.3692V24.7538C10.7846 25.2743 11.7596 25.7448 12.8609 26.1653C13.9622 26.5858 15.1449 26.9461 16.409 27.2461C17.6731 27.5461 18.9987 27.7711 20.3859 27.9211C21.7731 28.0711 23.1898 28.1461 24.636 28.1461ZM24.6667 38.7307C26.3436 38.7307 28.0064 38.6051 29.6551 38.3538C31.3039 38.1025 32.8013 37.7628 34.1475 37.3346C35.4936 36.9064 36.6359 36.4153 37.5744 35.8615C38.5128 35.3076 39.1205 34.7243 39.3975 34.1115V27.0538C38.5154 27.5871 37.5071 28.0589 36.3725 28.4691C35.2379 28.8794 34.0385 29.2313 32.7744 29.5249C31.5103 29.8185 30.1898 30.0403 28.8128 30.1903C27.4359 30.3403 26.0436 30.4153 24.636 30.4153C23.1898 30.4153 21.7731 30.3403 20.3859 30.1903C18.9987 30.0403 17.6731 29.8185 16.409 29.5249C15.1449 29.2313 13.9654 28.8762 12.8705 28.4595C11.7757 28.0428 10.7975 27.5743 9.93595 27.0538V34.1423C10.1924 34.7474 10.7847 35.3288 11.7129 35.8865C12.6411 36.4442 13.7834 36.932 15.1398 37.35C16.4962 37.7679 17.9987 38.1025 19.6474 38.3538C21.2962 38.6051 22.9693 38.7307 24.6667 38.7307Z" fill="url(#paint0_linear_1879_9965)"/>
</g>
<defs>
<linearGradient id="paint0_linear_1879_9965" x1="7.66675" y1="23.9201" x2="41.6667" y2="23.9201" gradientUnits="userSpaceOnUse">
<stop stop-color="#79DB92"/>
<stop offset="1" stop-color="#9CCE7C"/>
</linearGradient>
</defs>
</svg>
