<svg width="907" height="254" viewBox="0 0 907 254" fill="none" xmlns="http://www.w3.org/2000/svg">
<path d="M85.9 139.9C84.1 139.2 82.5 138.6 80.9 137.9C78.1 136.6 77.7 134.5 79.2 132.3C80 131.2 80.9 129.8 80.8 128.6C80.5 125.6 79.6 122.7 77.3 120.5C75.7 118.9 74 117.5 72.1 116.2C69.6 114.5 67 113.1 64.4 111.5C60.9 109.4 57.7 106.9 54.9 103.9C50 98.5999 47.9 92.2 48.2 85C48.5 79.5 49.6 74.1 51.5 69C54.9 59.7 61.4 53.1001 70.5 49.3001C75.9 47.0001 81.6 45.3001 87.4 44.6001C99.3 43.1001 109.5 46.3001 117.6 55.6001C124 62.9001 127.7 71.3 128.4 81C128.6 84.4 128 87.7001 126.6 90.8001C125.3 93.8001 123.8 96.6001 121.7 99.1001C121.4 99.5001 121.1 99.9001 120.8 100.3C117.5 104 115.6 108.4 115.1 113.4C115 114.7 114.4 116 114.1 117.3C113.9 118.1 113.9 118.9 113.8 119.3C115.2 120.5 116.4 121.3 117.3 122.4C118.6 124.1 118.4 126 117.1 127.6C116.2 128.7 115.1 129.8 114 130.9C114.7 132.7 114.3 134.4 113.4 136C113 136.7 112.8 137.4 112.5 138.1C112.2 138.7 112.2 139.2 112.6 139.9C113.5 141.5 113.3 143.1 112.7 144.8C111.2 148.6 108.3 151.1 104.7 152.7C101.7 154.1 98.5 154.4 95.3 154.7C94.4 154.8 93.3 154.5 92.4 154.2C90.4 153.4 89.1 152 89.2 149.8C89.2 148.6 88.8 147.8 87.7 147.2C86.2 146.4 85.8 144.8 85.7 143.3C85.6 142 85.8 141 85.9 139.9ZM88.1 92.8999C87.6 92.2999 87.1 91.7 86.7 91.2C83.9 87.8 81.9 84.0001 81.1 79.6001C81 78.8001 80.9 77.9001 81.1 77.1001C81.5 75.1001 83.5 74.1 85.4 75C86 75.3 86.5 75.7001 86.9 76.1001C87.8 77.2001 88.7 78.3 89.4 79.5C91.2 82.6 92.5 85.9001 92.7 89.6001C92.7 90.3001 92.7 91.1001 93.6 91.3001C94.8 91.6001 96 92.1 97.2 91.2C97.2 90.9 97.2 90.6001 97.3 90.3001C97.7 86.5001 98.3 82.8001 99.7 79.3001C100.5 77.4001 101.8 76.0001 103.8 75.3001C105.6 74.7001 106.7 75.1 107.7 76.7C108.5 78 109 79.3999 108.8 80.8999C108.5 83.0999 108.2 85.3 107.6 87.5C106.7 90.6 104.9 93.2001 102 94.8001C101.1 95.3001 100.8 95.9001 100.9 96.8001C101.1 99.3001 101.2 101.8 101.5 104.3C102 108.3 102.6 112.4 103.1 116.4C103.3 117.9 103.4 119.4 103.6 121C105.5 120.7 107.1 120.2 108.8 120.2C111.9 120.1 111.6 119.1 111.1 116.9C111 116.4 110.8 115.8 110.7 115.3C110.6 114.2 110.4 113.1 110.4 112C110.9 106.3 112.8 101.1 116.4 96.6001C117.5 95.2001 118.6 93.7999 119.6 92.3999C123 87.5999 124.4 82.3 123.1 76.5C122.5 73.9 121.7 71.3999 120.6 68.8999C117.5 61.8999 112.9 56.2 106.2 52.5C101.1 49.7 95.6 48.8001 89.8 49.6001C85.3 50.2001 81.1 51.6 76.8 53C66.7 56.4 60 63.3 56.3 73.2C54.9 77 54 81 53.5 85C52.8 91.1 54.6 96.4999 59 100.9C62.2 104.2 66.1 106.5 70 108.9C73 110.7 75.9 112.7 78.7 114.8C81.9 117.3 84 120.5 85.1 124.5C85.2 125 85.5 125.5 85.7 126.2C87.6 125.7 89.3 125.1 90.9 124.7C91.5 122.1 90.9 119.9 90.2 117.8C88.6 112.9 86.2 108.2 83.8 103.7C83 102.3 82.3 101 80.4 101C79.9 101 79.3 100.7 78.8 100.4C74 97.7999 70 94.4001 67 89.8001C66.2 88.6001 65.7 87.2001 65.8 85.6001C65.9 83.5001 66.8 82.5999 68.9 82.3999C70.9 82.1999 72.6 83.0001 74.2 84.1001C77.7 86.7001 80.2 90.1 82.6 93.7C83.2 94.6 83.8 95.6001 84.4 96.6001C86.2 95.8001 87.3 94.6999 88.1 92.8999ZM92.1 95.5C91.1 98 89.3 99.7 86.9 100.7C87.3 101.4 87.5 101.9 87.8 102.4C91.1 108.9 94.7 115.3 95.7 122.8C97.6 122.3 99.5 121.8 101.4 121.2C99.5 112.8 97.7 104.6 97 96.2C95.2 96 93.8 95.8 92.1 95.5ZM114.9 123.9C113.5 122.5 112.2 122 110.7 122.6C107.7 123.7 104.8 124.7 101.9 125.9C98.1 127.4 94.4 129 90.6 130.4C88.5 131.2 86.2 131.6 83.6 132.3C83.5 132.5 83.2 133 82.9 133.7C85.9 135.3 88.9 135.1 91.8 134.7C99.7 133.6 106.8 130.5 113.1 125.6C113.7 125.2 114.2 124.6 114.9 123.9ZM110.9 132.8C104 137.5 96.6 139.8 88.5 140C87.8 143.6 89.1 145 92.4 144.3C92.5 144.3 92.7 144.2 92.8 144.2C97.2 142.7 101.5 141.2 105.9 139.7C108.9 138.6 110.2 136.1 110.9 132.8ZM92.9 148.2C92.8 150.1 92.9 150.3 94.5 150.3C96.4 150.3 98.3 150.1 100.1 149.9C104.3 149.4 107.4 147 110 143.8C110.6 143.1 111.1 142.2 110.7 141.1C105.3 144.7 99.1 146.1 92.9 148.2ZM78.1 94.3999C75.9 91.4999 74.1 88.2 70.2 86.7C71.5 89.3 74.6 92.3999 78.1 94.3999ZM104.5 80.8001C103 82.6001 101.8 86.6001 102.1 88.6001C103.9 86.2001 104.3 83.5001 104.5 80.8001Z" fill="#333333"/>
<path d="M100.5 1.69995C102.2 3.69995 102.8 5.7999 102.2 7.8999C100.6 14.3999 98.8 20.8999 97.1 27.3999C96.5 29.5999 95.8 30.0001 93.8 29.6001C92.2 29.3001 91.1 27.7999 91.6 25.8999C93.2 19.1999 94.9 12.5 96.7 5.80005C97.2 4.00005 98.4 2.49995 100.5 1.69995Z" fill="#333333"/>
<path d="M58.7 1.69995C60.4 2.59995 60.9 3.6999 61.3 4.8999C62.8 9.4999 64.3 14.1 65.7 18.7C66.8 22.3 67.6 25.8999 68.6 29.3999C68.8 30.1999 68.9 30.9999 69 31.8999C68.2 32.0999 67.7 32.4 67.1 32.5C65.5 32.9 64.1 32.2001 63.6 30.6001C61.5 23.9001 59.1 17.2001 58.5 10.1001C58.3 8.0001 58.2 5.90005 58.2 3.80005C58.1 3.20005 58.4 2.49995 58.7 1.69995Z" fill="#333333"/>
<path d="M123.6 14.8C123.5 16.1 123.5 17 123.3 17.8C122.3 21.5 120.9 24.8999 118.4 27.8999C116.7 29.8999 115.3 32.1 113.8 34.2C113.2 35 112.5 35.6 111.4 35.7C108.8 36 107.5 33.6999 108.5 31.3999C108.7 30.9999 109 30.6 109.3 30.2C111.5 27.2 113.5 24.1 115.9 21.3C117.7 19.2 120 17.5001 122 15.6001C122.4 15.2001 122.8 15.2 123.6 14.8Z" fill="#333333"/>
<path d="M54.5 45.3999C53.6 45.6999 53 46 52.4 46C50.4 45.7 48.4 45.4 46.5 44.8C41.7 43.4 36.9 41.8 32.1 40.3C31.7 40.2 31.3 40.0999 30.9 39.8999C29.6 39.2999 28.9 38.1001 29.3 37.1001C29.8 35.8001 31.1 34.9999 32.5 35.3999C37.9 36.9999 43.3 38.6 48.7 40.5C50.9 41.3 52.8 42.7999 54.5 45.3999Z" fill="#333333"/>
<path d="M269.4 28.6001C271.4 29.2001 272.4 30.6 273 32.3C274.5 36.2 276 40.0999 277.6 43.8999C278.5 46.0999 279.5 48.3001 280.3 50.6001C282.2 56.0001 284.1 61.3 285.7 66.8C288.2 75 290.3 83.4 293.7 91.3C295.7 95.9 297.5 100.6 299.5 105.2C301.2 109 302.3 112.9 303.3 116.9C303.4 117.4 303.4 117.9 303.3 118.4C302.7 124.7 302.2 131.1 301.6 137.4C301.5 138.6 301.7 139.7 302.5 140.6C304.6 143.2 306.7 145.8 308.8 148.4C310.7 150.9 310.5 151.5 307.5 152.9C306.4 153.4 305.3 153.9 304.2 154.4C302.8 155 302.1 154.8 301.5 153.6C301.2 153.1 301 152.5 300.9 151.9C300.4 149.5 299.9 147.1 299.5 144.8C299.3 143.6 298.8 142.5 298 141.6C294.8 137.7 291.2 134.3 287.2 131.1C286.2 130.3 285.2 129.5 284.2 128.6C283.5 128 282.8 127.4 283.3 126.2C283.4 125.9 283.2 125.4 283 125C279.1 116.7 275.2 108.4 271.3 100C268.4 93.6 266.2 86.9 264 80.3C262.3 75.1 260.3 70 258.3 65C256.3 60.1 254.2 55.2 252 50.3C250.7 47.4 250.1 44.3 250.1 41C249.7 40.9 249.3 40.8001 248.9 40.6001C247.4 40.1001 246.4 39.1 246.6 37.5C246.7 36.5 246.5 35.7 245.9 35C245.7 34.8 245.6 34.4999 245.5 34.1999C245 31.6999 244.5 29.2001 244 26.6001C240.9 24.5001 238.4 21.5 237.1 17.8C236.2 15.2 237.5 10.1 241.7 7.49996C244.7 5.69996 247.5 3.79996 250.5 1.99996C252.1 0.999963 254.8 1.20006 256 2.60006C256.9 3.60006 257.7 4.69987 258.1 5.89987C259 8.69987 259.8 11.6 260.5 14.5C260.7 15.4 261 15.8999 261.9 16.1999C263.7 16.9999 264.7 18.5 265.8 20C266.1 20.4 266.2 20.8999 266.1 21.3999C265.9 22.3999 266.4 23 267.1 23.3C269.3 24.6 269.9 26.3001 269.4 28.6001ZM301.3 115.5C301 114.7 300.8 114.2 300.6 113.6C299.3 110.9 298 108.2 296.7 105.4C293.5 98.5999 290 91.8001 287.7 84.6001C285.6 78.3001 283.7 72 281.7 65.8C280.5 62 279.4 58.0999 278 54.3999C276.1 49.1999 274 43.9999 271.9 38.8999C271.3 37.3999 270.7 36.0001 270 34.6001C269.2 32.9001 268.5 32.7001 266.6 33.6001C265 34.4001 263.5 35.3001 262 36.1001C262 36.4001 262 36.5999 262 36.6999C264.9 42.7999 267.1 49.2999 269.3 55.6999C271.6 62.3999 273.8 69.1 276.2 75.8C278.6 82.3 281.2 88.8 283.7 95.3C286.4 102.4 288.9 109.5 291.5 116.6C291.9 117.8 292.3 119 292.8 120.5C294.6 116.8 297.7 115.9 301.3 115.5ZM290.6 121.4C290.1 120.2 289.7 119.4 289.3 118.5C286.1 111.1 282.9 103.6 279.8 96.1001C278.3 92.5001 277 88.9 275.6 85.3C273.2 78.9 270.8 72.5001 268.5 66.1001C265.7 58.2001 263 50.3 260.2 42.5C259.7 41 259.2 39.4999 258 38.3999C256.3 39.2999 255.4 40.6 255 42.3C254.8 43.4 254.3 44.5001 253.9 45.6001C253.7 45.7001 253.7 45.7999 253.7 45.8999C256.9 54.0999 260.2 62.3 263.4 70.5C265 74.6 266.3 78.7 267.8 82.8C269.3 86.9 270.6 91.1001 272.3 95.1001C276.3 104.5 280.6 113.8 284.8 123.1C284.9 123.4 285.1 123.6 285.3 124C286.7 122.3 288.2 121.4 290.6 121.4ZM253.6 6.49996C251.7 7.69996 249.8 8.79996 248 9.99996C246.6 10.9 245 11.8 243.7 12.8C241.5 14.6 241.3 16.8 242.9 18.8C243.7 19.8 244.5 20.8 245.3 21.8C245.5 22.1 245.9 22.2999 246.2 22.6999C249.4 18.0999 253.4 15.1 259.3 15.5C259.1 12.7 256.1 7.79996 253.6 6.49996ZM298 138.1C299.1 134.6 299.3 131.4 299.6 128.2C300 125 300.3 121.7 300.7 118.5C297.9 118.4 296.1 119.5 295.4 121.8C295.1 122.7 295.1 123.6 295.2 124.5C295.2 125 295.3 125.6 294.7 125.8C294.3 125.9 293.7 125.8 293.3 125.6C292.6 125.2 292 124.6 291.3 124.3C289.7 123.5 288.3 123.9 287.3 125.5C287 125.9 286.9 126.4 286.6 126.9C290.4 130.4 294 134.1 298 138.1ZM265.7 26.3999C265 26.3999 264.6 26.4 264.2 26.5C263.8 26.6 263.3 26.7999 262.9 26.8999C258.3 28.8999 254.3 31.6001 250.9 35.1001C250 36.0001 249.2 37.1 249.2 38.5C249.7 38.6 250.1 38.7 250.6 38.8C251.7 36.2 253.9 34.8999 256.2 33.6999C259.3 31.9999 262.3 30.3001 265.5 28.6001C265.6 28.0001 265.7 27.2999 265.7 26.3999ZM249.3 23.3C251.4 21.9 253.5 20.8 255.8 20.3C258.1 19.8 260.4 19.3999 262.7 18.8999C259.2 15.8999 251.7 18.8 249.3 23.3ZM248 31.1999C250.8 26.5999 255.3 24.1 260.6 22.3C253.1 22.5 247.9 27.2999 248 31.1999ZM305.6 150.8C306.1 150.5 306.4 150.4 306.8 150.2C306.4 149.9 306.1 149.6 305.6 149.2C305.7 149.9 305.6 150.3 305.6 150.8Z" fill="#333333"/>
<path d="M852.8 17.6999C847.1 17.7999 841.4 20.7999 837.4 24.6999C833.2 28.6999 830.4 34 829.7 39.8C829 45.5 830.3 51.5 833.3 56.5C836.5 62 841.5 65.8 847.5 68C854.2 70.4 861.9 71.1999 868.9 69.6999C875 68.2999 880.7 65 885 60.5C889.6 55.6 892.4 49.4 893.2 42.8C894 36.4 893 29.2 889 24C884.9 18.7 878.3 16.7 871.9 16C864.6 15.2 856.9 15.6999 849.9 17.8999C848.2 18.3999 846.6 19.3001 845 20.1001C844.3 20.5001 844.8 21.5 845.5 21.3C847.2 20.9 848.9 20.7 850.5 20.3C852.2 19.9 853.8 19.4999 855.5 19.1999C858.9 18.5999 862.3 18.2999 865.7 18.3999C871.7 18.4999 878.4 19.1999 883.4 22.6999C888.4 26.0999 890.3 32.3999 890.5 38.1999C890.7 44.2999 888.9 50.3 885.6 55.3C882.4 60 877.7 63.8 872.4 65.8C866.3 68.2 859.7 68.1999 853.3 66.8999C847.3 65.6999 841.8 63.2 837.8 58.5C834.5 54.6 832.4 49.3999 832.1 44.1999C831.5 33.5999 839.1 23.8 849.2 20.8C850.5 20.4 851.8 20.0999 853 19.8999C854.2 19.4999 853.9 17.6999 852.8 17.6999Z" fill="#333333" stroke="#333333" stroke-width="1.8025" stroke-miterlimit="10" stroke-linecap="round" stroke-linejoin="round"/>
<path d="M854.3 29.9999C851.8 29.9999 850.6 33.1998 852.7 34.6998C853.5 35.2998 855 35.5999 855.8 34.7999C856.7 33.8999 857 32.3998 857.1 31.1998C857.2 30.5998 856.6 29.9999 856.1 29.7999C855 29.3999 853.7 29.9 852.8 30.6C852 31.3 851.3 32.5 851.7 33.6C852.1 34.6 853.3 34.7998 853.9 33.8998C854.2 33.3998 854.3 32.9998 854.7 32.6998C854.6 32.7998 854.8 32.6 854.9 32.6C855 32.6 855 32.6 854.9 32.6H855C855.2 32.5 855 32.6 855.2 32.6C855.4 32.6 855.5 32.6 855.7 32.6C855.2 32.3 854.8 31.9 854.3 31.6C854.4 32.2 854.1 32.8998 853.8 33.3998C853.9 33.2998 854.1 33.0999 854.2 32.9999C854.3 32.8999 854.1 32.9999 854.1 32.9999C854 32.8999 853.9 32.8999 853.9 32.7999C853.9 32.5999 854.1 32.3998 854.3 32.3998C855.8 32.1998 855.8 29.9999 854.3 29.9999Z" fill="#333333"/>
<path d="M854.9 32.6C854.8 32.6 854.6 32.7998 854.7 32.6998C854.3 32.9998 854.2 33.3998 853.9 33.8998C853.3 34.7998 852.1 34.6 851.7 33.6C851.3 32.5 852 31.3 852.8 30.6C853.7 29.9 855 29.3999 856.1 29.7999C856.6 29.9999 857.2 30.5998 857.1 31.1998C857 32.3998 856.7 33.8999 855.8 34.7999C855 35.5999 853.5 35.2998 852.7 34.6998C850.6 33.1998 851.8 29.9999 854.3 29.9999C855.8 29.9999 855.8 32.1998 854.3 32.3998C854.1 32.3998 853.9 32.5999 853.9 32.7999C853.9 32.8999 854 32.8999 854.1 32.9999C854.1 32.9999 854.3 32.8999 854.2 32.9999C854.1 33.0999 853.9 33.2998 853.8 33.3998C854.1 32.8998 854.4 32.2 854.3 31.6C854.8 31.9 855.2 32.3 855.7 32.6C855.5 32.6 855.4 32.6 855.2 32.6C855 32.6 855.2 32.5 855 32.6H854.9ZM854.9 32.6C855 32.6 855 32.6 854.9 32.6Z" stroke="#333333" stroke-width="1.8025" stroke-miterlimit="10" stroke-linecap="round" stroke-linejoin="round"/>
<path d="M872.2 31.1C870.8 31 869.8 32.1999 869.7 33.4999C869.5 34.8999 870.6 35.9998 872 36.1998C873.4 36.3998 874.8 35.5 875.2 34.1C875.7 32.6 875 31.0998 873.8 30.1998C873.4 29.8998 872.7 29.9998 872.3 30.1998C871 30.9998 870.1 32.0999 869.5 33.4999C869.2 34.1999 869.8 35.0999 870.5 35.2999C871.6 35.5999 872.8 35.1999 873.5 34.2999C874.2 33.4999 874.5 32.1999 873.8 31.2999C873.1 30.2999 871.6 30.6998 871.6 31.8998C871.6 31.9998 871.6 32.0999 871.6 31.9999C871.6 32.0999 871.5 32.1998 871.5 32.1998C871.6 31.9998 871.5 32.1999 871.4 32.2999L871.2 32.3998C871 32.4998 871.4 32.2998 871.2 32.3998C871.3 32.3998 871.6 32.4998 871.2 32.3998C871.5 32.9998 871.9 33.5998 872.2 34.1998C872.5 33.5998 873 33 873.7 32.6C873.2 32.6 872.7 32.6 872.2 32.6C872.3 32.7 872.4 32.9999 872.5 33.2999C872.5 33.1999 872.4 33.4998 872.5 33.3998C872.3 33.4998 872.6 33.2998 872.5 33.3998C872.5 33.3998 872.2 33.4999 872.3 33.4999C872 33.4999 872.4 33.4999 872.3 33.4999C872.2 33.4999 872.7 33.6999 872.3 33.4999C872.4 33.4999 872.3 33.7 872.4 33.6V33.4999C872.1 33.4999 872.3 33.4999 872.4 33.4999C873.8 33.5999 873.8 31.2 872.2 31.1Z" fill="#333333"/>
<path d="M871.2 32.3998L871.4 32.2999C871.5 32.1999 871.6 31.9998 871.5 32.1998C871.5 32.1998 871.6 32.0999 871.6 31.9999C871.6 32.0999 871.6 31.9998 871.6 31.8998C871.6 30.6998 873.1 30.2999 873.8 31.2999C874.5 32.1999 874.2 33.4999 873.5 34.2999C872.8 35.1999 871.6 35.5999 870.5 35.2999C869.8 35.0999 869.2 34.1999 869.5 33.4999C870.1 32.0999 871 30.9998 872.3 30.1998C872.7 29.9998 873.4 29.8998 873.8 30.1998C875 31.0998 875.7 32.6 875.2 34.1C874.8 35.5 873.4 36.3998 872 36.1998C870.6 35.9998 869.5 34.8999 869.7 33.4999C869.8 32.1999 870.8 31 872.2 31.1C873.8 31.2 873.8 33.5999 872.4 33.4999M871.2 32.3998C871 32.4998 871.4 32.2998 871.2 32.3998ZM871.2 32.3998C871.3 32.3998 871.6 32.4998 871.2 32.3998ZM871.2 32.3998C871.5 32.9998 871.9 33.5998 872.2 34.1998C872.5 33.5998 873 33 873.7 32.6C873.2 32.6 872.7 32.6 872.2 32.6C872.3 32.7 872.4 32.9999 872.5 33.2999C872.5 33.1999 872.4 33.4998 872.5 33.3998M872.5 33.3998C872.3 33.4998 872.6 33.2998 872.5 33.3998ZM872.5 33.3998C872.5 33.3998 872.2 33.4999 872.3 33.4999M872.3 33.4999C872 33.4999 872.4 33.4999 872.3 33.4999ZM872.3 33.4999H872.2M872.3 33.4999C872.2 33.4999 872.7 33.6999 872.3 33.4999ZM872.3 33.4999C872.4 33.4999 872.3 33.7 872.4 33.6V33.4999M872.4 33.4999C872.1 33.4999 872.3 33.4999 872.4 33.4999Z" stroke="#333333" stroke-width="1.8025" stroke-miterlimit="10" stroke-linecap="round" stroke-linejoin="round"/>
<path d="M852.1 46.3998L852 46.4999C851.6 46.8999 851.6 47.4999 851.8 47.9999C853.7 52.2999 858.4 55.1999 863.1 54.7999C865.5 54.5999 867.6 53.6 869.5 52.1C870.4 51.4 871.2 50.4999 871.8 49.4999C872.1 49.0999 872.3 48.6 872.6 48.1C872.7 47.9 872.9 47.6998 873 47.3998C873.2 46.8998 873.2 46.5 873.2 46.1C873.3 44.6 871.2 44.0998 870.4 45.3998C869.9 46.1998 869.8 47.1999 869.2 47.9999C868.7 48.6999 868.2 49.2998 867.6 49.8998C866.3 51.0998 864.6 51.7999 862.8 51.9999C859 52.3999 855.5 49.9998 853.9 46.6998C853.7 46.2998 853.2 46.1 852.8 46.1C852.6 46.1 852.3 46.0998 852.1 46.3998Z" fill="#333333" stroke="#333333" stroke-width="1.8025" stroke-miterlimit="10" stroke-linecap="round" stroke-linejoin="round"/>
<path d="M854.3 81.6999C842.1 78.9999 829.1 86.5999 824 97.6999C818.5 109.4 822.5 123.5 831.6 132.2C841.2 141.4 855.8 143.1 867.9 138.1C874.3 135.5 879.9 131.2 883.8 125.5C888.3 118.9 888.7 110.7 888.4 102.9C888.3 99.0999 887.7 95.2 886 91.8C884.5 88.8 882.1 86.1999 879.2 84.3999C872.7 80.1999 864.5 79.5999 857 80.3999C854.9 80.5999 852.9 80.8999 850.9 81.3999C849.9 81.5999 850.2 83.0001 851.1 83.1001C855 83.3001 858.9 82.7999 862.8 82.8999C866.3 82.9999 869.8 83.5 873.1 84.8C876 85.9 878.7 87.6 880.8 89.8C883 92.2 884.3 95.3 884.9 98.5C885.5 101.9 885.4 105.5 885.3 108.9C885.2 112.6 884.8 116.4 883.4 119.9C881 125.9 875.9 130.6 870.3 133.7C860 139.5 846.4 139.8 836.6 132.8C827.4 126.3 821.9 114 824.9 102.9C827.7 92.1999 838.3 83.7999 849.5 83.6999C850.9 83.6999 852.3 83.7 853.6 84C855.1 84.2 855.8 82.0999 854.3 81.6999Z" fill="#333333" stroke="#333333" stroke-width="1.8025" stroke-miterlimit="10" stroke-linecap="round" stroke-linejoin="round"/>
<path d="M846.6 97.6C844.8 98.1 844 100.1 844.5 101.8C845.1 103.8 847.5 104.5 849.2 103.1C850.7 101.9 851.4 98.5999 849.1 97.7999C847 96.9999 844.1 98.4999 844.3 101C844.4 102.1 845.7 102.5 846.3 101.6C846.8 100.9 847.5 100.4 848.3 100.7C848.1 100.6 847.9 100.4 847.7 100.3C847.8 100.4 847.8 100.3 847.8 100.6C847.8 100.6 847.7 100.9 847.7 101C847.6 101.2 847.5 101.4 847.3 101.4C847.2 101.4 847.2 101.4 847.1 101.4C846.6 101.2 846.8 100.1 847.3 99.8998C848.7 99.4998 848.1 97.2 846.6 97.6Z" fill="#333333" stroke="#333333" stroke-width="1.8025" stroke-miterlimit="10" stroke-linecap="round" stroke-linejoin="round"/>
<path d="M864.4 99.8998C864.5 99.8998 864.6 99.8998 864.6 99.8998C864.4 99.6998 864.3 99.4999 864.1 99.2999C864.4 100.3 865.4 100.2 865.8 101C865.9 101.2 866 101.4 866 101.7L865.9 101.9C865.8 102 865.6 101.9 865.5 101.9C865.3 101.8 865.4 101.9 865.2 101.7C865.1 101.6 864.8 101.3 864.8 101.4C864.8 101.3 864.7 101.3 864.7 101.2C864.6 101 864.8 101.4 864.7 101.1C864.7 101 864.6 100.6 864.6 100.8C864.5 100.2 864.6 99.6999 864 99.2999C862.7 98.2999 861.6 99.9998 861.6 101.2C861.6 102.3 862.3 103.2 863.1 103.9C864.7 105.1 867.2 105 868.2 103.1C869.3 101.1 867.8 98.4998 865.7 97.8998C865.1 97.6998 864.5 97.9999 864.2 98.4999C864.4 98.1999 864.4 98.2998 864.2 98.3998C864.1 98.4998 863.9 98.5998 863.8 98.6998C863.4 99.0998 863.8 99.8998 864.4 99.8998Z" fill="#333333" stroke="#333333" stroke-width="1.8025" stroke-miterlimit="10" stroke-linecap="round" stroke-linejoin="round"/>
<path d="M845.7 126.9C846.9 124.8 847.6 122.5 848.9 120.4C850.1 118.6 851.7 116.8 853.8 116C855.9 115.2 858.2 115.5 860.1 116.9C861 117.6 861.8 118.5 862.2 119.6C862.4 120.1 862.6 120.6 862.7 121.2C862.9 121.9 863.3 122.3 863.5 122.9C863.7 123.4 864.4 123.6 864.7 123.1C865 122.7 865.3 122.2 865.4 121.7C865.5 121.1 865.4 120.4 865.3 119.8C865 118.6 864.4 117.5 863.7 116.6C862.3 114.7 860.2 113.3 857.8 112.9C853 112.1 848.9 115.2 846.6 119.1C845.3 121.3 844 123.9 843.9 126.5C843.8 127.4 845.2 127.7 845.7 126.9Z" fill="#333333" stroke="#333333" stroke-width="1.8025" stroke-miterlimit="10" stroke-linecap="round" stroke-linejoin="round"/>
<path d="M678.6 135.1C680.2 135.3 681.8 135.6 683.4 135.8C688.3 136.4 693.3 136.8 698.2 137.6C704.3 138.6 702.6 143.5 703 147.2C703.4 150.8 700.4 151.1 697.7 151.6C680.6 154.6 663.6 155 646.2 152.3C644.2 152 642.3 151.7 640.3 151.2C636.6 150.3 634 150.9 634.1 146.6C634.3 142.1 634.6 138.3 640.7 137.9C645.7 137.6 650.6 136.7 655.5 136.5C658.7 136.4 659.8 135.5 658.7 132.1C654.9 132.1 651 132.1 647 131.9C634.1 131.3 623.7 131.5 611 129.8C600.1 128.3 594.4 120.3 594.3 109.4C594.2 101.4 594.4 93.3998 594.1 85.3998C593.5 70.0998 592.9 58.2999 591.8 42.9999C590.8 27.9999 595.5 21.8 611.1 20.6C639.1 18.3 664.5 16.8 692.7 19.1C704.6 20.1 714.8 19.9 726.7 20.6C744 21.7 749 27.8 748.7 46.6C748.5 62.1 747.1 73.9998 745.7 89.3998C744.8 99.5998 743.3 109.7 741.8 119.9C741.1 125.1 737.8 128.4 732.3 128.9C715.4 130.4 700.3 131.7 683.4 133.1C681.7 133.2 680.1 133.4 678.4 133.5C678.6 134.1 678.6 134.6 678.6 135.1ZM598.2 102.5C646.3 101.2 693.6 97.6 741.1 96.3C741.2 95.7 741.5 94.8999 741.5 94.1999C742.8 76.4999 744.1 58.8 745.1 41.1C745.3 37.5 744.1 33.9 743.4 30.3C742.7 27.1 740.5 25.3999 737.1 24.9999C732.5 24.4999 727.8 24.1999 723.2 23.6999C685.3 19.2999 647.4 22.1 609.5 23.1C602.1 23.3 597.9 26 596.2 32.6C595.6 34.9 595.5 37.3 595.6 39.6C596.1 47.6 597 55.4999 597.3 63.4999C597.8 75.8999 597.9 90.5999 598.2 102.5ZM740.6 101.7C692.5 103 645.5 104.2 598.6 105.5C596.7 116.2 600.8 122.6 610.3 124.4C616.1 125.5 627.8 128.3 633.7 128.4C649.5 128.8 665.3 129.5 681 129.1C699.2 128.6 709.5 126.1 730.1 123.7C735.1 123.1 737.9 121.1 738.3 116C738.6 111.7 739.6 107.5 740.6 101.7ZM648.6 149.8C657 150.9 665.6 151 674 149.9C680.6 149.1 687.4 148.2 694.1 147.2C694.3 147.2 694.5 147.1 694.7 147C696.2 146.1 696.2 143.9 694.8 142.9C694.6 142.7 694.3 142.5 694 142.4C693.2 142 692.1 140.8 691.1 140.8C674.7 139.4 656.3 138 640.2 140.4C639.4 140.5 639.9 143.5 639.8 145.3C639.8 146.6 640.3 147.9 641.5 148.6C641.7 148.7 641.9 148.8 642.1 148.8C644.2 149.1 646.4 149.5 648.6 149.8ZM663.8 135.2C664.2 135.6 664.5 136 664.9 136.4C667 136.2 669.1 136.3 671.1 135.8C671.9 135.6 672.3 134.2 672.9 133.4C670.7 133 668.5 132.4 666.4 132.5C665.5 132.6 664.6 134.3 663.8 135.2Z" fill="#333333"/>
<path d="M669.2 118.3C664.8 117.1 662.2 115.8 662.3 112.2C662.5 108.3 665.7 107.9 668.8 107.9C671.8 107.9 675 109.2 674.1 112.6C673.6 114.7 670.9 116.4 669.2 118.3Z" fill="#333333"/>
<path d="M631.4 91.1001C624.6 90.6001 617.7 90.1001 610.9 89.6001C609.8 89.5001 609.4 88.9 609.4 87.7C609.5 84.9 609.6 82.1 609.6 79.3C609.6 73.8 609.5 68.3 609.5 62.8C609.5 58.7 609.7 54.5999 609.8 50.3999C609.9 46.9999 609.9 43.5001 609.9 40.1001C609.9 37.8001 610.3 37.5 612.2 37C617.6 35.5 623 36.2 628.4 36C634.9 35.8 641.5 35.4999 648 35.3999C650.8 35.3999 653.5 35.7 656.3 36C656.7 36 657.3 36.7001 657.3 37.1001C657.6 40.9001 658 44.7 657.9 48.5C657.6 60.5 657 72.6001 656.5 84.6001C656.4 86.2001 656.2 87.7001 656.1 89.3C656 90.6 655.2 91 654.2 91C650.8 91.1 647.4 91.2001 644.1 91.1001C639.9 91.0001 635.6 90.7999 631.4 90.7C631.4 90.9 631.4 91.0001 631.4 91.1001ZM611.6 87.1001C614 87.2001 616.5 87.0999 618.9 87.3999C629.9 88.6999 640.9 88.4001 651.9 88.6001C653.8 88.6001 653.8 88.5999 654 86.3999C654.1 85.6999 654.2 84.9 654.3 84.2C654.6 76.5 655.1 68.9 655.2 61.2C655.4 54.1 656.2 47.1 655.4 40C655.3 39.1 655.2 38.7001 654.3 38.6001C649.9 38.4001 645.5 38.0001 641.1 38.1001C635 38.1001 629 38.5 622.9 38.7C619.1 38.9 615.2 39.1 611.5 39.3C611.5 55.4 611.6 71.2001 611.6 87.1001Z" fill="#333333" stroke="#333333" stroke-width="1.1282" stroke-miterlimit="10" stroke-linecap="round" stroke-linejoin="round"/>
<path d="M653.6 53.2C653.1 60.5 652.7 67.7 652.2 75C652.1 76.4 651.5 77.4 650.2 77.7C649 78 647.8 78.2999 646.6 78.2C639.1 78.1 631.7 78.4 624.3 79.3C623 79.5 621.7 79.2001 620.4 79.1001C619.1 79.0001 617.7 78.8 616.4 78.8C614.5 78.8 614 77.9999 614.1 75.8999C614.4 69.5999 614.6 63.3001 614.7 57.1001C614.8 52.8001 614.6 48.6 614.6 44.3C614.6 42.3 614.9 42.1 616.6 42C626.1 41.7 635.7 41.2999 645.2 40.8999C647.3 40.7999 649.4 40.7 651.4 40.7C652.6 40.7 653.1 41.3 653.2 42.8C653.3 46.3 653.7 49.7 654 53.2C653.8 53.1 653.7 53.2 653.6 53.2ZM650.8 43.3C650.3 43.3 649.8 43.2 649.3 43.3C647 43.4 644.8 43.7 642.5 43.7C635.5 43.8 628.5 43.7999 621.6 43.8999C620.4 43.8999 619.2 44 618 44.2C617.7 44.3 617.2 44.8001 617.1 45.1001C617 47.0001 616.9 48.8 616.9 50.7C617 55.4 617.2 60.1 617.3 64.8C617.3 65.2 617.3 65.6 617.4 66C620.4 63.6 623.3 61.4001 626.2 59.1001C627.8 57.8001 628.2 57.9 629.7 59.3C631.6 61.1 633.6 62.9 635.5 64.7C636.2 65.3 636.7 65.3 637.5 64.8C640.2 63 642.9 61.3 645.6 59.5C646.6 58.8 647.5 59 648.4 59.8C649 60.4 649.7 61 650.5 61.7C651.2 55.6 651.9 49.6 650.8 43.3ZM616.8 76.1001C619.9 76.1001 623.1 76.2999 626.1 76.2C629 76.1 631.8 75.6 634.7 75.5C638.9 75.4 643.1 75.5 647.3 75.5C647.6 75.5 648 75.3999 648.3 75.3999C649.3 75.3999 649.8 74.9 649.8 73.7C649.8 72.2 649.8 70.7 650 69.3C650.5 66.5 649.8 64.5 647.7 63C646.9 62.4 646.4 62.2 645.5 62.8C642.9 64.6 640.2 66.2001 637.6 68.1001C636.6 68.8001 635.8 68.7999 634.9 67.8999C632.7 65.8999 630.5 63.9 628.3 61.8C627.8 61.3 627.4 60.9 626.7 61.5C623.7 63.9 620.6 66.3 617.6 68.7C617.3 69 616.9 69.5 616.9 70C616.9 71.8 616.9 73.7001 616.8 76.1001Z" fill="#333333" stroke="#333333" stroke-width="1.1282" stroke-miterlimit="10" stroke-linecap="round" stroke-linejoin="round"/>
<path d="M644.2 45.3999C646.3 45.4999 649 47.8999 648.8 49.6999C648.5 52.5999 646.7 54.8 644.1 54.8C641.8 54.7 639.9 52.7999 640.3 50.4999C640.8 47.4 641.7 45.0999 644.2 45.3999ZM644.7 48.3C643.5 48.2 642.2 49.3999 642.1 50.3999C642 51.3999 643 52.4 644.1 52.4999C645.4 52.5999 646.9 51.2 646.7 49.8C646.6 48.4 645.4 48.4 644.7 48.3Z" fill="#333333" stroke="#333333" stroke-width="1.1282" stroke-miterlimit="10" stroke-linecap="round" stroke-linejoin="round"/>
<path d="M668.8 55.6002C670.2 55.4002 671.6 55.1 673 55.2C677.7 55.2 682.5 55.3 687.2 55.4C690.6 55.5 693.9 55.7 697.3 55.7C706 55.6 714.7 55.5 723.4 55.4C723.5 55.4 723.7 55.4 723.8 55.4C725 55.5 726.8 55.1002 726.7 56.6002C726.7 58.1002 724.8 57.7 723.7 57.7C715.1 57.9 706.6 58.1002 698 58.1002C690.6 58.1002 683.3 57.9002 675.9 57.6002C673.5 57.5002 671.1 56.9002 668.7 56.6002C668.8 56.1002 668.8 55.8002 668.8 55.6002Z" fill="#333333" stroke="#333333" stroke-width="1.1282" stroke-miterlimit="10" stroke-linecap="round" stroke-linejoin="round"/>
<path d="M675 65.2C683.9 65.2 692.8 65.2001 701.7 65.1001C708.4 65.0001 715.1 64.6 721.9 64.3C722.8 64.3 723.7 64.3 724.5 64.5C725.1 64.7 725.4 65.3 725.9 65.7C725.3 66 724.7 66.6001 724.1 66.6001C719.6 66.8001 715 66.5999 710.5 66.8999C697.6 67.7999 684.8 67.6999 671.9 66.8999C671.6 66.8999 671.3 67 671 66.8C670.4 66.5 669.8 66.1 669.1 65.8C669.7 65.5 670.3 64.8999 671 64.8999C672.3 64.7999 673.6 64.8999 674.9 64.8999C675 65.0999 675 65.2 675 65.2Z" fill="#333333" stroke="#333333" stroke-width="1.1282" stroke-miterlimit="10" stroke-linecap="round" stroke-linejoin="round"/>
<path d="M688.6 74.4999C697.7 73.6999 706.8 72.7999 715.9 71.9999C718.4 71.7999 720.9 71.7 723.4 71.8C724 71.8 724.6 72.4 725.2 72.8C724.6 73.2 724 73.8999 723.4 73.9999C707 75.3999 690.6 76.7999 674.1 76.6999C673.8 76.6999 673.5 76.7999 673.2 76.6999C672.3 76.2999 671.4 75.8 670.5 75.3C671.4 75.1 672.3 74.7 673.2 74.6C678.3 74.3 683.4 74.1999 688.6 73.9999C688.6 73.9999 688.6 74.1999 688.6 74.4999Z" fill="#333333" stroke="#333333" stroke-width="1.1282" stroke-miterlimit="10" stroke-linecap="round" stroke-linejoin="round"/>
<path d="M668.8 84.8C670 84.7 671.3 84.3999 672.5 84.3999C679.3 84.7999 686.1 85.4001 693 85.6001C702.4 85.8001 711.7 85.7 721.1 85.8C721.6 85.8 722.2 85.8 722.6 86C723 86.2 723.4 86.5999 723.4 86.8999C723.4 87.1999 722.8 87.6 722.4 87.7C721.7 87.9 721 88 720.2 88C712.7 88 705.3 88.1 697.8 88C690.9 87.9 684.1 87.7 677.2 87.3C674.3 87.1 671.5 86.3 668.7 85.8C668.8 85.4 668.8 85.1 668.8 84.8Z" fill="#333333" stroke="#333333" stroke-width="1.1282" stroke-miterlimit="10" stroke-linecap="round" stroke-linejoin="round"/>
<path d="M689.4 46.6C690.2 46.4 691 46.0999 691.8 46.1999C699.8 46.3999 707.7 46.9999 715.6 45.6999C717.9 45.2999 720.4 45.7999 722.8 45.9999C723.3 45.9999 723.7 46.7999 724.1 47.1999C723.6 47.4999 723.1 47.9999 722.6 47.9999C713.9 48.1999 705.2 48.3 696.6 48.3C694.2 48.3 691.8 47.7999 689.4 47.4999C689.4 47.1999 689.4 46.9 689.4 46.6Z" fill="#333333" stroke="#333333" stroke-width="1.1282" stroke-miterlimit="10" stroke-linecap="round" stroke-linejoin="round"/>
<path d="M723.4 39.6001C722.3 39.7001 721.1 39.8999 720 39.8999C711.4 39.6999 702.9 39.5 694.3 39.3C693.9 39.3 693.5 39.4 693.2 39.2C692.6 38.9 692 38.5001 691.4 38.1001C692 37.8001 692.6 37.2 693.3 37.2C698.4 37.2 703.4 37.2 708.4 37.3C712.3 37.4 716.3 37.4 720.2 37.7C721.3 37.8 722.4 38.4 723.5 38.7C723.6 39 723.5 39.3001 723.4 39.6001Z" fill="#333333" stroke="#333333" stroke-width="1.1282" stroke-miterlimit="10" stroke-linecap="round" stroke-linejoin="round"/>
<path d="M481.9 28.4C488.8 27.7 495.7 26.9 502.6 26.2C509.5 25.5 516.4 25.0002 523.3 24.6002C522.9 24.2002 522.5 23.8 522.1 23.4C521.6 35.3 521.3 47.1001 520.6 59.0001C520.3 65.0001 519.9 71 519.4 76.9C519.3 78.3 519.2 79.6001 519.1 81.0001C519 81.7001 519 82.5 518.9 83.2C518.9 83.6 518.9 84.3002 518.6 84.6002C518.2 84.9002 517.3 84.8 516.8 84.9C516.1 85 515.3 85.1 514.6 85.2C513.1 85.4 511.6 85.6001 510.1 85.8001C504.3 86.5001 498.5 87.3001 492.7 88.0001C487.3 88.7001 481.6 89.2001 476.3 87.5001C471.9 86.1001 468.2 83.2 466.4 78.9C464.6 74.7 464.5 69.8001 464.4 65.3001C464.3 52.4001 464.5 39.5001 466.8 26.8001C466.4 27.1001 465.9 27.5001 465.5 27.8001C472.2 27.9001 478.9 28.9 485.5 29.9C486.5 30.1 487 28.6001 485.9 28.3001C479.3 26.2001 472.4 25.3001 465.5 25.0001C464.9 25.0001 464.3 25.4001 464.2 26.0001C461.7 37.8001 461.7 50.1 461.7 62.2C461.7 67.2 461.6 72.5001 463 77.3001C464.4 82.1001 467.5 86.1 472 88.4C476.9 90.9 482.5 91.3 488 90.9C494.2 90.4 500.3 89.4002 506.4 88.6002C509.5 88.2002 512.6 87.8001 515.6 87.3001C516.8 87.1001 518.4 87.1002 519.5 86.6002C520.6 86.0002 521 84.9 521.1 83.7C521.8 77.5 522.1 71.3002 522.5 65.1002C523.4 51.2002 524.3 37.2 524.5 23.2C524.5 22.6 523.9 21.9001 523.3 22.0001C509.4 23.2001 495.5 24.5 481.7 26.7C480.7 26.9 480.9 28.5 481.9 28.4Z" fill="#333333" stroke="#333333" stroke-width="1.8025" stroke-miterlimit="10"/>
<path d="M464 70C463.4 73.9 467.2 76.6 470.8 76.7C473.1 76.7 475.4 76 477.5 75.2C479.9 74.3 482.3 73.4 484.8 72.5C484.4 71.9 484.1 71.3 483.7 70.7C479.7 73.9 478.7 80.3 481.2 84.7C482.4 86.9 484.5 88.6 486.8 89.5C488 90 489.2 90.3001 490.5 90.3001C491.8 90.4001 493 89.8999 494.2 89.3999C495 89.0999 494.4 88.1 493.7 88.2C491.7 88.5 489.4 88.1999 487.6 87.3999C485.7 86.5999 484.1 85.1999 483.1 83.3999C481.1 79.5999 482.3 75 485.3 72.2C486.3 71.3 485 70 484 70.5C482.1 71.3 480.2 72.1001 478.2 72.8001C476.4 73.5001 474.5 74.3 472.6 74.7C470.9 75 469.1 74.9 467.6 74C466.3 73.2 465.3 71.8 465.3 70.2C465.3 69.4 464.2 69.2 464 70Z" fill="#333333" stroke="#333333" stroke-width="1.8025" stroke-miterlimit="10"/>
<path d="M484.1 27.6001C484.6 26.9001 484.8 26.5001 484.9 25.6001C485 24.7001 485 23.9 485.1 23C485.2 21.3 485.3 19.5999 485.4 17.8999C485.2 18.1999 484.9 18.5 484.7 18.8C490.2 18 495.7 17.0001 501.3 16.1001C506.8 15.2001 512.4 14.4 517.9 13.5C520.7 13.1 523.6 12.5999 526.4 12.1999C527.7 11.9999 528.9 11.7001 530.2 11.6001C530.9 11.5001 531 11.7999 531.1 12.3999C531.2 13.0999 531.3 13.9001 531.4 14.6001C532.1 20.1001 532.5 25.6999 532.8 31.1999C533.1 37.4999 533.2 43.8001 533 50.1001C533.4 49.7001 533.7 49.4 534.1 49C530.1 49.4 525.8 50.0999 522.1 51.8999C521 52.3999 521.8 54.1999 522.9 53.8999C524.7 53.3999 526.5 52.6999 528.4 52.1999C530.3 51.6999 532.2 51.3999 534.1 51.1999C534.7 51.0999 535.2 50.7001 535.2 50.1001C535.3 38.2001 534.6 26.3001 533.1 14.6001C532.8 12.5001 532.9 9.39993 530 9.69993C527.2 9.99993 524.5 10.6 521.8 11C515.9 11.9 510 12.9 504.1 13.8C497.5 14.8 490.8 15.6999 484.2 16.8999C483.8 16.9999 483.5 17.4 483.5 17.8C483.4 19.5 483.3 21.1999 483.3 22.8999C483.3 23.7999 483.2 24.6 483.2 25.5C483.2 26.3 483.3 26.7 483.8 27.5C483.8 27.8 484 27.7001 484.1 27.6001Z" fill="#333333" stroke="#333333" stroke-width="1.8025" stroke-miterlimit="10"/>
<path d="M460.7 51.3999C450.9 53.4999 441.1 55.7 431.3 57.8C430.9 57.9 430.6 58.3 430.6 58.8C431.2 72.8 431.9 86.8999 432.8 100.9C433.6 114.9 434.7 128.9 435.8 143C436 145.8 435.7 149.6 439.2 150.4C440.8 150.8 442.5 150.9 444.1 151.1C445.8 151.3 447.5 151.6 449.2 151.8C452.6 152.3 456.1 152.8 459.5 153.3C462.8 153.8 466.3 154.6 469.5 153.4C472.5 152.2 475.3 150.3 478.2 148.6C481.2 146.9 484.3 145.1 487.3 143.4C490.3 141.7 493.4 139.9 496.4 138.2C498 137.3 499.5 136.4 501.1 135.5C502.4 134.7 503.9 134 505.1 133C507.6 130.9 506.3 127.1 505.9 124.3C505.4 120.8 504.9 117.4 504.5 113.9C503.5 106.9 502.6 99.9 501.6 93C501.4 91.3 501.1 89.5 500.9 87.8C500.8 87.1 499.9 86.6999 499.3 86.8999C498.5 87.0999 498.3 87.8 498.4 88.5C500.3 101.8 502.3 115 504.1 128.3C504.2 128.9 504.3 129.6 504.2 130.2C504 130.9 503.5 131.3 502.9 131.6C501.5 132.5 500.1 133.2 498.7 134C495.8 135.7 492.9 137.4 489.9 139C484.1 142.3 478.3 145.6 472.5 149C471.2 149.7 469.9 150.6 468.5 151C467 151.5 465.4 151.4 463.8 151.3C460.5 150.9 457.2 150.4 453.9 149.9C450.7 149.4 447.4 149 444.2 148.5C442.7 148.3 441 148.3 439.6 147.8C438.4 147.4 438.6 145.3 438.5 144.2C437.4 130.8 436.4 117.4 435.4 104C434.5 90.6 433.6 77.2 432.9 63.8C432.8 62.1 432.7 60.3999 432.6 58.6999C432.4 58.9999 432.1 59.2999 431.9 59.6999C441.7 57.3999 451.5 55.2 461.2 52.8C462.1 52.6 461.7 51.1999 460.7 51.3999Z" fill="#333333" stroke="#333333" stroke-width="1.8025" stroke-miterlimit="10"/>
<path d="M439.9 147.1C440.4 147 440.7 147 441.2 147C441.7 146.9 442.2 146.6 442.6 146.3C443.5 145.8 444.4 145.3 445.3 144.7C447.1 143.6 448.9 142.4 450.6 141.1C454 138.6 457.2 135.8 460.2 132.8C459.5 132.5 458.9 132.3 458.2 132C458.7 136 459.6 139.9 461 143.7C461.7 145.5 462.5 147.3 463.3 149.1C464.2 150.9 465.1 152.9 466.5 154.4C467.4 155.4 468.7 154.1 468.2 153.1C467.5 151.4 466.3 149.9 465.5 148.3C464.6 146.6 463.8 144.8 463.2 143C461.9 139.5 461 135.8 460.5 132.1C460.4 131.2 459.3 130.5 458.5 131.3C455.6 134.3 452.5 137 449.1 139.5C447.5 140.7 445.8 141.8 444.1 142.9C443.2 143.4 442.3 144 441.4 144.5C440.9 144.8 440.4 145 440.1 145.4C439.8 145.7 439.6 146 439.3 146.4C439 146.6 439.4 147.2 439.9 147.1Z" fill="#333333" stroke="#333333" stroke-width="1.8025" stroke-miterlimit="10"/>
<path d="M448.8 105.2C447.9 105.7 446.9 106.2 446 106.7C445.6 106.9 445.9 107.6 446.3 107.5C449.1 106.6 451.8 105.3 454.5 104.1C457.3 102.8 460.1 101.5 462.9 100.1C465.6 98.8 468.4 97.4 471.1 96.1C473.9 94.7 476.7 93.3999 479.2 91.4999C479.5 91.2999 479.3 90.7 478.9 90.8C476.1 91.7 473.5 93.2 470.9 94.6C468.1 96 465.4 97.4 462.6 98.8C459.9 100.1 457.1 101.5 454.4 102.7C451.6 104 448.7 105.2 446.1 106.7C446.2 106.9 446.4 107.2 446.5 107.4C447.3 106.8 448.2 106.2 449.1 105.5C449.2 105.4 449 105.1 448.8 105.2Z" fill="#333333" stroke="#333333" stroke-width="1.8025" stroke-miterlimit="10"/>
<path d="M449.7 112.4C456.1 108.9 462.6 105.7 469.1 102.7C472.4 101.2 475.7 99.7 479.1 98.3C482.4 96.9 485.8 95.6 489 94C489.5 93.7 489.2 92.9001 488.6 93.1001C485.1 94.0001 481.8 95.4 478.5 96.8C475.2 98.2 471.8 99.7 468.5 101.3C461.9 104.4 455.5 108 449.3 111.7C448.9 111.9 449.3 112.6 449.7 112.4Z" fill="#333333" stroke="#333333" stroke-width="1.8025" stroke-miterlimit="10"/>
<path d="M453.7 118.2C457.1 117.1 460.3 115.5 463.5 114C466.7 112.5 469.9 111 473 109.5C476.2 108 479.3 106.5 482.5 105C485.7 103.5 489.1 102.2 491.9 99.9999C492.3 99.6999 491.9 99.0998 491.4 99.1998C488.1 99.9998 485 101.8 481.9 103.2C478.7 104.7 475.5 106.3 472.3 107.8C469.1 109.3 466 110.9 462.8 112.4C459.6 113.9 456.3 115.4 453.4 117.4C453 117.7 453.2 118.3 453.7 118.2Z" fill="#333333" stroke="#333333" stroke-width="1.8025" stroke-miterlimit="10"/>
<path d="M440.8 84.1999C444.7 82.9999 448.5 81.6 452.3 80.3C456 79 460 77.8998 463.4 75.8998C463.9 75.5998 463.6 74.8999 463 74.9999C461 75.3999 459.2 76.1 457.3 76.8C455.4 77.5 453.4 78.1999 451.5 78.9999C447.7 80.3999 444 81.7998 440.3 83.3998C439.8 83.3998 440.2 84.3999 440.8 84.1999Z" fill="#333333" stroke="#333333" stroke-width="1.8025" stroke-miterlimit="10"/>
<path d="M440.6 78.3998C444.7 77.1998 448.7 75.6999 452.7 74.2999C454.7 73.5999 456.7 72.9999 458.7 72.2999C459.7 71.9999 460.6 71.5999 461.6 71.2999C462.6 70.9999 463.6 70.7 464.4 70.1C464.9 69.7 464.4 68.9999 463.9 68.9999C462.9 68.8999 461.8 69.4 460.9 69.6C459.9 69.9 458.9 70.1999 458 70.4999C455.9 71.1999 453.9 71.9 451.8 72.6C447.8 74 443.8 75.4998 440.1 77.3998C439.6 77.6998 440 78.5998 440.6 78.3998Z" fill="#333333" stroke="#333333" stroke-width="1.8025" stroke-miterlimit="10"/>
<path d="M443.8 70.7C446.9 69.8 450 68.8 453.1 67.8C456.1 66.8 459.2 65.9 461.9 64.3C462.2 64.1 462.1 63.5 461.7 63.5C458.6 63.9 455.6 64.9999 452.6 65.8999C449.5 66.8999 446.5 68.0001 443.4 69.1001C442.5 69.5001 442.8 70.9 443.8 70.7Z" fill="#333333" stroke="#333333" stroke-width="1.8025" stroke-miterlimit="10"/>
<path d="M472.2 41.2C478.4 41.1 484.6 40.9002 490.8 40.6002C493.9 40.5002 497 40.3 500.1 40.2C503.1 40.1 506.2 40.1002 509.2 39.6002C509.8 39.5002 509.6 38.6002 509.1 38.6002C506 38.4002 502.9 38.8001 499.8 39.0001C496.8 39.2001 493.7 39.3001 490.7 39.5001C484.6 39.8001 478.4 40.2001 472.3 40.8001C471.8 40.7001 471.8 41.2 472.2 41.2Z" fill="#333333" stroke="#333333" stroke-width="1.8025" stroke-miterlimit="10"/>
<path d="M474.4 46.1001C480.1 45.9001 485.8 45.7 491.5 45.3C494.4 45.1 497.2 45 500.1 44.8C501.5 44.7 502.8 44.7001 504.2 44.6001C505.6 44.5001 507.1 44.5001 508.4 44.1001C508.8 44.0001 508.8 43.4 508.4 43.3C507.1 43.1 505.7 43.2 504.4 43.3C503 43.4 501.5 43.5001 500.1 43.6001C497.2 43.8001 494.4 43.9999 491.5 44.1999C485.8 44.5999 480.1 45.0999 474.4 45.6999C474.1 45.5999 474 46.1001 474.4 46.1001Z" fill="#333333" stroke="#333333" stroke-width="1.8025" stroke-miterlimit="10"/>
<path d="M474.4 52.7C479.8 52 485.3 51.5 490.7 50.9C493.4 50.6 496.1 50.4 498.8 50.2C500.2 50.1 501.5 50.0001 502.8 49.8001C504.1 49.7001 505.5 49.6 506.8 49.2C507.2 49.1 507.3 48.4001 506.8 48.3001C505.5 48.0001 504.1 48.2 502.8 48.2C501.4 48.3 500.1 48.3001 498.8 48.5001C496 48.7001 493.3 49.0001 490.5 49.3001C485.1 49.9001 479.7 50.7002 474.3 51.6002C473.7 51.8002 473.8 52.8 474.4 52.7Z" fill="#333333" stroke="#333333" stroke-width="1.8025" stroke-miterlimit="10"/>
<path d="M477.4 58.6999C480.7 58.4999 484 58.2999 487.3 57.9999C490.6 57.6999 493.8 57.4998 497 56.8998C497.6 56.7998 497.4 55.8998 496.9 55.8998C493.6 55.7998 490.4 56.2 487.1 56.6C483.8 57 480.6 57.2999 477.3 57.6999C476.8 57.7999 476.8 58.7999 477.4 58.6999Z" fill="#333333" stroke="#333333" stroke-width="1.8025" stroke-miterlimit="10"/>
<path d="M474 25.7C474.6 17.9 473.2 9.69996 470.3 2.39996C470 1.69996 469.5 1.40015 468.8 1.60015C449.3 4.70015 430.1 8.90001 411.1 14.2C408.8 14.8 406.5 15.4 404.3 16.2C402.3 16.9 401.3 18.2 401.2 20.4C401.1 25.2 401.2 30.1 401.4 34.9C401.8 44.5 402.8 54.1002 404.4 63.6002C406.2 74.3001 408.7 85 412 95.4C412.2 96.2 413 96.4002 413.7 96.1002C417.1 94.4002 420.5 92.6001 423.9 90.8001C427.3 89.0001 430.7 87.2001 433.8 85.0001C434.8 84.2001 434 82.7001 432.8 83.3001C429.3 84.9001 426.1 87.0001 422.7 88.8001C419.3 90.6001 415.9 92.4002 412.5 94.1002C413.1 94.3001 413.7 94.6001 414.2 94.8001C408.5 76.9001 405 58.2001 403.8 39.5001C403.5 34.8001 403.3 30.2001 403.3 25.5001C403.3 24.4001 403.3 23.2002 403.3 22.1002C403.3 21.2002 403.1 19.8002 403.8 19.1002C404.4 18.5002 405.6 18.4 406.3 18.2C407.5 17.9 408.6 17.5 409.8 17.2C419 14.6 428.4 12.2002 437.7 10.1002C448.1 7.80015 458.7 5.80015 469.2 4.10015C468.7 3.80015 468.2 3.5001 467.7 3.3001C470.6 10.5001 471.9 18.1 471.8 25.9C472 26.9 473.9 26.9 474 25.7Z" fill="#333333" stroke="#333333" stroke-width="1.8025" stroke-miterlimit="10"/>
<path d="M408.5 33.1001C414.9 31.2001 421.1 28.8001 427.4 26.6001C433.7 24.5001 440.1 22.4 446.5 20.5C448.2 20 450 19.4999 451.7 18.8999C452.6 18.5999 453.6 18.4 454.5 18C455.3 17.7 456.1 17.5 456.7 17C456.9 16.8 456.8 16.4 456.5 16.3C455 16.1 453.4 16.8001 452 17.1001C450.4 17.5001 448.9 18 447.3 18.5C444 19.5 440.8 20.5001 437.6 21.6001C431.2 23.7001 424.9 25.8999 418.7 28.1999C415.2 29.4999 411.7 30.7999 408.3 32.3999C407.9 32.5999 408.1 33.2001 408.5 33.1001Z" fill="#333333" stroke="#333333" stroke-width="1.8025" stroke-miterlimit="10"/>
<path d="M411.3 39.3999C418.7 37.2999 425.8 34.5 433 31.8C436.6 30.5 440.2 29.1999 443.7 27.8999C445.5 27.2999 447.2 26.6 449 26C449.9 25.7 450.9 25.3 451.8 25C452.7 24.7 453.6 24.3999 454.4 23.8999C454.8 23.5999 454.7 22.8 454.1 22.8C452.3 23 450.4 24.0001 448.6 24.6001C446.8 25.3001 445.1 25.9001 443.3 26.6001C439.7 27.9001 436 29.3001 432.4 30.6001C425.2 33.3001 418 35.6999 411 38.8999C410.8 39.0999 411 39.4999 411.3 39.3999Z" fill="#333333" stroke="#333333" stroke-width="1.8025" stroke-miterlimit="10"/>
<path d="M412.4 47.4C423.3 42.6 434.5 38.4002 445.8 34.6002C448.9 33.6002 452.2 32.8001 455.1 31.3001C455.5 31.1001 455.3 30.3 454.8 30.4C451.9 30.6 449 31.7001 446.3 32.5001C443.4 33.4001 440.6 34.4 437.8 35.4C432.2 37.4 426.6 39.6002 421.2 42.1002C418.1 43.5002 415 45.0002 412 46.6002C411.5 46.9002 411.9 47.6 412.4 47.4Z" fill="#333333" stroke="#333333" stroke-width="1.8025" stroke-miterlimit="10"/>
<path d="M409.9 56.7C422.7 51.3 435.6 46.0999 448.8 41.8999C450.6 41.2999 452.4 40.8 454.2 40.2C455.2 39.9 456.1 39.6 457.1 39.3C458 39 458.9 38.8 459.8 38.3C460.4 38 460.1 37 459.5 37C457.8 37 456.1 37.7 454.5 38.2C452.9 38.7 451.2 39.2 449.6 39.7C446.3 40.8 443 41.9001 439.7 43.1001C433.2 45.5001 426.7 48.1 420.4 51C416.8 52.6 413.3 54.4 409.8 56.3C409.5 56.5 409.7 56.8 409.9 56.7Z" fill="#333333" stroke="#333333" stroke-width="1.8025" stroke-miterlimit="10"/>
<path d="M14.9 204.2H0.799988V179.8H14.9V184H5.99998V189.4H14.3V193.6H5.99998V199.9H14.9V204.2Z" fill="#333333"/>
<path d="M30.2 185.2C32.2 185.2 33.8 185.7 35 186.8C36.2 187.9 36.8 189.6 36.8 192V204.2H31.7V193.3C31.7 192 31.5 191 31 190.3C30.5 189.6 29.8 189.3 28.7 189.3C27.1 189.3 26.1 189.8 25.5 190.9C24.9 192 24.6 193.5 24.6 195.5V204.3H19.5V185.6H23.4L24.1 188H24.4C24.8 187.4 25.3 186.8 25.9 186.4C26.5 186 27.2 185.7 27.9 185.5C28.7 185.3 29.4 185.2 30.2 185.2Z" fill="#333333"/>
<path d="M50 200.5C50.6 200.5 51.1 200.4 51.6 200.3C52.1 200.2 52.7 200 53.2 199.9V203.7C52.7 203.9 52 204.1 51.2 204.3C50.4 204.5 49.5 204.5 48.5 204.5C47.4 204.5 46.4 204.3 45.5 204C44.6 203.7 43.9 203 43.4 202.1C42.9 201.2 42.6 200 42.6 198.3V189.3H40.2V187.1L43 185.4L44.5 181.5H47.8V185.5H53V189.3H47.8V198.3C47.8 199 48 199.5 48.4 199.9C48.8 200.3 49.3 200.5 50 200.5Z" fill="#333333"/>
<path d="M59.5 178.2C60.3 178.2 60.9 178.4 61.5 178.7C62.1 179 62.3 179.7 62.3 180.7C62.3 181.6 62 182.3 61.5 182.7C61 183.1 60.3 183.2 59.5 183.2C58.7 183.2 58.1 183 57.5 182.7C56.9 182.4 56.7 181.7 56.7 180.7C56.7 179.7 57 179.1 57.5 178.7C58 178.3 58.7 178.2 59.5 178.2ZM62.1 185.5V204.2H57V185.5H62.1Z" fill="#333333"/>
<path d="M75.1 185.2C76.8 185.2 78.3 185.5 79.6 186.2C80.9 186.9 81.8 187.8 82.5 189.1C83.2 190.4 83.5 191.9 83.5 193.7V196.2H71.4C71.5 197.6 71.9 198.8 72.7 199.6C73.5 200.4 74.6 200.8 76.1 200.8C77.3 200.8 78.4 200.7 79.4 200.4C80.4 200.2 81.4 199.8 82.5 199.3V203.2C81.6 203.7 80.6 204 79.6 204.2C78.6 204.4 77.4 204.5 75.9 204.5C74 204.5 72.4 204.2 70.9 203.5C69.4 202.8 68.3 201.8 67.5 200.3C66.7 198.9 66.3 197.1 66.3 194.9C66.3 192.7 66.7 190.9 67.4 189.4C68.1 187.9 69.2 186.9 70.5 186.1C71.8 185.3 73.4 185.2 75.1 185.2ZM75.2 188.8C74.2 188.8 73.4 189.1 72.7 189.8C72 190.4 71.7 191.4 71.6 192.8H78.8C78.8 192 78.7 191.4 78.4 190.8C78.1 190.2 77.7 189.7 77.2 189.4C76.6 189 76 188.8 75.2 188.8Z" fill="#333333"/>
<path d="M98.3 185.2C100.3 185.2 101.9 185.7 103.1 186.8C104.3 187.9 104.9 189.6 104.9 192V204.2H99.8V193.3C99.8 192 99.6 191 99.1 190.3C98.6 189.6 97.9 189.3 96.8 189.3C95.2 189.3 94.2 189.8 93.6 190.9C93 192 92.7 193.5 92.7 195.5V204.3H87.6V185.6H91.5L92.2 188H92.5C92.9 187.4 93.4 186.8 94 186.4C94.6 186 95.3 185.7 96 185.5C96.7 185.3 97.5 185.2 98.3 185.2Z" fill="#333333"/>
<path d="M116.1 204.5C114 204.5 112.3 203.7 111 202.1C109.7 200.5 109 198.1 109 194.9C109 191.7 109.7 189.3 111 187.6C112.3 185.9 114.1 185.1 116.2 185.1C117.1 185.1 117.9 185.2 118.6 185.5C119.3 185.7 119.9 186.1 120.4 186.5C120.9 186.9 121.3 187.4 121.7 187.9H121.9C121.8 187.5 121.8 187 121.7 186.3C121.6 185.6 121.6 184.9 121.6 184.2V178.2H126.7V204.2H122.8L121.8 201.8H121.6C121.3 202.3 120.9 202.8 120.4 203.2C119.9 203.6 119.3 204 118.7 204.2C118.1 204.4 117 204.5 116.1 204.5ZM117.9 200.5C119.3 200.5 120.3 200.1 120.9 199.3C121.5 198.5 121.8 197.2 121.8 195.5V194.9C121.8 193.1 121.5 191.7 121 190.7C120.4 189.7 119.4 189.3 117.9 189.3C116.8 189.3 115.9 189.8 115.3 190.8C114.7 191.8 114.3 193.2 114.3 195C114.3 196.8 114.6 198.2 115.3 199.1C115.8 200 116.7 200.5 117.9 200.5Z" fill="#333333"/>
<path d="M139.5 185.2C141.2 185.2 142.7 185.5 144 186.2C145.3 186.9 146.2 187.8 146.9 189.1C147.6 190.4 147.9 191.9 147.9 193.7V196.2H135.8C135.9 197.6 136.3 198.8 137.1 199.6C137.9 200.4 139 200.8 140.5 200.8C141.7 200.8 142.8 200.7 143.8 200.4C144.8 200.2 145.8 199.8 146.9 199.3V203.2C146 203.7 145 204 144 204.2C143 204.4 141.8 204.5 140.3 204.5C138.4 204.5 136.8 204.2 135.3 203.5C133.8 202.8 132.7 201.8 131.9 200.3C131.1 198.9 130.7 197.1 130.7 194.9C130.7 192.7 131.1 190.9 131.8 189.4C132.5 187.9 133.6 186.9 134.9 186.1C136.2 185.3 137.8 185.2 139.5 185.2ZM139.6 188.8C138.6 188.8 137.8 189.1 137.1 189.8C136.4 190.4 136.1 191.4 136 192.8H143.2C143.2 192 143.1 191.4 142.8 190.8C142.5 190.2 142.1 189.7 141.6 189.4C141 189 140.4 188.8 139.6 188.8Z" fill="#333333"/>
<path d="M193.8 179.8H201.4C204.7 179.8 207.1 180.3 208.8 181.2C210.5 182.1 211.3 183.7 211.3 186C211.3 186.9 211.2 187.8 210.9 188.5C210.6 189.2 210.2 189.9 209.6 190.3C209 190.8 208.4 191.1 207.6 191.2V191.4C208.4 191.6 209.1 191.9 209.8 192.3C210.5 192.7 211 193.3 211.4 194.1C211.8 194.9 212 195.9 212 197.2C212 198.7 211.6 200 210.9 201C210.2 202.1 209.1 202.9 207.8 203.4C206.5 204 204.9 204.2 203 204.2H193.9V179.8H193.8ZM199 189.4H202C203.5 189.4 204.5 189.2 205.1 188.7C205.7 188.2 206 187.5 206 186.6C206 185.7 205.7 185 205 184.6C204.3 184.2 203.2 184 201.7 184H199V189.4ZM199 193.6V200H202.4C204 200 205 199.7 205.7 199.1C206.3 198.5 206.6 197.7 206.6 196.7C206.6 196.1 206.5 195.6 206.2 195.1C205.9 194.6 205.5 194.3 204.9 194C204.3 193.7 203.4 193.6 202.3 193.6H199Z" fill="#333333"/>
<path d="M233.4 194.8C233.4 196.4 233.2 197.7 232.8 198.9C232.4 200.1 231.8 201.1 231 202C230.2 202.8 229.2 203.5 228.1 203.9C227 204.3 225.7 204.5 224.3 204.5C223 204.5 221.8 204.3 220.7 203.9C219.6 203.5 218.6 202.8 217.8 202C217 201.2 216.4 200.2 215.9 198.9C215.5 197.7 215.2 196.3 215.2 194.8C215.2 192.7 215.6 191 216.3 189.5C217 188.1 218.1 187 219.4 186.2C220.8 185.5 222.4 185.1 224.3 185.1C226.1 185.1 227.6 185.5 229 186.2C230.4 186.9 231.4 188 232.2 189.5C233 191 233.4 192.8 233.4 194.8ZM220.5 194.8C220.5 196 220.6 197.1 220.9 197.9C221.2 198.7 221.6 199.4 222.2 199.8C222.8 200.2 223.5 200.4 224.4 200.4C225.3 200.4 226 200.2 226.6 199.8C227.2 199.4 227.6 198.7 227.8 197.9C228.1 197.1 228.2 196 228.2 194.8C228.2 193.6 228.1 192.5 227.8 191.7C227.5 190.9 227.1 190.3 226.6 189.9C226 189.5 225.3 189.3 224.4 189.3C223.1 189.3 222.1 189.8 221.5 190.7C220.8 191.6 220.5 193 220.5 194.8Z" fill="#333333"/>
<path d="M250.7 198.7C250.7 200 250.4 201 249.8 201.9C249.2 202.8 248.3 203.4 247.1 203.9C245.9 204.4 244.4 204.6 242.7 204.6C241.4 204.6 240.3 204.5 239.3 204.4C238.4 204.2 237.4 204 236.5 203.6V199.4C237.5 199.9 238.6 200.2 239.8 200.5C241 200.8 242 200.9 242.9 200.9C243.9 200.9 244.6 200.8 245 200.5C245.4 200.2 245.6 199.8 245.6 199.3C245.6 199 245.5 198.7 245.3 198.5C245.1 198.3 244.8 198 244.2 197.6C243.6 197.3 242.7 196.9 241.5 196.4C240.3 195.9 239.4 195.4 238.6 194.9C237.8 194.4 237.3 193.8 236.9 193.1C236.5 192.4 236.4 191.5 236.4 190.5C236.4 188.8 237.1 187.5 238.4 186.6C239.7 185.7 241.5 185.3 243.8 185.3C245 185.3 246.1 185.4 247.1 185.7C248.2 185.9 249.2 186.3 250.4 186.8L248.9 190.5C248 190.1 247.1 189.8 246.3 189.5C245.5 189.2 244.6 189.1 243.8 189.1C243.1 189.1 242.5 189.2 242.1 189.4C241.7 189.6 241.5 189.9 241.5 190.3C241.5 190.6 241.6 190.9 241.8 191.1C242 191.3 242.4 191.6 242.9 191.9C243.5 192.2 244.3 192.6 245.4 193C246.5 193.4 247.4 193.9 248.2 194.4C249 194.9 249.6 195.5 250 196.2C250.5 196.7 250.7 197.6 250.7 198.7Z" fill="#333333"/>
<path d="M265.9 212.4V204.6C265.9 204.1 265.9 203.7 266 203.2C266.1 202.7 266.1 202.3 266.2 201.8H266C265.5 202.6 264.9 203.2 264 203.8C263.2 204.3 262.1 204.6 260.7 204.6C258.6 204.6 256.9 203.8 255.6 202.2C254.3 200.6 253.7 198.2 253.7 195C253.7 192.9 254 191.1 254.6 189.6C255.2 188.2 256 187.1 257.1 186.3C258.2 185.6 259.4 185.2 260.8 185.2C262.2 185.2 263.3 185.5 264.1 186C265 186.5 265.6 187.2 266.2 187.9H266.3L266.8 185.5H271.1V212.4H265.9ZM262.4 200.6C263.3 200.6 264.1 200.4 264.6 200C265.1 199.6 265.6 199.1 265.8 198.3C266 197.6 266.2 196.6 266.2 195.5V194.9C266.2 193.1 265.9 191.7 265.4 190.7C264.8 189.7 263.8 189.3 262.3 189.3C261.1 189.3 260.2 189.8 259.6 190.8C259 191.8 258.7 193.2 258.7 195C258.7 196.9 259 198.3 259.6 199.2C260.2 200.1 261.2 200.6 262.4 200.6Z" fill="#333333"/>
<path d="M293.5 185.5V204.2H289.6L288.9 201.8H288.6C288.2 202.4 287.7 203 287.1 203.4C286.5 203.8 285.8 204.1 285.1 204.3C284.4 204.5 283.6 204.6 282.8 204.6C281.5 204.6 280.3 204.4 279.3 203.9C278.3 203.4 277.5 202.7 277 201.7C276.4 200.7 276.2 199.4 276.2 197.8V185.6H281.3V196.5C281.3 197.8 281.5 198.8 282 199.5C282.5 200.2 283.2 200.5 284.3 200.5C285.3 200.5 286.2 200.3 286.7 199.8C287.2 199.3 287.7 198.6 287.9 197.7C288.1 196.8 288.3 195.7 288.3 194.3V185.5H293.5Z" fill="#333333"/>
<path d="M306.5 185.2C308.2 185.2 309.7 185.5 311 186.2C312.3 186.9 313.2 187.8 313.9 189.1C314.6 190.4 314.9 191.9 314.9 193.7V196.2H302.8C302.9 197.6 303.3 198.8 304.1 199.6C304.9 200.4 306 200.8 307.5 200.8C308.7 200.8 309.8 200.7 310.8 200.4C311.8 200.2 312.8 199.8 313.9 199.3V203.2C313 203.7 312 204 311 204.2C310 204.4 308.8 204.5 307.3 204.5C305.4 204.5 303.8 204.2 302.3 203.5C300.8 202.8 299.7 201.8 298.9 200.3C298.1 198.9 297.7 197.1 297.7 194.9C297.7 192.7 298.1 190.9 298.8 189.4C299.5 187.9 300.6 186.9 301.9 186.1C303.2 185.3 304.8 185.2 306.5 185.2ZM306.6 188.8C305.6 188.8 304.8 189.1 304.1 189.8C303.4 190.4 303.1 191.4 303 192.8H310.2C310.2 192 310.1 191.4 309.8 190.8C309.5 190.2 309.1 189.7 308.6 189.4C308 189 307.4 188.8 306.6 188.8Z" fill="#333333"/>
<path d="M317.6 212.4C317 212.4 316.4 212.4 315.8 212.3C315.2 212.2 314.7 212.1 314.2 212V208C314.6 208.1 315 208.2 315.4 208.2C315.8 208.3 316.2 208.3 316.6 208.3C317.3 208.3 317.9 208.1 318.4 207.7C318.9 207.3 319.1 206.6 319.1 205.4V185.4H324.2V206.1C324.2 207.2 324 208.3 323.5 209.2C323.1 210.1 322.4 210.9 321.4 211.4C320.4 212.2 319.2 212.4 317.6 212.4ZM318.9 180.7C318.9 179.7 319.2 179.1 319.7 178.7C320.2 178.3 320.9 178.2 321.7 178.2C322.5 178.2 323.1 178.4 323.7 178.7C324.3 179 324.5 179.7 324.5 180.7C324.5 181.6 324.2 182.3 323.7 182.7C323.2 183.1 322.5 183.2 321.7 183.2C320.9 183.2 320.3 183 319.7 182.7C319.1 182.4 318.9 181.6 318.9 180.7Z" fill="#333333"/>
<path d="M337.2 185.1C339.7 185.1 341.6 185.6 343 186.7C344.4 187.8 345 189.5 345 191.7V204.2H341.4L340.4 201.7H340.3C339.8 202.4 339.2 202.9 338.7 203.3C338.1 203.7 337.5 204 336.8 204.2C336.1 204.4 335.2 204.5 334.2 204.5C333.1 204.5 332.1 204.3 331.2 203.9C330.3 203.5 329.6 202.8 329.1 202C328.6 201.1 328.3 200 328.3 198.7C328.3 196.7 329 195.3 330.4 194.3C331.8 193.3 333.9 192.8 336.7 192.7L339.9 192.6V191.8C339.9 190.8 339.6 190.1 339.1 189.6C338.6 189.1 337.9 188.9 337 188.9C336.1 188.9 335.2 189 334.3 189.3C333.4 189.6 332.6 189.9 331.7 190.3L330 186.9C331 186.4 332.1 186 333.3 185.7C334.6 185.3 335.9 185.1 337.2 185.1ZM339.9 195.6L337.9 195.7C336.2 195.7 335.1 196 334.5 196.6C333.9 197.1 333.5 197.9 333.5 198.8C333.5 199.6 333.7 200.1 334.2 200.5C334.7 200.8 335.3 201 336 201C337.1 201 338 200.7 338.8 200C339.6 199.3 339.9 198.4 339.9 197.2V195.6Z" fill="#333333"/>
<path d="M430.3 191.8C430.3 194.6 429.8 196.9 428.7 198.7C427.6 200.5 426.1 201.9 424.1 202.9C422.1 203.9 419.7 204.3 416.9 204.3H410V179.9H417.7C420.3 179.9 422.5 180.4 424.4 181.3C426.3 182.2 427.7 183.6 428.8 185.3C429.8 186.9 430.3 189.1 430.3 191.8ZM424.9 191.9C424.9 190.1 424.6 188.6 424.1 187.4C423.6 186.2 422.8 185.4 421.8 184.8C420.8 184.2 419.5 184 418 184H415.2V199.9H417.4C419.9 199.9 421.8 199.2 423 197.9C424.3 196.6 424.9 194.6 424.9 191.9Z" fill="#333333"/>
<path d="M442.7 185.2C444.4 185.2 445.9 185.5 447.2 186.2C448.5 186.9 449.4 187.8 450.1 189.1C450.8 190.4 451.1 191.9 451.1 193.7V196.2H439C439.1 197.6 439.5 198.8 440.3 199.6C441.1 200.4 442.2 200.8 443.7 200.8C444.9 200.8 446 200.7 447 200.4C448 200.2 449 199.8 450.1 199.3V203.2C449.2 203.7 448.2 204 447.2 204.2C446.2 204.4 445 204.5 443.5 204.5C441.6 204.5 440 204.2 438.5 203.5C437 202.8 435.9 201.8 435.1 200.3C434.3 198.9 433.9 197.1 433.9 194.9C433.9 192.7 434.3 190.9 435 189.4C435.7 187.9 436.8 186.9 438.1 186.1C439.4 185.3 440.9 185.2 442.7 185.2ZM442.7 188.8C441.7 188.8 440.9 189.1 440.2 189.8C439.5 190.4 439.2 191.4 439.1 192.8H446.3C446.3 192 446.2 191.4 445.9 190.8C445.6 190.2 445.2 189.7 444.7 189.4C444.2 189 443.5 188.8 442.7 188.8Z" fill="#333333"/>
<path d="M462.8 204.5C460.9 204.5 459.4 204.2 458.1 203.5C456.8 202.8 455.8 201.8 455.1 200.4C454.4 199 454.1 197.2 454.1 195C454.1 192.7 454.5 190.8 455.3 189.4C456.1 188 457.2 186.9 458.5 186.2C459.9 185.5 461.5 185.2 463.3 185.2C464.6 185.2 465.7 185.3 466.7 185.6C467.6 185.8 468.5 186.1 469.2 186.5L467.7 190.4C466.9 190.1 466.2 189.8 465.5 189.6C464.8 189.4 464.1 189.3 463.4 189.3C462.5 189.3 461.8 189.5 461.2 189.9C460.6 190.3 460.2 190.9 459.9 191.8C459.6 192.7 459.5 193.7 459.5 194.9C459.5 196.1 459.7 197.2 460 198C460.3 198.8 460.8 199.4 461.4 199.8C462 200.2 462.7 200.4 463.6 200.4C464.7 200.4 465.6 200.3 466.4 200C467.2 199.7 468 199.3 468.8 198.8V203.2C468 203.7 467.2 204 466.3 204.3C465.2 204.4 464.1 204.5 462.8 204.5Z" fill="#333333"/>
<path d="M475.4 178.2C476.2 178.2 476.8 178.4 477.4 178.7C478 179 478.2 179.7 478.2 180.7C478.2 181.6 477.9 182.3 477.4 182.7C476.9 183.1 476.2 183.2 475.4 183.2C474.6 183.2 474 183 473.4 182.7C472.9 182.3 472.6 181.7 472.6 180.7C472.6 179.7 472.9 179.1 473.4 178.7C474 178.4 474.6 178.2 475.4 178.2ZM477.9 185.5V204.2H472.8V185.5H477.9Z" fill="#333333"/>
<path d="M489.2 204.5C487.1 204.5 485.4 203.7 484.1 202.1C482.8 200.5 482.1 198.1 482.1 194.9C482.1 191.7 482.8 189.3 484.1 187.6C485.4 186 487.2 185.1 489.3 185.1C490.2 185.1 491 185.2 491.7 185.5C492.4 185.7 493 186.1 493.5 186.5C494 186.9 494.4 187.4 494.8 187.9H495C494.9 187.5 494.9 187 494.8 186.3C494.7 185.6 494.7 184.9 494.7 184.2V178.2H499.8V204.2H495.9L494.9 201.8H494.7C494.4 202.3 494 202.8 493.5 203.2C493 203.6 492.4 204 491.8 204.2C491.2 204.4 490.1 204.5 489.2 204.5ZM491 200.5C492.4 200.5 493.4 200.1 494 199.3C494.6 198.5 494.9 197.2 494.9 195.5V194.9C494.9 193.1 494.6 191.7 494.1 190.7C493.5 189.7 492.5 189.3 491 189.3C489.9 189.3 489 189.8 488.4 190.8C487.8 191.8 487.4 193.2 487.4 195C487.4 196.8 487.7 198.2 488.4 199.1C488.9 200 489.8 200.5 491 200.5Z" fill="#333333"/>
<path d="M512.7 185.2C514.4 185.2 515.9 185.5 517.2 186.2C518.4 186.9 519.4 187.8 520.1 189.1C520.8 190.4 521.1 191.9 521.1 193.7V196.2H509C509.1 197.6 509.5 198.8 510.3 199.6C511.1 200.4 512.2 200.8 513.7 200.8C514.9 200.8 516 200.7 517 200.4C518 200.1 519 199.8 520.1 199.3V203.2C519.2 203.7 518.2 204 517.2 204.2C516.2 204.4 515 204.5 513.5 204.5C511.6 204.5 510 204.2 508.5 203.5C507 202.8 505.9 201.8 505.1 200.3C504.3 198.9 503.9 197.1 503.9 194.9C503.9 192.7 504.3 190.9 505 189.4C505.7 187.9 506.8 186.9 508.1 186.1C509.3 185.5 510.9 185.2 512.7 185.2ZM512.7 188.8C511.7 188.8 510.9 189.1 510.2 189.8C509.5 190.5 509.2 191.4 509.1 192.8H516.3C516.3 192 516.2 191.4 515.9 190.8C515.6 190.2 515.2 189.7 514.7 189.4C514.2 189.1 513.5 188.8 512.7 188.8Z" fill="#333333"/>
<path d="M590.2 179.8C593.4 179.8 595.7 180.5 597.1 181.8C598.5 183.2 599.3 185 599.3 187.4C599.3 188.5 599.1 189.5 598.8 190.5C598.5 191.5 597.9 192.3 597.2 193.1C596.5 193.9 595.5 194.5 594.3 194.9C593.1 195.3 591.6 195.6 589.8 195.6H587.6V204.3H582.4V179.9H590.2V179.8ZM589.9 184H587.5V191.3H589.2C590.2 191.3 591 191.2 591.7 190.9C592.4 190.6 593 190.2 593.4 189.7C593.8 189.2 594 188.5 594 187.6C594 186.4 593.7 185.5 593 184.9C592.4 184.3 591.3 184 589.9 184Z" fill="#333333"/>
<path d="M613.9 185.2C614.2 185.2 614.5 185.2 614.8 185.2C615.1 185.2 615.4 185.3 615.6 185.3L615.2 190.1C615 190 614.8 190 614.5 190C614.2 190 613.9 190 613.7 190C613 190 612.4 190.1 611.8 190.3C611.2 190.5 610.6 190.7 610.1 191.1C609.6 191.5 609.2 192 608.9 192.6C608.6 193.2 608.5 194 608.5 194.8V204.3H603.4V185.6H607.3L608.1 188.7H608.4C608.8 188.1 609.2 187.5 609.8 187C610.4 186.5 611 186 611.7 185.7C612.3 185.3 613.1 185.2 613.9 185.2Z" fill="#333333"/>
<path d="M636 194.8C636 196.4 635.8 197.7 635.4 198.9C635 200.1 634.4 201.1 633.6 202C632.8 202.8 631.8 203.5 630.7 203.9C629.6 204.3 628.3 204.5 626.9 204.5C625.6 204.5 624.4 204.3 623.3 203.9C622.2 203.5 621.2 202.8 620.4 202C619.6 201.2 619 200.2 618.5 198.9C618 197.6 617.8 196.3 617.8 194.8C617.8 192.7 618.2 191 618.9 189.5C619.6 188.1 620.7 187 622 186.2C623.4 185.5 625 185.1 626.9 185.1C628.7 185.1 630.2 185.5 631.6 186.2C633 186.9 634 188 634.8 189.5C635.6 191 636 192.8 636 194.8ZM623.1 194.8C623.1 196 623.2 197.1 623.5 197.9C623.8 198.7 624.2 199.4 624.8 199.8C625.4 200.2 626.1 200.4 627 200.4C627.9 200.4 628.6 200.2 629.2 199.8C629.8 199.4 630.2 198.7 630.4 197.9C630.7 197.1 630.8 196 630.8 194.8C630.8 193.6 630.7 192.5 630.4 191.7C630.1 190.9 629.7 190.3 629.2 189.9C628.6 189.5 627.9 189.3 627 189.3C625.7 189.3 624.7 189.8 624.1 190.7C623.5 191.6 623.1 193 623.1 194.8Z" fill="#333333"/>
<path d="M648.1 200.5C648.7 200.5 649.2 200.4 649.7 200.3C650.2 200.2 650.8 200 651.3 199.9V203.7C650.8 203.9 650.1 204.1 649.3 204.3C648.5 204.5 647.6 204.5 646.6 204.5C645.5 204.5 644.5 204.3 643.6 204C642.7 203.6 642 203 641.5 202.1C641 201.2 640.7 200 640.7 198.3V189.3H638.3V187.1L641.1 185.4L642.6 181.5H645.9V185.5H651.1V189.3H645.9V198.3C645.9 199 646.1 199.5 646.5 199.9C646.9 200.3 647.5 200.5 648.1 200.5Z" fill="#333333"/>
<path d="M672.1 194.8C672.1 196.4 671.9 197.7 671.5 198.9C671.1 200.1 670.5 201.1 669.7 202C668.9 202.8 667.9 203.5 666.8 203.9C665.7 204.3 664.4 204.5 663 204.5C661.7 204.5 660.5 204.3 659.4 203.9C658.3 203.5 657.3 202.8 656.5 202C655.7 201.2 655.1 200.2 654.6 198.9C654.1 197.6 653.9 196.3 653.9 194.8C653.9 192.7 654.3 191 655 189.5C655.7 188.1 656.8 187 658.1 186.2C659.5 185.5 661.1 185.1 663 185.1C664.8 185.1 666.3 185.5 667.7 186.2C669.1 186.9 670.1 188 670.9 189.5C671.7 191 672.1 192.8 672.1 194.8ZM659.2 194.8C659.2 196 659.3 197.1 659.6 197.9C659.9 198.7 660.3 199.4 660.9 199.8C661.5 200.2 662.2 200.4 663.1 200.4C664 200.4 664.7 200.2 665.3 199.8C665.9 199.4 666.3 198.7 666.5 197.9C666.8 197.1 666.9 196 666.9 194.8C666.9 193.6 666.8 192.5 666.5 191.7C666.2 190.9 665.8 190.3 665.3 189.9C664.7 189.5 664 189.3 663.1 189.3C661.8 189.3 660.8 189.8 660.2 190.7C659.6 191.6 659.2 193 659.2 194.8Z" fill="#333333"/>
<path d="M684.2 200.5C684.8 200.5 685.3 200.4 685.8 200.3C686.3 200.2 686.9 200 687.4 199.9V203.7C686.9 203.9 686.2 204.1 685.4 204.3C684.6 204.5 683.7 204.5 682.7 204.5C681.6 204.5 680.6 204.3 679.7 204C678.8 203.6 678.1 203 677.6 202.1C677.1 201.2 676.8 200 676.8 198.3V189.3H674.4V187.1L677.2 185.4L678.7 181.5H682V185.5H687.2V189.3H682V198.3C682 199 682.2 199.5 682.6 199.9C683 200.3 683.5 200.5 684.2 200.5Z" fill="#333333"/>
<path d="M693.7 178.2C694.5 178.2 695.1 178.4 695.7 178.7C696.3 179 696.5 179.7 696.5 180.7C696.5 181.6 696.2 182.3 695.7 182.7C695.2 183.1 694.5 183.2 693.7 183.2C692.9 183.2 692.3 183 691.7 182.7C691.2 182.3 690.9 181.7 690.9 180.7C690.9 179.7 691.2 179.1 691.7 178.7C692.3 178.4 693 178.2 693.7 178.2ZM696.3 185.5V204.2H691.2V185.5H696.3Z" fill="#333333"/>
<path d="M712 185.2C714.1 185.2 715.8 186 717.1 187.7C718.4 189.3 719 191.7 719 194.9C719 197 718.7 198.8 718.1 200.2C717.5 201.6 716.6 202.7 715.6 203.5C714.5 204.2 713.3 204.6 711.9 204.6C711 204.6 710.2 204.5 709.6 204.3C709 204.1 708.4 203.8 707.9 203.4C707.4 203 707 202.6 706.7 202.2H706.4C706.5 202.6 706.6 203.1 706.6 203.6C706.6 204.1 706.7 204.5 706.7 205V212.5H701.6V185.6H705.7L706.4 188H706.6C706.9 187.5 707.3 187 707.8 186.6C708.3 186.2 708.9 185.8 709.5 185.6C710.4 185.3 711.1 185.2 712 185.2ZM710.4 189.2C709.5 189.2 708.8 189.4 708.3 189.8C707.8 190.2 707.4 190.7 707.2 191.5C707 192.2 706.8 193.2 706.8 194.3V194.9C706.8 196.1 706.9 197.1 707.1 198C707.3 198.8 707.7 199.5 708.3 199.9C708.9 200.3 709.6 200.6 710.5 200.6C711.3 200.6 711.9 200.4 712.4 199.9C712.9 199.5 713.3 198.8 713.5 198C713.8 197.2 713.9 196.1 713.9 194.9C713.9 193.1 713.6 191.7 713 190.8C712.5 189.7 711.6 189.2 710.4 189.2Z" fill="#333333"/>
<path d="M731 185.1C733.5 185.1 735.4 185.6 736.8 186.7C738.2 187.8 738.8 189.5 738.8 191.7V204.2H735.2L734.2 201.7H734.1C733.6 202.4 733 202.9 732.5 203.3C731.9 203.7 731.3 204 730.6 204.2C729.9 204.4 729 204.5 728 204.5C726.9 204.5 725.9 204.3 725 203.9C724.1 203.5 723.4 202.8 722.9 202C722.4 201.2 722.1 200 722.1 198.7C722.1 196.7 722.8 195.3 724.2 194.3C725.6 193.3 727.7 192.8 730.5 192.7L733.7 192.6V191.8C733.7 190.8 733.4 190.1 732.9 189.6C732.4 189.1 731.7 188.9 730.8 188.9C729.9 188.9 729 189 728.1 189.3C727.2 189.6 726.4 189.9 725.5 190.3L723.8 186.9C724.8 186.4 725.9 186 727.1 185.7C728.4 185.3 729.6 185.1 731 185.1ZM733.7 195.6L731.7 195.7C730 195.7 728.9 196 728.3 196.6C727.7 197.1 727.3 197.9 727.3 198.8C727.3 199.6 727.5 200.1 728 200.5C728.5 200.9 729.1 201 729.8 201C730.9 201 731.8 200.7 732.6 200C733.4 199.4 733.7 198.4 733.7 197.2V195.6Z" fill="#333333"/>
<path d="M825.1 179.8L816.8 204.2H811.1L802.8 179.8H808L812.6 194.3C812.7 194.5 812.8 195 813 195.7C813.2 196.4 813.4 197.1 813.5 197.8C813.7 198.6 813.8 199.2 813.9 199.7C814 199.2 814.1 198.6 814.3 197.8C814.5 197 814.6 196.3 814.8 195.7C815 195 815.1 194.6 815.2 194.3L819.8 179.8H825.1Z" fill="#333333"/>
<path d="M835.4 185.1C837.9 185.1 839.8 185.6 841.2 186.7C842.6 187.8 843.2 189.5 843.2 191.7V204.2H839.6L838.6 201.7H838.5C838 202.4 837.4 202.9 836.9 203.3C836.3 203.7 835.7 204 835 204.2C834.3 204.4 833.4 204.5 832.4 204.5C831.3 204.5 830.3 204.3 829.4 203.9C828.5 203.5 827.8 202.8 827.3 202C826.8 201.2 826.5 200 826.5 198.7C826.5 196.7 827.2 195.3 828.6 194.3C830 193.3 832.1 192.8 834.9 192.7L838.1 192.6V191.8C838.1 190.8 837.8 190.1 837.3 189.6C836.8 189.1 836.1 188.9 835.2 188.9C834.3 188.9 833.4 189 832.5 189.3C831.6 189.6 830.8 189.9 829.9 190.3L828.2 186.9C829.2 186.4 830.3 186 831.5 185.7C832.8 185.3 834.1 185.1 835.4 185.1ZM838.1 195.6L836.1 195.7C834.4 195.7 833.3 196 832.7 196.6C832.1 197.1 831.7 197.9 831.7 198.8C831.7 199.6 831.9 200.1 832.4 200.5C832.9 200.9 833.5 201 834.2 201C835.3 201 836.2 200.7 837 200C837.8 199.4 838.1 198.4 838.1 197.2V195.6Z" fill="#333333"/>
<path d="M853.5 204.2H848.4V178.2H853.5V204.2Z" fill="#333333"/>
<path d="M861.4 178.2C862.2 178.2 862.8 178.4 863.4 178.7C864 179 864.2 179.7 864.2 180.7C864.2 181.6 863.9 182.3 863.4 182.7C862.9 183.1 862.2 183.2 861.4 183.2C860.6 183.2 860 183 859.4 182.7C858.9 182.3 858.6 181.7 858.6 180.7C858.6 179.7 858.9 179.1 859.4 178.7C860 178.4 860.7 178.2 861.4 178.2ZM864 185.5V204.2H858.9V185.5H864Z" fill="#333333"/>
<path d="M875.2 204.5C873.1 204.5 871.4 203.7 870.1 202.1C868.8 200.5 868.1 198.1 868.1 194.9C868.1 191.7 868.8 189.3 870.1 187.6C871.4 186 873.2 185.1 875.3 185.1C876.2 185.1 877 185.2 877.7 185.5C878.4 185.7 879 186.1 879.5 186.5C880 186.9 880.4 187.4 880.8 187.9H881C880.9 187.5 880.9 187 880.8 186.3C880.7 185.6 880.7 184.9 880.7 184.2V178.2H885.8V204.2H881.9L880.9 201.8H880.7C880.4 202.3 880 202.8 879.5 203.2C879 203.6 878.4 204 877.8 204.2C877.2 204.4 876.1 204.5 875.2 204.5ZM877 200.5C878.4 200.5 879.4 200.1 880 199.3C880.6 198.5 880.9 197.2 880.9 195.5V194.9C880.9 193.1 880.6 191.7 880.1 190.7C879.5 189.7 878.5 189.3 877 189.3C875.9 189.3 875 189.8 874.4 190.8C873.8 191.8 873.4 193.2 873.4 195C873.4 196.8 873.7 198.2 874.4 199.1C875 200 875.9 200.5 877 200.5Z" fill="#333333"/>
<path d="M898.6 185.1C901.1 185.1 903 185.6 904.4 186.7C905.8 187.8 906.4 189.5 906.4 191.7V204.2H902.8L901.8 201.7H901.7C901.2 202.4 900.6 202.9 900.1 203.3C899.5 203.7 898.9 204 898.2 204.2C897.5 204.4 896.6 204.5 895.6 204.5C894.5 204.5 893.5 204.3 892.6 203.9C891.7 203.5 891 202.8 890.5 202C890 201.2 889.7 200 889.7 198.7C889.7 196.7 890.4 195.3 891.8 194.3C893.2 193.3 895.3 192.8 898.1 192.7L901.3 192.6V191.8C901.3 190.8 901 190.1 900.5 189.6C900 189.1 899.3 188.9 898.4 188.9C897.5 188.9 896.6 189 895.7 189.3C894.8 189.6 894 189.9 893.1 190.3L891.4 186.9C892.4 186.4 893.5 186 894.7 185.7C896.1 185.3 897.3 185.1 898.6 185.1ZM901.4 195.6L899.4 195.7C897.7 195.7 896.6 196 896 196.6C895.4 197.1 895 197.9 895 198.8C895 199.6 895.2 200.1 895.7 200.5C896.2 200.9 896.8 201 897.5 201C898.6 201 899.5 200.7 900.3 200C901.1 199.4 901.4 198.4 901.4 197.2V195.6Z" fill="#333333"/>
<path d="M82.2 236.3H857.1" stroke="#333333" stroke-width="9.0124" stroke-miterlimit="10"/>
<path d="M87.1 253.2C96.047 253.2 103.3 245.947 103.3 237C103.3 228.053 96.047 220.8 87.1 220.8C78.153 220.8 70.9 228.053 70.9 237C70.9 245.947 78.153 253.2 87.1 253.2Z" fill="#333333"/>
<path d="M273.7 253.2C282.647 253.2 289.9 245.947 289.9 237C289.9 228.053 282.647 220.8 273.7 220.8C264.753 220.8 257.5 228.053 257.5 237C257.5 245.947 264.753 253.2 273.7 253.2Z" fill="#333333"/>
<path d="M469.3 253.2C478.247 253.2 485.5 245.947 485.5 237C485.5 228.053 478.247 220.8 469.3 220.8C460.353 220.8 453.1 228.053 453.1 237C453.1 245.947 460.353 253.2 469.3 253.2Z" fill="#333333"/>
<path d="M664.8 253.2C673.747 253.2 681 245.947 681 237C681 228.053 673.747 220.8 664.8 220.8C655.853 220.8 648.6 228.053 648.6 237C648.6 245.947 655.853 253.2 664.8 253.2Z" fill="#333333"/>
<path d="M856.8 253.2C865.747 253.2 873 245.947 873 237C873 228.053 865.747 220.8 856.8 220.8C847.853 220.8 840.6 228.053 840.6 237C840.6 245.947 847.853 253.2 856.8 253.2Z" fill="#333333"/>
</svg>
