<svg width="364" height="447" viewBox="0 0 364 447" fill="none" xmlns="http://www.w3.org/2000/svg">
<path d="M-1.5 0C46.4325 5.71589e-07 93.8956 9.44101 138.179 27.784C182.463 46.1269 222.701 73.0127 256.594 106.906C290.487 140.799 317.373 181.037 335.716 225.321C354.059 269.604 363.5 317.068 363.5 365L-1.5 365V0Z" fill="#263F28"/>
<path d="M261.5 412C261.5 374.074 246.434 337.701 219.616 310.884C192.799 284.066 156.426 269 118.5 269V412L261.5 412Z" fill="#263F28"/>
<path d="M261.5 412C261.5 374.074 246.434 337.701 219.616 310.884C192.799 284.066 156.426 269 118.5 269V412L261.5 412Z" fill="black" fill-opacity="0.2"/>
<mask id="path-3-inside-1_1996_4550" fill="white">
<path d="M102.5 569C121.279 569 139.874 565.301 157.224 558.115C174.573 550.928 190.338 540.395 203.616 527.116C216.895 513.837 227.428 498.073 234.615 480.724C241.801 463.374 245.5 444.779 245.5 426C245.5 407.221 241.801 388.626 234.615 371.276C227.428 353.927 216.895 338.162 203.616 324.884C190.337 311.605 174.573 301.072 157.224 293.885C139.874 286.699 121.279 283 102.5 283L102.5 426V569Z"/>
</mask>
<path d="M102.5 569C121.279 569 139.874 565.301 157.224 558.115C174.573 550.928 190.338 540.395 203.616 527.116C216.895 513.837 227.428 498.073 234.615 480.724C241.801 463.374 245.5 444.779 245.5 426C245.5 407.221 241.801 388.626 234.615 371.276C227.428 353.927 216.895 338.162 203.616 324.884C190.337 311.605 174.573 301.072 157.224 293.885C139.874 286.699 121.279 283 102.5 283L102.5 426V569Z" stroke="#50AA50" stroke-width="10" mask="url(#path-3-inside-1_1996_4550)"/>
<mask id="path-4-inside-2_1996_4550" fill="white">
<path d="M102.5 668C150.363 668 197.151 653.807 236.948 627.216C276.745 600.624 307.762 562.829 326.079 518.609C344.395 474.39 349.188 425.732 339.85 378.788C330.512 331.845 307.464 288.724 273.62 254.88C239.776 221.036 196.655 197.988 149.712 188.65C102.768 179.312 54.1103 184.105 9.89056 202.421C-34.3291 220.738 -72.1244 251.755 -98.7157 291.552C-125.307 331.349 -139.5 378.137 -139.5 426L102.5 426L102.5 668Z"/>
</mask>
<path d="M102.5 668C150.363 668 197.151 653.807 236.948 627.216C276.745 600.624 307.762 562.829 326.079 518.609C344.395 474.39 349.188 425.732 339.85 378.788C330.512 331.845 307.464 288.724 273.62 254.88C239.776 221.036 196.655 197.988 149.712 188.65C102.768 179.312 54.1103 184.105 9.89056 202.421C-34.3291 220.738 -72.1244 251.755 -98.7157 291.552C-125.307 331.349 -139.5 378.137 -139.5 426L102.5 426L102.5 668Z" stroke="#42A547" stroke-width="6" mask="url(#path-4-inside-2_1996_4550)"/>
</svg>
