<svg width="64" height="64" viewBox="0 0 64 64" fill="none" xmlns="http://www.w3.org/2000/svg">
<mask id="mask0_1862_6712" style="mask-type:alpha" maskUnits="userSpaceOnUse" x="0" y="0" width="64" height="64">
<rect width="64" height="64" fill="#D9D9D9"/>
</mask>
<g mask="url(#mask0_1862_6712)">
<path d="M18.6667 45.6411H26.2359L39.5693 21.6412H45.3333C45.7949 21.6412 46.1838 21.483 46.5 21.1667C46.8163 20.8505 46.9744 20.4616 46.9744 20.0001C46.9744 19.5385 46.8163 19.1496 46.5 18.8334C46.1838 18.5171 45.7949 18.359 45.3333 18.359H37.7641L24.4307 42.359H18.6667C18.2051 42.359 17.8162 42.5171 17.5 42.8334C17.1837 43.1496 17.0256 43.5385 17.0256 44.0001C17.0256 44.4616 17.1837 44.8505 17.5 45.1667C17.8162 45.483 18.2051 45.6411 18.6667 45.6411ZM14.9743 53.3334C13.747 53.3334 12.7222 52.9223 11.9 52.1001C11.0778 51.2779 10.6667 50.2531 10.6667 49.0257V14.9744C10.6667 13.7471 11.0778 12.7223 11.9 11.9001C12.7222 11.0779 13.747 10.6667 14.9743 10.6667H49.0257C50.253 10.6667 51.2778 11.0779 52.1 11.9001C52.9222 12.7223 53.3333 13.7471 53.3333 14.9744V49.0257C53.3333 50.2531 52.9222 51.2779 52.1 52.1001C51.2778 52.9223 50.253 53.3334 49.0257 53.3334H14.9743ZM14.9743 50.6667H49.0257C49.4359 50.6667 49.812 50.4958 50.1539 50.1539C50.4957 49.812 50.6667 49.436 50.6667 49.0257V14.9744C50.6667 14.5642 50.4957 14.1881 50.1539 13.8462C49.812 13.5043 49.4359 13.3334 49.0257 13.3334H14.9743C14.5641 13.3334 14.188 13.5043 13.8461 13.8462C13.5043 14.1881 13.3333 14.5642 13.3333 14.9744V49.0257C13.3333 49.436 13.5043 49.812 13.8461 50.1539C14.188 50.4958 14.5641 50.6667 14.9743 50.6667Z" fill="url(#paint0_linear_1862_6712)"/>
</g>
<defs>
<linearGradient id="paint0_linear_1862_6712" x1="10.6667" y1="31.8999" x2="53.3333" y2="31.8999" gradientUnits="userSpaceOnUse">
<stop stop-color="#79DB92"/>
<stop offset="1" stop-color="#9CCE7C"/>
</linearGradient>
</defs>
</svg>
