<svg width="90" height="90" viewBox="0 0 90 90" fill="none" xmlns="http://www.w3.org/2000/svg">
<mask id="mask0_846_772" style="mask-type:luminance" maskUnits="userSpaceOnUse" x="0" y="0" width="90" height="90">
<path d="M90 0H0V90H90V0Z" fill="white"/>
</mask>
<g mask="url(#mask0_846_772)">
<path d="M52.0316 64.8V73.125C52.0316 74.9898 51.2908 76.7782 49.9722 78.0968C48.6535 79.4155 46.8651 80.1562 45.0003 80.1562C43.1355 80.1562 41.3471 79.4155 40.0285 78.0968C38.7098 76.7782 37.9691 74.9898 37.9691 73.125V64.8C35.1503 63.719 32.6171 62.0057 30.5644 59.7921C28.5116 57.5785 26.9941 54.9234 26.1284 52.0312H26.0159C24.3967 52.0341 22.8379 51.416 21.6605 50.3044C20.4831 49.1927 19.7767 47.672 19.6866 46.0552C19.5965 44.4384 20.1296 42.8486 21.1762 41.613C22.2228 40.3774 23.7032 39.5901 25.3128 39.413V37.9688C25.3128 27.0956 34.1272 18.2812 45.0003 18.2812C55.8734 18.2812 64.6878 27.0956 64.6878 37.9688V39.413C66.3098 39.5879 67.8015 40.3824 68.8517 41.6308C69.9019 42.8791 70.4294 44.4848 70.3242 46.1128C70.219 47.7408 69.4891 49.2652 68.2869 50.3679C67.0848 51.4707 65.5032 52.0666 63.8722 52.0312C63.0067 54.9237 61.4892 57.579 59.4365 59.7929C57.3838 62.0068 54.8505 63.7188 52.0316 64.8Z" fill="#D78774"/>
<mask id="mask1_846_772" style="mask-type:alpha" maskUnits="userSpaceOnUse" x="19" y="18" width="52" height="63">
<path d="M52.0316 64.8V73.125C52.0316 74.9898 51.2908 76.7782 49.9722 78.0968C48.6535 79.4155 46.8651 80.1562 45.0003 80.1562C43.1355 80.1562 41.3471 79.4155 40.0285 78.0968C38.7098 76.7782 37.9691 74.9898 37.9691 73.125V64.8C35.1503 63.719 32.6171 62.0057 30.5644 59.7921C28.5116 57.5785 26.9941 54.9234 26.1284 52.0312H26.0159C24.3967 52.0341 22.8379 51.416 21.6605 50.3044C20.4831 49.1927 19.7767 47.672 19.6866 46.0552C19.5965 44.4384 20.1296 42.8486 21.1762 41.613C22.2228 40.3774 23.7032 39.5901 25.3128 39.413V37.9688C25.3128 27.0956 34.1272 18.2812 45.0003 18.2812C55.8734 18.2812 64.6878 27.0956 64.6878 37.9688V39.413C66.3098 39.5879 67.8015 40.3824 68.8517 41.6308C69.9019 42.8791 70.4294 44.4848 70.3242 46.1128C70.219 47.7408 69.4891 49.2652 68.2869 50.3679C67.0848 51.4707 65.5032 52.0666 63.8722 52.0312C63.0067 54.9237 61.4892 57.579 59.4365 59.7929C57.3838 62.0068 54.8505 63.7188 52.0316 64.8Z" fill="white"/>
</mask>
<g mask="url(#mask1_846_772)">
<g style="mix-blend-mode:overlay" opacity="0.364">
<path d="M45 18.2812C55.8731 18.2812 64.6875 27.0956 64.6875 37.9688V46.4062C64.6875 57.2794 55.8731 66.0938 45 66.0938C34.1269 66.0938 25.3125 57.2794 25.3125 46.4062V37.9688C25.3125 27.0956 34.1269 18.2812 45 18.2812Z" fill="white"/>
</g>
</g>
<path fill-rule="evenodd" clip-rule="evenodd" d="M33.75 40.0781C33.75 40.3551 33.8046 40.6294 33.9106 40.8853C34.0166 41.1413 34.1719 41.3738 34.3678 41.5697C34.5637 41.7656 34.7962 41.9209 35.0522 42.0269C35.3081 42.1329 35.5824 42.1875 35.8594 42.1875C36.1364 42.1875 36.4107 42.1329 36.6666 42.0269C36.9225 41.9209 37.1551 41.7656 37.3509 41.5697C37.5468 41.3738 37.7022 41.1413 37.8082 40.8853C37.9142 40.6294 37.9688 40.3551 37.9688 40.0781C37.9688 39.5187 37.7465 38.9822 37.3509 38.5866C36.9553 38.191 36.4188 37.9688 35.8594 37.9688C35.2999 37.9688 34.7634 38.191 34.3678 38.5866C33.9722 38.9822 33.75 39.5187 33.75 40.0781ZM52.0312 40.0781C52.0312 40.6376 52.2535 41.1741 52.6491 41.5697C53.0447 41.9653 53.5812 42.1875 54.1406 42.1875C54.7001 42.1875 55.2366 41.9653 55.6322 41.5697C56.0278 41.1741 56.25 40.6376 56.25 40.0781C56.25 39.5187 56.0278 38.9822 55.6322 38.5866C55.2366 38.191 54.7001 37.9688 54.1406 37.9688C53.5812 37.9688 53.0447 38.191 52.6491 38.5866C52.2535 38.9822 52.0312 39.5187 52.0312 40.0781Z" fill="#1B0640"/>
<path d="M31.2188 23.9091C31.0345 22.9992 30.9375 22.057 30.9375 21.0937C30.9375 13.327 37.2333 7.03125 45 7.03125C52.7667 7.03125 59.0625 13.327 59.0625 21.0937C59.0625 22.057 58.9655 22.9992 58.7812 23.9091C55.1049 20.296 50.1546 18.2745 45 18.2812C39.8454 18.2745 34.8951 20.296 31.2188 23.9091Z" fill="#362C47"/>
<path d="M64.5946 36.045C61.6331 28.9181 54.6046 23.9062 46.4062 23.9062H43.5937C35.3953 23.9062 28.3668 28.9181 25.4053 36.045C26.3714 26.0747 34.7765 18.2812 45 18.2812C55.2234 18.2812 63.6286 26.0747 64.5946 36.045Z" fill="#F55D81"/>
<path d="M37.9688 68.9062V73.125C37.9688 74.9898 38.7095 76.7782 40.0282 78.0968C41.3468 79.4155 43.1352 80.1562 45 80.1562C46.8648 80.1562 48.6532 79.4155 49.9718 78.0968C51.2905 76.7782 52.0312 74.9898 52.0312 73.125V68.9062L61.3786 71.782C63.9655 72.5781 66.229 74.1824 67.8369 76.3596C69.4449 78.5367 70.3125 81.172 70.3125 83.8786V90H19.6875V83.8786C19.6875 81.172 20.5551 78.5367 22.1631 76.3596C23.771 74.1824 26.0345 72.5781 28.6214 71.782L37.9688 68.9062Z" fill="#E24553"/>
<path d="M39.3812 58.8769C39.2163 58.7877 39.0708 58.6665 38.9534 58.5204C38.836 58.3742 38.749 58.206 38.6976 58.0258C38.6461 57.8455 38.6312 57.6568 38.6538 57.4707C38.6763 57.2845 38.7358 57.1048 38.8288 56.942C38.9218 56.7793 39.0465 56.6367 39.1954 56.5228C39.3443 56.4089 39.5144 56.3259 39.6959 56.2788C39.8773 56.2316 40.0664 56.2211 40.2519 56.2481C40.4374 56.275 40.6157 56.3388 40.7762 56.4356C42.2106 57.2555 43.614 57.6563 45.0006 57.6563C46.3871 57.6563 47.7892 57.2555 49.2249 56.4356C49.3855 56.3388 49.5637 56.275 49.7493 56.2481C49.9348 56.2211 50.1238 56.2316 50.3053 56.2788C50.4867 56.3259 50.6569 56.4089 50.8058 56.5228C50.9547 56.6367 51.0793 56.7793 51.1723 56.942C51.2653 57.1048 51.3248 57.2845 51.3474 57.4707C51.3699 57.6568 51.355 57.8455 51.3036 58.0258C51.2521 58.206 51.1651 58.3742 51.0477 58.5204C50.9303 58.6665 50.7849 58.7877 50.6199 58.8769C48.7749 59.9316 46.8962 60.4688 45.0006 60.4688C43.1049 60.4688 41.2262 59.9316 39.3812 58.8769Z" fill="#1B0640"/>
<g style="mix-blend-mode:overlay" opacity="0.36">
<path d="M39.7266 46.4062C39.7266 46.1265 39.8377 45.8583 40.0355 45.6605C40.2333 45.4627 40.5015 45.3516 40.7812 45.3516C41.061 45.3516 41.3292 45.4627 41.527 45.6605C41.7248 45.8583 41.8359 46.1265 41.8359 46.4062C41.8359 47.5819 43.1213 48.8672 45 48.8672C46.8787 48.8672 48.1641 47.5819 48.1641 46.4062C48.1641 46.1265 48.2752 45.8583 48.473 45.6605C48.6708 45.4627 48.939 45.3516 49.2188 45.3516C49.4985 45.3516 49.7667 45.4627 49.9645 45.6605C50.1623 45.8583 50.2734 46.1265 50.2734 46.4062C50.2734 48.7463 48.0431 50.9766 45 50.9766C41.9569 50.9766 39.7266 48.7463 39.7266 46.4062Z" fill="black"/>
</g>
<path d="M45.0239 53.5078C44.6705 54.3555 44.0236 55.0476 43.2016 55.4574C42.3796 55.8673 41.4376 55.9674 40.5478 55.7395L33.4013 53.9114C33.1075 53.8366 32.8457 53.6689 32.6549 53.4332C32.4642 53.1976 32.3547 52.9065 32.3429 52.6036C32.331 52.3006 32.4174 52.0019 32.5891 51.7521C32.7608 51.5022 33.0087 51.3145 33.2958 51.217L40.6575 48.7055C41.4941 48.4201 42.4074 48.4599 43.2161 48.8168C44.0247 49.1737 44.6696 49.8217 45.0225 50.632C45.3755 49.8213 46.0206 49.1731 46.8296 48.8162C47.6385 48.4593 48.5522 48.4197 49.3889 48.7055L56.7507 51.217C57.0372 51.3149 57.2844 51.5026 57.4557 51.7523C57.627 52.002 57.7131 52.3003 57.7012 52.6028C57.6894 52.9053 57.5802 53.196 57.3899 53.4315C57.1997 53.667 56.9385 53.8348 56.6452 53.91L49.4986 55.7381C48.6089 55.966 47.6668 55.8659 46.8449 55.456C46.0229 55.0462 45.376 54.3541 45.0225 53.5064L45.0239 53.5078Z" fill="#362C47"/>
</g>
</svg>
