<svg width="49" height="48" viewBox="0 0 49 48" fill="none" xmlns="http://www.w3.org/2000/svg">
<mask id="mask0_1879_9788" style="mask-type:alpha" maskUnits="userSpaceOnUse" x="0" y="0" width="49" height="48">
<rect x="0.666748" width="48" height="48" fill="#D9D9D9"/>
</mask>
<g mask="url(#mask0_1879_9788)">
<path d="M23.6965 33.0076H25.6436L26.0666 30.4999C26.8359 30.3127 27.4763 30.0595 27.9878 29.7403C28.4994 29.4211 28.968 29.023 29.3936 28.5461L32.1667 29.4961L33.1012 27.5654L30.9628 26.1615C31.1602 25.3846 31.2589 24.6641 31.2589 24C31.2589 23.3359 31.1602 22.6153 30.9628 21.8384L33.1012 20.4346L32.1667 18.5039L29.3936 19.4539C28.968 18.9769 28.4994 18.5788 27.9878 18.2596C27.4763 17.9404 26.8359 17.6872 26.0666 17.5L25.6369 14.9923H23.6898L23.2667 17.5C22.4975 17.6872 21.8571 17.9404 21.3455 18.2596C20.834 18.5788 20.3654 18.9769 19.9398 19.4539L17.1667 18.5039L16.2321 20.4346L18.3706 21.8384C18.1732 22.6153 18.0744 23.3359 18.0744 24C18.0744 24.6641 18.1732 25.3846 18.3706 26.1615L16.2321 27.5654L17.1667 29.4961L19.9398 28.5461C20.3654 29.023 20.834 29.4211 21.3455 29.7403C21.8571 30.0595 22.4975 30.3127 23.2667 30.4999L23.6965 33.0076ZM24.6619 28.173C23.4844 28.173 22.4953 27.7727 21.6946 26.972C20.894 26.1713 20.4936 25.1822 20.4936 24.0047C20.4936 22.8272 20.894 21.8333 21.6946 21.0231C22.4953 20.2128 23.4844 19.8077 24.6619 19.8077C25.8395 19.8077 26.8334 20.2128 27.6436 21.0231C28.4539 21.8333 28.859 22.8272 28.859 24.0047C28.859 25.1822 28.4539 26.1713 27.6436 26.972C26.8334 27.7727 25.8395 28.173 24.6619 28.173ZM10.5514 40.9999C9.7671 40.9999 9.09025 40.7152 8.52085 40.1458C7.95145 39.5764 7.66675 38.8996 7.66675 38.1153V9.88465C7.66675 9.10035 7.95145 8.4235 8.52085 7.8541C9.09025 7.2847 9.7671 7 10.5514 7H38.782C39.5663 7 40.2432 7.2847 40.8126 7.8541C41.382 8.4235 41.6667 9.10035 41.6667 9.88465V38.1153C41.6667 38.8996 41.382 39.5764 40.8126 40.1458C40.2432 40.7152 39.5663 40.9999 38.782 40.9999H10.5514ZM10.5514 38.7307H38.782C38.9359 38.7307 39.0769 38.6666 39.2051 38.5384C39.3333 38.4102 39.3975 38.2691 39.3975 38.1153V9.88465C39.3975 9.73078 39.3333 9.58974 39.2051 9.4615C39.0769 9.3333 38.9359 9.2692 38.782 9.2692H10.5514C10.3975 9.2692 10.2565 9.3333 10.1282 9.4615C10 9.58974 9.93595 9.73078 9.93595 9.88465V38.1153C9.93595 38.2691 10 38.4102 10.1282 38.5384C10.2565 38.6666 10.3975 38.7307 10.5514 38.7307Z" fill="url(#paint0_linear_1879_9788)"/>
</g>
<defs>
<linearGradient id="paint0_linear_1879_9788" x1="7.66675" y1="23.9201" x2="41.6667" y2="23.9201" gradientUnits="userSpaceOnUse">
<stop stop-color="#79DB92"/>
<stop offset="1" stop-color="#9CCE7C"/>
</linearGradient>
</defs>
</svg>
