<svg xmlns="http://www.w3.org/2000/svg" data-name="Capa 2" viewBox="0 0 45.83 45.83"><link xmlns="" type="text/css" rel="stylesheet" id="dark-mode-custom-link"/><link xmlns="" type="text/css" rel="stylesheet" id="dark-mode-general-link"/><style xmlns="" lang="en" type="text/css" id="dark-mode-custom-style"/><style xmlns="" lang="en" type="text/css" id="dark-mode-native-style"/><style xmlns="" lang="en" type="text/css" id="dark-mode-native-sheet"/><defs><mask id="a" x="-4.58" y="-4.58" width="55" height="55" maskUnits="userSpaceOnUse"><path d="M-4.58-4.58h55v55h-55v-55z" fill="#d9d9d9" stroke-width="0"/></mask></defs><g mask="url(#a)" data-name="Capa 1"><path d="M16.96 40.22a33.86 33.86 0 0 1-1.81-3.92 34.1 34.1 0 0 1-1.29-4.21H7.1a18.94 18.94 0 0 0 4.15 4.98 16.44 16.44 0 0 0 5.7 3.15zM5.16 27.5h7.79a30.5 30.5 0 0 1 0-9.16H5.16a18.54 18.54 0 0 0 0 9.16zm1.95-13.75h6.76a34.1 34.1 0 0 1 1.29-4.21 30.33 30.33 0 0 1 1.81-3.93 16.44 16.44 0 0 0-5.7 3.15 18.9 18.9 0 0 0-4.15 4.98zm11.46 0h8.71a27 27 0 0 0-4.36-9.06 27.81 27.81 0 0 0-4.36 9.06zm13.41 0h6.76a18.94 18.94 0 0 0-4.15-4.98 16.44 16.44 0 0 0-5.7-3.15 32.2 32.2 0 0 1 3.09 8.13zm-9.05 32.08c-3.13 0-6.09-.6-8.88-1.81a23.33 23.33 0 0 1-7.31-4.93c-2.08-2.08-3.72-4.52-4.93-7.31S.01 26.03.01 22.9s.6-6.14 1.8-8.91a23.42 23.42 0 0 1 4.93-7.28c2.08-2.08 4.52-3.72 7.31-4.93s5.75-1.8 8.88-1.8 6.14.6 8.91 1.8a23.42 23.42 0 0 1 12.21 12.21 22.18 22.18 0 0 1 1.69 11.2H41.1c.08-.38.12-.75.14-1.12a18.54 18.54 0 0 0-.54-5.75h-7.79c.23 1.52.35 3.05.34 4.58v1.17c0 .36-.02.74-.06 1.12h-4.58c.04-.38.06-.75.06-1.12V22.9c0-1.53-.11-3.07-.34-4.58H17.56a30.5 30.5 0 0 0 0 9.16h7.68v4.58h-6.65a27 27 0 0 0 4.36 9.06c.84-1.22 1.6-2.48 2.29-3.78v8.37c-.76.08-1.53.12-2.29.11zm18.22-1.43l-6.76-6.76v5.1h-4.58V29.79h12.95v4.58H37.6l6.76 6.76-3.21 3.27z" fill="#4c4c4c"/></g></svg>