<svg xmlns="http://www.w3.org/2000/svg" width="55" height="55" viewBox="0 0 55 55" fill="none">
  <mask id="mask0_82_862" style="mask-type:alpha" maskUnits="userSpaceOnUse" x="0" y="0" width="55" height="55">
    <rect width="55" height="55" fill="#D9D9D9"/>
  </mask>
  <g mask="url(#mask0_82_862)">
    <path d="M9.16659 45.8334C7.90617 45.8334 6.82718 45.3846 5.92961 44.4871C5.03204 43.5895 4.58325 42.5105 4.58325 41.2501V13.7501C4.58325 12.4897 5.03204 11.4107 5.92961 10.5131C6.82718 9.61553 7.90617 9.16675 9.16659 9.16675H45.8333C47.0937 9.16675 48.1727 9.61553 49.0702 10.5131C49.9678 11.4107 50.4166 12.4897 50.4166 13.7501V41.2501C50.4166 42.5105 49.9678 43.5895 49.0702 44.4871C48.1727 45.3846 47.0937 45.8334 45.8333 45.8334H9.16659ZM9.16659 41.2501H33.2291V33.2292H9.16659V41.2501ZM37.8124 41.2501H45.8333V20.6251H37.8124V41.2501ZM9.16659 28.6459H33.2291V20.6251H9.16659V28.6459Z" fill="#4C4C4C"/>
  </g>
</svg>