<svg xmlns="http://www.w3.org/2000/svg" width="40" height="40" viewBox="0 0 40 40" fill="none">
  <mask id="mask0_84_997" style="mask-type:alpha" maskUnits="userSpaceOnUse" x="0" y="0" width="40" height="40">
    <rect width="40" height="40" fill="#D9D9D9"/>
  </mask>
  <g mask="url(#mask0_84_997)">
    <path d="M1.94446 22.8333C1.29629 21.7037 0.810181 20.5648 0.486125 19.4167C0.162042 18.2685 0 17.1296 0 16C0 12.9259 1.06482 10.3241 3.19446 8.19446C5.32407 6.06482 7.92592 5 11 5C12.75 5 14.412 5.36343 15.9861 6.09029C17.5602 6.81712 18.8981 7.81481 20 9.08333C21.1019 7.81481 22.4398 6.81712 24.0139 6.09029C25.588 5.36343 27.25 5 29 5C32.0741 5 34.6759 6.06482 36.8055 8.19446C38.9352 10.3241 40 12.9259 40 16C40 17.1296 39.838 18.2639 39.5139 19.4028C39.1898 20.5417 38.7037 21.6759 38.0555 22.8056C37.7685 22.4074 37.4398 22.0602 37.0695 21.7639C36.6991 21.4676 36.2917 21.2223 35.8472 21.0278C36.3009 20.1667 36.6435 19.3195 36.875 18.4861C37.1065 17.6528 37.2223 16.8241 37.2223 16C37.2223 13.7037 36.4259 11.7593 34.8333 10.1667C33.2408 8.57406 31.2963 7.77775 29 7.77775C27.2315 7.77775 25.6505 8.2847 24.257 9.29858C22.8634 10.3125 21.4444 11.6852 20 13.4166C18.5556 11.6759 17.1366 10.3009 15.743 9.29163C14.3495 8.28238 12.7685 7.77775 11 7.77775C8.70369 7.77775 6.75925 8.57406 5.16667 10.1667C3.57406 11.7593 2.77775 13.7037 2.77775 16C2.77775 16.8241 2.8935 17.6528 3.125 18.4861C3.35647 19.3195 3.69907 20.1667 4.15279 21.0278C3.70835 21.2223 3.30093 21.4723 2.93054 21.7778C2.56018 22.0833 2.23146 22.4352 1.94446 22.8333ZM0 36.6667V34.3195C0 33.1898 0.594903 32.2801 1.78471 31.5903C2.97454 30.9005 4.50926 30.5556 6.38888 30.5556C6.74999 30.5556 7.08794 30.5625 7.40275 30.5764C7.71758 30.5903 8.02778 30.625 8.33333 30.6806C8.05556 31.1806 7.84722 31.6991 7.70833 32.2361C7.56944 32.7732 7.5 33.3472 7.5 33.9583V36.6667H0ZM10 36.6667V33.9583C10 32.1528 10.9236 30.6944 12.7708 29.5833C14.6181 28.4722 17.0278 27.9167 20 27.9167C23 27.9167 25.4167 28.4722 27.25 29.5833C29.0833 30.6944 30 32.1528 30 33.9583V36.6667H10ZM32.5 36.6667V33.9583C32.5 33.3472 32.4375 32.7732 32.3125 32.2361C32.1875 31.6991 31.9907 31.1806 31.7222 30.6806C32.0278 30.625 32.3357 30.5903 32.6458 30.5764C32.956 30.5625 33.2778 30.5556 33.6111 30.5556C35.5185 30.5556 37.0602 30.9005 38.2361 31.5903C39.412 32.2801 40 33.1898 40 34.3195V36.6667H32.5ZM20 30.6944C17.9907 30.6944 16.3148 30.9861 14.9722 31.5694C13.6296 32.1528 12.9213 32.8796 12.8472 33.75V33.8889H27.1667V33.7222C27.0834 32.8704 26.3773 32.1528 25.0486 31.5694C23.7199 30.9861 22.0371 30.6944 20 30.6944ZM6.38888 29.1667C5.54629 29.1667 4.82639 28.8681 4.22917 28.2709C3.63194 27.6737 3.33333 26.9537 3.33333 26.1111C3.33333 25.2593 3.63194 24.5371 4.22917 23.9445C4.82639 23.3519 5.54629 23.0556 6.38888 23.0556C7.24074 23.0556 7.96296 23.3519 8.55554 23.9445C9.14813 24.5371 9.44442 25.2593 9.44442 26.1111C9.44442 26.9537 9.14813 27.6737 8.55554 28.2709C7.96296 28.8681 7.24074 29.1667 6.38888 29.1667ZM33.6111 29.1667C32.7685 29.1667 32.0486 28.8681 31.4514 28.2709C30.8542 27.6737 30.5556 26.9537 30.5556 26.1111C30.5556 25.2593 30.8542 24.5371 31.4514 23.9445C32.0486 23.3519 32.7685 23.0556 33.6111 23.0556C34.463 23.0556 35.1852 23.3519 35.7778 23.9445C36.3704 24.5371 36.6667 25.2593 36.6667 26.1111C36.6667 26.9537 36.3704 27.6737 35.7778 28.2709C35.1852 28.8681 34.463 29.1667 33.6111 29.1667ZM20 26.6667C18.6111 26.6667 17.4306 26.1806 16.4583 25.2083C15.4861 24.2361 15 23.0556 15 21.6667C15 20.25 15.4861 19.0625 16.4583 18.1042C17.4306 17.1458 18.6111 16.6667 20 16.6667C21.4167 16.6667 22.6042 17.1458 23.5625 18.1042C24.5208 19.0625 25 20.25 25 21.6667C25 23.0556 24.5208 24.2361 23.5625 25.2083C22.6042 26.1806 21.4167 26.6667 20 26.6667ZM20 19.4444C19.3796 19.4444 18.8542 19.6551 18.4236 20.0764C17.993 20.4977 17.7778 21.0278 17.7778 21.6667C17.7778 22.287 17.993 22.8125 18.4236 23.2431C18.8542 23.6736 19.3796 23.8889 20 23.8889C20.6389 23.8889 21.169 23.6736 21.5903 23.2431C22.0116 22.8125 22.2222 22.287 22.2222 21.6667C22.2222 21.0278 22.0116 20.4977 21.5903 20.0764C21.169 19.6551 20.6389 19.4444 20 19.4444Z" fill="#397A3E"/>
  </g>
</svg>