<svg xmlns="http://www.w3.org/2000/svg" width="40" height="40" viewBox="0 0 40 40" fill="none">
  <mask id="mask0_84_1040" style="mask-type:alpha" maskUnits="userSpaceOnUse" x="0" y="0" width="40" height="40">
    <rect width="40" height="40" fill="#D9D9D9"/>
  </mask>
  <g mask="url(#mask0_84_1040)">
    <path d="M4.71977 30C3.87883 30 3.15974 29.7006 2.56252 29.1017C1.9653 28.5028 1.66669 27.7829 1.66669 26.942C1.66669 26.1011 1.96524 25.382 2.56235 24.7848C3.15946 24.1875 3.87727 23.8889 4.71577 23.8889C4.86821 23.8889 5.01158 23.8935 5.14585 23.9028C5.2801 23.912 5.44445 23.9444 5.6389 24L13.7223 15.9167C13.6667 15.7222 13.6343 15.5579 13.625 15.4236C13.6158 15.2893 13.6111 15.146 13.6111 14.9935C13.6111 14.155 13.9106 13.4372 14.5094 12.8401C15.1083 12.243 15.8282 11.9445 16.6691 11.9445C17.5101 11.9445 18.2292 12.2443 18.8264 12.844C19.4236 13.4437 19.7222 14.1647 19.7222 15.0068C19.7222 15.0578 19.6852 15.3611 19.6111 15.9167L24.0834 20.3889C24.2778 20.3334 24.4421 20.3009 24.5764 20.2917C24.7107 20.2824 24.8519 20.2778 25 20.2778C25.1482 20.2778 25.2894 20.2824 25.4236 20.2917C25.5579 20.3009 25.7222 20.3334 25.9167 20.3889L32.3334 13.9722C32.2778 13.7778 32.2454 13.6134 32.2361 13.4792C32.2269 13.3449 32.2223 13.2015 32.2223 13.0491C32.2223 12.2106 32.5217 11.4928 33.1206 10.8957C33.7194 10.2986 34.4393 10 35.2803 10C36.1212 10 36.8403 10.2994 37.4375 10.8983C38.0347 11.4972 38.3334 12.2171 38.3334 13.058C38.3334 13.8989 38.0348 14.618 37.4377 15.2153C36.8406 15.8125 36.1228 16.1111 35.2843 16.1111C35.1318 16.1111 34.9885 16.1065 34.8542 16.0972C34.7199 16.088 34.5556 16.0556 34.3611 16L27.9444 22.4167C28 22.6111 28.0324 22.7755 28.0417 22.9097C28.0509 23.044 28.0556 23.1873 28.0556 23.3398C28.0556 24.1783 27.7561 24.8961 27.1573 25.4932C26.5584 26.0903 25.8385 26.3889 24.9976 26.3889C24.1566 26.3889 23.4375 26.0903 22.8403 25.4932C22.2431 24.8961 21.9445 24.1783 21.9445 23.3398C21.9445 23.1873 21.9491 23.044 21.9584 22.9097C21.9676 22.7755 22 22.6111 22.0556 22.4167L17.5834 17.9444C17.3889 18 17.2246 18.0324 17.0903 18.0417C16.956 18.0509 16.8125 18.0555 16.6597 18.0555C16.6088 18.0555 16.3056 18.0185 15.75 17.9444L7.66669 26.0278C7.72224 26.2222 7.75464 26.3866 7.7639 26.5208C7.77315 26.6551 7.77777 26.7985 7.77777 26.9509C7.77777 27.7894 7.47834 28.5072 6.87948 29.1043C6.28062 29.7014 5.56071 30 4.71977 30Z" fill="#397A3E"/>
  </g>
</svg>