<svg xmlns="http://www.w3.org/2000/svg" width="56" height="55" viewBox="0 0 56 55" fill="none">
  <mask id="mask0_82_856" style="mask-type:alpha" maskUnits="userSpaceOnUse" x="0" y="0" width="56" height="55">
    <rect x="0.5" width="55" height="55" fill="#D9D9D9"/>
  </mask>
  <g mask="url(#mask0_82_856)">
    <path d="M23.4167 45.8334H32.5834V43.5417H23.4167V45.8334ZM16.5417 52.7084C15.2813 52.7084 14.2023 52.2596 13.3047 51.3621C12.4072 50.4645 11.9584 49.3855 11.9584 48.1251V6.87508C11.9584 5.61466 12.4072 4.53567 13.3047 3.6381C14.2023 2.74053 15.2813 2.29175 16.5417 2.29175H39.4584C40.7188 2.29175 41.7978 2.74053 42.6954 3.6381C43.5929 4.53567 44.0417 5.61466 44.0417 6.87508V48.1251C44.0417 49.3855 43.5929 50.4645 42.6954 51.3621C41.7978 52.2596 40.7188 52.7084 39.4584 52.7084H16.5417ZM16.5417 41.2501V48.1251H39.4584V41.2501H16.5417ZM16.5417 36.6667H39.4584V13.7501H16.5417V36.6667ZM16.5417 9.16675H39.4584V6.87508H16.5417V9.16675Z" fill="#4C4C4C"/>
  </g>
</svg>