<svg xmlns="http://www.w3.org/2000/svg" width="56" height="55" viewBox="0 0 56 55" fill="none">
<mask id="mask0_82_832" style="mask-type:alpha" maskUnits="userSpaceOnUse" x="0" y="0" width="56" height="55">
<rect x="0.5" width="55" height="55" fill="#D9D9D9"/>
</mask>
<g mask="url(#mask0_82_832)">
<path d="M18.8333 48.125V43.5417H23.4166V38.9583H9.66659C8.40617 38.9583 7.32718 38.5096 6.42961 37.612C5.53204 36.7144 5.08325 35.6354 5.08325 34.375V11.4583C5.08325 10.1979 5.53204 9.11892 6.42961 8.22135C7.32718 7.32378 8.40617 6.875 9.66659 6.875H46.3333C47.5937 6.875 48.6727 7.32378 49.5702 8.22135C50.4678 9.11892 50.9166 10.1979 50.9166 11.4583V34.375C50.9166 35.6354 50.4678 36.7144 49.5702 37.612C48.6727 38.5096 47.5937 38.9583 46.3333 38.9583H32.5833V43.5417H37.1666V48.125H18.8333ZM9.66659 34.375H46.3333V11.4583H9.66659V34.375Z" fill="#4C4C4C"/>
</g>
</svg>