<svg xmlns="http://www.w3.org/2000/svg" width="40" height="40" viewBox="0 0 40 40" fill="none">
  <mask id="mask0_84_1046" style="mask-type:alpha" maskUnits="userSpaceOnUse" x="0" y="0" width="40" height="40">
    <rect width="40" height="40" fill="#D9D9D9"/>
  </mask>
  <g mask="url(#mask0_84_1046)">
    <path d="M5.61108 34.4722C5.44442 34.5648 5.27545 34.6134 5.10417 34.618C4.93286 34.6226 4.7685 34.6018 4.61108 34.5555C4.38886 34.4537 4.23146 34.3078 4.13888 34.118C4.04626 33.9282 4.0046 33.7315 4.01388 33.5278C4.0231 33.1945 4.15039 32.8935 4.39575 32.625C4.64111 32.3565 4.96286 32.162 5.361 32.0417C5.74989 31.7454 6.2036 31.5741 6.72213 31.5278C7.24065 31.4814 7.74529 31.4722 8.23604 31.5C8.49532 31.4815 8.70135 31.4444 8.85413 31.3889C9.0069 31.3333 9.13885 31.2037 9.24996 31C9.36107 30.6019 9.42127 30.1783 9.43054 29.7292C9.43979 29.2801 9.51385 28.8611 9.65271 28.4722C9.75457 27.8426 9.95132 27.2824 10.243 26.7917C10.5346 26.3009 10.9629 25.912 11.5277 25.625C11.9166 25.3287 12.3726 25.1574 12.8958 25.1111C13.4189 25.0648 13.9258 25.0555 14.4166 25.0833C14.6759 25.0648 14.8842 25.0278 15.0416 24.9722C15.199 24.9167 15.3333 24.787 15.4444 24.5833C15.5555 24.1852 15.6111 23.7616 15.6111 23.3125C15.6111 22.8634 15.6805 22.4445 15.8194 22.0556C15.9212 21.426 16.118 20.8658 16.4096 20.375C16.7013 19.8843 17.1295 19.4954 17.6943 19.2083C18.0832 18.912 18.5393 18.7407 19.0624 18.6944C19.5856 18.6481 20.0925 18.6388 20.5833 18.6666C20.8425 18.6481 21.0509 18.6111 21.2083 18.5555C21.3657 18.5 21.5 18.3704 21.6111 18.1667C21.7222 17.7685 21.7801 17.3449 21.7847 16.8958C21.7893 16.4468 21.8611 16.0278 22 15.6389C22.1018 14.9908 22.3032 14.426 22.6041 13.9445C22.905 13.463 23.3379 13.0787 23.9027 12.7917C24.2916 12.4954 24.7476 12.3241 25.2708 12.2778C25.7939 12.2314 26.3008 12.2222 26.7916 12.25C27.0509 12.2315 27.2592 12.1944 27.4166 12.1389C27.574 12.0833 27.7083 11.9537 27.8194 11.75C27.9305 11.3519 27.9884 10.9283 27.993 10.4792C27.9977 10.0301 28.0694 9.61114 28.2083 9.22225C28.3101 8.57411 28.5115 8.00929 28.8124 7.52779C29.1133 7.04629 29.5462 6.66203 30.111 6.375C30.4999 6.06017 30.9559 5.88192 31.4791 5.84025C32.0022 5.79858 32.5092 5.79164 32.9999 5.81942C33.3055 5.74533 33.618 5.72218 33.9374 5.74996C34.2569 5.77776 34.5462 5.7685 34.8055 5.72217C35.0647 5.65736 35.3101 5.70134 35.5416 5.85409C35.7731 6.00686 35.9212 6.21287 35.9861 6.47213C35.9768 6.80546 35.8495 7.10871 35.6042 7.38188C35.3588 7.65502 35.0371 7.85178 34.6389 7.97217C34.25 8.28697 33.794 8.46753 33.2708 8.51383C32.7477 8.56014 32.2407 8.5694 31.75 8.54163C31.4907 8.56013 31.2824 8.59715 31.125 8.65271C30.9675 8.70827 30.8333 8.83789 30.7222 9.04159C30.6111 9.43972 30.5532 9.86334 30.5485 10.3124C30.5439 10.7615 30.4722 11.1804 30.3333 11.5693C30.2315 12.2175 30.0301 12.7823 29.7292 13.2638C29.4283 13.7453 28.9954 14.1296 28.4306 14.4166C28.0417 14.7129 27.588 14.8842 27.0695 14.9305C26.5509 14.9768 26.0463 14.9861 25.5555 14.9583C25.2963 14.9768 25.0902 15.0138 24.9375 15.0694C24.7847 15.1249 24.6527 15.2546 24.5416 15.4583C24.4305 15.8564 24.3703 16.28 24.361 16.7291C24.3518 17.1781 24.2777 17.5971 24.1389 17.986C24.037 18.6064 23.8403 19.1642 23.5486 19.6596C23.257 20.155 22.8287 20.5462 22.2639 20.8333C21.875 21.1296 21.4213 21.3032 20.9028 21.3541C20.3843 21.405 19.8796 21.4166 19.3889 21.3888C19.1296 21.4074 18.9236 21.4467 18.7708 21.5069C18.618 21.5671 18.4861 21.699 18.375 21.9027C18.2638 22.3008 18.2037 22.7198 18.1944 23.1596C18.1851 23.5994 18.1111 24.0138 17.9722 24.4027C17.8703 25.0323 17.6713 25.5925 17.375 26.0833C17.0787 26.574 16.6482 26.9629 16.0834 27.2499C15.6945 27.5648 15.2361 27.743 14.7083 27.7847C14.1806 27.8263 13.6713 27.8333 13.1805 27.8055C12.9213 27.824 12.7176 27.8634 12.5694 27.9235C12.4213 27.9837 12.2916 28.1157 12.1805 28.3194C12.0694 28.7175 12.0115 29.1365 12.0069 29.5763C12.0023 30.0161 11.9305 30.4304 11.7916 30.8193C11.6898 31.4675 11.4884 32.0323 11.1875 32.5138C10.8866 32.9953 10.4537 33.3796 9.88892 33.6666C9.50003 33.9629 9.04632 34.1365 8.52779 34.1875C8.00926 34.2384 7.50463 34.2499 7.01388 34.2222C6.7546 34.2407 6.5069 34.2546 6.27079 34.2638C6.03468 34.2731 5.81478 34.3425 5.61108 34.4722ZM9.99996 18.3333C7.6944 18.3333 5.72913 17.5208 4.10413 15.8958C2.47913 14.2708 1.66663 12.3055 1.66663 9.99996C1.66663 7.66663 2.47913 5.6944 4.10413 4.08329C5.72913 2.47218 7.6944 1.66663 9.99996 1.66663C12.3333 1.66663 14.3055 2.47218 15.9166 4.08329C17.5277 5.6944 18.3333 7.66663 18.3333 9.99996C18.3333 12.3055 17.5277 14.2708 15.9166 15.8958C14.3055 17.5208 12.3333 18.3333 9.99996 18.3333ZM9.99996 15.5555C11.5648 15.5555 12.8819 15.0139 13.9514 13.9305C15.0208 12.8472 15.5555 11.537 15.5555 9.99996C15.5555 8.43515 15.0208 7.11802 13.9514 6.04854C12.8819 4.9791 11.5648 4.44438 9.99996 4.44438C8.46293 4.44438 7.15274 4.9791 6.06938 6.04854C4.98604 7.11802 4.44438 8.43515 4.44438 9.99996C4.44438 11.537 4.98604 12.8472 6.06938 13.9305C7.15274 15.0139 8.46293 15.5555 9.99996 15.5555ZM26.111 38.3333C25.3425 38.3333 24.6875 38.0625 24.1458 37.5208C23.6041 36.9791 23.3333 36.324 23.3333 35.5555V26.111C23.3333 25.3425 23.6041 24.6875 24.1458 24.1458C24.6875 23.6041 25.3425 23.3333 26.111 23.3333H35.5555C36.324 23.3333 36.9791 23.6041 37.5208 24.1458C38.0625 24.6875 38.3333 25.3425 38.3333 26.111V35.5555C38.3333 36.324 38.0625 36.9791 37.5208 37.5208C36.9791 38.0625 36.324 38.3333 35.5555 38.3333H26.111ZM26.111 35.5555H35.5555V26.111H26.111V35.5555Z" fill="#397A3E"/>
  </g>
</svg>