<svg width="63" height="62" viewBox="0 0 63 62" fill="none" xmlns="http://www.w3.org/2000/svg">
<path d="M41.9675 30.9959C41.9675 30.1575 41.8442 29.2451 41.5976 28.2588H44.7046V43.2019C44.7046 43.5965 44.569 43.917 44.2977 44.1636C44.0265 44.4102 43.6936 44.5335 43.2991 44.5335H18.961C18.5665 44.5335 18.2459 44.4102 17.9993 44.1636C17.7527 43.917 17.6294 43.5965 17.6294 43.2019V28.2588H20.6625C20.4159 29.2451 20.2926 30.1575 20.2926 30.9959C20.2926 32.4754 20.5761 33.881 21.1433 35.2125C21.7104 36.5441 22.4872 37.6907 23.4735 38.6524C24.4599 39.6141 25.6188 40.3785 26.9504 40.9456C28.282 41.5128 29.6875 41.7964 31.167 41.7964C32.6465 41.7964 34.0521 41.5128 35.3837 40.9456C36.7152 40.3785 37.8618 39.6141 38.8235 38.6524C39.7852 37.6907 40.5496 36.5441 41.1168 35.2125C41.6839 33.881 41.9675 32.4754 41.9675 30.9959ZM31.167 37.7277C30.23 37.7277 29.3423 37.5551 28.5039 37.2099C27.6655 36.8646 26.9381 36.3838 26.3216 35.7673C25.7051 35.1509 25.2243 34.4358 24.8791 33.622C24.5339 32.8083 24.3612 31.9329 24.3612 30.9959C24.3612 30.0589 24.5339 29.1712 24.8791 28.3328C25.2243 27.4944 25.7051 26.7669 26.3216 26.1505C26.9381 25.534 27.6655 25.0532 28.5039 24.7079C29.3423 24.3627 30.23 24.1901 31.167 24.1901C32.1041 24.1901 32.9794 24.3627 33.7932 24.7079C34.6069 25.0532 35.322 25.534 35.9385 26.1505C36.5549 26.7669 37.0358 27.4944 37.381 28.3328C37.7262 29.1712 37.8988 30.0589 37.8988 30.9959C37.8988 31.9329 37.7262 32.8083 37.381 33.622C37.0358 34.4358 36.5549 35.1509 35.9385 35.7673C35.322 36.3838 34.6069 36.8646 33.7932 37.2099C32.9794 37.5551 32.1041 37.7277 31.167 37.7277ZM43.2991 17.4583C43.6936 17.4583 44.0265 17.5816 44.2977 17.8282C44.569 18.0748 44.7046 18.3953 44.7046 18.7899V22.8585C44.7046 23.2531 44.569 23.5736 44.2977 23.8202C44.0265 24.0668 43.6936 24.1901 43.2991 24.1901H39.2304C38.8359 24.1901 38.5153 24.0668 38.2687 23.8202C38.0221 23.5736 37.8988 23.2531 37.8988 22.8585V18.7899C37.8988 18.3953 38.0221 18.0748 38.2687 17.8282C38.5153 17.5816 38.8359 17.4583 39.2304 17.4583H43.2991ZM46.9239 0C49.0445 0 51.0542 0.406867 52.9529 1.2206C54.8516 2.03434 56.5038 3.14397 57.9093 4.54952C59.3148 5.95506 60.4245 7.59486 61.2382 9.46891C62.052 11.343 62.4588 13.3403 62.4588 15.461V46.3829C62.4588 48.5035 62.052 50.5132 61.2382 52.4119C60.4245 54.3106 59.3148 55.9627 57.9093 57.3683C56.5038 58.7738 54.8516 59.8835 52.9529 60.6972C51.0542 61.5109 49.0445 61.9178 46.9239 61.9178H16.002C13.8813 61.9178 11.884 61.5109 10.0099 60.6972C8.13587 59.8835 6.49607 58.7738 5.09053 57.3683C3.68499 55.9627 2.57535 54.3106 1.76162 52.4119C0.947883 50.5132 0.541016 48.5035 0.541016 46.3829V15.461C0.541016 13.3403 0.947883 11.343 1.76162 9.46891C2.57535 7.59486 3.68499 5.95506 5.09053 4.54952C6.49607 3.14397 8.13587 2.03434 10.0099 1.2206C11.884 0.406867 13.8813 0 16.002 0H46.9239ZM48.7733 17.4583C48.7733 16.324 48.3787 15.3623 47.5897 14.5732C46.8006 13.7842 45.8389 13.3896 44.7046 13.3896H17.6294C16.4951 13.3896 15.5335 13.7842 14.7444 14.5732C13.9553 15.3623 13.5608 16.324 13.5608 17.4583V44.5335C13.5608 45.6678 13.9553 46.6295 14.7444 47.4185C15.5335 48.2076 16.4951 48.6021 17.6294 48.6021H44.7046C45.8389 48.6021 46.8006 48.2076 47.5897 47.4185C48.3787 46.6295 48.7733 45.6678 48.7733 44.5335V17.4583Z" fill="#263F28"/>
</svg>
