<svg width="62" height="62" viewBox="0 0 62 62" fill="none" xmlns="http://www.w3.org/2000/svg">
<path d="M46.3776 0.336304C48.4818 0.336304 50.4636 0.740014 52.3232 1.54743C54.1827 2.35486 55.8097 3.45588 57.2044 4.85052C58.599 6.24515 59.7 7.87223 60.5075 9.73174C61.3149 11.5913 61.7186 13.5731 61.7186 15.6773V46.3593C61.7186 48.4635 61.3149 50.4575 60.5075 52.3415C59.7 54.2255 58.599 55.8648 57.2044 57.2595C55.8097 58.6541 54.1827 59.7551 52.3232 60.5625C50.4636 61.37 48.4818 61.7737 46.3776 61.7737H15.6222C13.518 61.7737 11.5362 61.37 9.67669 60.5625C7.81717 59.7551 6.1901 58.6541 4.79546 57.2595C3.40083 55.8648 2.2998 54.2255 1.49238 52.3415C0.68496 50.4575 0.28125 48.4635 0.28125 46.3593V15.6773C0.28125 13.5731 0.68496 11.5913 1.49238 9.73174C2.2998 7.87223 3.40083 6.24515 4.79546 4.85052C6.1901 3.45588 7.81717 2.35486 9.67669 1.54743C11.5362 0.740014 13.518 0.336304 15.6222 0.336304H46.3776ZM21.421 23.3845H13.7138V48.3411H21.421V23.3845ZM17.6041 21.4026C18.6317 21.4026 19.5248 21.0356 20.2833 20.3016C21.0417 19.5676 21.421 18.6623 21.421 17.5857C21.421 16.5092 21.0417 15.6039 20.2833 14.8699C19.5248 14.1359 18.6317 13.7688 17.6041 13.7688C16.5275 13.7688 15.61 14.1359 14.8515 14.8699C14.093 15.6039 13.7138 16.5092 13.7138 17.5857C13.7138 18.6623 14.093 19.5676 14.8515 20.3016C15.61 21.0356 16.5275 21.4026 17.6041 21.4026ZM48.2861 33.881C48.2861 32.1193 47.7967 30.3944 46.818 28.7061C45.8393 27.0179 44.567 25.7334 43.0011 24.8525C41.582 24.0696 39.9305 23.6536 38.0465 23.6047C36.1625 23.5558 34.462 23.8738 32.9451 24.5589V23.3845H25.2379V48.3411H32.9451V33.0735L36.1013 31.5321C36.4928 31.3364 37.0311 31.2385 37.7162 31.2385C38.4013 31.2385 38.9151 31.3608 39.2576 31.6055C39.5512 31.7523 39.8448 32.0704 40.1384 32.5597C40.4321 33.0491 40.5789 33.4895 40.5789 33.881V48.3411H48.2861V33.881Z" fill="#263F28"/>
</svg>
