<svg width="66" height="41" viewBox="0 0 66 41" fill="none" xmlns="http://www.w3.org/2000/svg">
<g id="Capa 2">
<path id="Vector" d="M5.21806 0.494446V18.0306H12.1164L11.7146 21.6392H1.52509V0.494446H5.21806Z" fill="white"/>
<path id="Vector_2" d="M25.2347 0.494446L24.8329 3.75946H18.5372V9.25889H24.0207V12.5035H18.5329V18.3421H25.2871V21.6421H14.8384V0.494446H25.2347Z" fill="white"/>
<path id="Vector_3" d="M40.1943 0.494446L39.7867 4.00401H35.3746V21.6392H31.6802V4.00401H27.0483V0.494446H40.1943Z" fill="white"/>
<path id="Vector_4" d="M42.4782 8.89352L42.0299 0.494446H45.3517L44.8975 8.89352H42.4782Z" fill="white"/>
<path id="Vector_5" d="M54.2893 0.00097869C55.5509 0.00097869 56.6465 0.220781 57.5762 0.660386C58.5657 1.14432 59.4452 1.82659 60.1599 2.66481L58.3957 5.13941C57.8565 4.58828 57.2255 4.13513 56.531 3.80021C55.9076 3.51324 55.2289 3.36665 54.5426 3.3708C53.7668 3.3708 53.151 3.56877 52.691 3.9647C52.231 4.36064 51.9996 4.92834 51.9996 5.66199C51.9816 6.09839 52.0822 6.53152 52.2907 6.9153C52.4848 7.24136 52.8245 7.54656 53.3097 7.8309C54.0131 8.21593 54.7473 8.54166 55.5048 8.80473C57.2341 9.4782 58.5262 10.3089 59.3812 11.2968C60.2361 12.2847 60.6646 13.6952 60.6665 15.5284C60.6665 16.8375 60.3972 17.9855 59.8586 18.9724C59.3239 19.9599 58.509 20.7672 57.5165 21.2927C56.4898 21.8488 55.2884 22.1268 53.9123 22.1268C52.6421 22.1505 51.3838 21.8784 50.2368 21.332C49.1716 20.8093 48.2272 20.0701 47.4638 19.1616L49.3561 16.6274C49.9558 17.2655 50.6603 17.7963 51.4392 18.1966C52.1774 18.5581 52.9899 18.7421 53.8119 18.7337C54.7154 18.7337 55.4407 18.4785 55.9881 17.968C56.5354 17.4576 56.8091 16.7438 56.8091 15.8268C56.8249 15.3378 56.7252 14.8521 56.5179 14.409C56.2799 13.9883 55.9362 13.6371 55.5208 13.39C54.877 13.0013 54.1939 12.6817 53.4829 12.4366C51.5838 11.7262 50.2252 10.8717 49.4071 9.87317C48.589 8.8746 48.1848 7.57325 48.1945 5.96913C48.1729 4.8731 48.4416 3.79085 48.9733 2.83221C49.4789 1.94064 50.231 1.21385 51.1393 0.738991C52.1119 0.235739 53.1944 -0.0178677 54.2893 0.00097869Z" fill="white"/>
<g id="Clip path group">
<mask id="mask0_72_116" style="mask-type:luminance" maskUnits="userSpaceOnUse" x="52" y="22" width="14" height="12">
<g id="clip-path">
<path id="Vector_6" d="M66 22.4732H52.4843V33.7225H66V22.4732Z" fill="white"/>
</g>
</mask>
<g mask="url(#mask0_72_116)">
<g id="Group">
<path id="Vector_7" d="M56.7858 31.3076L53.5833 27.849L52.496 29.0222L56.7858 33.6541L66.0015 23.7033L64.9141 22.53L56.7858 31.3076Z" fill="white" fill-opacity="0.4"/>
</g>
</g>
</g>
<g id="Clip path group_2">
<mask id="mask1_72_116" style="mask-type:luminance" maskUnits="userSpaceOnUse" x="51" y="22" width="15" height="12">
<g id="clip-path-2">
<path id="Vector_8" d="M65.1368 22.4281H51.6211V33.6773H65.1368V22.4281Z" fill="white"/>
</g>
</mask>
<g mask="url(#mask1_72_116)">
<g id="Group_2">
<path id="Vector_9" d="M55.9225 31.261L52.7201 27.8024L51.6342 28.9771L55.924 33.6075L65.1382 23.6567L64.0509 22.4835L55.9225 31.261Z" fill="white"/>
</g>
</g>
</g>
<g id="Group_3" opacity="0.4">
<path id="Vector_10" d="M13.3944 17.8734C12.521 19.8531 10.8296 25.0264 10.3172 26.846C8.53694 26.1182 4.76536 26.5898 2.50329 30.2304C-0.0601029 34.475 0.210647 40.1288 3.80173 39.9992C5.82216 39.9352 7.54128 37.8594 8.41612 35.7851C8.05512 38.1141 8.95908 39.7153 10.4671 39.6804C13.0625 39.6164 15.0539 35.689 16.2286 32.5914C16.3741 32.1766 15.5357 31.7632 15.4149 32.0805C14.329 35.05 12.4279 38.1796 10.981 38.1796C8.32587 38.1796 13.2125 22.8546 14.9622 18.5124C15.2606 17.8093 13.5706 17.428 13.3944 17.8734ZM9.92126 28.2507C9.64906 29.4632 9.16578 31.4735 8.62283 32.9757C7.14534 37.0617 4.64018 39.3922 3.35048 38.0515C2.33152 36.9977 2.6867 33.7414 3.89343 31.5011C5.45534 28.5695 7.98962 27.5476 9.92126 28.2507Z" fill="white"/>
</g>
<g id="Group_4" opacity="0.4">
<path id="Vector_11" d="M21.7338 27.2449C18.2941 27.3904 15.278 30.5535 14.6739 34.2931C14.0101 38.3194 16.1528 39.7008 18.4149 39.7008C20.3756 39.7008 21.8837 38.8667 23.0904 37.5173C25.3234 38.1506 27.766 37.3718 29.5768 33.0878C29.7573 32.6511 28.8824 32.3396 28.7616 32.5987C27.223 36.3383 25.4136 36.7691 23.875 36.6541C26.2273 32.884 26.8023 27.044 21.7338 27.2449ZM21.6129 28.6554C24.629 28.4822 24.1472 32.4517 22.6086 35.4154C21.9448 35.0413 21.07 35.9613 21.7352 36.7662C20.9215 37.6862 19.8341 38.2917 18.7177 38.2917C16.6972 38.2917 16.3042 36.3354 16.5764 34.4357C16.9068 32.1053 19.1398 28.798 21.6129 28.6554Z" fill="white"/>
</g>
<path id="Vector_12" d="M37.7619 24.3292C38.366 24.3292 38.9396 23.9551 38.9701 23.236C39.0007 22.5169 38.4869 22.1428 37.8828 22.1428C37.2787 22.1428 36.7081 22.5169 36.6775 23.236C36.6469 23.9551 37.1593 24.3292 37.7619 24.3292ZM35.1869 39.7299C37.9919 39.7576 40.2264 35.8171 41.3719 33.1125C41.583 32.6526 40.7082 32.2785 40.5582 32.6249C39.5306 35.213 37.3282 38.3194 35.6396 38.3776C34.7342 38.4067 34.9453 37.4271 35.248 36.2495C35.8507 33.8913 36.1826 32.7384 37.5771 28.0498C37.6979 27.5898 36.1287 27.1298 35.9176 27.8489C34.6803 32.0776 34.1709 33.7749 33.5042 36.4503C32.9845 38.5494 33.4372 39.7008 35.1869 39.7299Z" fill="white" fill-opacity="0.4"/>
<path id="Vector_13" d="M42.9702 39.7299C45.8655 39.6659 48.2193 36.6425 49.7579 32.4066C49.9398 31.9291 49.0941 31.5172 48.9733 31.8345C48.1276 34.2538 45.8364 38.1374 43.4229 38.1374C41.6761 38.1374 41.5218 35.7502 42.1856 32.5041C42.4564 31.1343 42.9134 29.3191 43.3923 27.504H46.7403C47.0722 27.4734 47.375 26.3584 46.9223 26.1051H43.7548C44.5379 23.5257 45.356 20.9798 46.0183 19.2286C46.2279 18.6551 44.6296 18.1791 44.4171 18.7191C43.6616 20.6304 42.698 23.399 41.9134 26.1051H40.5247C40.1637 26.3584 39.9512 27.1866 40.465 27.504H41.551C40.3151 32.3163 38.3238 39.8245 42.9702 39.7299Z" fill="white" fill-opacity="0.4"/>
<path id="Vector_14" d="M12.5894 17.032C11.7161 19.0103 10.0246 24.1836 9.51366 26.0032C7.73341 25.2754 3.96183 25.747 1.6983 29.3876C-0.870916 33.6264 -0.592888 39.2801 2.99674 39.1579C5.01717 39.0938 6.73775 37.0181 7.61113 34.9365C7.25013 37.2655 8.15409 38.8667 9.66359 38.8318C12.2576 38.7677 14.2489 34.8404 15.425 31.7442C15.5706 31.3279 14.7307 30.9145 14.6099 31.2333C13.5254 34.2087 11.6243 37.3325 10.1774 37.3325C7.52234 37.3325 12.4089 22.0074 14.1572 17.6652C14.4599 16.9636 12.7714 16.5808 12.5894 17.032ZM9.12064 27.4035C8.84989 28.6175 8.36516 30.6278 7.8222 32.1285C6.34472 36.216 3.84101 38.5465 2.54403 37.2044C1.52508 36.1519 1.88025 32.8957 3.08699 30.654C4.66054 27.7223 7.19045 26.7019 9.12064 27.4035Z" fill="white"/>
<path id="Vector_15" d="M20.9332 26.4821C17.4935 26.6277 14.4774 29.7908 13.8748 33.5303C13.211 37.5567 15.3523 38.9381 17.6158 38.9381C19.5751 38.9381 21.0846 38.104 22.2914 36.7546C24.5243 37.3878 26.9669 36.609 28.7777 32.3251C28.9568 31.8884 28.0834 31.5769 27.9626 31.836C26.4239 35.5755 24.6146 36.0064 23.0759 35.8914C25.4283 32.1213 26.0018 26.2812 20.9332 26.4821ZM20.8124 27.8926C23.8285 27.7194 23.3467 31.6889 21.8081 34.6526C21.1443 34.2785 20.2695 35.1985 20.9347 36.0035C20.121 36.9234 19.0336 37.529 17.9171 37.529C15.8967 37.529 15.5051 35.5726 15.7759 33.673C16.1063 31.3425 18.3436 28.0353 20.8182 27.8926H20.8124Z" fill="white"/>
<path id="Vector_16" d="M37.2452 24.1327C37.8493 24.1327 38.4228 23.7586 38.4534 23.0395C38.4839 22.3204 37.9701 21.9463 37.366 21.9463C36.7619 21.9463 36.1913 22.3204 36.1607 23.0395C36.1302 23.7586 36.6426 24.1327 37.2452 24.1327ZM34.3878 38.9672C37.1928 38.9948 39.4258 35.0544 40.5713 32.3498C40.7824 31.8898 39.9076 31.5157 39.7576 31.8622C38.7314 34.4503 36.529 37.5566 34.8405 37.6149C33.9351 37.644 34.1447 36.6643 34.4474 35.4867C35.0515 33.1286 35.3834 31.9757 36.7765 27.2871C36.8973 26.8271 35.3208 26.3671 35.117 27.0862C33.8797 31.3148 33.3703 33.0121 32.7036 35.6876C32.1854 37.7866 32.6381 38.938 34.3878 38.9672Z" fill="white"/>
<path id="Vector_17" d="M42.1711 38.8857C45.0663 38.8216 47.4201 35.7982 48.9587 31.5623C49.1392 31.0849 48.295 30.6729 48.1741 30.9902C47.3284 33.411 45.0358 37.2932 42.6238 37.2932C40.877 37.2932 40.7227 34.9059 41.385 31.6598C41.6572 30.2901 42.1128 28.4749 42.5917 26.6597H45.9397C46.2716 26.6291 46.5744 25.5141 46.1217 25.2608H42.9556C43.7388 22.6814 44.5569 20.1355 45.2177 18.3843C45.4288 17.8108 43.829 17.3348 43.6165 17.8749C42.861 19.7861 41.8959 22.5548 41.1113 25.2608H39.727C39.3646 25.5141 39.152 26.3424 39.6659 26.6597H40.7605C39.516 31.4677 37.5246 38.9803 42.1711 38.8857Z" fill="white"/>
<path id="Vector_18" d="M56.2588 39.449H55.4539L54.3374 36.8143C54.365 37.0472 54.3869 37.251 54.4 37.446C54.4131 37.6411 54.4218 37.8594 54.4218 38.12V39.449H53.8614V36.1956H54.6489L55.7843 38.8332C55.7654 38.7081 55.7465 38.5421 55.7275 38.3369C55.7086 38.1316 55.6999 37.9264 55.6999 37.7211V36.1956H56.2647L56.2588 39.449Z" fill="white"/>
<path id="Vector_19" d="M59.0304 36.3222C59.25 36.4616 59.4217 36.6647 59.5224 36.9045C59.7524 37.4943 59.7524 38.1489 59.5224 38.7386C59.4178 38.9768 59.2457 39.1792 59.0275 39.3209C58.8008 39.4594 58.539 39.5297 58.2734 39.5232C58.007 39.5304 57.744 39.4618 57.515 39.3252C57.2946 39.1861 57.1219 38.983 57.0201 38.743C56.7872 38.1548 56.7872 37.5 57.0201 36.9118C57.1234 36.6723 57.2964 36.4694 57.5165 36.3295C57.7475 36.1984 58.0085 36.1294 58.2742 36.1294C58.5398 36.1294 58.8009 36.1984 59.0318 36.3295L59.0304 36.3222ZM57.697 36.8943C57.5641 37.0884 57.4981 37.3989 57.499 37.8259C57.499 38.6392 57.7567 39.0458 58.272 39.0458C58.3844 39.0513 58.4964 39.0273 58.5967 38.9762C58.6971 38.9252 58.7823 38.8488 58.8441 38.7546C58.9751 38.561 59.0391 38.2495 59.0391 37.8216C59.0391 37.3936 58.9751 37.0937 58.8441 36.8943C58.7785 36.8035 58.6923 36.7296 58.5926 36.6786C58.4929 36.6276 58.3825 36.6011 58.2705 36.6011C58.1585 36.6011 58.0482 36.6276 57.9485 36.6786C57.8487 36.7296 57.7626 36.8035 57.697 36.8943Z" fill="white"/>
<path id="Vector_20" d="M63.7598 36.1956L63.1673 39.449H62.3565L61.8674 36.855L61.3536 39.449H60.5661L59.9838 36.1927H60.601L61.0159 38.9584L61.5472 36.1927H62.2066L62.7306 38.9584L63.1833 36.1927L63.7598 36.1956Z" fill="white"/>
</g>
</svg>
