<svg xmlns="http://www.w3.org/2000/svg" xmlns:xlink="http://www.w3.org/1999/xlink" viewBox="0 0 453.4 274.8"><defs><style>.cls-1{fill:none;}.cls-2{fill:#54983c;}.cls-3{clip-path:url(#clip-path);}.cls-4,.cls-8{fill:#ccc476;}.cls-4{fill-opacity:0.4;}.cls-5{clip-path:url(#clip-path-2);}.cls-6{fill:#272727;}.cls-7{opacity:0.4;}.cls-9{fill:#152216;}</style><clipPath id="clip-path"><rect class="cls-1" x="360.54" y="154.38" width="92.85" height="77.28"/></clipPath><clipPath id="clip-path-2"><rect class="cls-1" x="354.61" y="154.07" width="92.85" height="77.28"/></clipPath></defs><title>LOGO</title><g id="Capa_2" data-name="Capa 2"><g id="Capa_1-2" data-name="Capa 1"><path class="cls-2" d="M35.83,3.39V123.86H83.22l-2.76,24.79h-70V3.39Z"/><path class="cls-2" d="M173.34,3.39l-2.76,22.43H127.33V63.6H165V85.89h-37.7V126H173.7v22.67H101.92V3.39Z"/><path class="cls-2" d="M276.11,3.39l-2.8,24.11H243V148.65H217.62V27.5H185.8V3.39Z"/><path class="cls-2" d="M291.8,61.09l-3.08-57.7h22.82l-3.12,57.7Z"/><path class="cls-2" d="M372.94,0q13,0,22.58,4.53A55.19,55.19,0,0,1,413.27,18.3l-12.12,17a45.68,45.68,0,0,0-12.81-9.2,32.2,32.2,0,0,0-13.66-2.95c-5.33,0-9.56,1.36-12.72,4.08s-4.75,6.62-4.75,11.66a16.6,16.6,0,0,0,2,8.61q2,3.36,7,6.29a99.14,99.14,0,0,0,15.08,6.69q17.82,6.94,26.63,17.12t8.83,29.07q0,13.49-5.55,23.66a39.11,39.11,0,0,1-16.09,15.94Q384.53,152,370.35,152a56.27,56.27,0,0,1-25.25-5.46,58.61,58.61,0,0,1-19.05-14.91l13-17.41A52.68,52.68,0,0,0,353.36,125a36.22,36.22,0,0,0,16.3,3.69q9.31,0,14.95-5.26t5.64-14.71a21.35,21.35,0,0,0-2-9.74,19.07,19.07,0,0,0-6.85-7,73.34,73.34,0,0,0-14-6.55q-19.57-7.32-28-17.61T331.07,41a42.69,42.69,0,0,1,5.35-21.55A36.6,36.6,0,0,1,351.3,5.07,45.39,45.39,0,0,1,372.94,0Z"/><g class="cls-3"><path class="cls-4" d="M390.09,215.07l-22-23.76-7.47,8.06,29.47,31.82,63.31-68.36-7.47-8.06Z"/></g><g class="cls-5"><path class="cls-6" d="M384.16,214.75l-22-23.76-7.46,8.07,29.47,31.81,63.3-68.36L440,154.45Z"/></g><g class="cls-7"><path class="cls-8" d="M92,122.78c-6,13.6-17.62,49.14-21.14,61.64-12.23-5-38.14-1.76-53.68,23.25-17.61,29.16-15.75,68,8.92,67.11,13.88-.44,25.69-14.7,31.7-28.95-2.48,16,3.73,27,14.09,26.76,17.83-.44,31.51-27.42,39.58-48.7,1-2.85-4.76-5.69-5.59-3.51-7.46,20.4-20.52,41.9-30.46,41.9-18.24,0,15.33-105.28,27.35-135.11C104.82,122.34,93.21,119.72,92,122.78ZM68.14,194.07c-1.87,8.33-5.19,22.14-8.92,32.46C49.07,254.6,31.86,270.61,23,261.4c-7-7.24-4.56-29.61,3.73-45C37.46,196.26,54.87,189.24,68.14,194.07Z"/></g><g class="cls-7"><path class="cls-8" d="M149.29,187.16c-23.63,1-44.35,22.73-48.5,48.42-4.56,27.66,10.16,37.15,25.7,37.15,13.47,0,23.83-5.73,32.12-15,15.34,4.35,32.12-1,44.56-30.43,1.24-3-4.77-5.14-5.6-3.36-10.57,25.69-23,28.65-33.57,27.86C180.16,225.9,184.11,185.78,149.29,187.16Zm-.83,9.69c20.72-1.19,17.41,26.08,6.84,46.44-4.56-2.57-10.57,3.75-6,9.28-5.59,6.32-13.06,10.48-20.73,10.48-13.88,0-16.58-13.44-14.71-26.49C116.13,220.55,131.47,197.83,148.46,196.85Z"/></g><path class="cls-4" d="M259.4,167.13c4.15,0,8.09-2.57,8.3-7.51s-3.32-7.51-7.47-7.51-8.07,2.57-8.28,7.51S255.26,167.13,259.4,167.13Zm-17.69,105.8c19.27.19,34.62-26.88,42.49-45.46,1.45-3.16-4.56-5.73-5.59-3.35-7.06,17.78-22.19,39.12-33.79,39.52-6.22.2-4.77-6.53-2.69-14.62,4.14-16.2,6.42-24.12,16-56.33.83-3.16-9.95-6.32-11.4-1.38-8.5,29.05-12,40.71-16.58,59.09C226.58,264.82,229.69,272.73,241.71,272.93Z"/><path class="cls-4" d="M295.18,272.93c19.89-.44,36.06-21.21,46.63-50.31,1.25-3.28-4.56-6.11-5.39-3.93-5.81,16.62-21.55,43.3-38.13,43.3-12,0-13.06-16.4-8.5-38.7,1.86-9.41,5-21.88,8.29-34.35h23c2.28-.21,4.36-7.87,1.25-9.61H300.57c5.38-17.72,11-35.21,15.55-47.24,1.44-3.94-9.54-7.21-11-3.5-5.19,13.13-11.81,32.15-17.2,50.74h-9.54c-2.48,1.74-3.94,7.43-.41,9.61h7.46C276.94,222,263.26,273.58,295.18,272.93Z"/><path class="cls-9" d="M86.47,117c-6,13.59-17.62,49.13-21.13,61.63-12.23-5-38.14-1.76-53.69,23.25C-6,231-4.09,269.84,20.57,269c13.88-.44,25.7-14.7,31.7-29-2.48,16,3.73,27,14.1,26.76,17.82-.44,31.5-27.42,39.58-48.69,1-2.86-4.77-5.7-5.6-3.51C92.9,235,79.84,256.46,69.9,256.46c-18.24,0,15.33-105.28,27.34-135.11C99.32,116.53,87.72,113.9,86.47,117ZM62.64,188.25c-1.86,8.34-5.19,22.15-8.92,32.46-10.15,28.08-27.35,44.09-36.26,34.87-7-7.23-4.56-29.6,3.73-45C32,190.44,49.38,183.43,62.64,188.25Z"/><path class="cls-9" d="M143.79,181.92c-23.63,1-44.35,22.73-48.49,48.42C90.74,258,105.45,267.49,121,267.49c13.46,0,23.83-5.73,32.12-15,15.34,4.35,32.12-1,44.56-30.43,1.23-3-4.77-5.14-5.6-3.36-10.57,25.69-23,28.65-33.57,27.86C174.67,220.66,178.61,180.54,143.79,181.92Zm-.83,9.69c20.72-1.19,17.41,26.08,6.84,46.44-4.56-2.57-10.57,3.75-6,9.28-5.59,6.32-13.06,10.48-20.73,10.48-13.88,0-16.57-13.44-14.71-26.49C110.63,215.31,126,192.59,143,191.61Z"/><path class="cls-9" d="M255.85,165.78c4.15,0,8.09-2.57,8.3-7.51s-3.32-7.51-7.47-7.51-8.07,2.57-8.28,7.51S251.71,165.78,255.85,165.78ZM236.22,267.69c19.27.19,34.61-26.88,42.48-45.46,1.45-3.16-4.56-5.73-5.59-3.35-7.05,17.78-22.18,39.12-33.78,39.52-6.22.2-4.78-6.53-2.7-14.62,4.15-16.2,6.43-24.12,16-56.33.83-3.16-10-6.32-11.4-1.38-8.5,29.05-12,40.71-16.58,59.09C221.09,259.58,224.2,267.49,236.22,267.69Z"/><path class="cls-9" d="M289.69,267.13c19.89-.44,36.06-21.21,46.63-50.31,1.24-3.28-4.56-6.11-5.39-3.93-5.81,16.63-21.56,43.3-38.13,43.3-12,0-13.06-16.4-8.51-38.7,1.87-9.41,5-21.88,8.29-34.35h23c2.28-.21,4.36-7.87,1.25-9.61H295.08c5.38-17.72,11-35.21,15.54-47.24,1.45-3.94-9.54-7.21-11-3.5-5.19,13.13-11.82,32.15-17.21,50.74H272.9c-2.49,1.74-3.95,7.43-.42,9.61H280C271.45,216.17,257.77,267.78,289.69,267.13Z"/><path class="cls-2" d="M386.47,271h-5.53l-7.67-18.1c.19,1.6.34,3,.43,4.34s.15,2.84.15,4.63V271H370V248.65h5.41l7.8,18.12c-.13-.86-.26-2-.39-3.41s-.19-2.82-.19-4.23V248.65h3.88Z"/><path class="cls-2" d="M405.51,249.52a8.75,8.75,0,0,1,3.38,4,17.34,17.34,0,0,1,0,12.6,9.16,9.16,0,0,1-3.4,4,9.49,9.49,0,0,1-5.18,1.39,9.66,9.66,0,0,1-5.21-1.36,8.79,8.79,0,0,1-3.4-4,17.08,17.08,0,0,1,0-12.58,8.93,8.93,0,0,1,3.41-4,10.54,10.54,0,0,1,10.41,0Zm-9.16,3.93q-1.37,2-1.36,6.4,0,8.38,5.31,8.38a4.44,4.44,0,0,0,3.93-2c.9-1.33,1.34-3.47,1.34-6.41s-.44-5-1.34-6.37a4.86,4.86,0,0,0-7.88,0Z"/><path class="cls-2" d="M438,248.65,433.93,271h-5.57L425,253.18,421.47,271h-5.41l-4-22.37h4.24l2.85,19,3.65-19h4.53l3.6,19,3.11-19Z"/></g></g></svg>