<svg viewBox="0 0 52 34" fill="none" xmlns="http://www.w3.org/2000/svg">
<path d="M3.40033 33.7999C2.60775 33.7999 1.93924 33.5242 1.39479 32.9728C0.850347 32.4214 0.578125 31.7585 0.578125 30.984C0.578125 30.2095 0.850347 29.5518 1.39479 29.0111C1.93924 28.4703 2.60775 28.1999 3.40033 28.1999H48.6448C49.4085 28.1999 50.0624 28.4729 50.6064 29.0189C51.1505 29.5648 51.4225 30.2251 51.4225 30.9995C51.4225 31.7741 51.1505 32.4344 50.6064 32.9806C50.0624 33.5268 49.4085 33.7999 48.6448 33.7999H3.40033ZM3.40033 19.7555C2.60775 19.7555 1.93924 19.4798 1.39479 18.9284C0.850347 18.377 0.578125 17.714 0.578125 16.9396C0.578125 16.165 0.850347 15.5074 1.39479 14.9666C1.93924 14.4259 2.60775 14.1556 3.40033 14.1556H48.6448C49.4085 14.1556 50.0624 14.4285 50.6064 14.9744C51.1505 15.5204 51.4225 16.1806 51.4225 16.9552C51.4225 17.7296 51.1505 18.39 50.6064 18.9362C50.0624 19.4824 49.4085 19.7555 48.6448 19.7555H3.40033ZM3.40033 5.71102C2.60775 5.71102 1.93924 5.43533 1.39479 4.88395C0.850347 4.33257 0.578125 3.66962 0.578125 2.89508C0.578125 2.12055 0.850347 1.46291 1.39479 0.922152C1.93924 0.381441 2.60775 0.111084 3.40033 0.111084H48.6448C49.4085 0.111084 50.0624 0.384041 50.6064 0.929952C51.1505 1.47591 51.4225 2.13615 51.4225 2.91069C51.4225 3.68517 51.1505 4.34553 50.6064 4.89175C50.0624 5.43793 49.4085 5.71102 48.6448 5.71102H3.40033Z" fill="#333333"/>
</svg>
