<svg width="63" height="62" viewBox="0 0 63 62" fill="none" xmlns="http://www.w3.org/2000/svg">
<path d="M47.0183 0.304871C49.1226 0.304871 51.1045 0.708598 52.9641 1.51605C54.8237 2.32351 56.4508 3.42458 57.8455 4.81928C59.2402 6.21397 60.3413 7.84112 61.1487 9.70071C61.9562 11.5603 62.3599 13.5422 62.3599 15.6465V46.3298C62.3599 48.4341 61.9562 50.4283 61.1487 52.3123C60.3413 54.1964 59.2402 55.8358 57.8455 57.2305C56.4508 58.6252 54.8237 59.7262 52.9641 60.5337C51.1045 61.3411 49.1226 61.7449 47.0183 61.7449H16.2616C14.1573 61.7449 12.1754 61.3411 10.3158 60.5337C8.45617 59.7262 6.82903 58.6252 5.43433 57.2305C4.03964 55.8358 2.93856 54.1964 2.1311 52.3123C1.32365 50.4283 0.919922 48.4341 0.919922 46.3298V15.6465C0.919922 13.5422 1.32365 11.5603 2.1311 9.70071C2.93856 7.84112 4.03964 6.21397 5.43433 4.81928C6.82903 3.42458 8.45617 2.32351 10.3158 1.51605C12.1754 0.708598 14.1573 0.304871 16.2616 0.304871H47.0183ZM31.6766 45.5958C34.0256 45.5958 36.2522 45.2043 38.3565 44.4213C40.4608 43.6383 42.2959 42.5739 43.8619 41.2282C45.4278 39.8824 46.6635 38.292 47.5688 36.4568C48.4741 34.6217 48.9268 32.6765 48.9268 30.6211C48.9268 28.5658 48.4741 26.6206 47.5688 24.7854C46.6635 22.9503 45.4278 21.3599 43.8619 20.0141C42.2959 18.6684 40.4608 17.604 38.3565 16.821C36.2522 16.038 34.0256 15.6465 31.6766 15.6465C29.2787 15.6465 27.0276 16.038 24.9234 16.821C22.8191 17.604 20.984 18.6684 19.418 20.0141C17.852 21.3599 16.6164 22.9503 15.711 24.7854C14.8057 26.6206 14.353 28.5658 14.353 30.6211C14.353 33.1169 15.0015 35.4169 16.2983 37.5212C17.5951 39.6255 19.3201 41.3872 21.4733 42.8064C21.3265 43.6872 20.8861 44.4335 20.152 45.0452C19.418 45.6569 18.5371 46.0117 17.5095 46.1096C18.2924 46.2564 19.1244 46.3298 20.0052 46.3298C22.3542 46.3298 24.2872 45.7915 25.8042 44.7149C27.6149 45.3021 29.5723 45.5958 31.6766 45.5958Z" fill="#263F28"/>
</svg>
