<svg width="491" height="93" viewBox="0 0 491 93" fill="none" xmlns="http://www.w3.org/2000/svg">
<path d="M8.16667 13.5C8.16667 20.8638 14.1362 26.8333 21.5 26.8333C28.8638 26.8333 34.8333 20.8638 34.8333 13.5C34.8333 6.1362 28.8638 0.166667 21.5 0.166667C14.1362 0.166667 8.16667 6.1362 8.16667 13.5ZM456.167 13.5C456.167 20.8638 462.136 26.8333 469.5 26.8333C476.864 26.8333 482.833 20.8638 482.833 13.5C482.833 6.1362 476.864 0.166667 469.5 0.166667C462.136 0.166667 456.167 6.1362 456.167 13.5ZM21.5 16H469.5V11H21.5V16Z" fill="#9BCF7D"/>
<path d="M11.5623 60.5C11.5623 59.54 11.6369 58.676 11.7863 57.908C11.9356 57.14 12.1916 56.4253 12.5543 55.764C12.9383 55.1027 13.4503 54.484 14.0903 53.908C14.7516 53.3107 15.5836 52.7347 16.5863 52.18C17.4609 51.7107 18.2289 51.3053 18.8903 50.964C19.5516 50.6013 20.1063 50.2707 20.5543 49.972C21.0236 49.6733 21.3756 49.3747 21.6103 49.076C21.8449 48.756 21.9623 48.3933 21.9623 47.988C21.9623 47.5613 21.8449 47.1773 21.6103 46.836C21.3756 46.4733 21.0449 46.1853 20.6183 45.972C20.1916 45.7587 19.6583 45.652 19.0183 45.652C18.5063 45.652 18.0263 45.716 17.5783 45.844C17.1516 45.972 16.7463 46.1533 16.3623 46.388C15.9996 46.6227 15.6583 46.8893 15.3383 47.188C15.0183 47.4653 14.7303 47.764 14.4743 48.084L11.7543 44.948C12.0529 44.6493 12.4476 44.3293 12.9383 43.988C13.4503 43.6253 14.0476 43.2947 14.7303 42.996C15.4343 42.676 16.2023 42.42 17.0343 42.228C17.8876 42.0147 18.7943 41.908 19.7543 41.908C21.2049 41.908 22.4423 42.1427 23.4663 42.612C24.4903 43.06 25.2689 43.6893 25.8023 44.5C26.3569 45.3107 26.6343 46.26 26.6343 47.348C26.6343 48.0947 26.4956 48.756 26.2183 49.332C25.9409 49.908 25.5889 50.42 25.1623 50.868C24.7356 51.2947 24.2663 51.6787 23.7543 52.02C23.2636 52.3613 22.7836 52.66 22.3143 52.916C21.6529 53.2573 21.0556 53.5773 20.5223 53.876C19.9889 54.1533 19.5196 54.4413 19.1143 54.74C18.7089 55.0173 18.3463 55.3053 18.0263 55.604C17.7276 55.9027 17.4609 56.244 17.2263 56.628H26.9863V60.5H11.5623ZM53.2803 43.732C53.1309 43.5827 52.8536 43.38 52.4483 43.124C52.0643 42.868 51.5843 42.6227 51.0083 42.388C50.4536 42.1533 49.8456 41.9507 49.1843 41.78C48.5229 41.588 47.8509 41.492 47.1683 41.492C45.9736 41.492 45.0669 41.716 44.4483 42.164C43.8509 42.612 43.5523 43.2413 43.5523 44.052C43.5523 44.6707 43.7443 45.1613 44.1283 45.524C44.5123 45.8867 45.0883 46.196 45.8563 46.452C46.6243 46.708 47.5843 46.9853 48.7363 47.284C50.2296 47.6467 51.5203 48.0947 52.6083 48.628C53.7176 49.14 54.5603 49.8227 55.1363 50.676C55.7336 51.508 56.0323 52.6173 56.0323 54.004C56.0323 55.22 55.8083 56.2653 55.3603 57.14C54.9123 57.9933 54.2936 58.6867 53.5043 59.22C52.7149 59.7533 51.8189 60.148 50.8163 60.404C49.8136 60.6387 48.7469 60.756 47.6163 60.756C46.4856 60.756 45.3549 60.6387 44.2243 60.404C43.0936 60.1693 42.0056 59.8387 40.9603 59.412C39.9149 58.964 38.9549 58.4307 38.0803 57.812L40.0323 54.004C40.2243 54.196 40.5656 54.452 41.0563 54.772C41.5469 55.0707 42.1443 55.38 42.8483 55.7C43.5523 55.9987 44.3203 56.2547 45.1523 56.468C45.9843 56.6813 46.8269 56.788 47.6803 56.788C48.8749 56.788 49.7816 56.5853 50.4003 56.18C51.0189 55.7747 51.3283 55.1987 51.3283 54.452C51.3283 53.7693 51.0829 53.236 50.5923 52.852C50.1016 52.468 49.4189 52.1373 48.5443 51.86C47.6696 51.5613 46.6349 51.2413 45.4403 50.9C44.0109 50.4947 42.8163 50.0467 41.8563 49.556C40.8963 49.044 40.1816 48.404 39.7123 47.636C39.2429 46.868 39.0083 45.908 39.0083 44.756C39.0083 43.1987 39.3709 41.8973 40.0963 40.852C40.8429 39.7853 41.8456 38.9853 43.1043 38.452C44.3629 37.8973 45.7603 37.62 47.2963 37.62C48.3629 37.62 49.3656 37.7373 50.3043 37.972C51.2643 38.2067 52.1603 38.516 52.9923 38.9C53.8243 39.284 54.5709 39.7 55.2323 40.148L53.2803 43.732ZM67.3693 60.82C66.0253 60.82 64.8093 60.596 63.7213 60.148C62.6333 59.6787 61.7053 59.0493 60.9373 58.26C60.1693 57.4493 59.5719 56.532 59.1453 55.508C58.7399 54.4627 58.5373 53.364 58.5373 52.212C58.5373 50.612 58.8893 49.1507 59.5933 47.828C60.3186 46.5053 61.3426 45.4493 62.6653 44.66C64.0093 43.8493 65.5879 43.444 67.4013 43.444C69.2359 43.444 70.8039 43.8493 72.1053 44.66C73.4066 45.4493 74.3986 46.5053 75.0813 47.828C75.7853 49.1293 76.1373 50.5373 76.1373 52.052C76.1373 52.308 76.1266 52.5747 76.1053 52.852C76.0839 53.108 76.0626 53.3213 76.0413 53.492H63.0813C63.1666 54.3453 63.4119 55.092 63.8173 55.732C64.2439 56.372 64.7773 56.8627 65.4173 57.204C66.0786 57.524 66.7826 57.684 67.5293 57.684C68.3826 57.684 69.1826 57.4813 69.9293 57.076C70.6973 56.6493 71.2199 56.0947 71.4973 55.412L75.1773 56.436C74.7719 57.2893 74.1853 58.0467 73.4173 58.708C72.6706 59.3693 71.7853 59.892 70.7613 60.276C69.7373 60.6387 68.6066 60.82 67.3693 60.82ZM62.9853 50.772H71.7533C71.6679 49.9187 71.4226 49.1827 71.0173 48.564C70.6333 47.924 70.1213 47.4333 69.4813 47.092C68.8413 46.7293 68.1266 46.548 67.3373 46.548C66.5693 46.548 65.8653 46.7293 65.2253 47.092C64.6066 47.4333 64.0946 47.924 63.6893 48.564C63.3053 49.1827 63.0706 49.9187 62.9853 50.772ZM105.438 60.5H101.15V51.092C101.15 49.7693 100.915 48.7987 100.446 48.18C99.9975 47.54 99.3682 47.22 98.5575 47.22C97.7255 47.22 96.9255 47.5507 96.1575 48.212C95.4108 48.852 94.8775 49.6947 94.5575 50.74V60.5H90.2695V51.092C90.2695 49.748 90.0348 48.7667 89.5655 48.148C89.1175 47.5293 88.4882 47.22 87.6775 47.22C86.8455 47.22 86.0455 47.54 85.2775 48.18C84.5308 48.82 83.9975 49.6627 83.6775 50.708V60.5H79.3895V43.732H83.2615V46.836C83.9015 45.748 84.7548 44.916 85.8215 44.34C86.8882 43.7427 88.1148 43.444 89.5015 43.444C90.8882 43.444 91.9655 43.7853 92.7335 44.468C93.5228 45.1507 94.0242 45.9933 94.2375 46.996C94.9202 45.844 95.7842 44.9693 96.8295 44.372C97.8962 43.7533 99.0908 43.444 100.414 43.444C101.459 43.444 102.302 43.636 102.942 44.02C103.603 44.3827 104.115 44.884 104.478 45.524C104.84 46.1427 105.086 46.8467 105.214 47.636C105.363 48.4253 105.438 49.2253 105.438 50.036V60.5ZM108.659 55.54C108.659 54.452 108.957 53.5027 109.555 52.692C110.173 51.86 111.027 51.22 112.115 50.772C113.203 50.324 114.451 50.1 115.859 50.1C116.563 50.1 117.277 50.1533 118.003 50.26C118.728 50.3667 119.357 50.5373 119.891 50.772V49.876C119.891 48.8093 119.571 47.988 118.931 47.412C118.312 46.836 117.384 46.548 116.147 46.548C115.229 46.548 114.355 46.708 113.523 47.028C112.691 47.348 111.816 47.8173 110.899 48.436L109.523 45.62C110.632 44.8947 111.763 44.3507 112.915 43.988C114.088 43.6253 115.315 43.444 116.595 43.444C118.984 43.444 120.84 44.0413 122.163 45.236C123.507 46.4307 124.179 48.1373 124.179 50.356V55.7C124.179 56.148 124.253 56.468 124.403 56.66C124.573 56.852 124.84 56.9693 125.203 57.012V60.5C124.819 60.564 124.467 60.6173 124.147 60.66C123.848 60.7027 123.592 60.724 123.379 60.724C122.525 60.724 121.875 60.532 121.427 60.148C121 59.764 120.733 59.2947 120.627 58.74L120.531 57.876C119.805 58.8147 118.899 59.54 117.811 60.052C116.723 60.564 115.613 60.82 114.483 60.82C113.373 60.82 112.371 60.596 111.475 60.148C110.6 59.6787 109.907 59.0493 109.395 58.26C108.904 57.4493 108.659 56.5427 108.659 55.54ZM119.091 56.404C119.325 56.148 119.517 55.892 119.667 55.636C119.816 55.38 119.891 55.1453 119.891 54.932V53.236C119.379 53.0227 118.824 52.8627 118.227 52.756C117.629 52.628 117.064 52.564 116.531 52.564C115.421 52.564 114.504 52.8093 113.779 53.3C113.075 53.7693 112.723 54.3987 112.723 55.188C112.723 55.6147 112.84 56.02 113.075 56.404C113.309 56.788 113.651 57.0973 114.099 57.332C114.547 57.5667 115.08 57.684 115.699 57.684C116.339 57.684 116.968 57.5667 117.587 57.332C118.205 57.076 118.707 56.7667 119.091 56.404ZM144.41 60.5H140.122V51.092C140.122 49.748 139.887 48.7667 139.418 48.148C138.948 47.5293 138.298 47.22 137.466 47.22C136.89 47.22 136.303 47.3693 135.706 47.668C135.13 47.9667 134.607 48.3827 134.138 48.916C133.668 49.428 133.327 50.0253 133.114 50.708V60.5H128.826V43.732H132.698V46.836C133.124 46.1107 133.668 45.5027 134.33 45.012C134.991 44.5 135.748 44.116 136.602 43.86C137.476 43.5827 138.394 43.444 139.354 43.444C140.399 43.444 141.252 43.636 141.914 44.02C142.596 44.3827 143.108 44.884 143.45 45.524C143.812 46.1427 144.058 46.8467 144.186 47.636C144.335 48.4253 144.41 49.2253 144.41 50.036V60.5ZM147.626 55.54C147.626 54.452 147.925 53.5027 148.522 52.692C149.141 51.86 149.994 51.22 151.082 50.772C152.17 50.324 153.418 50.1 154.826 50.1C155.53 50.1 156.245 50.1533 156.97 50.26C157.696 50.3667 158.325 50.5373 158.858 50.772V49.876C158.858 48.8093 158.538 47.988 157.898 47.412C157.28 46.836 156.352 46.548 155.114 46.548C154.197 46.548 153.322 46.708 152.49 47.028C151.658 47.348 150.784 47.8173 149.866 48.436L148.49 45.62C149.6 44.8947 150.73 44.3507 151.882 43.988C153.056 43.6253 154.282 43.444 155.562 43.444C157.952 43.444 159.808 44.0413 161.13 45.236C162.474 46.4307 163.146 48.1373 163.146 50.356V55.7C163.146 56.148 163.221 56.468 163.37 56.66C163.541 56.852 163.808 56.9693 164.17 57.012V60.5C163.786 60.564 163.434 60.6173 163.114 60.66C162.816 60.7027 162.56 60.724 162.346 60.724C161.493 60.724 160.842 60.532 160.394 60.148C159.968 59.764 159.701 59.2947 159.594 58.74L159.498 57.876C158.773 58.8147 157.866 59.54 156.778 60.052C155.69 60.564 154.581 60.82 153.45 60.82C152.341 60.82 151.338 60.596 150.442 60.148C149.568 59.6787 148.874 59.0493 148.362 58.26C147.872 57.4493 147.626 56.5427 147.626 55.54ZM158.058 56.404C158.293 56.148 158.485 55.892 158.634 55.636C158.784 55.38 158.858 55.1453 158.858 54.932V53.236C158.346 53.0227 157.792 52.8627 157.194 52.756C156.597 52.628 156.032 52.564 155.498 52.564C154.389 52.564 153.472 52.8093 152.746 53.3C152.042 53.7693 151.69 54.3987 151.69 55.188C151.69 55.6147 151.808 56.02 152.042 56.404C152.277 56.788 152.618 57.0973 153.066 57.332C153.514 57.5667 154.048 57.684 154.666 57.684C155.306 57.684 155.936 57.5667 156.554 57.332C157.173 57.076 157.674 56.7667 158.058 56.404ZM173.969 60.82C172.54 60.82 171.175 60.5853 169.873 60.116C168.572 59.6467 167.452 58.9533 166.513 58.036L168.049 55.252C169.052 56.0627 170.033 56.66 170.993 57.044C171.975 57.428 172.913 57.62 173.809 57.62C174.641 57.62 175.303 57.4707 175.793 57.172C176.305 56.8733 176.561 56.4253 176.561 55.828C176.561 55.4227 176.423 55.1133 176.145 54.9C175.868 54.6653 175.463 54.4627 174.929 54.292C174.417 54.1213 173.788 53.9293 173.041 53.716C171.804 53.3107 170.769 52.916 169.937 52.532C169.105 52.148 168.476 51.668 168.049 51.092C167.644 50.4947 167.441 49.7373 167.441 48.82C167.441 47.7107 167.719 46.7613 168.273 45.972C168.849 45.1613 169.639 44.532 170.641 44.084C171.665 43.636 172.86 43.412 174.225 43.412C175.42 43.412 176.551 43.604 177.617 43.988C178.684 44.3507 179.655 44.948 180.529 45.78L178.801 48.5C177.948 47.8387 177.137 47.3587 176.369 47.06C175.601 46.74 174.823 46.58 174.033 46.58C173.585 46.58 173.159 46.6333 172.753 46.74C172.369 46.8467 172.049 47.028 171.793 47.284C171.559 47.5187 171.441 47.86 171.441 48.308C171.441 48.7133 171.548 49.0333 171.761 49.268C171.996 49.4813 172.337 49.6733 172.785 49.844C173.255 50.0147 173.82 50.2067 174.481 50.42C175.825 50.804 176.956 51.1987 177.873 51.604C178.812 52.0093 179.516 52.5107 179.985 53.108C180.455 53.684 180.689 54.484 180.689 55.508C180.689 57.172 180.081 58.4733 178.865 59.412C177.649 60.3507 176.017 60.82 173.969 60.82Z" fill="white"/>
<path d="M9.01979 87.74C7.97979 87.74 7.04379 87.468 6.21179 86.924C5.39579 86.38 4.74779 85.708 4.26779 84.908V92.612H2.63578V74.996H4.09979V77.42C4.59579 76.636 5.25979 76.004 6.09179 75.524C6.92379 75.028 7.81179 74.78 8.75579 74.78C9.61979 74.78 10.4118 74.964 11.1318 75.332C11.8518 75.684 12.4758 76.164 13.0038 76.772C13.5318 77.38 13.9398 78.076 14.2278 78.86C14.5318 79.628 14.6838 80.428 14.6838 81.26C14.6838 82.428 14.4438 83.508 13.9638 84.5C13.4998 85.476 12.8438 86.26 11.9958 86.852C11.1478 87.444 10.1558 87.74 9.01979 87.74ZM8.56379 86.3C9.25179 86.3 9.86779 86.164 10.4118 85.892C10.9558 85.604 11.4198 85.22 11.8038 84.74C12.2038 84.26 12.5078 83.724 12.7158 83.132C12.9238 82.524 13.0278 81.9 13.0278 81.26C13.0278 80.588 12.9078 79.948 12.6678 79.34C12.4438 78.732 12.1158 78.196 11.6838 77.732C11.2518 77.268 10.7558 76.9 10.1958 76.628C9.63579 76.356 9.02779 76.22 8.37179 76.22C7.95579 76.22 7.52379 76.3 7.07579 76.46C6.62779 76.62 6.19579 76.852 5.77979 77.156C5.37979 77.444 5.04379 77.772 4.77179 78.14C4.49978 78.508 4.33178 78.9 4.26779 79.316V83.156C4.52379 83.748 4.86779 84.284 5.29979 84.764C5.73179 85.228 6.22779 85.604 6.78779 85.892C7.36379 86.164 7.95579 86.3 8.56379 86.3ZM16.9203 83.9C16.9203 83.116 17.1443 82.444 17.5923 81.884C18.0403 81.308 18.6563 80.868 19.4403 80.564C20.2403 80.244 21.1603 80.084 22.2003 80.084C22.8083 80.084 23.4403 80.132 24.0963 80.228C24.7523 80.324 25.3363 80.468 25.8483 80.66V79.604C25.8483 78.548 25.5363 77.708 24.9123 77.084C24.2883 76.46 23.4243 76.148 22.3203 76.148C21.6483 76.148 20.9843 76.276 20.3283 76.532C19.6883 76.772 19.0163 77.132 18.3123 77.612L17.6883 76.46C18.5043 75.9 19.3043 75.484 20.0883 75.212C20.8723 74.924 21.6723 74.78 22.4883 74.78C24.0243 74.78 25.2403 75.22 26.1363 76.1C27.0323 76.98 27.4803 78.196 27.4803 79.748V85.532C27.4803 85.756 27.5283 85.924 27.6243 86.036C27.7203 86.132 27.8723 86.188 28.0803 86.204V87.5C27.9043 87.516 27.7523 87.532 27.6243 87.548C27.4963 87.564 27.4003 87.564 27.3363 87.548C26.9363 87.532 26.6323 87.404 26.4243 87.164C26.2163 86.924 26.1043 86.668 26.0883 86.396L26.0643 85.484C25.5043 86.204 24.7763 86.764 23.8803 87.164C22.9843 87.548 22.0723 87.74 21.1443 87.74C20.3443 87.74 19.6163 87.572 18.9603 87.236C18.3203 86.884 17.8163 86.42 17.4483 85.844C17.0963 85.252 16.9203 84.604 16.9203 83.9ZM25.2963 84.86C25.4723 84.636 25.6083 84.42 25.7043 84.212C25.8003 84.004 25.8483 83.82 25.8483 83.66V81.836C25.3043 81.628 24.7363 81.468 24.1443 81.356C23.5683 81.244 22.9843 81.188 22.3923 81.188C21.2243 81.188 20.2803 81.42 19.5603 81.884C18.8403 82.348 18.4803 82.98 18.4803 83.78C18.4803 84.244 18.6003 84.684 18.8403 85.1C19.0803 85.5 19.4323 85.836 19.8963 86.108C20.3603 86.364 20.9043 86.492 21.5283 86.492C22.3123 86.492 23.0403 86.34 23.7123 86.036C24.4003 85.732 24.9283 85.34 25.2963 84.86ZM37.7264 76.436C36.6384 76.468 35.6784 76.772 34.8464 77.348C34.0304 77.924 33.4544 78.716 33.1184 79.724V87.5H31.4864V74.996H33.0224V77.996C33.4544 77.116 34.0224 76.404 34.7264 75.86C35.4464 75.316 36.2064 75.012 37.0064 74.948C37.1664 74.932 37.3024 74.924 37.4144 74.924C37.5424 74.924 37.6464 74.932 37.7264 74.948V76.436ZM39.3256 83.9C39.3256 83.116 39.5496 82.444 39.9976 81.884C40.4456 81.308 41.0616 80.868 41.8456 80.564C42.6456 80.244 43.5656 80.084 44.6056 80.084C45.2136 80.084 45.8456 80.132 46.5016 80.228C47.1576 80.324 47.7416 80.468 48.2536 80.66V79.604C48.2536 78.548 47.9416 77.708 47.3176 77.084C46.6936 76.46 45.8296 76.148 44.7256 76.148C44.0536 76.148 43.3896 76.276 42.7336 76.532C42.0936 76.772 41.4216 77.132 40.7176 77.612L40.0936 76.46C40.9096 75.9 41.7096 75.484 42.4936 75.212C43.2776 74.924 44.0776 74.78 44.8936 74.78C46.4296 74.78 47.6456 75.22 48.5416 76.1C49.4376 76.98 49.8856 78.196 49.8856 79.748V85.532C49.8856 85.756 49.9336 85.924 50.0296 86.036C50.1256 86.132 50.2776 86.188 50.4856 86.204V87.5C50.3096 87.516 50.1576 87.532 50.0296 87.548C49.9016 87.564 49.8056 87.564 49.7416 87.548C49.3416 87.532 49.0376 87.404 48.8296 87.164C48.6216 86.924 48.5096 86.668 48.4936 86.396L48.4696 85.484C47.9096 86.204 47.1816 86.764 46.2856 87.164C45.3896 87.548 44.4776 87.74 43.5496 87.74C42.7496 87.74 42.0216 87.572 41.3656 87.236C40.7256 86.884 40.2216 86.42 39.8536 85.844C39.5016 85.252 39.3256 84.604 39.3256 83.9ZM47.7016 84.86C47.8776 84.636 48.0136 84.42 48.1096 84.212C48.2056 84.004 48.2536 83.82 48.2536 83.66V81.836C47.7096 81.628 47.1416 81.468 46.5496 81.356C45.9736 81.244 45.3896 81.188 44.7976 81.188C43.6296 81.188 42.6856 81.42 41.9656 81.884C41.2456 82.348 40.8856 82.98 40.8856 83.78C40.8856 84.244 41.0056 84.684 41.2456 85.1C41.4856 85.5 41.8376 85.836 42.3016 86.108C42.7656 86.364 43.3096 86.492 43.9336 86.492C44.7176 86.492 45.4456 86.34 46.1176 86.036C46.8056 85.732 47.3336 85.34 47.7016 84.86ZM65.8889 87.74C64.9929 87.74 64.1609 87.572 63.3929 87.236C62.6249 86.884 61.9609 86.412 61.4009 85.82C60.8409 85.212 60.4009 84.516 60.0809 83.732C59.7769 82.948 59.6249 82.108 59.6249 81.212C59.6249 80.044 59.8889 78.972 60.4169 77.996C60.9609 77.02 61.7049 76.244 62.6489 75.668C63.5929 75.076 64.6649 74.78 65.8649 74.78C67.0969 74.78 68.1689 75.076 69.0809 75.668C70.0089 76.26 70.7369 77.044 71.2649 78.02C71.7929 78.98 72.0569 80.036 72.0569 81.188C72.0569 81.316 72.0569 81.444 72.0569 81.572C72.0569 81.684 72.0489 81.772 72.0329 81.836H61.3289C61.4089 82.732 61.6569 83.532 62.0729 84.236C62.5049 84.924 63.0569 85.476 63.7289 85.892C64.4169 86.292 65.1609 86.492 65.9609 86.492C66.7769 86.492 67.5449 86.284 68.2649 85.868C69.0009 85.452 69.5129 84.908 69.8009 84.236L71.2169 84.62C70.9609 85.212 70.5689 85.748 70.0409 86.228C69.5129 86.708 68.8889 87.084 68.1689 87.356C67.4649 87.612 66.7049 87.74 65.8889 87.74ZM61.2809 80.66H70.5209C70.4569 79.748 70.2089 78.948 69.7769 78.26C69.3609 77.572 68.8089 77.036 68.1209 76.652C67.4489 76.252 66.7049 76.052 65.8889 76.052C65.0729 76.052 64.3289 76.252 63.6569 76.652C62.9849 77.036 62.4329 77.58 62.0009 78.284C61.5849 78.972 61.3449 79.764 61.2809 80.66ZM75.1268 69.98H76.7588V84.668C76.7588 85.292 76.8708 85.7 77.0948 85.892C77.3188 86.084 77.5908 86.18 77.9108 86.18C78.1988 86.18 78.4868 86.148 78.7748 86.084C79.0628 86.02 79.3108 85.956 79.5188 85.892L79.8068 87.212C79.5028 87.34 79.1268 87.444 78.6788 87.524C78.2468 87.604 77.8708 87.644 77.5508 87.644C76.8148 87.644 76.2228 87.428 75.7748 86.996C75.3428 86.564 75.1268 85.972 75.1268 85.22V69.98ZM94.3285 87.74C93.2885 87.74 92.3525 87.468 91.5205 86.924C90.7045 86.38 90.0565 85.708 89.5765 84.908V92.612H87.9445V74.996H89.4085V77.42C89.9045 76.636 90.5685 76.004 91.4005 75.524C92.2325 75.028 93.1205 74.78 94.0645 74.78C94.9285 74.78 95.7205 74.964 96.4405 75.332C97.1605 75.684 97.7845 76.164 98.3125 76.772C98.8405 77.38 99.2485 78.076 99.5365 78.86C99.8405 79.628 99.9925 80.428 99.9925 81.26C99.9925 82.428 99.7525 83.508 99.2725 84.5C98.8085 85.476 98.1525 86.26 97.3045 86.852C96.4565 87.444 95.4645 87.74 94.3285 87.74ZM93.8725 86.3C94.5605 86.3 95.1765 86.164 95.7205 85.892C96.2645 85.604 96.7285 85.22 97.1125 84.74C97.5125 84.26 97.8165 83.724 98.0245 83.132C98.2325 82.524 98.3365 81.9 98.3365 81.26C98.3365 80.588 98.2165 79.948 97.9765 79.34C97.7525 78.732 97.4245 78.196 96.9925 77.732C96.5605 77.268 96.0645 76.9 95.5045 76.628C94.9445 76.356 94.3365 76.22 93.6805 76.22C93.2645 76.22 92.8325 76.3 92.3845 76.46C91.9365 76.62 91.5045 76.852 91.0885 77.156C90.6885 77.444 90.3525 77.772 90.0805 78.14C89.8085 78.508 89.6405 78.9 89.5765 79.316V83.156C89.8325 83.748 90.1765 84.284 90.6085 84.764C91.0405 85.228 91.5365 85.604 92.0965 85.892C92.6725 86.164 93.2645 86.3 93.8725 86.3ZM109.477 76.436C108.389 76.468 107.429 76.772 106.597 77.348C105.781 77.924 105.205 78.716 104.869 79.724V87.5H103.237V74.996H104.773V77.996C105.205 77.116 105.773 76.404 106.477 75.86C107.197 75.316 107.957 75.012 108.757 74.948C108.917 74.932 109.053 74.924 109.165 74.924C109.293 74.924 109.397 74.932 109.477 74.948V76.436ZM117.061 87.74C116.165 87.74 115.333 87.572 114.565 87.236C113.813 86.884 113.157 86.412 112.597 85.82C112.053 85.212 111.629 84.524 111.325 83.756C111.021 82.972 110.869 82.148 110.869 81.284C110.869 80.388 111.021 79.556 111.325 78.788C111.629 78.004 112.061 77.316 112.621 76.724C113.181 76.116 113.837 75.644 114.589 75.308C115.357 74.956 116.189 74.78 117.085 74.78C117.981 74.78 118.805 74.956 119.557 75.308C120.309 75.644 120.965 76.116 121.525 76.724C122.085 77.316 122.517 78.004 122.821 78.788C123.125 79.556 123.277 80.388 123.277 81.284C123.277 82.148 123.125 82.972 122.821 83.756C122.517 84.524 122.085 85.212 121.525 85.82C120.981 86.412 120.325 86.884 119.557 87.236C118.805 87.572 117.973 87.74 117.061 87.74ZM112.525 81.308C112.525 82.236 112.725 83.084 113.125 83.852C113.541 84.604 114.093 85.204 114.781 85.652C115.469 86.084 116.229 86.3 117.061 86.3C117.893 86.3 118.653 86.076 119.341 85.628C120.029 85.18 120.581 84.572 120.997 83.804C121.413 83.02 121.621 82.172 121.621 81.26C121.621 80.332 121.413 79.484 120.997 78.716C120.581 77.948 120.029 77.34 119.341 76.892C118.653 76.444 117.893 76.22 117.061 76.22C116.229 76.22 115.469 76.452 114.781 76.916C114.109 77.38 113.565 77.996 113.149 78.764C112.733 79.516 112.525 80.364 112.525 81.308ZM132.299 86.9C132.171 86.948 131.971 87.036 131.699 87.164C131.427 87.292 131.099 87.404 130.715 87.5C130.331 87.596 129.915 87.644 129.467 87.644C129.003 87.644 128.563 87.556 128.147 87.38C127.747 87.204 127.427 86.94 127.187 86.588C126.947 86.22 126.827 85.772 126.827 85.244V76.292H125.099V74.996H126.827V70.772H128.459V74.996H131.339V76.292H128.459V84.788C128.491 85.236 128.651 85.572 128.939 85.796C129.243 86.02 129.587 86.132 129.971 86.132C130.419 86.132 130.827 86.06 131.195 85.916C131.563 85.756 131.787 85.644 131.867 85.58L132.299 86.9ZM139.935 87.74C139.039 87.74 138.207 87.572 137.439 87.236C136.687 86.884 136.031 86.412 135.471 85.82C134.927 85.212 134.503 84.524 134.199 83.756C133.895 82.972 133.743 82.148 133.743 81.284C133.743 80.388 133.895 79.556 134.199 78.788C134.503 78.004 134.935 77.316 135.495 76.724C136.055 76.116 136.711 75.644 137.463 75.308C138.231 74.956 139.063 74.78 139.959 74.78C140.855 74.78 141.679 74.956 142.431 75.308C143.183 75.644 143.839 76.116 144.399 76.724C144.959 77.316 145.391 78.004 145.695 78.788C145.999 79.556 146.151 80.388 146.151 81.284C146.151 82.148 145.999 82.972 145.695 83.756C145.391 84.524 144.959 85.212 144.399 85.82C143.855 86.412 143.199 86.884 142.431 87.236C141.679 87.572 140.847 87.74 139.935 87.74ZM135.399 81.308C135.399 82.236 135.599 83.084 135.999 83.852C136.415 84.604 136.967 85.204 137.655 85.652C138.343 86.084 139.103 86.3 139.935 86.3C140.767 86.3 141.527 86.076 142.215 85.628C142.903 85.18 143.455 84.572 143.871 83.804C144.287 83.02 144.495 82.172 144.495 81.26C144.495 80.332 144.287 79.484 143.871 78.716C143.455 77.948 142.903 77.34 142.215 76.892C141.527 76.444 140.767 76.22 139.935 76.22C139.103 76.22 138.343 76.452 137.655 76.916C136.983 77.38 136.439 77.996 136.023 78.764C135.607 79.516 135.399 80.364 135.399 81.308ZM155.173 86.9C155.045 86.948 154.845 87.036 154.573 87.164C154.301 87.292 153.973 87.404 153.589 87.5C153.205 87.596 152.789 87.644 152.341 87.644C151.877 87.644 151.437 87.556 151.021 87.38C150.621 87.204 150.301 86.94 150.061 86.588C149.821 86.22 149.701 85.772 149.701 85.244V76.292H147.973V74.996H149.701V70.772H151.333V74.996H154.213V76.292H151.333V84.788C151.365 85.236 151.525 85.572 151.813 85.796C152.117 86.02 152.461 86.132 152.845 86.132C153.293 86.132 153.701 86.06 154.069 85.916C154.437 85.756 154.661 85.644 154.741 85.58L155.173 86.9ZM157.692 87.5V74.996H159.324V87.5H157.692ZM157.692 72.38V69.98H159.324V72.38H157.692ZM169.782 87.74C168.742 87.74 167.806 87.468 166.974 86.924C166.158 86.38 165.51 85.708 165.03 84.908V92.612H163.398V74.996H164.862V77.42C165.358 76.636 166.022 76.004 166.854 75.524C167.686 75.028 168.574 74.78 169.518 74.78C170.382 74.78 171.174 74.964 171.894 75.332C172.614 75.684 173.238 76.164 173.766 76.772C174.294 77.38 174.702 78.076 174.99 78.86C175.294 79.628 175.446 80.428 175.446 81.26C175.446 82.428 175.206 83.508 174.726 84.5C174.262 85.476 173.606 86.26 172.758 86.852C171.91 87.444 170.918 87.74 169.782 87.74ZM169.326 86.3C170.014 86.3 170.63 86.164 171.174 85.892C171.718 85.604 172.182 85.22 172.566 84.74C172.966 84.26 173.27 83.724 173.478 83.132C173.686 82.524 173.79 81.9 173.79 81.26C173.79 80.588 173.67 79.948 173.43 79.34C173.206 78.732 172.878 78.196 172.446 77.732C172.014 77.268 171.518 76.9 170.958 76.628C170.398 76.356 169.79 76.22 169.134 76.22C168.718 76.22 168.286 76.3 167.838 76.46C167.39 76.62 166.958 76.852 166.542 77.156C166.142 77.444 165.806 77.772 165.534 78.14C165.262 78.508 165.094 78.9 165.03 79.316V83.156C165.286 83.748 165.63 84.284 166.062 84.764C166.494 85.228 166.99 85.604 167.55 85.892C168.126 86.164 168.718 86.3 169.326 86.3ZM184.019 87.74C183.123 87.74 182.291 87.572 181.523 87.236C180.771 86.884 180.115 86.412 179.555 85.82C179.011 85.212 178.587 84.524 178.283 83.756C177.979 82.972 177.827 82.148 177.827 81.284C177.827 80.388 177.979 79.556 178.283 78.788C178.587 78.004 179.019 77.316 179.579 76.724C180.139 76.116 180.795 75.644 181.547 75.308C182.315 74.956 183.147 74.78 184.043 74.78C184.939 74.78 185.763 74.956 186.515 75.308C187.267 75.644 187.923 76.116 188.483 76.724C189.043 77.316 189.475 78.004 189.779 78.788C190.083 79.556 190.235 80.388 190.235 81.284C190.235 82.148 190.083 82.972 189.779 83.756C189.475 84.524 189.043 85.212 188.483 85.82C187.939 86.412 187.283 86.884 186.515 87.236C185.763 87.572 184.931 87.74 184.019 87.74ZM179.483 81.308C179.483 82.236 179.683 83.084 180.083 83.852C180.499 84.604 181.051 85.204 181.739 85.652C182.427 86.084 183.187 86.3 184.019 86.3C184.851 86.3 185.611 86.076 186.299 85.628C186.987 85.18 187.539 84.572 187.955 83.804C188.371 83.02 188.579 82.172 188.579 81.26C188.579 80.332 188.371 79.484 187.955 78.716C187.539 77.948 186.987 77.34 186.299 76.892C185.611 76.444 184.851 76.22 184.019 76.22C183.187 76.22 182.427 76.452 181.739 76.916C181.067 77.38 180.523 77.996 180.107 78.764C179.691 79.516 179.483 80.364 179.483 81.308Z" fill="white"/>
<path d="M369.835 52.948C370.731 53.0973 371.509 53.4387 372.171 53.972C372.832 54.484 373.344 55.1453 373.707 55.956C374.091 56.7667 374.283 57.6627 374.283 58.644C374.283 59.9667 373.941 61.1187 373.259 62.1C372.576 63.0813 371.605 63.8387 370.347 64.372C369.109 64.9267 367.648 65.204 365.963 65.204C364.341 65.204 362.901 64.9373 361.643 64.404C360.405 63.892 359.371 63.1347 358.539 62.132L360.971 59.092C361.525 59.7747 362.187 60.308 362.955 60.692C363.744 61.0973 364.704 61.3 365.835 61.3C367.136 61.3 368.128 61.0333 368.811 60.5C369.493 59.988 369.835 59.2093 369.835 58.164C369.835 57.0547 369.44 56.2013 368.651 55.604C367.861 55.0067 366.667 54.708 365.067 54.708H364.171V51.508H365.163C366.464 51.508 367.477 51.2093 368.203 50.612C368.949 50.0147 369.323 49.268 369.323 48.372C369.323 47.796 369.184 47.316 368.907 46.932C368.629 46.548 368.245 46.26 367.755 46.068C367.285 45.876 366.731 45.78 366.091 45.78C365.131 45.78 364.256 46.004 363.467 46.452C362.677 46.9 362.037 47.5293 361.547 48.34L358.859 45.332C359.307 44.6707 359.915 44.1053 360.683 43.636C361.472 43.1453 362.368 42.7613 363.371 42.484C364.395 42.2067 365.461 42.068 366.571 42.068C368.021 42.068 369.291 42.3027 370.379 42.772C371.488 43.2413 372.352 43.9027 372.971 44.756C373.589 45.6093 373.899 46.6013 373.899 47.732C373.899 48.564 373.728 49.3533 373.387 50.1C373.045 50.8467 372.565 51.476 371.947 51.988C371.349 52.4787 370.645 52.7987 369.835 52.948ZM405.35 60.5V45.588L399.526 56.692H397.062L391.238 45.588V60.5H386.822V37.78H391.558L398.278 50.708L405.062 37.78H409.766V60.5H405.35ZM422.228 60.82C420.884 60.82 419.668 60.596 418.58 60.148C417.492 59.6787 416.564 59.0493 415.796 58.26C415.028 57.4493 414.431 56.532 414.004 55.508C413.599 54.4627 413.396 53.364 413.396 52.212C413.396 50.612 413.748 49.1507 414.452 47.828C415.177 46.5053 416.201 45.4493 417.524 44.66C418.868 43.8493 420.447 43.444 422.26 43.444C424.095 43.444 425.663 43.8493 426.964 44.66C428.265 45.4493 429.257 46.5053 429.94 47.828C430.644 49.1293 430.996 50.5373 430.996 52.052C430.996 52.308 430.985 52.5747 430.964 52.852C430.943 53.108 430.921 53.3213 430.9 53.492H417.94C418.025 54.3453 418.271 55.092 418.676 55.732C419.103 56.372 419.636 56.8627 420.276 57.204C420.937 57.524 421.641 57.684 422.388 57.684C423.241 57.684 424.041 57.4813 424.788 57.076C425.556 56.6493 426.079 56.0947 426.356 55.412L430.036 56.436C429.631 57.2893 429.044 58.0467 428.276 58.708C427.529 59.3693 426.644 59.892 425.62 60.276C424.596 60.6387 423.465 60.82 422.228 60.82ZM417.844 50.772H426.612C426.527 49.9187 426.281 49.1827 425.876 48.564C425.492 47.924 424.98 47.4333 424.34 47.092C423.7 46.7293 422.985 46.548 422.196 46.548C421.428 46.548 420.724 46.7293 420.084 47.092C419.465 47.4333 418.953 47.924 418.548 48.564C418.164 49.1827 417.929 49.9187 417.844 50.772ZM440.424 60.82C438.995 60.82 437.63 60.5853 436.328 60.116C435.027 59.6467 433.907 58.9533 432.968 58.036L434.504 55.252C435.507 56.0627 436.488 56.66 437.448 57.044C438.43 57.428 439.368 57.62 440.264 57.62C441.096 57.62 441.758 57.4707 442.248 57.172C442.76 56.8733 443.016 56.4253 443.016 55.828C443.016 55.4227 442.878 55.1133 442.6 54.9C442.323 54.6653 441.918 54.4627 441.384 54.292C440.872 54.1213 440.243 53.9293 439.496 53.716C438.259 53.3107 437.224 52.916 436.392 52.532C435.56 52.148 434.931 51.668 434.504 51.092C434.099 50.4947 433.896 49.7373 433.896 48.82C433.896 47.7107 434.174 46.7613 434.728 45.972C435.304 45.1613 436.094 44.532 437.096 44.084C438.12 43.636 439.315 43.412 440.68 43.412C441.875 43.412 443.006 43.604 444.072 43.988C445.139 44.3507 446.11 44.948 446.984 45.78L445.256 48.5C444.403 47.8387 443.592 47.3587 442.824 47.06C442.056 46.74 441.278 46.58 440.488 46.58C440.04 46.58 439.614 46.6333 439.208 46.74C438.824 46.8467 438.504 47.028 438.248 47.284C438.014 47.5187 437.896 47.86 437.896 48.308C437.896 48.7133 438.003 49.0333 438.216 49.268C438.451 49.4813 438.792 49.6733 439.24 49.844C439.71 50.0147 440.275 50.2067 440.936 50.42C442.28 50.804 443.411 51.1987 444.328 51.604C445.267 52.0093 445.971 52.5107 446.44 53.108C446.91 53.684 447.144 54.484 447.144 55.508C447.144 57.172 446.536 58.4733 445.32 59.412C444.104 60.3507 442.472 60.82 440.424 60.82ZM458.477 60.82C457.133 60.82 455.917 60.596 454.829 60.148C453.741 59.6787 452.813 59.0493 452.045 58.26C451.277 57.4493 450.679 56.532 450.253 55.508C449.847 54.4627 449.645 53.364 449.645 52.212C449.645 50.612 449.997 49.1507 450.701 47.828C451.426 46.5053 452.45 45.4493 453.773 44.66C455.117 43.8493 456.695 43.444 458.509 43.444C460.343 43.444 461.911 43.8493 463.213 44.66C464.514 45.4493 465.506 46.5053 466.189 47.828C466.893 49.1293 467.245 50.5373 467.245 52.052C467.245 52.308 467.234 52.5747 467.213 52.852C467.191 53.108 467.17 53.3213 467.149 53.492H454.189C454.274 54.3453 454.519 55.092 454.925 55.732C455.351 56.372 455.885 56.8627 456.525 57.204C457.186 57.524 457.89 57.684 458.637 57.684C459.49 57.684 460.29 57.4813 461.037 57.076C461.805 56.6493 462.327 56.0947 462.605 55.412L466.285 56.436C465.879 57.2893 465.293 58.0467 464.525 58.708C463.778 59.3693 462.893 59.892 461.869 60.276C460.845 60.6387 459.714 60.82 458.477 60.82ZM454.093 50.772H462.861C462.775 49.9187 462.53 49.1827 462.125 48.564C461.741 47.924 461.229 47.4333 460.589 47.092C459.949 46.7293 459.234 46.548 458.445 46.548C457.677 46.548 456.973 46.7293 456.333 47.092C455.714 47.4333 455.202 47.924 454.797 48.564C454.413 49.1827 454.178 49.9187 454.093 50.772ZM476.673 60.82C475.244 60.82 473.878 60.5853 472.577 60.116C471.276 59.6467 470.156 58.9533 469.217 58.036L470.753 55.252C471.756 56.0627 472.737 56.66 473.697 57.044C474.678 57.428 475.617 57.62 476.513 57.62C477.345 57.62 478.006 57.4707 478.497 57.172C479.009 56.8733 479.265 56.4253 479.265 55.828C479.265 55.4227 479.126 55.1133 478.849 54.9C478.572 54.6653 478.166 54.4627 477.633 54.292C477.121 54.1213 476.492 53.9293 475.745 53.716C474.508 53.3107 473.473 52.916 472.641 52.532C471.809 52.148 471.18 51.668 470.753 51.092C470.348 50.4947 470.145 49.7373 470.145 48.82C470.145 47.7107 470.422 46.7613 470.977 45.972C471.553 45.1613 472.342 44.532 473.345 44.084C474.369 43.636 475.564 43.412 476.929 43.412C478.124 43.412 479.254 43.604 480.321 43.988C481.388 44.3507 482.358 44.948 483.233 45.78L481.505 48.5C480.652 47.8387 479.841 47.3587 479.073 47.06C478.305 46.74 477.526 46.58 476.737 46.58C476.289 46.58 475.862 46.6333 475.457 46.74C475.073 46.8467 474.753 47.028 474.497 47.284C474.262 47.5187 474.145 47.86 474.145 48.308C474.145 48.7133 474.252 49.0333 474.465 49.268C474.7 49.4813 475.041 49.6733 475.489 49.844C475.958 50.0147 476.524 50.2067 477.185 50.42C478.529 50.804 479.66 51.1987 480.577 51.604C481.516 52.0093 482.22 52.5107 482.689 53.108C483.158 53.684 483.393 54.484 483.393 55.508C483.393 57.172 482.785 58.4733 481.569 59.412C480.353 60.3507 478.721 60.82 476.673 60.82Z" fill="white"/>
<path d="M359.917 87.74C358.877 87.74 357.941 87.468 357.109 86.924C356.293 86.38 355.645 85.708 355.165 84.908V92.612H353.533V74.996H354.997V77.42C355.493 76.636 356.157 76.004 356.989 75.524C357.821 75.028 358.709 74.78 359.653 74.78C360.517 74.78 361.309 74.964 362.029 75.332C362.749 75.684 363.373 76.164 363.901 76.772C364.429 77.38 364.837 78.076 365.125 78.86C365.429 79.628 365.581 80.428 365.581 81.26C365.581 82.428 365.341 83.508 364.861 84.5C364.397 85.476 363.741 86.26 362.893 86.852C362.045 87.444 361.053 87.74 359.917 87.74ZM359.461 86.3C360.149 86.3 360.765 86.164 361.309 85.892C361.853 85.604 362.317 85.22 362.701 84.74C363.101 84.26 363.405 83.724 363.613 83.132C363.821 82.524 363.925 81.9 363.925 81.26C363.925 80.588 363.805 79.948 363.565 79.34C363.341 78.732 363.013 78.196 362.581 77.732C362.149 77.268 361.653 76.9 361.093 76.628C360.533 76.356 359.925 76.22 359.269 76.22C358.853 76.22 358.421 76.3 357.973 76.46C357.525 76.62 357.093 76.852 356.677 77.156C356.277 77.444 355.941 77.772 355.669 78.14C355.397 78.508 355.229 78.9 355.165 79.316V83.156C355.421 83.748 355.765 84.284 356.197 84.764C356.629 85.228 357.125 85.604 357.685 85.892C358.261 86.164 358.853 86.3 359.461 86.3ZM367.817 83.9C367.817 83.116 368.041 82.444 368.489 81.884C368.937 81.308 369.553 80.868 370.337 80.564C371.137 80.244 372.057 80.084 373.097 80.084C373.705 80.084 374.337 80.132 374.993 80.228C375.649 80.324 376.233 80.468 376.745 80.66V79.604C376.745 78.548 376.433 77.708 375.809 77.084C375.185 76.46 374.321 76.148 373.217 76.148C372.545 76.148 371.881 76.276 371.225 76.532C370.585 76.772 369.913 77.132 369.209 77.612L368.585 76.46C369.401 75.9 370.201 75.484 370.985 75.212C371.769 74.924 372.569 74.78 373.385 74.78C374.921 74.78 376.137 75.22 377.033 76.1C377.929 76.98 378.377 78.196 378.377 79.748V85.532C378.377 85.756 378.425 85.924 378.521 86.036C378.617 86.132 378.769 86.188 378.977 86.204V87.5C378.801 87.516 378.649 87.532 378.521 87.548C378.393 87.564 378.297 87.564 378.233 87.548C377.833 87.532 377.529 87.404 377.321 87.164C377.113 86.924 377.001 86.668 376.985 86.396L376.961 85.484C376.401 86.204 375.673 86.764 374.777 87.164C373.881 87.548 372.969 87.74 372.041 87.74C371.241 87.74 370.513 87.572 369.857 87.236C369.217 86.884 368.713 86.42 368.345 85.844C367.993 85.252 367.817 84.604 367.817 83.9ZM376.193 84.86C376.369 84.636 376.505 84.42 376.601 84.212C376.697 84.004 376.745 83.82 376.745 83.66V81.836C376.201 81.628 375.633 81.468 375.041 81.356C374.465 81.244 373.881 81.188 373.289 81.188C372.121 81.188 371.177 81.42 370.457 81.884C369.737 82.348 369.377 82.98 369.377 83.78C369.377 84.244 369.497 84.684 369.737 85.1C369.977 85.5 370.329 85.836 370.793 86.108C371.257 86.364 371.801 86.492 372.425 86.492C373.209 86.492 373.937 86.34 374.609 86.036C375.297 85.732 375.825 85.34 376.193 84.86ZM388.623 76.436C387.535 76.468 386.575 76.772 385.743 77.348C384.927 77.924 384.351 78.716 384.015 79.724V87.5H382.383V74.996H383.919V77.996C384.351 77.116 384.919 76.404 385.623 75.86C386.343 75.316 387.103 75.012 387.903 74.948C388.063 74.932 388.199 74.924 388.311 74.924C388.439 74.924 388.543 74.932 388.623 74.948V76.436ZM390.223 83.9C390.223 83.116 390.447 82.444 390.895 81.884C391.343 81.308 391.959 80.868 392.743 80.564C393.543 80.244 394.463 80.084 395.503 80.084C396.111 80.084 396.743 80.132 397.399 80.228C398.055 80.324 398.639 80.468 399.151 80.66V79.604C399.151 78.548 398.839 77.708 398.215 77.084C397.591 76.46 396.727 76.148 395.623 76.148C394.951 76.148 394.287 76.276 393.631 76.532C392.991 76.772 392.319 77.132 391.615 77.612L390.991 76.46C391.807 75.9 392.607 75.484 393.391 75.212C394.175 74.924 394.975 74.78 395.791 74.78C397.327 74.78 398.543 75.22 399.439 76.1C400.335 76.98 400.783 78.196 400.783 79.748V85.532C400.783 85.756 400.831 85.924 400.927 86.036C401.023 86.132 401.175 86.188 401.383 86.204V87.5C401.207 87.516 401.055 87.532 400.927 87.548C400.799 87.564 400.703 87.564 400.639 87.548C400.239 87.532 399.935 87.404 399.727 87.164C399.519 86.924 399.407 86.668 399.391 86.396L399.367 85.484C398.807 86.204 398.079 86.764 397.183 87.164C396.287 87.548 395.375 87.74 394.447 87.74C393.647 87.74 392.919 87.572 392.263 87.236C391.623 86.884 391.119 86.42 390.751 85.844C390.399 85.252 390.223 84.604 390.223 83.9ZM398.599 84.86C398.775 84.636 398.911 84.42 399.007 84.212C399.103 84.004 399.151 83.82 399.151 83.66V81.836C398.607 81.628 398.039 81.468 397.447 81.356C396.871 81.244 396.287 81.188 395.695 81.188C394.527 81.188 393.583 81.42 392.863 81.884C392.143 82.348 391.783 82.98 391.783 83.78C391.783 84.244 391.903 84.684 392.143 85.1C392.383 85.5 392.735 85.836 393.199 86.108C393.663 86.364 394.207 86.492 394.831 86.492C395.615 86.492 396.343 86.34 397.015 86.036C397.703 85.732 398.231 85.34 398.599 84.86ZM416.786 87.74C415.89 87.74 415.058 87.572 414.29 87.236C413.522 86.884 412.858 86.412 412.298 85.82C411.738 85.212 411.298 84.516 410.978 83.732C410.674 82.948 410.522 82.108 410.522 81.212C410.522 80.044 410.786 78.972 411.314 77.996C411.858 77.02 412.602 76.244 413.546 75.668C414.49 75.076 415.562 74.78 416.762 74.78C417.994 74.78 419.066 75.076 419.978 75.668C420.906 76.26 421.634 77.044 422.162 78.02C422.69 78.98 422.954 80.036 422.954 81.188C422.954 81.316 422.954 81.444 422.954 81.572C422.954 81.684 422.946 81.772 422.93 81.836H412.226C412.306 82.732 412.554 83.532 412.97 84.236C413.402 84.924 413.954 85.476 414.626 85.892C415.314 86.292 416.058 86.492 416.858 86.492C417.674 86.492 418.442 86.284 419.162 85.868C419.898 85.452 420.41 84.908 420.698 84.236L422.114 84.62C421.858 85.212 421.466 85.748 420.938 86.228C420.41 86.708 419.786 87.084 419.066 87.356C418.362 87.612 417.602 87.74 416.786 87.74ZM412.178 80.66H421.418C421.354 79.748 421.106 78.948 420.674 78.26C420.258 77.572 419.706 77.036 419.018 76.652C418.346 76.252 417.602 76.052 416.786 76.052C415.97 76.052 415.226 76.252 414.554 76.652C413.882 77.036 413.33 77.58 412.898 78.284C412.482 78.972 412.242 79.764 412.178 80.66ZM426.024 69.98H427.656V84.668C427.656 85.292 427.768 85.7 427.992 85.892C428.216 86.084 428.488 86.18 428.808 86.18C429.096 86.18 429.384 86.148 429.672 86.084C429.96 86.02 430.208 85.956 430.416 85.892L430.704 87.212C430.4 87.34 430.024 87.444 429.576 87.524C429.144 87.604 428.768 87.644 428.448 87.644C427.712 87.644 427.12 87.428 426.672 86.996C426.24 86.564 426.024 85.972 426.024 85.22V69.98ZM454.274 87.5V73.628L448.106 84.404H447.05L440.858 73.628V87.5H439.178V70.46H440.906L447.554 82.124L454.25 70.46H455.954V87.5H454.274ZM460.632 70.46L466.728 85.412L472.8 70.46H474.552L467.496 87.5H465.96L458.88 70.46H460.632ZM477.474 87.5V70.46H484.53C485.266 70.46 485.938 70.612 486.546 70.916C487.17 71.22 487.706 71.636 488.154 72.164C488.602 72.676 488.954 73.252 489.21 73.892C489.466 74.516 489.594 75.156 489.594 75.812C489.594 76.74 489.386 77.62 488.97 78.452C488.57 79.268 488.002 79.932 487.266 80.444C486.53 80.956 485.666 81.212 484.674 81.212H479.154V87.5H477.474ZM479.154 79.724H484.602C485.274 79.724 485.858 79.54 486.354 79.172C486.85 78.804 487.234 78.324 487.506 77.732C487.778 77.14 487.914 76.5 487.914 75.812C487.914 75.108 487.754 74.46 487.434 73.868C487.114 73.276 486.69 72.812 486.162 72.476C485.65 72.124 485.082 71.948 484.458 71.948H479.154V79.724Z" fill="white"/>
</svg>
