<svg width="927" height="337" viewBox="0 0 927 337" fill="none" xmlns="http://www.w3.org/2000/svg">
<path d="M172.7 95.2C173.3 95.2 173.9 95.1 174.4 95C175 94.9 175.5 94.8001 176 94.6001V98C175.5 98.2 174.9 98.4001 174.1 98.6001C173.3 98.8001 172.5 98.8 171.6 98.8C170.4 98.8 169.3 98.6 168.4 98.2C167.4 97.8 166.7 97.1001 166.1 96.1001C165.5 95.1001 165.3 93.8 165.3 92V80.6001H162.4V78.6001L165.5 77L167 72.5H169.8V77.2H175.9V80.7H169.8V92C169.8 93.1 170.1 93.8999 170.6 94.3999C171.1 94.8999 171.8 95.2 172.7 95.2Z" fill="white"/>
<path d="M199.1 87.8C199.1 89.6 198.9 91.1 198.4 92.5C197.9 93.9 197.3 95 196.4 96C195.5 96.9 194.5 97.7001 193.2 98.1001C192 98.6001 190.6 98.8 189 98.8C187.5 98.8 186.2 98.6001 185 98.1001C183.8 97.6001 182.7 96.9 181.8 96C180.9 95.1 180.2 93.9 179.7 92.5C179.2 91.1 179 89.6 179 87.8C179 85.5 179.4 83.5 180.2 81.8C181 80.1 182.2 78.9001 183.7 78.1001C185.2 77.2001 187 76.8 189.1 76.8C191.1 76.8 192.8 77.2001 194.3 78.1001C195.8 79.0001 197 80.2 197.8 81.8C198.6 83.4 199.1 85.5 199.1 87.8ZM183.7 87.8C183.7 89.3 183.9 90.7 184.3 91.8C184.7 92.9 185.3 93.7 186.1 94.3C186.9 94.9 187.9 95.2 189.2 95.2C190.4 95.2 191.5 94.9 192.3 94.3C193.1 93.7 193.7 92.9 194.1 91.8C194.5 90.7 194.7 89.4 194.7 87.8C194.7 86.3 194.5 84.9999 194.1 83.8999C193.7 82.7999 193.1 81.9999 192.3 81.3999C191.5 80.7999 190.5 80.5 189.2 80.5C187.3 80.5 186 81.0999 185.1 82.3999C184.1 83.6999 183.7 85.5 183.7 87.8Z" fill="white"/>
<path d="M228.3 76.8C230.7 76.8 232.5 77.4001 233.7 78.6001C234.9 79.8001 235.5 81.8 235.5 84.5V98.3999H231V85.3C231 83.7 230.7 82.5001 230.1 81.6001C229.5 80.8001 228.5 80.3999 227.2 80.3999C225.4 80.3999 224.1 81.0001 223.3 82.1001C222.5 83.2001 222.1 84.9001 222.1 87.1001V98.3999H217.6V85.3C217.6 84.2 217.5 83.3001 217.2 82.6001C216.9 81.9001 216.5 81.3 215.9 81C215.3 80.6 214.6 80.5 213.8 80.5C212.6 80.5 211.6 80.8 210.8 81.3C210.1 81.9 209.5 82.7 209.2 83.8C208.9 84.9 208.7 86.2 208.7 87.8V98.3999H204.2V77.2H207.7L208.3 80.1001H208.5C208.9 79.4001 209.5 78.7 210.1 78.3C210.7 77.8 211.5 77.5 212.3 77.2C213.1 76.9 213.9 76.8 214.8 76.8C216.4 76.8 217.7 77.1001 218.8 77.6001C219.9 78.1001 220.7 79.0001 221.2 80.1001H221.5C222.2 78.9001 223.1 78.1 224.3 77.5C225.5 76.9 227 76.8 228.3 76.8Z" fill="white"/>
<path d="M250.1 76.8C252.8 76.8 254.8 77.4001 256.2 78.6001C257.6 79.8001 258.3 81.6 258.3 84.2V98.5H255L254.1 95.5H254C253.4 96.3 252.8 96.8999 252.1 97.3999C251.5 97.8999 250.7 98.3 249.9 98.5C249.1 98.7 248.1 98.8999 246.9 98.8999C245.6 98.8999 244.5 98.7 243.5 98.2C242.5 97.7 241.7 97.0001 241.1 96.1001C240.5 95.1001 240.2 93.9 240.2 92.5C240.2 90.3 241 88.7001 242.6 87.6001C244.2 86.5001 246.7 85.9 250 85.8L253.7 85.7V84.6001C253.7 83.1001 253.4 82.1 252.7 81.5C252 80.9 251.1 80.6001 249.8 80.6001C248.7 80.6001 247.7 80.8001 246.7 81.1001C245.7 81.4001 244.7 81.8 243.8 82.2L242.3 79C243.3 78.5 244.5 78 245.9 77.7C247.3 77 248.7 76.8 250.1 76.8ZM253.8 88.3L251.1 88.3999C248.8 88.4999 247.3 88.9 246.4 89.5C245.5 90.2 245 91.1 245 92.3C245 93.3 245.3 94.1001 245.9 94.6001C246.5 95.1001 247.4 95.3 248.4 95.3C250 95.3 251.3 94.9 252.3 94C253.3 93.1 253.8 91.8001 253.8 90.1001V88.3Z" fill="white"/>
<path d="M275.3 76.8C275.7 76.8 276 76.7999 276.5 76.8999C276.9 76.8999 277.3 77.0001 277.6 77.1001L277.2 81.3C276.9 81.2 276.6 81.2001 276.2 81.1001C275.8 81.0001 275.5 81 275.2 81C274.4 81 273.6 81.0999 272.9 81.3999C272.2 81.6999 271.5 82.1001 271 82.6001C270.4 83.1001 270 83.8001 269.7 84.6001C269.4 85.4001 269.2 86.2999 269.2 87.3999V98.5H264.7V77.3H268.2L268.8 81H269C269.4 80.2 269.9 79.5999 270.6 78.8999C271.2 78.2999 271.9 77.7999 272.8 77.3999C273.7 76.9999 274.3 76.8 275.3 76.8Z" fill="white"/>
<path d="M289.8 76.8C292.5 76.8 294.5 77.4001 295.9 78.6001C297.3 79.8001 298 81.6 298 84.2V98.5H294.8L293.9 95.5H293.7C293.1 96.3 292.5 96.8999 291.8 97.3999C291.2 97.8999 290.4 98.3 289.6 98.5C288.8 98.7 287.8 98.8999 286.6 98.8999C285.3 98.8999 284.2 98.7 283.2 98.2C282.2 97.7 281.4 97.0001 280.8 96.1001C280.2 95.1001 279.9 93.9 279.9 92.5C279.9 90.3 280.7 88.7001 282.3 87.6001C283.9 86.5001 286.4 85.9 289.7 85.8L293.4 85.7V84.6001C293.4 83.1001 293.1 82.1 292.4 81.5C291.7 80.9 290.8 80.6001 289.5 80.6001C288.4 80.6001 287.4 80.8001 286.4 81.1001C285.4 81.4001 284.4 81.8 283.5 82.2L282 79C283 78.5 284.2 78 285.6 77.7C287 77 288.4 76.8 289.8 76.8ZM293.5 88.3L290.8 88.3999C288.5 88.4999 287 88.9 286.1 89.5C285.2 90.2 284.7 91.1 284.7 92.3C284.7 93.3 285 94.1001 285.6 94.6001C286.2 95.1001 287.1 95.3 288.1 95.3C289.7 95.3 291 94.9 292 94C293 93.1 293.5 91.8001 293.5 90.1001V88.3ZM296.2 68.3999V68.8C295.9 69.2 295.5 69.6001 295 70.1001C294.5 70.6001 293.9 71.2 293.3 71.7C292.7 72.3 292.1 72.8 291.5 73.3C290.9 73.8 290.4 74.2001 289.9 74.6001H286.9V74.1001C287.3 73.6001 287.8 72.9999 288.3 72.3999C288.8 71.6999 289.3 71 289.8 70.3C290.3 69.6 290.7 68.9 291.1 68.3H296.2V68.3999Z" fill="white"/>
<path d="M318.6 92.3999C318.6 93.7999 318.3 94.9999 317.6 95.8999C316.9 96.7999 315.9 97.6001 314.6 98.1001C313.3 98.6001 311.7 98.8 309.8 98.8C308.3 98.8 307 98.7 306 98.5C305 98.3 303.9 98 303 97.5V93.6001C304 94.1001 305.2 94.5 306.4 94.8C307.7 95.1 308.9 95.3 310 95.3C311.5 95.3 312.5 95.1001 313.2 94.6001C313.9 94.1001 314.2 93.5 314.2 92.7C314.2 92.2 314.1 91.8 313.8 91.5C313.5 91.1 313.1 90.7999 312.3 90.3999C311.6 89.9999 310.5 89.5 309.2 89C307.9 88.5 306.7 87.8999 305.8 87.3999C304.9 86.8999 304.2 86.2 303.7 85.5C303.2 84.7 303 83.8001 303 82.6001C303 80.7001 303.7 79.3 305.2 78.3C306.7 77.3 308.7 76.8 311.1 76.8C312.4 76.8 313.6 76.9 314.8 77.2C316 77.5 317.1 77.8 318.2 78.3L316.8 81.7C315.8 81.3 314.9 80.9 313.9 80.7C312.9 80.5 312 80.3 311 80.3C309.8 80.3 309 80.5 308.3 80.8C307.7 81.2 307.4 81.7 307.4 82.3C307.4 82.8 307.5 83.2001 307.8 83.6001C308.1 83.9001 308.6 84.3001 309.3 84.6001C310 84.9001 311 85.3999 312.3 85.8999C313.6 86.3999 314.7 86.8999 315.6 87.3999C316.5 87.8999 317.2 88.6 317.7 89.3C318.3 90.2 318.6 91.1999 318.6 92.3999Z" fill="white"/>
<path d="M342 76.8C344.7 76.8 346.7 77.4001 348.1 78.6001C349.5 79.8001 350.2 81.6 350.2 84.2V98.5H347L346.1 95.5H345.9C345.3 96.3 344.7 96.8999 344 97.3999C343.4 97.8999 342.6 98.3 341.8 98.5C341 98.7 340 98.8999 338.8 98.8999C337.5 98.8999 336.4 98.7 335.4 98.2C334.4 97.7 333.6 97.0001 333 96.1001C332.4 95.1001 332.1 93.9 332.1 92.5C332.1 90.3 332.9 88.7001 334.5 87.6001C336.1 86.5001 338.6 85.9 341.9 85.8L345.6 85.7V84.6001C345.6 83.1001 345.3 82.1 344.6 81.5C343.9 80.9 343 80.6001 341.7 80.6001C340.6 80.6001 339.6 80.8001 338.6 81.1001C337.6 81.4001 336.6 81.8 335.7 82.2L334.2 79C335.2 78.5 336.4 78 337.8 77.7C339.1 77 340.5 76.8 342 76.8ZM345.6 88.3L342.9 88.3999C340.6 88.4999 339.1 88.9 338.2 89.5C337.3 90.2 336.8 91.1 336.8 92.3C336.8 93.3 337.1 94.1001 337.7 94.6001C338.3 95.1001 339.2 95.3 340.2 95.3C341.8 95.3 343.1 94.9 344.1 94C345.1 93.1 345.6 91.8001 345.6 90.1001V88.3Z" fill="white"/>
<path d="M365 98.8999C363 98.8999 361.3 98.5 359.8 97.7C358.3 96.9 357.2 95.7001 356.4 94.1001C355.6 92.5001 355.2 90.4 355.2 88C355.2 85.4 355.6 83.3 356.5 81.7C357.4 80.1 358.6 78.9001 360.1 78.1001C361.6 77.3001 363.4 76.8999 365.4 76.8999C366.7 76.8999 367.8 77 368.8 77.3C369.8 77.5 370.7 77.9 371.4 78.2L370.1 81.8C369.3 81.5 368.5 81.2 367.7 81C366.9 80.8 366.1 80.7 365.3 80.7C364.1 80.7 363 81 362.2 81.5C361.4 82 360.8 82.9 360.4 84C360 85.1 359.8 86.4 359.8 88C359.8 89.6 360 90.8999 360.4 91.8999C360.8 92.9999 361.4 93.8 362.2 94.3C363 94.8 364 95.1001 365.2 95.1001C366.4 95.1001 367.4 95 368.3 94.7C369.2 94.4 370.1 94.1001 370.9 93.6001V97.5C370.1 98 369.2 98.3 368.3 98.5C367.5 98.7 366.3 98.8999 365 98.8999Z" fill="white"/>
<path d="M384.5 98.8999C382.5 98.8999 380.8 98.5 379.3 97.7C377.8 96.9 376.7 95.7001 375.9 94.1001C375.1 92.5001 374.7 90.4 374.7 88C374.7 85.4 375.1 83.3 376 81.7C376.9 80.1 378.1 78.9001 379.6 78.1001C381.1 77.3001 382.9 76.8999 384.9 76.8999C386.2 76.8999 387.3 77 388.3 77.3C389.3 77.5 390.2 77.9 390.9 78.2L389.6 81.8C388.8 81.5 388 81.2 387.2 81C386.4 80.8 385.6 80.7 384.8 80.7C383.6 80.7 382.5 81 381.7 81.5C380.9 82 380.3 82.9 379.9 84C379.5 85.1 379.3 86.4 379.3 88C379.3 89.6 379.5 90.8999 379.9 91.8999C380.3 92.9999 380.9 93.8 381.7 94.3C382.5 94.8 383.5 95.1001 384.7 95.1001C385.9 95.1001 386.9 95 387.8 94.7C388.7 94.4 389.6 94.1001 390.4 93.6001V97.5C389.6 98 388.7 98.3 387.8 98.5C387 98.7 385.8 98.8999 384.5 98.8999Z" fill="white"/>
<path d="M397.7 69.1001C398.4 69.1001 399 69.3 399.5 69.7C400 70.1 400.3 70.7001 400.3 71.6001C400.3 72.5001 400 73.1 399.5 73.5C399 73.9 398.4 74.1001 397.7 74.1001C397 74.1001 396.4 73.9 395.9 73.5C395.4 73.1 395.2 72.5001 395.2 71.6001C395.2 70.7001 395.4 70.1 395.9 69.7C396.4 69.3 397 69.1001 397.7 69.1001ZM399.9 77.2V98.3999H395.4V77.2H399.9Z" fill="white"/>
<path d="M425.2 87.8C425.2 89.6 425 91.1 424.5 92.5C424 93.9 423.4 95 422.5 96C421.6 96.9 420.6 97.7001 419.3 98.1001C418.1 98.6001 416.7 98.8 415.1 98.8C413.6 98.8 412.3 98.6001 411.1 98.1001C409.9 97.6001 408.8 96.9 407.9 96C407 95.1 406.3 93.9 405.8 92.5C405.3 91.1 405.1 89.6 405.1 87.8C405.1 85.5 405.5 83.5 406.3 81.8C407.1 80.1 408.3 78.9001 409.8 78.1001C411.3 77.2001 413.1 76.8 415.2 76.8C417.2 76.8 418.9 77.2001 420.4 78.1001C421.9 79.0001 423.1 80.2 423.9 81.8C424.7 83.4 425.2 85.5 425.2 87.8ZM409.8 87.8C409.8 89.3 410 90.7 410.4 91.8C410.8 92.9 411.4 93.7 412.2 94.3C413 94.9 414 95.2 415.3 95.2C416.5 95.2 417.6 94.9 418.4 94.3C419.2 93.7 419.8 92.9 420.2 91.8C420.6 90.7 420.8 89.4 420.8 87.8C420.8 86.3 420.6 84.9999 420.2 83.8999C419.8 82.7999 419.2 81.9999 418.4 81.3999C417.6 80.7999 416.6 80.5 415.3 80.5C413.4 80.5 412.1 81.0999 411.2 82.3999C410.2 83.6999 409.8 85.5 409.8 87.8ZM421.7 68.3999V68.8C421.4 69.2 421 69.6001 420.5 70.1001C420 70.6001 419.4 71.2 418.8 71.7C418.2 72.3 417.6 72.8 417 73.3C416.4 73.8 415.9 74.2001 415.4 74.6001H412.4V74.1001C412.8 73.6001 413.3 72.9999 413.8 72.3999C414.3 71.6999 414.8 71 415.3 70.3C415.8 69.6 416.2 68.9 416.6 68.3H421.7V68.3999Z" fill="white"/>
<path d="M441.4 76.8C443.8 76.8 445.7 77.4 447 78.7C448.3 80 449 81.9001 449 84.6001V98.3999H444.5V85.3999C444.5 83.7999 444.2 82.5 443.5 81.7C442.8 80.9 441.8 80.5 440.4 80.5C438.3 80.5 436.9 81.0999 436.1 82.3999C435.3 83.6999 434.9 85.4999 434.9 87.8999V98.5H430.4V77.3H433.9L434.5 80.2H434.7C435.2 79.5 435.7 78.7999 436.4 78.3999C437.1 77.8999 437.9 77.6 438.7 77.3C439.5 77 440.5 76.8 441.4 76.8Z" fill="white"/>
<path d="M474.1 98.8999C472.1 98.8999 470.4 98.5 468.9 97.7C467.4 96.9 466.3 95.7001 465.5 94.1001C464.7 92.5001 464.3 90.4 464.3 88C464.3 85.4 464.7 83.3 465.6 81.7C466.5 80.1 467.7 78.9001 469.2 78.1001C470.7 77.3001 472.5 76.8999 474.5 76.8999C475.8 76.8999 476.9 77 477.9 77.3C478.9 77.5 479.8 77.9 480.5 78.2L479.2 81.8C478.4 81.5 477.6 81.2 476.8 81C476 80.8 475.2 80.7 474.4 80.7C473.2 80.7 472.1 81 471.3 81.5C470.5 82 469.9 82.9 469.5 84C469.1 85.1 468.9 86.4 468.9 88C468.9 89.6 469.1 90.8999 469.5 91.8999C469.9 92.9999 470.5 93.8 471.3 94.3C472.1 94.8 473.1 95.1001 474.3 95.1001C475.5 95.1001 476.5 95 477.4 94.7C478.3 94.4 479.2 94.1001 480 93.6001V97.5C479.2 98 478.3 98.3 477.4 98.5C476.6 98.7 475.4 98.8999 474.1 98.8999Z" fill="white"/>
<path d="M503.8 87.8C503.8 89.6 503.6 91.1 503.1 92.5C502.6 93.9 502 95 501.1 96C500.2 96.9 499.2 97.7001 497.9 98.1001C496.7 98.6001 495.3 98.8 493.7 98.8C492.2 98.8 490.9 98.6001 489.7 98.1001C488.5 97.6001 487.4 96.9 486.5 96C485.6 95.1 484.9 93.9 484.4 92.5C483.9 91.1 483.7 89.6 483.7 87.8C483.7 85.5 484.1 83.5 484.9 81.8C485.7 80.2 486.9 78.9001 488.4 78.1001C489.9 77.2001 491.7 76.8 493.8 76.8C495.8 76.8 497.5 77.2001 499 78.1001C500.5 79.0001 501.7 80.2 502.5 81.8C503.3 83.4 503.8 85.5 503.8 87.8ZM488.4 87.8C488.4 89.3 488.6 90.7 489 91.8C489.4 92.9 490 93.7 490.8 94.3C491.6 94.9 492.6 95.2 493.9 95.2C495.1 95.2 496.2 94.9 496.9 94.3C497.6 93.7 498.3 92.9 498.7 91.8C499.1 90.7 499.3 89.4 499.3 87.8C499.3 86.3 499.1 84.9999 498.7 83.8999C498.3 82.7999 497.7 81.9999 496.9 81.3999C496.1 80.7999 495.1 80.5 493.8 80.5C491.9 80.5 490.6 81.0999 489.7 82.3999C488.9 83.6999 488.4 85.5 488.4 87.8Z" fill="white"/>
<path d="M520.1 76.8C522.5 76.8 524.4 77.4 525.7 78.7C527 79.9 527.7 81.9001 527.7 84.6001V98.3999H523.2V85.3999C523.2 83.7999 522.9 82.5 522.2 81.7C521.5 80.9 520.5 80.5 519.1 80.5C517 80.5 515.6 81.0999 514.8 82.3999C514 83.6999 513.6 85.4999 513.6 87.8999V98.5H509V77.3H512.5L513.1 80.2H513.3C513.8 79.5 514.3 78.7999 515 78.3999C515.7 77.8999 516.5 77.6 517.3 77.3C518.3 77 519.2 76.8 520.1 76.8Z" fill="white"/>
<path d="M544.6 98.5V70.5H549.2V94.6001H561.1V98.5H544.6Z" fill="white"/>
<path d="M574 76.8C575.9 76.8 577.5 77.2 578.9 78C580.3 78.8 581.3 79.9 582 81.3C582.7 82.7 583.1 84.3999 583.1 86.3999V88.8H568.9C569 90.9 569.5 92.4001 570.6 93.6001C571.7 94.7001 573.1 95.3 575 95.3C576.4 95.3 577.6 95.1999 578.7 94.8999C579.8 94.5999 580.9 94.3 582 93.7V97.3999C580.9 97.8999 579.9 98.3 578.8 98.5C577.7 98.7 576.4 98.8 574.8 98.8C572.7 98.8 570.9 98.4001 569.3 97.6001C567.7 96.8001 566.5 95.6 565.6 94C564.7 92.4 564.3 90.4 564.3 88C564.3 85.6 564.7 83.5999 565.5 81.8999C566.3 80.1999 567.4 79.0001 568.9 78.1001C570.4 77.3001 572.1 76.8 574 76.8ZM574 80.2C572.6 80.2 571.4 80.7001 570.6 81.6001C569.7 82.5001 569.2 83.9001 569.1 85.6001H578.7C578.7 84.5001 578.5 83.6 578.2 82.8C577.9 82 577.4 81.2999 576.7 80.8999C576 80.4999 575.1 80.2 574 80.2Z" fill="white"/>
<path d="M596.1 95.2C596.7 95.2 597.3 95.1 597.8 95C598.4 94.9 598.9 94.8001 599.4 94.6001V98C598.9 98.2 598.3 98.4001 597.5 98.6001C596.7 98.8001 595.9 98.8 595 98.8C593.8 98.8 592.7 98.6 591.8 98.2C590.8 97.8 590.1 97.1001 589.5 96.1001C588.9 95.1001 588.7 93.8 588.7 92V80.6001H585.8V78.6001L588.9 77L590.4 72.5H593.2V77.2H599.3V80.7H593.2V92C593.2 93.1 593.5 93.8999 594 94.3999C594.5 94.8999 595.2 95.2 596.1 95.2Z" fill="white"/>
<path d="M607.3 70.3999L607.6 70.8C607.4 71.7 607.1 72.7 606.7 73.8C606.3 74.9 605.9 75.9 605.5 77C605.1 78.1 604.6 79.1 604.2 80H601C601.2 79.2 601.4 78.4001 601.6 77.6001C601.8 76.8001 602 75.9001 602.1 75.1001C602.3 74.3001 602.4 73.4001 602.6 72.6001C602.7 71.8001 602.9 71.0999 603 70.3999H607.3Z" fill="white"/>
<path d="M625.6 92.3999C625.6 93.7999 625.3 94.9999 624.6 95.8999C623.9 96.8999 622.9 97.6001 621.6 98.1001C620.3 98.6001 618.7 98.8 616.8 98.8C615.3 98.8 614 98.7 613 98.5C611.9 98.3 610.9 98 610 97.5V93.6001C611 94.1001 612.2 94.5 613.4 94.8C614.7 95.1 615.9 95.3 617 95.3C618.5 95.3 619.5 95.1001 620.2 94.6001C620.9 94.1001 621.2 93.5 621.2 92.7C621.2 92.2 621.1 91.8 620.8 91.5C620.5 91.1 620.1 90.7999 619.3 90.3999C618.6 89.9999 617.5 89.5 616.2 89C614.9 88.5 613.7 87.8999 612.8 87.3999C611.9 86.8999 611.2 86.2 610.7 85.5C610.2 84.7 610 83.8001 610 82.6001C610 80.7001 610.7 79.3 612.2 78.3C613.7 77.3 615.7 76.8 618.1 76.8C619.4 76.8 620.6 76.9 621.8 77.2C623 77.5 624.1 77.8 625.2 78.3L623.8 81.7C622.8 81.3 621.9 80.9 620.9 80.7C619.9 80.5 619 80.3 618 80.3C616.8 80.3 616 80.5 615.3 80.8C614.7 81.2 614.4 81.7 614.4 82.3C614.4 82.8 614.5 83.2001 614.8 83.6001C615.1 83.9001 615.6 84.3001 616.3 84.6001C617 84.9001 618 85.3999 619.3 85.8999C620.6 86.3999 621.7 86.8999 622.6 87.3999C623.5 87.8999 624.2 88.6 624.7 89.3C625.3 90.2 625.6 91.1999 625.6 92.3999Z" fill="white"/>
<path d="M647.8 98.8999C645.3 98.8999 643.3 98.0001 641.7 96.1001C640.2 94.3001 639.4 91.4999 639.4 87.8999C639.4 84.2999 640.2 81.5001 641.7 79.6001C643.2 77.7001 645.3 76.8 647.8 76.8C648.9 76.8 649.8 76.9 650.6 77.2C651.4 77.5 652.1 77.8999 652.7 78.3999C653.3 78.8999 653.8 79.4 654.2 80H654.4C654.3 79.6 654.3 79 654.2 78.3C654.1 77.6 654.1 76.9 654.1 76.2V68.6001H658.6V98.3999H655.1L654.3 95.5H654.1C653.7 96.1 653.2 96.7001 652.7 97.1001C652.2 97.5001 651.4 98 650.6 98.3C649.8 98.6 648.8 98.8999 647.8 98.8999ZM649 95.2C650.9 95.2 652.3 94.6 653.1 93.5C653.9 92.4 654.3 90.7 654.3 88.5V87.8999C654.3 85.4999 653.9 83.6999 653.2 82.3999C652.4 81.0999 651 80.5 649 80.5C647.4 80.5 646.1 81.2 645.3 82.5C644.4 83.8 644 85.6 644 88C644 90.3 644.4 92.0999 645.3 93.3999C646.1 94.5999 647.4 95.2 649 95.2Z" fill="white"/>
<path d="M683.9 87.8C683.9 89.6 683.7 91.1 683.2 92.5C682.7 93.9 682.1 95 681.2 96C680.3 96.9 679.3 97.7001 678 98.1001C676.8 98.6001 675.4 98.8 673.8 98.8C672.3 98.8 671 98.6001 669.8 98.1001C668.6 97.6001 667.5 96.9 666.6 96C665.7 95.1 665 93.9 664.5 92.5C664 91.1 663.8 89.6 663.8 87.8C663.8 85.5 664.2 83.5 665 81.8C665.8 80.2 667 78.9001 668.5 78.1001C670 77.2001 671.8 76.8 673.9 76.8C675.9 76.8 677.6 77.2001 679.1 78.1001C680.6 79.0001 681.8 80.2 682.6 81.8C683.4 83.4 683.9 85.5 683.9 87.8ZM668.5 87.8C668.5 89.3 668.7 90.7 669.1 91.8C669.5 92.9 670.1 93.7 670.9 94.3C671.7 94.9 672.7 95.2 674 95.2C675.2 95.2 676.3 94.9 677 94.3C677.7 93.7 678.4 92.9 678.8 91.8C679.2 90.7 679.4 89.4 679.4 87.8C679.4 86.3 679.2 84.9999 678.8 83.8999C678.4 82.7999 677.8 81.9999 677 81.3999C676.2 80.7999 675.2 80.5 673.9 80.5C672 80.5 670.7 81.0999 669.8 82.3999C668.9 83.6999 668.5 85.5 668.5 87.8Z" fill="white"/>
<path d="M701.6 69.1001C702.3 69.1001 702.9 69.3 703.4 69.7C703.9 70.1 704.2 70.7001 704.2 71.6001C704.2 72.5001 703.9 73.1 703.4 73.5C702.9 73.9 702.3 74.1001 701.6 74.1001C700.9 74.1001 700.3 73.9 699.8 73.5C699.3 73.1 699.1 72.5001 699.1 71.6001C699.1 70.7001 699.3 70.1 699.8 69.7C700.2 69.3 700.8 69.1001 701.6 69.1001ZM703.8 77.2V98.3999H699.3V77.2H703.8Z" fill="white"/>
<path d="M718.1 95.2C718.7 95.2 719.3 95.1 719.8 95C720.4 94.9 720.9 94.8001 721.4 94.6001V98C720.9 98.2 720.3 98.4001 719.5 98.6001C718.7 98.8001 717.9 98.8 717 98.8C715.8 98.8 714.7 98.6 713.8 98.2C712.8 97.8 712.1 97.1001 711.5 96.1001C710.9 95.1001 710.7 93.8 710.7 92V80.6001H707.8V78.6001L710.9 77L712.4 72.5H715.2V77.2H721.3V80.7H715.2V92C715.2 93.1 715.5 93.8999 716 94.3999C716.5 94.8999 717.3 95.2 718.1 95.2Z" fill="white"/>
<path d="M759.8 98.5H754.1L740.4 76.1001H740.2C740.3 76.9001 740.3 77.7 740.3 78.5C740.3 79.3 740.4 80.2001 740.4 81.1001C740.4 82.0001 740.5 82.9 740.5 83.8V98.5H736.3V70.5H741.9L755.6 92.7H755.7C755.7 92 755.6 91.3 755.6 90.5C755.6 89.7 755.5 88.7999 755.5 87.8999C755.5 86.9999 755.4 86.1 755.4 85.3V70.5H759.6V98.5H759.8Z" fill="white"/>
<path d="M785.5 87.8C785.5 89.6 785.3 91.1 784.8 92.5C784.3 93.9 783.7 95 782.8 96C781.9 96.9 780.9 97.7001 779.6 98.1001C778.4 98.6001 777 98.8 775.4 98.8C773.9 98.8 772.6 98.6001 771.4 98.1001C770.2 97.6001 769.1 96.9 768.2 96C767.3 95.1 766.6 93.9 766.1 92.5C765.6 91.1 765.4 89.6 765.4 87.8C765.4 85.5 765.8 83.5 766.6 81.8C767.4 80.2 768.6 78.9001 770.1 78.1001C771.6 77.2001 773.4 76.8 775.5 76.8C777.5 76.8 779.2 77.2001 780.7 78.1001C782.2 79.0001 783.4 80.2 784.2 81.8C785 83.4 785.5 85.5 785.5 87.8ZM770.1 87.8C770.1 89.3 770.3 90.7 770.7 91.8C771.1 92.9 771.7 93.7 772.5 94.3C773.3 94.9 774.3 95.2 775.6 95.2C776.8 95.2 777.9 94.9 778.6 94.3C779.3 93.7 780 92.9 780.4 91.8C780.8 90.7 781 89.4 781 87.8C781 86.3 780.8 84.9999 780.4 83.8999C780 82.7999 779.4 81.9999 778.6 81.3999C777.8 80.7999 776.8 80.5 775.5 80.5C773.6 80.5 772.3 81.0999 771.4 82.3999C770.6 83.6999 770.1 85.5 770.1 87.8Z" fill="white"/>
<path d="M808.1 98.3999L805.4 88.5C805.3 88 805.1 87.4 804.9 86.7C804.7 86 804.5 85.3001 804.4 84.6001C804.2 83.9001 804.1 83.2 803.9 82.5C803.8 81.9 803.6 81.4 803.6 81H803.4C803.3 81.3 803.2 81.8 803.1 82.5C803 83.1 802.8 83.8001 802.6 84.6001C802.4 85.3001 802.2 86.1 802.1 86.8C801.9 87.5 801.8 88.1001 801.6 88.6001L798.8 98.3999H793.9L788 77.2H792.6L795.4 87.8C795.6 88.5 795.8 89.3001 795.9 90.1001C796 90.9001 796.2 91.7 796.4 92.5C796.5 93.3 796.6 93.8999 796.7 94.3999H796.9C797 94.0999 797 93.6001 797.1 93.1001C797.2 92.6001 797.3 91.9999 797.4 91.3999C797.5 90.7999 797.6 90.3 797.7 89.7C797.8 89.2 797.9 88.7999 798 88.3999L801.3 77.2H806.2L809.3 88.3999C809.4 88.8999 809.6 89.5 809.8 90.2C810 90.9 810.1 91.6999 810.3 92.3999C810.4 93.0999 810.5 93.7 810.6 94.2H810.8C810.9 93.8 810.9 93.1999 811.1 92.3999C811.2 91.6999 811.4 90.9 811.6 90C811.8 89.1 812 88.4001 812.2 87.6001L815 77H819.5L813.5 98.2H808.1V98.3999Z" fill="white"/>
<path d="M425.8 308.7C428.4 308.7 430.2 309.2 431.4 310.3C432.6 311.4 433.2 312.8 433.2 314.7C433.2 315.6 433.1 316.4 432.8 317.1C432.5 317.9 432.1 318.6 431.5 319.2C430.9 319.8 430.1 320.3 429.1 320.6C428.1 320.9 426.9 321.1 425.4 321.1H423.3V328.5H420V308.6H425.8V308.7ZM425.6 311.4H423.3V318.4H425.1C426.1 318.4 427 318.3 427.7 318C428.4 317.8 429 317.4 429.3 316.8C429.7 316.3 429.9 315.6 429.9 314.7C429.9 313.5 429.6 312.7 428.9 312.1C428.1 311.7 427 311.4 425.6 311.4Z" fill="#333333"/>
<path d="M444.5 313.2C444.8 313.2 445 313.2 445.3 313.2C445.6 313.2 445.9 313.3 446.1 313.3L445.8 316.3C445.6 316.2 445.4 316.2 445.1 316.2C444.8 316.2 444.6 316.2 444.4 316.2C443.8 316.2 443.3 316.3 442.8 316.5C442.3 316.7 441.8 317 441.4 317.4C441 317.8 440.7 318.2 440.5 318.8C440.3 319.4 440.2 320 440.2 320.8V328.7H437V313.6H439.5L439.9 316.3H440C440.3 315.8 440.7 315.3 441.1 314.8C441.5 314.4 442.1 314 442.6 313.7C443.1 313.4 443.8 313.2 444.5 313.2Z" fill="#333333"/>
<path d="M462.2 321C462.2 322.3 462 323.4 461.7 324.3C461.4 325.3 460.9 326.1 460.3 326.8C459.7 327.5 458.9 328 458 328.3C457.1 328.6 456.1 328.8 455 328.8C454 328.8 453 328.6 452.2 328.3C451.4 328 450.6 327.4 450 326.8C449.4 326.1 448.9 325.3 448.5 324.3C448.2 323.3 448 322.2 448 321C448 319.3 448.3 317.9 448.9 316.8C449.5 315.6 450.3 314.8 451.4 314.2C452.5 313.6 453.7 313.3 455.2 313.3C456.6 313.3 457.8 313.6 458.9 314.2C460 314.8 460.8 315.7 461.4 316.9C462 318.1 462.2 319.4 462.2 321ZM451.3 321C451.3 322.1 451.4 323 451.7 323.8C452 324.6 452.4 325.2 452.9 325.6C453.4 326 454.2 326.2 455.1 326.2C456 326.2 456.7 326 457.3 325.6C457.9 325.2 458.3 324.6 458.5 323.8C458.8 323 458.9 322.1 458.9 321C458.9 319.9 458.8 319 458.5 318.2C458.2 317.4 457.8 316.8 457.3 316.4C456.7 316 456 315.8 455.1 315.8C453.8 315.8 452.8 316.2 452.2 317.1C451.6 318.1 451.3 319.4 451.3 321Z" fill="#333333"/>
<path d="M471.5 326.3C471.9 326.3 472.3 326.3 472.7 326.2C473.1 326.1 473.5 326 473.8 325.9V328.3C473.4 328.5 473 328.6 472.4 328.7C471.8 328.8 471.3 328.9 470.6 328.9C469.7 328.9 469 328.8 468.3 328.5C467.6 328.2 467.1 327.7 466.7 327C466.3 326.3 466.1 325.3 466.1 324.1V316H464V314.6L466.2 313.5L467.2 310.3H469.2V313.6H473.5V316.1H469.2V324.1C469.2 324.9 469.4 325.4 469.8 325.8C470.2 326.2 470.9 326.3 471.5 326.3Z" fill="#333333"/>
<path d="M490.3 321C490.3 322.3 490.1 323.4 489.8 324.3C489.5 325.3 489 326.1 488.4 326.8C487.8 327.5 487 328 486.1 328.3C485.2 328.6 484.2 328.8 483.1 328.8C482.1 328.8 481.1 328.6 480.3 328.3C479.4 328 478.7 327.4 478.1 326.8C477.5 326.1 477 325.3 476.6 324.3C476.3 323.3 476.1 322.2 476.1 321C476.1 319.3 476.4 317.9 477 316.8C477.6 315.6 478.4 314.8 479.5 314.2C480.6 313.6 481.8 313.3 483.3 313.3C484.7 313.3 485.9 313.6 487 314.2C488.1 314.8 488.9 315.7 489.5 316.9C490 318 490.3 319.4 490.3 321ZM479.3 321C479.3 322.1 479.4 323 479.7 323.8C480 324.6 480.4 325.2 480.9 325.6C481.4 326 482.2 326.2 483.1 326.2C484 326.2 484.7 326 485.3 325.6C485.9 325.2 486.3 324.6 486.5 323.8C486.8 323 486.9 322.1 486.9 321C486.9 319.9 486.8 319 486.5 318.2C486.2 317.4 485.8 316.8 485.3 316.4C484.7 316 484 315.8 483.1 315.8C481.8 315.8 480.8 316.2 480.2 317.1C479.6 318.1 479.3 319.4 479.3 321Z" fill="#333333"/>
<path d="M499.5 326.3C499.9 326.3 500.3 326.3 500.7 326.2C501.1 326.1 501.5 326 501.8 325.9V328.3C501.4 328.5 501 328.6 500.4 328.7C499.8 328.8 499.3 328.9 498.6 328.9C497.7 328.9 497 328.8 496.3 328.5C495.6 328.2 495.1 327.7 494.7 327C494.3 326.3 494.1 325.3 494.1 324.1V316H492V314.6L494.2 313.5L495.2 310.3H497.2V313.6H501.5V316.1H497.2V324.1C497.2 324.9 497.4 325.4 497.8 325.8C498.4 326.1 498.9 326.3 499.5 326.3Z" fill="#333333"/>
<path d="M506.6 307.8C507.1 307.8 507.5 307.9 507.9 308.2C508.3 308.5 508.4 308.9 508.4 309.6C508.4 310.2 508.2 310.7 507.9 311C507.5 311.3 507.1 311.4 506.6 311.4C506.1 311.4 505.7 311.3 505.3 311C504.9 310.7 504.8 310.3 504.8 309.6C504.8 309 505 308.5 505.3 308.2C505.6 307.9 506.1 307.8 506.6 307.8ZM508.2 313.5V328.6H505V313.5H508.2Z" fill="#333333"/>
<path d="M520.5 313.2C522.3 313.2 523.7 313.9 524.8 315.2C525.9 316.5 526.4 318.5 526.4 321C526.4 322.7 526.1 324.1 525.6 325.3C525.1 326.5 524.4 327.3 523.5 327.9C522.6 328.5 521.5 328.8 520.3 328.8C519.5 328.8 518.9 328.7 518.3 328.5C517.7 328.3 517.3 328 516.9 327.7C516.5 327.4 516.2 327 515.9 326.7H515.7C515.7 327.1 515.8 327.5 515.8 327.9C515.8 328.3 515.9 328.7 515.9 329.1V335.2H512.7V313.4H515.3L515.7 315.5H515.9C516.2 315.1 516.5 314.7 516.9 314.3C517.3 313.9 517.8 313.6 518.4 313.4C519 313.4 519.7 313.2 520.5 313.2ZM519.6 315.9C518.7 315.9 518 316.1 517.5 316.4C517 316.7 516.6 317.3 516.3 318C516 318.7 515.9 319.6 515.9 320.6V321C515.9 322.1 516 323.1 516.2 323.8C516.4 324.5 516.8 325.2 517.4 325.6C517.9 326 518.7 326.2 519.6 326.2C520.4 326.2 521 326 521.5 325.6C522 325.2 522.4 324.6 522.7 323.8C523 323 523.1 322.1 523.1 321C523.1 319.4 522.8 318.1 522.2 317.2C521.7 316.3 520.8 315.9 519.6 315.9Z" fill="#333333"/>
<path d="M543.5 321C543.5 322.3 543.3 323.4 543 324.3C542.7 325.3 542.2 326.1 541.6 326.8C541 327.5 540.2 328 539.3 328.3C538.4 328.6 537.4 328.8 536.3 328.8C535.3 328.8 534.3 328.6 533.5 328.3C532.7 328 531.9 327.4 531.3 326.8C530.7 326.2 530.2 325.3 529.8 324.3C529.5 323.3 529.3 322.2 529.3 321C529.3 319.3 529.6 317.9 530.2 316.8C530.8 315.6 531.6 314.8 532.7 314.2C533.8 313.6 535 313.3 536.5 313.3C537.9 313.3 539.1 313.6 540.2 314.2C541.3 314.8 542.1 315.7 542.7 316.9C543.2 318 543.5 319.4 543.5 321ZM532.5 321C532.5 322.1 532.6 323 532.9 323.8C533.2 324.6 533.6 325.2 534.1 325.6C534.7 326 535.4 326.2 536.3 326.2C537.2 326.2 537.9 326 538.5 325.6C539.1 325.2 539.5 324.6 539.7 323.8C540 323 540.1 322.1 540.1 321C540.1 319.9 540 319 539.7 318.2C539.4 317.4 539 316.8 538.5 316.4C537.9 316 537.2 315.8 536.3 315.8C535 315.8 534 316.2 533.4 317.1C532.8 318 532.5 319.4 532.5 321Z" fill="#333333"/>
<path d="M376.6 298.3H352.2V293.9L361.5 284.4C363.3 282.6 364.8 281 366 279.6C367.2 278.3 368 277 368.6 275.8C369.2 274.6 369.5 273.3 369.5 271.9C369.5 270.2 369 268.9 368 268C367 267.1 365.7 266.7 364 266.7C362.4 266.7 361 267 359.7 267.6C358.4 268.2 357 269.1 355.6 270.2L352.4 266.4C353.4 265.6 354.5 264.8 355.6 264.1C356.7 263.4 358 262.8 359.4 262.4C360.8 262 362.4 261.8 364.3 261.8C366.6 261.8 368.6 262.2 370.2 263C371.9 263.8 373.1 264.9 374 266.4C374.9 267.9 375.3 269.5 375.3 271.4C375.3 273.4 374.9 275.2 374.1 276.8C373.3 278.4 372.2 280.1 370.8 281.7C369.4 283.3 367.7 285.1 365.7 286.9L359.5 293V293.3H376.6V298.3Z" fill="#333333"/>
<path d="M417.5 288.5C417.5 290.6 417 292.5 415.9 294C414.9 295.5 413.4 296.7 411.4 297.6C409.5 298.4 407.1 298.8 404.4 298.8C403.1 298.8 401.8 298.7 400.6 298.6C399.4 298.5 398.3 298.2 397.2 297.9C396.1 297.6 395.2 297.3 394.3 296.9V291.3C395.8 291.9 397.4 292.5 399.2 293C401 293.5 402.8 293.8 404.7 293.8C406.2 293.8 407.5 293.6 408.5 293.2C409.5 292.8 410.3 292.2 410.8 291.5C411.3 290.8 411.6 289.9 411.6 288.9C411.6 287.8 411.3 286.9 410.7 286.2C410.1 285.5 409.3 284.8 408.1 284.2C406.9 283.6 405.5 282.9 403.7 282.2C402.5 281.7 401.4 281.2 400.3 280.6C399.2 280 398.3 279.3 397.4 278.5C396.5 277.7 395.9 276.7 395.4 275.6C394.9 274.5 394.7 273.1 394.7 271.6C394.7 269.6 395.2 267.8 396.2 266.4C397.2 264.9 398.6 263.8 400.4 263.1C402.2 262.3 404.3 261.9 406.7 261.9C408.6 261.9 410.4 262.1 412 262.5C413.7 262.9 415.3 263.5 416.9 264.2L415 269C413.5 268.4 412.1 267.9 410.7 267.5C409.3 267.1 407.9 266.9 406.5 266.9C405.3 266.9 404.2 267.1 403.3 267.5C402.4 267.9 401.8 268.4 401.3 269.1C400.8 269.8 400.6 270.6 400.6 271.5C400.6 272.6 400.9 273.5 401.4 274.2C401.9 274.9 402.7 275.6 403.8 276.1C404.9 276.7 406.3 277.3 408 278.1C410 278.9 411.7 279.8 413.1 280.7C414.5 281.6 415.6 282.7 416.3 283.9C417 285.1 417.5 286.6 417.5 288.5Z" fill="#333333"/>
<path d="M434.7 270.5C437.1 270.5 439.2 271 441 272C442.7 273 444.1 274.4 445 276.3C445.9 278.1 446.4 280.3 446.4 282.9V286H428.2C428.3 288.6 429 290.7 430.3 292.1C431.7 293.5 433.6 294.2 436 294.2C437.7 294.2 439.3 294 440.7 293.7C442.1 293.4 443.5 292.9 445 292.2V296.9C443.6 297.5 442.2 298 440.8 298.3C439.4 298.6 437.7 298.7 435.7 298.7C433 298.7 430.7 298.2 428.6 297.1C426.6 296.1 425 294.5 423.8 292.4C422.7 290.3 422.1 287.7 422.1 284.7C422.1 281.6 422.6 279 423.7 276.9C424.7 274.8 426.2 273.1 428.1 272C430.1 271.1 432.2 270.5 434.7 270.5ZM434.7 274.9C432.9 274.9 431.4 275.5 430.3 276.7C429.2 277.9 428.5 279.6 428.3 281.9H440.7C440.7 280.5 440.5 279.3 440 278.3C439.5 277.3 438.9 276.4 438 275.8C437.2 275.2 436.1 274.9 434.7 274.9Z" fill="#333333"/>
<path d="M483.8 270.5C486.9 270.5 489.2 271.3 490.7 272.9C492.3 274.5 493 277 493 280.5V298.4H487.2V281.6C487.2 279.5 486.8 277.9 486 276.9C485.2 275.9 484 275.3 482.3 275.3C480 275.3 478.3 276 477.3 277.5C476.3 279 475.8 281.1 475.8 283.9V298.4H470V281.6C470 280.2 469.8 279 469.5 278.1C469.1 277.2 468.6 276.5 467.9 276C467.2 275.5 466.3 275.3 465.2 275.3C463.6 275.3 462.3 275.7 461.4 276.4C460.5 277.1 459.8 278.2 459.4 279.6C459 281 458.8 282.7 458.8 284.8V298.4H453V271H457.5L458.3 274.7H458.6C459.2 273.7 459.9 273 460.7 272.3C461.5 271.7 462.5 271.2 463.5 270.9C464.5 270.6 465.6 270.4 466.7 270.4C468.7 270.4 470.5 270.8 471.9 271.5C473.3 272.2 474.3 273.3 475 274.8H475.4C476.3 273.3 477.4 272.2 479 271.5C480.6 270.8 482.1 270.5 483.8 270.5Z" fill="#333333"/>
<path d="M511.9 270.5C515.4 270.5 518 271.3 519.7 272.8C521.5 274.3 522.4 276.7 522.4 280V298.4H518.3L517.2 294.5H517C516.2 295.5 515.4 296.3 514.6 297C513.8 297.7 512.8 298.1 511.8 298.4C510.7 298.7 509.4 298.9 507.9 298.9C506.3 298.9 504.8 298.6 503.5 298C502.2 297.4 501.2 296.5 500.5 295.3C499.8 294.1 499.4 292.5 499.4 290.6C499.4 287.8 500.4 285.7 502.5 284.3C504.6 282.9 507.8 282.1 512 282L516.7 281.8V280.4C516.7 278.5 516.3 277.2 515.4 276.4C514.5 275.6 513.3 275.2 511.7 275.2C510.3 275.2 509 275.4 507.7 275.8C506.4 276.2 505.2 276.7 504 277.2L502.1 273.1C503.4 272.4 505 271.8 506.7 271.4C508.2 270.7 510 270.5 511.9 270.5ZM516.6 285.3L513.1 285.4C510.2 285.5 508.2 286 507 286.9C505.8 287.8 505.2 289 505.2 290.5C505.2 291.8 505.6 292.8 506.4 293.4C507.2 294 508.3 294.3 509.6 294.3C511.6 294.3 513.3 293.7 514.6 292.6C515.9 291.5 516.6 289.8 516.6 287.6V285.3Z" fill="#333333"/>
<path d="M544.7 270.5C547.8 270.5 550.2 271.3 551.9 272.9C553.6 274.5 554.5 277 554.5 280.5V298.3H548.7V281.6C548.7 279.5 548.3 277.9 547.4 276.9C546.5 275.9 545.2 275.3 543.4 275.3C540.8 275.3 538.9 276.1 537.9 277.7C536.9 279.3 536.4 281.7 536.4 284.8V298.4H530.6V271H535.1L535.9 274.7H536.2C536.8 273.7 537.5 273 538.4 272.3C539.3 271.6 540.3 271.2 541.4 270.9C542.4 270.6 543.5 270.5 544.7 270.5Z" fill="#333333"/>
<path d="M573.2 270.5C576.7 270.5 579.3 271.3 581 272.8C582.8 274.3 583.7 276.7 583.7 280V298.4H579.6L578.5 294.5H578.3C577.5 295.5 576.7 296.3 575.9 297C575.1 297.7 574.1 298.1 573.1 298.4C572 298.7 570.7 298.9 569.2 298.9C567.6 298.9 566.1 298.6 564.8 298C563.5 297.4 562.5 296.5 561.8 295.3C561.1 294.1 560.7 292.5 560.7 290.6C560.7 287.8 561.7 285.7 563.8 284.3C565.9 282.9 569.1 282.1 573.3 282L578 281.8V280.4C578 278.5 577.6 277.2 576.7 276.4C575.8 275.6 574.6 275.2 573 275.2C571.6 275.2 570.3 275.4 569 275.8C567.7 276.2 566.5 276.7 565.3 277.2L563.4 273.1C564.7 272.4 566.3 271.8 568 271.4C569.6 270.7 571.4 270.5 573.2 270.5ZM577.9 285.3L574.4 285.4C571.5 285.5 569.5 286 568.3 286.9C567.1 287.8 566.5 289 566.5 290.5C566.5 291.8 566.9 292.8 567.7 293.4C568.5 294 569.6 294.3 570.9 294.3C572.9 294.3 574.6 293.7 575.9 292.6C577.2 291.5 577.9 289.8 577.9 287.6V285.3Z" fill="#333333"/>
<path d="M610.2 290.5C610.2 292.3 609.8 293.8 608.9 295C608 296.2 606.8 297.2 605.1 297.8C603.4 298.4 601.4 298.7 599 298.7C597.1 298.7 595.5 298.6 594.1 298.3C592.7 298 591.4 297.6 590.2 297.1V292.1C591.5 292.7 593 293.2 594.6 293.7C596.2 294.1 597.8 294.4 599.2 294.4C601.1 294.4 602.5 294.1 603.3 293.5C604.1 292.9 604.6 292.1 604.6 291.1C604.6 290.5 604.4 290 604.1 289.5C603.8 289 603.1 288.5 602.2 288C601.3 287.5 599.9 286.9 598.2 286.2C596.5 285.5 595 284.8 593.8 284.1C592.6 283.4 591.7 282.6 591.1 281.6C590.5 280.6 590.2 279.4 590.2 277.9C590.2 275.5 591.2 273.6 593.1 272.4C595 271.1 597.6 270.5 600.7 270.5C602.4 270.5 604 270.7 605.4 271C606.9 271.3 608.3 271.8 609.8 272.5L608 276.9C606.8 276.4 605.5 275.9 604.3 275.6C603.1 275.3 601.8 275.1 600.5 275.1C599 275.1 597.9 275.3 597.1 275.8C596.3 276.3 595.9 276.9 595.9 277.7C595.9 278.3 596.1 278.9 596.5 279.3C596.9 279.7 597.5 280.2 598.5 280.6C599.4 281 600.7 281.6 602.4 282.3C604 282.9 605.4 283.6 606.6 284.3C607.8 285 608.7 285.8 609.3 286.8C609.9 287.7 610.2 289 610.2 290.5Z" fill="#333333"/>
<path d="M812.1 337L806.4 320.4H806.3C806.3 320.8 806.4 321.3 806.4 321.9C806.4 322.5 806.5 323.2 806.5 324C806.5 324.7 806.5 325.4 806.5 326.1V337H803.5V317.1H808.1L813.6 333H813.7L819.4 317.1H824V337H820.9V325.9C820.9 325.3 820.9 324.6 820.9 323.9C820.9 323.2 820.9 322.5 821 321.9C821 321.3 821.1 320.8 821.1 320.4H821L815 337H812.1Z" fill="#333333"/>
<path d="M844 317.1L837 337H833.5L826.6 317.1H829.9L834.1 329.6C834.2 330 834.4 330.4 834.5 330.9C834.6 331.4 834.8 331.9 834.9 332.5C835 333 835.1 333.5 835.2 333.9C835.3 333.5 835.4 333 835.5 332.5C835.6 332 835.8 331.5 835.9 330.9C836 330.4 836.2 329.9 836.3 329.6L840.5 317.1H844Z" fill="#333333"/>
<path d="M852.4 317.1C855 317.1 856.8 317.6 858 318.7C859.2 319.8 859.8 321.2 859.8 323.1C859.8 324 859.7 324.8 859.4 325.5C859.1 326.3 858.7 327 858.1 327.6C857.5 328.2 856.7 328.7 855.7 329C854.7 329.3 853.5 329.5 852 329.5H849.9V336.9H846.6V317H852.4V317.1ZM852.2 319.8H849.9V326.8H851.7C852.7 326.8 853.6 326.7 854.3 326.4C855 326.1 855.6 325.8 855.9 325.2C856.3 324.7 856.5 324 856.5 323.1C856.5 321.9 856.2 321.1 855.5 320.5C854.7 320.1 853.7 319.8 852.2 319.8Z" fill="#333333"/>
<path d="M758.4 270.5C758.4 272.1 758.1 273.5 757.4 274.7C756.7 275.9 755.8 276.9 754.7 277.6C753.6 278.4 752.2 278.9 750.7 279.2V279.4C753.6 279.8 755.8 280.7 757.2 282.1C758.7 283.5 759.4 285.5 759.4 287.8C759.4 289.9 758.9 291.8 757.9 293.4C756.9 295 755.4 296.3 753.3 297.3C751.2 298.2 748.6 298.7 745.3 298.7C743.3 298.7 741.5 298.5 739.9 298.2C738.2 297.9 736.6 297.4 735.2 296.7V291.5C736.7 292.3 738.3 292.8 740.1 293.3C741.8 293.7 743.5 293.9 745 293.9C748 293.9 750.1 293.3 751.4 292.2C752.7 291.1 753.3 289.5 753.3 287.5C753.3 286.2 753 285.2 752.3 284.4C751.6 283.6 750.6 283 749.2 282.6C747.8 282.2 746 282 743.8 282H740.6V277.3H743.8C745.9 277.3 747.6 277 748.8 276.5C750.1 276 751 275.3 751.5 274.4C752.1 273.5 752.4 272.5 752.4 271.3C752.4 269.7 751.9 268.5 750.9 267.7C749.9 266.8 748.4 266.4 746.5 266.4C745.3 266.4 744.2 266.5 743.2 266.8C742.2 267.1 741.3 267.4 740.4 267.9C739.5 268.4 738.8 268.8 738 269.3L735.2 265.3C736.6 264.3 738.2 263.4 740.1 262.7C742 262 744.2 261.6 746.7 261.6C750.4 261.6 753.3 262.4 755.3 264C757.4 265.7 758.4 267.8 758.4 270.5Z" fill="#333333"/>
<path d="M795.4 298.3L785 268.2H784.8C784.8 268.9 784.9 269.8 785 271C785.1 272.2 785.1 273.4 785.2 274.7C785.2 276 785.3 277.3 785.3 278.5V298.3H779.9V262.2H788.2L798.2 291H798.3L808.6 262.2H816.9V298.3H811.3V278.2C811.3 277.1 811.3 275.9 811.3 274.6C811.3 273.3 811.4 272.1 811.4 271C811.4 269.9 811.5 268.9 811.6 268.2H811.4L800.6 298.2H795.4V298.3Z" fill="#333333"/>
<path d="M836.6 270.5C839 270.5 841.1 271 842.9 272C844.6 273 846 274.4 846.9 276.3C847.8 278.1 848.3 280.3 848.3 282.9V286H830.1C830.2 288.6 830.9 290.7 832.2 292.1C833.6 293.5 835.5 294.2 837.9 294.2C839.6 294.2 841.2 294 842.6 293.7C844 293.4 845.4 292.9 846.9 292.2V296.9C845.5 297.5 844.1 298 842.7 298.3C841.3 298.6 839.6 298.7 837.6 298.7C834.9 298.7 832.6 298.2 830.5 297.1C828.5 296.1 826.9 294.5 825.7 292.4C824.6 290.3 824 287.7 824 284.7C824 281.6 824.5 279 825.6 276.9C826.6 274.8 828.1 273.1 830 272C832 271.1 834.1 270.5 836.6 270.5ZM836.6 274.9C834.8 274.9 833.3 275.5 832.2 276.7C831.1 277.9 830.4 279.6 830.2 281.9H842.6C842.6 280.5 842.4 279.3 841.9 278.3C841.5 277.3 840.8 276.4 839.9 275.8C839.1 275.2 838 274.9 836.6 274.9Z" fill="#333333"/>
<path d="M873.2 290.5C873.2 292.3 872.8 293.8 871.9 295C871 296.2 869.8 297.2 868.1 297.8C866.4 298.4 864.4 298.7 862 298.7C860.1 298.7 858.5 298.6 857.1 298.3C855.7 298 854.4 297.6 853.2 297.1V292.1C854.5 292.7 856 293.2 857.6 293.7C859.2 294.1 860.8 294.4 862.2 294.4C864.1 294.4 865.5 294.1 866.3 293.5C867.1 292.9 867.6 292.1 867.6 291.1C867.6 290.5 867.4 290 867.1 289.5C866.8 289 866.1 288.5 865.2 288C864.3 287.5 862.9 286.9 861.2 286.2C859.5 285.5 858 284.8 856.8 284.1C855.6 283.4 854.7 282.6 854.1 281.6C853.5 280.6 853.2 279.4 853.2 277.9C853.2 275.5 854.2 273.6 856.1 272.4C858 271.1 860.6 270.5 863.7 270.5C865.4 270.5 867 270.7 868.4 271C869.9 271.3 871.3 271.8 872.8 272.5L871 276.9C869.8 276.4 868.5 275.9 867.3 275.6C866.1 275.3 864.8 275.1 863.5 275.1C862 275.1 860.9 275.3 860.1 275.8C859.3 276.3 858.9 276.9 858.9 277.7C858.9 278.3 859.1 278.9 859.5 279.3C859.9 279.7 860.5 280.2 861.5 280.6C862.4 281 863.7 281.6 865.4 282.3C867 282.9 868.4 283.6 869.6 284.3C870.8 285 871.7 285.8 872.3 286.8C872.9 287.7 873.2 289 873.2 290.5Z" fill="#333333"/>
<path d="M890.3 270.5C892.7 270.5 894.8 271 896.6 272C898.3 273 899.7 274.4 900.6 276.3C901.5 278.1 902 280.3 902 282.9V286H883.8C883.9 288.6 884.6 290.7 885.9 292.1C887.3 293.5 889.2 294.2 891.6 294.2C893.3 294.2 894.9 294 896.3 293.7C897.7 293.4 899.1 292.9 900.6 292.2V296.9C899.2 297.5 897.8 298 896.4 298.3C895 298.6 893.3 298.7 891.3 298.7C888.6 298.7 886.3 298.2 884.2 297.1C882.2 296.1 880.6 294.5 879.4 292.4C878.3 290.3 877.7 287.7 877.7 284.7C877.7 281.6 878.2 279 879.3 276.9C880.3 274.8 881.8 273.1 883.7 272C885.6 271.1 887.8 270.5 890.3 270.5ZM890.3 274.9C888.5 274.9 887 275.5 885.9 276.7C884.8 277.9 884.1 279.6 883.9 281.9H896.3C896.3 280.5 896.1 279.3 895.6 278.3C895.2 277.3 894.5 276.4 893.6 275.8C892.8 275.2 891.7 274.9 890.3 274.9Z" fill="#333333"/>
<path d="M926.9 290.5C926.9 292.3 926.5 293.8 925.6 295C924.7 296.2 923.5 297.2 921.8 297.8C920.1 298.4 918.1 298.7 915.7 298.7C913.8 298.7 912.2 298.6 910.8 298.3C909.4 298 908.1 297.6 906.9 297.1V292.1C908.2 292.7 909.7 293.2 911.3 293.7C912.9 294.1 914.5 294.4 915.9 294.4C917.8 294.4 919.2 294.1 920 293.5C920.8 292.9 921.3 292.1 921.3 291.1C921.3 290.5 921.1 290 920.8 289.5C920.5 289 919.8 288.5 918.9 288C918 287.5 916.6 286.9 914.9 286.2C913.2 285.5 911.7 284.8 910.5 284.1C909.3 283.4 908.4 282.6 907.8 281.6C907.2 280.6 906.9 279.4 906.9 277.9C906.9 275.5 907.9 273.6 909.8 272.4C911.7 271.1 914.3 270.5 917.4 270.5C919.1 270.5 920.7 270.7 922.1 271C923.6 271.3 925 271.8 926.5 272.5L924.7 276.9C923.5 276.4 922.2 275.9 921 275.6C919.8 275.3 918.5 275.1 917.2 275.1C915.7 275.1 914.6 275.3 913.8 275.8C913 276.3 912.6 276.9 912.6 277.7C912.6 278.3 912.8 278.9 913.2 279.3C913.6 279.7 914.2 280.2 915.2 280.6C916.1 281 917.4 281.6 919.1 282.3C920.7 282.9 922.1 283.6 923.3 284.3C924.5 285 925.4 285.8 926 286.8C926.6 287.7 926.9 289 926.9 290.5Z" fill="#333333"/>
<path d="M129.1 203.3H832" stroke="#333333" stroke-width="10" stroke-miterlimit="10"/>
<path d="M129.5 221C139.441 221 147.5 212.941 147.5 203C147.5 193.059 139.441 185 129.5 185C119.559 185 111.5 193.059 111.5 203C111.5 212.941 119.559 221 129.5 221Z" fill="#333333"/>
<path d="M480.5 221C490.441 221 498.5 212.941 498.5 203C498.5 193.059 490.441 185 480.5 185C470.559 185 462.5 193.059 462.5 203C462.5 212.941 470.559 221 480.5 221Z" fill="#333333"/>
<path d="M831.5 221C841.441 221 849.5 212.941 849.5 203C849.5 193.059 841.441 185 831.5 185C821.559 185 813.5 193.059 813.5 203C813.5 212.941 821.559 221 831.5 221Z" fill="#333333"/>
<path d="M796 29.7H193V52.7H796V29.7Z" fill="#D3C453"/>
<path d="M240 24.7C240 29.5 239.1 33.6 237.2 36.8C235.3 40 232.7 42.5001 229.2 44.1001C225.7 45.7001 221.5 46.5 216.6 46.5H204.5V3.69995H217.9C222.4 3.69995 226.3 4.5001 229.6 6.1001C232.9 7.7001 235.5 9.99995 237.3 13.2C239.1 16.4 240 20.1 240 24.7ZM230.6 24.8999C230.6 21.6999 230.1 19.1001 229.2 17.1001C228.3 15.1001 226.9 13.6001 225.1 12.6001C223.3 11.6001 221.1 11.1001 218.4 11.1001H213.6V39H217.5C221.9 39 225.2 37.8 227.4 35.5C229.5 33.1 230.6 29.5999 230.6 24.8999Z" fill="#333333"/>
<path d="M261.7 13.2C264.7 13.2 267.3 13.7999 269.5 14.8999C271.7 16.0999 273.4 17.7 274.6 20C275.8 22.2 276.4 24.9001 276.4 28.1001V32.3999H255.3C255.4 34.8999 256.2 36.9 257.6 38.3C259 39.7 261 40.5 263.5 40.5C265.6 40.5 267.5 40.2999 269.2 39.8999C270.9 39.4999 272.7 38.8 274.6 38V44.8999C273 45.6999 271.3 46.2999 269.5 46.7C267.7 47.1 265.6 47.3 263.1 47.3C259.8 47.3 256.9 46.7 254.4 45.5C251.9 44.3 249.9 42.4 248.5 40C247.1 37.5 246.3 34.4001 246.3 30.6001C246.3 26.8001 246.9 23.6 248.2 21C249.5 18.5 251.3 16.5 253.6 15.3C255.9 13.8 258.6 13.2 261.7 13.2ZM261.7 19.5C260 19.5 258.5 20.1 257.4 21.2C256.3 22.3 255.6 24.0999 255.4 26.3999H268C268 25.0999 267.7 23.8999 267.3 22.8999C266.8 21.8999 266.2 20.9999 265.2 20.3999C264.3 19.7999 263.2 19.5 261.7 19.5Z" fill="#333333"/>
<path d="M306.5 36.8C306.5 39 306 40.8999 304.9 42.3999C303.9 43.8999 302.3 45.0999 300.2 45.8999C298.1 46.6999 295.6 47.1001 292.5 47.1001C290.2 47.1001 288.3 47 286.6 46.7C285 46.4 283.3 45.9 281.7 45.2V37.8C283.5 38.6 285.4 39.3 287.4 39.8C289.4 40.3 291.2 40.6001 292.8 40.6001C294.5 40.6001 295.8 40.3 296.5 39.8C297.3 39.3 297.6 38.6 297.6 37.8C297.6 37.3 297.4 36.8 297.1 36.3C296.8 35.9 296.1 35.4 295.2 34.8C294.3 34.2 292.6 33.5001 290.5 32.6001C288.4 31.7001 286.8 30.9 285.4 30C284 29.1 283.1 28.0999 282.5 26.8999C281.9 25.6999 281.5 24.2 281.5 22.3C281.5 19.3 282.7 17 285 15.5C287.4 14 290.5 13.2 294.4 13.2C296.4 13.2 298.4 13.4 300.2 13.8C302 14.2 303.9 14.9 305.9 15.8L303.2 22.2C301.6 21.5 300.1 20.9 298.6 20.5C297.2 20.1 295.7 19.8 294.2 19.8C292.9 19.8 291.9 20 291.2 20.3C290.5 20.7 290.2 21.1999 290.2 21.8999C290.2 22.3999 290.4 22.9 290.7 23.3C291 23.7 291.7 24.2 292.7 24.7C293.7 25.2 295.1 25.8001 297.1 26.6001C299 27.4001 300.6 28.2 301.9 29C303.3 29.8 304.3 30.9001 305.1 32.1001C306.1 33.3001 306.5 34.9 306.5 36.8Z" fill="#333333"/>
<path d="M331.7 13.2C335.4 13.2 338.4 14.6 340.7 17.5C343 20.4 344.1 24.6001 344.1 30.1001C344.1 33.8001 343.6 36.9 342.5 39.5C341.4 42 339.9 43.9 338 45.2C336.1 46.5 333.9 47.1001 331.5 47.1001C329.9 47.1001 328.6 46.9 327.4 46.5C326.3 46.1 325.3 45.5999 324.5 44.8999C323.7 44.2999 323 43.5999 322.4 42.8999H321.9C322.1 43.6999 322.2 44.5 322.3 45.3C322.4 46.1 322.4 46.9 322.4 47.7V60.8999H313.5V13.7H320.8L322.1 17.8999H322.5C323.1 16.9999 323.8 16.2 324.6 15.5C325.4 14.8 326.5 14.2 327.6 13.7C328.7 13.4 330.1 13.2 331.7 13.2ZM328.8 20.3C327.2 20.3 326 20.6 325.1 21.3C324.2 21.9 323.5 22.9 323.1 24.2C322.7 25.5 322.5 27.1001 322.4 29.1001V30.1001C322.4 32.2001 322.6 34 323 35.5C323.4 37 324.1 38.1 325 38.8C325.9 39.6 327.3 39.8999 328.9 39.8999C330.3 39.8999 331.4 39.5 332.3 38.8C333.2 38.1 333.8 36.8999 334.3 35.3999C334.8 33.8999 335 32.1 335 30C335 26.8 334.5 24.4 333.5 22.8C332.4 21.1 330.9 20.3 328.8 20.3Z" fill="#333333"/>
<path d="M381.5 13.8V46.6001H374.6L373.4 42.3999H373C372.3 43.4999 371.4 44.4001 370.4 45.1001C369.4 45.8001 368.2 46.2999 366.9 46.7C365.6 47 364.3 47.2 362.9 47.2C360.6 47.2 358.5 46.8 356.8 46C355.1 45.2 353.7 43.9001 352.7 42.1001C351.7 40.3001 351.2 38.1 351.2 35.2V13.8H360.1V32.8999C360.1 35.1999 360.5 37 361.4 38.2C362.2 39.4 363.6 40 365.4 40C367.2 40 368.6 39.6 369.7 38.8C370.7 38 371.5 36.7001 371.9 35.1001C372.3 33.5001 372.5 31.5 372.5 29.2V13.8H381.5Z" fill="#333333"/>
<path d="M404.4 13.2C407.4 13.2 410 13.7999 412.2 14.8999C414.4 16.0999 416.1 17.7 417.3 20C418.5 22.2 419.1 24.9001 419.1 28.1001V32.3999H398C398.1 34.8999 398.9 36.9 400.3 38.3C401.7 39.7001 403.7 40.5 406.2 40.5C408.3 40.5 410.2 40.2999 411.9 39.8999C413.6 39.4999 415.4 38.8 417.3 38V44.8999C415.7 45.6999 414 46.2999 412.2 46.7C410.4 47.1 408.3 47.3 405.8 47.3C402.5 47.3 399.6 46.7 397.1 45.5C394.6 44.3 392.6 42.4 391.2 40C389.8 37.5 389 34.4001 389 30.6001C389 26.8001 389.6 23.6 390.9 21C392.2 18.5 394 16.5 396.3 15.3C398.6 13.8 401.3 13.2 404.4 13.2ZM404.4 19.5C402.7 19.5 401.2 20.1 400.1 21.2C399 22.3 398.3 24.0999 398.1 26.3999H410.6C410.6 25.0999 410.3 23.8999 409.9 22.8999C409.4 21.8999 408.8 20.9999 407.8 20.3999C407 19.7999 405.8 19.5 404.4 19.5ZM415.4 0.600098V1.19995C414.8 1.69995 414.1 2.39995 413.2 3.19995C412.3 3.99995 411.3 4.79995 410.2 5.69995C409.1 6.59995 408.1 7.39995 407.1 8.19995C406.1 8.99995 405.2 9.69995 404.4 10.2H398.5V9.3999C399.1 8.6999 399.9 7.79995 400.7 6.69995C401.5 5.59995 402.4 4.6 403.2 3.5C404 2.4 404.7 1.4 405.3 0.5H415.4V0.600098Z" fill="#333333"/>
<path d="M449.2 36.8C449.2 39 448.7 40.8999 447.6 42.3999C446.6 43.8999 445 45.0999 442.9 45.8999C440.8 46.6999 438.3 47.1001 435.2 47.1001C432.9 47.1001 431 47 429.3 46.7C427.7 46.4 426 45.9 424.4 45.2V37.8C426.2 38.6 428.1 39.3 430.1 39.8C432.1 40.3 433.9 40.6001 435.5 40.6001C437.2 40.6001 438.5 40.3 439.2 39.8C440 39.3 440.3 38.6 440.3 37.8C440.3 37.3 440.1 36.8 439.8 36.3C439.5 35.9 438.8 35.4 437.9 34.8C437 34.2 435.3 33.5001 433.2 32.6001C431.1 31.7001 429.5 30.9 428.1 30C426.7 29.1 425.8 28.0999 425.2 26.8999C424.6 25.6999 424.2 24.2 424.2 22.3C424.2 19.3 425.4 17 427.7 15.5C430.1 14 433.2 13.2 437.1 13.2C439.1 13.2 441.1 13.4 442.9 13.8C444.7 14.2 446.6 14.9 448.6 15.8L445.9 22.2C444.3 21.5 442.8 20.9 441.3 20.5C439.9 20.1 438.4 19.8 436.9 19.8C435.6 19.8 434.6 20 433.9 20.3C433.2 20.7 432.9 21.1999 432.9 21.8999C432.9 22.3999 433.1 22.9 433.4 23.3C433.7 23.7 434.4 24.2 435.4 24.7C436.4 25.2 437.8 25.8001 439.8 26.6001C441.7 27.4001 443.3 28.2 444.6 29C446 29.8 447 30.9001 447.8 32.1001C448.8 33.3001 449.2 34.9 449.2 36.8Z" fill="#333333"/>
<path d="M482.1 47.1001C478.4 47.1001 475.5 45.7001 473.2 42.8C470.9 39.9 469.8 35.7 469.8 30.2C469.8 24.6 471 20.4 473.3 17.5C475.6 14.6 478.7 13.2 482.4 13.2C484 13.2 485.3 13.4 486.5 13.8C487.7 14.2 488.7 14.8 489.6 15.5C490.5 16.2 491.2 16.9999 491.8 17.8999H492.1C492 17.2999 491.8 16.4001 491.7 15.1001C491.6 13.8001 491.5 12.6 491.5 11.3V0.800049H500.5V46.3999H493.6L491.9 42.2H491.5C490.9 43.1 490.2 43.9001 489.4 44.6001C488.6 45.3001 487.5 45.9 486.4 46.3C485.3 46.7001 483.7 47.1001 482.1 47.1001ZM485.2 40C487.6 40 489.4 39.3 490.4 37.8C491.4 36.3 491.9 34.2 492 31.2V30.2C492 27 491.5 24.5999 490.5 22.8999C489.5 21.1999 487.7 20.3999 485.1 20.3999C483.1 20.3999 481.6 21.1999 480.5 22.8999C479.4 24.5999 478.8 27.1 478.8 30.3C478.8 33.5 479.4 35.9 480.5 37.5C481.6 39.2 483.2 40 485.2 40Z" fill="#333333"/>
<path d="M523.2 13.2C526.2 13.2 528.8 13.7999 531 14.8999C533.2 15.9999 534.9 17.7 536.1 20C537.3 22.2 537.9 24.9001 537.9 28.1001V32.3999H516.8C516.9 34.8999 517.7 36.9 519.1 38.3C520.5 39.7 522.5 40.5 525 40.5C527.1 40.5 529 40.2999 530.7 39.8999C532.4 39.4999 534.2 38.8 536.1 38V44.8999C534.5 45.6999 532.8 46.2999 531 46.7C529.2 47.1 527.1 47.3 524.6 47.3C521.3 47.3 518.4 46.7 515.9 45.5C513.4 44.3 511.4 42.4 510 40C508.6 37.5 507.8 34.4001 507.8 30.6001C507.8 26.8001 508.4 23.6 509.7 21C511 18.4 512.8 16.5 515.1 15.3C517.4 14.1 520.1 13.2 523.2 13.2ZM523.2 19.5C521.5 19.5 520 20.1 518.9 21.2C517.8 22.3 517.1 24.0999 516.9 26.3999H529.4C529.4 25.0999 529.1 23.8999 528.7 22.8999C528.2 21.8999 527.6 20.9999 526.6 20.3999C525.8 19.7999 524.7 19.5 523.2 19.5Z" fill="#333333"/>
<path d="M554.1 46.5H545.2V0.899902H554.1V46.5Z" fill="#333333"/>
<path d="M592.5 13.2C595.5 13.2 598.1 13.7999 600.3 14.8999C602.5 15.9999 604.2 17.7 605.4 20C606.6 22.2 607.2 24.9001 607.2 28.1001V32.3999H586.1C586.2 34.8999 587 36.9 588.4 38.3C589.8 39.7 591.8 40.5 594.3 40.5C596.4 40.5 598.3 40.2999 600 39.8999C601.7 39.4999 603.5 38.8 605.4 38V44.8999C603.8 45.6999 602.1 46.2999 600.3 46.7C598.5 47.1 596.4 47.3 593.9 47.3C590.6 47.3 587.7 46.7 585.2 45.5C582.7 44.3 580.7 42.4 579.3 40C577.9 37.5 577.1 34.4001 577.1 30.6001C577.1 26.8001 577.7 23.6 579 21C580.3 18.4 582.1 16.5 584.4 15.3C586.7 14.1 589.5 13.2 592.5 13.2ZM592.6 19.5C590.9 19.5 589.4 20.1 588.3 21.2C587.2 22.3 586.5 24.0999 586.3 26.3999H598.8C598.8 25.0999 598.5 23.8999 598.1 22.8999C597.6 21.8999 597 20.9999 596 20.3999C595.2 19.7999 594 19.5 592.6 19.5Z" fill="#333333"/>
<path d="M622.3 46.5L609.8 13.7H619.1L625.4 32.3999C625.8 33.4999 626 34.5999 626.2 35.8999C626.4 37.0999 626.5 38.2 626.6 39.2H626.8C626.9 38.2 627 37.0999 627.2 35.8999C627.4 34.6999 627.7 33.6 628.1 32.5L634.4 13.8H643.7L631.2 46.6001H622.3V46.5Z" fill="#333333"/>
<path d="M662.1 13.2C665.1 13.2 667.7 13.7999 669.9 14.8999C672.1 15.9999 673.8 17.7 675 20C676.2 22.2 676.8 24.9001 676.8 28.1001V32.3999H655.7C655.8 34.8999 656.6 36.9 658 38.3C659.4 39.7 661.4 40.5 663.9 40.5C666 40.5 667.9 40.2999 669.6 39.8999C671.3 39.4999 673.1 38.8 675 38V44.8999C673.4 45.6999 671.7 46.2999 669.9 46.7C668.1 47.1 666 47.3 663.5 47.3C660.2 47.3 657.3 46.7 654.8 45.5C652.3 44.3 650.3 42.4 648.9 40C647.5 37.5 646.7 34.4001 646.7 30.6001C646.7 26.8001 647.3 23.6 648.6 21C649.9 18.4 651.7 16.5 654 15.3C656.3 14.1 659 13.2 662.1 13.2ZM662.2 19.5C660.5 19.5 659 20.1 657.9 21.2C656.8 22.3 656.1 24.0999 655.9 26.3999H668.4C668.4 25.0999 668.1 23.8999 667.7 22.8999C667.2 21.8999 666.6 20.9999 665.6 20.3999C664.7 19.7999 663.6 19.5 662.2 19.5Z" fill="#333333"/>
<path d="M702.7 13.2C706.2 13.2 709 14.2001 711.1 16.1001C713.2 18.0001 714.3 21.1 714.3 25.3V46.7H705.4V27.6001C705.4 25.3001 705 23.5 704.1 22.3C703.3 21.1 701.9 20.5 700.1 20.5C697.4 20.5 695.5 21.4 694.5 23.3C693.5 25.2 693 27.8 693 31.3V46.7H684.1V13.8999H690.9L692.1 18.1001H692.6C693.3 17.0001 694.2 16 695.2 15.3C696.2 14.6 697.4 14.1 698.7 13.7C700 13.3 701.3 13.2 702.7 13.2Z" fill="#333333"/>
<path d="M737.3 40C738.3 40 739.2 39.9 740.2 39.7C741.1 39.5 742.1 39.3 743 39V45.7C742 46.1 740.9 46.5 739.4 46.8C737.9 47.1 736.4 47.2 734.8 47.2C732.8 47.2 731.1 46.9 729.5 46.2C727.9 45.5 726.7 44.4999 725.8 42.8999C724.9 41.2999 724.5 39.1 724.5 36.3V20.5H720.2V16.7L725.1 13.7L727.7 6.80005H733.4V13.8H742.6V20.5H733.4V36.3C733.4 37.5 733.8 38.5001 734.5 39.1001C735.2 39.7001 736.1 40 737.3 40Z" fill="#333333"/>
<path d="M779.3 30.1001C779.3 32.8001 778.9 35.2999 778.2 37.3999C777.5 39.4999 776.4 41.3 775 42.7C773.6 44.1 771.9 45.3 770 46C768.1 46.7 765.8 47.1001 763.4 47.1001C761.1 47.1001 759 46.7 757.1 46C755.2 45.3 753.5 44.2 752.1 42.7C750.7 41.2 749.6 39.4999 748.8 37.3999C748 35.2999 747.6 32.9001 747.6 30.1001C747.6 26.5001 748.2 23.3999 749.5 20.8999C750.8 18.3999 752.6 16.5 755 15.2C757.4 13.9 760.2 13.2 763.5 13.2C766.6 13.2 769.3 13.9 771.7 15.2C774.1 16.5 775.9 18.3999 777.3 20.8999C778.7 23.3999 779.3 26.5001 779.3 30.1001ZM756.7 30.1001C756.7 32.2001 756.9 34.1 757.4 35.5C757.9 36.9 758.6 38.1 759.6 38.8C760.6 39.5 761.9 39.8999 763.5 39.8999C765.1 39.8999 766.4 39.5 767.4 38.8C768.4 38.1 769.1 37 769.6 35.5C770.1 34 770.3 32.2001 770.3 30.1001C770.3 27.9001 770.1 26.1 769.6 24.7C769.1 23.3 768.4 22.2 767.4 21.5C766.4 20.8 765.1 20.3999 763.5 20.3999C761.1 20.3999 759.4 21.2 758.4 22.8C757.2 24.4 756.7 26.8001 756.7 30.1001Z" fill="#333333"/>
<path d="M22.1 292.5H21.9L14.1 265.9H0.600006V303.4H9.60001V287.1C9.60001 285.8 9.60001 284.5 9.50001 283.1C9.40001 281.7 9.40001 280.4 9.30001 279.2C9.20001 278 9.20001 277.1 9.10001 276.4H9.30001L17 303.4H26.6L34.2 276.4H34.4C34.3 277.1 34.3 278.1 34.2 279.3C34.1 280.5 34.1 281.8 34 283.1C34 284.5 33.9 285.7 33.9 286.9V303.3H43.2V265.8H29.8L22.1 292.5Z" fill="#333333"/>
<path d="M67.2 285C67 285.7 66.8 286.6 66.5 287.7C66.3 288.8 66.1 289.9 65.9 291C65.7 292.1 65.6 293 65.5 293.7C65.4 293 65.3 292.1 65.1 291C64.9 289.9 64.7 288.8 64.4 287.7C64.2 286.6 63.9 285.7 63.7 284.9L58.6 265.9H47.2L59.4 303.4H71.3L83.6 265.9H72.3L67.2 285Z" fill="#333333"/>
<path d="M111.5 269C109.1 266.9 105.6 265.9 100.8 265.9H87.8V303.4H98V291H100.8C103.5 291 105.7 290.6 107.5 289.9C109.3 289.2 110.8 288.2 111.9 287C113 285.8 113.8 284.4 114.3 282.8C114.8 281.2 115 279.6 115 277.9C115.1 274 113.9 271 111.5 269ZM104.2 280.7C103.7 281.4 103.1 281.9 102.4 282.2C101.6 282.5 100.8 282.6 100 282.6H98V274H100.6C102.1 274 103.2 274.4 103.9 275.1C104.6 275.8 105 276.8 105 278C104.9 279.2 104.7 280.1 104.2 280.7Z" fill="#333333"/>
<path d="M159.8 274L161.5 265.9H139.4L131.5 303.3H141.5L144.4 289.3H155.6L157.4 281.1H146.2L147.7 274H159.8Z" fill="white"/>
<path d="M173.1 295.2L179.3 265.9H169.3L161.3 303.3H183.6L185.4 295.2H173.1Z" fill="white"/>
<path d="M204.2 265.9L185.1 303.4H195.5L198.7 296.4H210.2L210.5 303.4H220.3L217.1 265.9H204.2ZM202.4 288.3L207.5 277.3C207.9 276.5 208.2 275.7 208.5 275C208.8 274.2 209.1 273.5 209.3 272.7H209.5C209.5 273.4 209.5 274.2 209.5 275C209.5 275.8 209.5 276.7 209.6 277.5L210 288.3H202.4Z" fill="white"/>
<path d="M242 265.3C240 265.3 238.2 265.6 236.6 266.2C235 266.8 233.6 267.6 232.4 268.6C231.2 269.7 230.3 270.9 229.7 272.3C229.1 273.7 228.8 275.3 228.8 277C228.8 278.5 229 279.9 229.5 281.1C230 282.3 230.6 283.4 231.5 284.5C232.4 285.6 233.4 286.5 234.5 287.4C235.3 288 236 288.6 236.6 289.2C237.2 289.7 237.7 290.3 238.1 290.8C238.5 291.3 238.7 291.9 238.7 292.6C238.7 293.1 238.6 293.5 238.5 293.9C238.3 294.3 238.1 294.6 237.8 294.9C237.5 295.2 237.1 295.4 236.6 295.5C236.1 295.6 235.6 295.7 234.9 295.7C233.3 295.7 231.6 295.4 229.8 294.7C227.9 294 226.3 293.3 225 292.5V301.5C226.2 302.3 227.7 302.9 229.3 303.3C231 303.7 232.8 303.9 234.6 303.9C236.9 303.9 238.9 303.6 240.7 303.1C242.5 302.6 244 301.8 245.2 300.7C246.4 299.7 247.3 298.4 248 296.9C248.6 295.4 248.9 293.7 248.9 291.9C248.9 290.5 248.7 289.2 248.3 288C247.9 286.8 247.2 285.7 246.4 284.7C245.5 283.6 244.4 282.6 243 281.6C241.9 280.8 241.1 280.1 240.5 279.5C239.9 278.9 239.5 278.4 239.3 277.9C239.1 277.4 239 276.9 239 276.4C239 276.1 239 275.8 239.1 275.5C239.2 275.2 239.4 274.9 239.6 274.6C239.8 274.3 240.2 274.1 240.6 273.9C241 273.7 241.6 273.6 242.3 273.6C243.5 273.6 244.7 273.8 246 274.3C247.3 274.8 248.6 275.3 249.8 275.9L253.3 268.3C251.7 267.4 250 266.8 248.1 266.3C245.9 265.6 244 265.3 242 265.3Z" fill="white"/>
<path d="M326.5 286L286.4 284.1L287.2 280.3L317.7 278.1L288.1 276L289.5 269.2L330 267.6L290.2 266V265.9H285.4H280.2L277.3 279.8H268.4L271.3 265.9H261.2L253.3 303.3H263.3L266.6 288.1H275.5L272.3 303.3H282.3L282.5 302.5L309.2 300L283.5 297.6L284.2 294.1L298.5 292.4L284.9 290.8L285.5 288L326.5 286Z" fill="white"/>
</svg>
