<svg width="802" height="700" viewBox="0 0 802 700" fill="none" xmlns="http://www.w3.org/2000/svg">
<path d="M118.66 593.67C118.66 628.81 95.23 643.56 63.78 643.56H30.37V697.36H0V545.52H66.38C95.01 545.52 118.66 561.35 118.66 593.68V593.67ZM87.42 594.32C87.42 581.09 78.74 575.01 65.29 575.01H30.37V614.06H65.73C79.83 614.06 87.42 607.55 87.42 594.32Z" fill="#F48020"/>
<path d="M173.54 697.36H143.61V554.19L173.54 539.22V697.36Z" fill="#F48020"/>
<path d="M296.32 697.36H266.39V689.77C260.97 695.41 251.42 699.75 240.79 699.75C219.53 699.75 198.27 686.73 198.27 659.19C198.27 634.03 218.66 621.45 244.47 621.45C254.88 621.45 261.61 623.62 266.38 626.01V620.37C266.38 612.34 260.96 605.84 250.11 605.84C236.44 605.84 229.29 607.79 218.87 613.43L207.37 592.61C220.6 585.02 231.66 581.11 250.1 581.11C277.65 581.11 296.3 595.43 296.3 621.02V697.38L296.32 697.36ZM266.39 663.95V649.63C261.18 646.38 256.19 644.86 245.57 644.86C234.29 644.86 228.22 650.07 228.22 659.18C228.22 667.21 232.78 674.36 245.57 674.36C255.33 674.36 263.14 669.37 266.39 663.95Z" fill="#F48020"/>
<path d="M423 697.36H393.06V635.76C393.06 615.37 386.12 609.3 373.75 609.3C361.38 609.3 354.23 615.37 354.23 635.11V697.37H324.3V583.49H354.23V591.08C359.44 585.66 368.98 581.1 380.91 581.1C409.98 581.1 422.99 601.06 422.99 633.16V697.37L423 697.36Z" fill="#F48020"/>
<path d="M484.18 557.02C484.18 566.35 476.37 574.16 467.04 574.16C457.71 574.16 449.9 566.35 449.9 557.02C449.9 547.69 457.71 539.88 467.04 539.88C476.37 539.88 484.18 547.69 484.18 557.02ZM482.01 697.37H452.08V583.49H482.01V697.37Z" fill="#F48020"/>
<path d="M609.77 697.36H579.83V689.77C574.62 695.19 565.08 699.75 553.15 699.75C524.08 699.75 511.07 679.79 511.07 647.69V583.48H541V645.08C541 665.47 547.94 671.54 560.31 671.54C572.68 671.54 579.83 665.47 579.83 645.73V583.47H609.77V697.36Z" fill="#F48020"/>
<path d="M801.96 697.36H772.03V635.76C772.03 615.37 766.17 609.3 753.81 609.3C741.45 609.3 735.37 615.37 735.37 635.11V697.37H705.44V635.77C705.44 615.38 699.58 609.31 687.22 609.31C674.86 609.31 668.78 615.38 668.78 635.12V697.38H638.84V583.5H668.78V591.09C673.99 585.67 681.79 581.11 693.73 581.11C708.26 581.11 716.72 585.23 725.18 595.64C732.99 587.61 742.53 581.11 761.41 581.11C790.48 581.11 801.97 601.07 801.97 633.17V697.38L801.96 697.36Z" fill="#F48020"/>
<path d="M593.82 192.4H171.31C169.93 192.4 169.32 190.66 170.39 189.8L217.7 151.79C225.66 95.82 261.86 48.94 311.42 26.03L352.17 102.21H407.86L449.86 26.45C498.96 49.48 534.79 96.16 542.71 151.79L594.67 189.76C595.81 190.59 595.22 192.4 593.81 192.4H593.82Z" fill="#F48020"/>
<path d="M438.93 10.09C420.57 3.56 400.81 0 380.21 0C359.61 0 341.55 2.63999 322.53 9.71999L362.66 84.71H397.57L438.93 10.09Z" fill="#2A3341"/>
<path d="M469.27 215.74C455.78 254.5 418.9 281.39 376.78 281.39C334.66 281.39 297.78 254.51 284.29 215.74H219.06V460.84H281.06V311.59C307.94 331.66 341.21 343.39 376.78 343.39C452.71 343.39 518.21 289.83 533.41 215.75H469.26L469.27 215.74Z" fill="#2A3341"/>
</svg>
