<svg width="30" height="30" viewBox="0 0 30 30" fill="none" xmlns="http://www.w3.org/2000/svg">
<path d="M24.7779 9.12821L10.945 2.21173C1.65298 -2.44235 -2.16078 1.37141 2.4933 10.6634L3.89922 13.4752C4.30322 14.2994 4.30322 15.2528 3.89922 16.077L2.4933 18.8727C-2.16078 28.1647 1.63682 31.9785 10.945 27.3244L24.7779 20.4079C30.9834 17.3052 30.9834 12.2309 24.7779 9.12821ZM19.5583 15.98H10.8319C10.1693 15.98 9.61986 15.4306 9.61986 14.768C9.61986 14.1055 10.1693 13.556 10.8319 13.556H19.5583C20.2208 13.556 20.7703 14.1055 20.7703 14.768C20.7703 15.4306 20.2208 15.98 19.5583 15.98Z" fill="#54983C"/>
</svg>
