<svg xmlns="http://www.w3.org/2000/svg" data-name="Capa 2" viewBox="0 0 208.02 208.02">
  <defs>
    <linearGradient id="a" data-name="Degradado sin nombre" x1="104.01" y1="210.02" x2="104.01" y2="2" gradientTransform="matrix(1 0 0 -1 0 210.02)" gradientUnits="userSpaceOnUse">
    <stop offset="0" stop-color="#79db92" stop-opacity=".92"/>
    <stop offset="0" stop-color="#79db92" stop-opacity=".84"/>
    <stop offset="1" stop-color="#79db92" stop-opacity=".55"/>
    </linearGradient>
  </defs>
  <path d="M72.06 144.08c-20.06 0-37.09-6.99-51.08-20.96C6.99 109.14 0 92.12 0 72.06s6.99-37.09 20.96-51.08C34.94 6.99 51.96 0 72.02 0s37.09 6.99 51.08 20.96c13.99 13.98 20.98 30.99 20.98 51.06s-6.99 37.09-20.96 51.08c-13.97 13.99-30.99 20.98-51.06 20.98zm-8.12 43.91v-17.82c1.35.11 2.7.2 4.05.26 1.35.06 2.7.09 4.05.09 27.35 0 50.6-9.57 69.75-28.72s28.72-42.4 28.72-69.75c0-1.35-.03-2.7-.09-4.05a91.7 91.7 0 0 0-.26-4.05h17.82c5.51 0 10.23 1.96 14.15 5.89s5.88 8.64 5.88 14.15V188c0 5.51-1.96 10.23-5.88 14.15s-8.64 5.88-14.15 5.88H83.97c-5.51 0-10.23-1.96-14.15-5.88s-5.89-8.64-5.89-14.15z" fill="url(#a)"/>
</svg>