<svg width="46" height="46" viewBox="0 0 46 46" fill="none" xmlns="http://www.w3.org/2000/svg">
<path d="M3.69686 24.8019C3.24438 24.8019 2.89694 24.6726 2.65454 24.4141C2.41214 24.1555 2.29094 23.8 2.29094 23.3475V8.77928C2.29094 8.31064 2.42022 7.95512 2.67878 7.71272C2.93734 7.45416 3.29286 7.32488 3.74534 7.32488C4.14934 7.32488 4.46446 7.40568 4.6907 7.56728C4.9331 7.71272 5.15126 7.97128 5.34518 8.34296L11.3325 19.4206H10.5568L16.5441 8.34296C16.738 7.97128 16.9481 7.71272 17.1743 7.56728C17.4005 7.40568 17.7157 7.32488 18.1197 7.32488C18.5721 7.32488 18.9196 7.45416 19.162 7.71272C19.4044 7.95512 19.5256 8.31064 19.5256 8.77928V23.3475C19.5256 23.8 19.4044 24.1555 19.162 24.4141C18.9357 24.6726 18.5883 24.8019 18.1197 24.8019C17.6672 24.8019 17.3197 24.6726 17.0773 24.4141C16.8349 24.1555 16.7137 23.8 16.7137 23.3475V12.1244H17.247L12.1566 21.4083C11.995 21.683 11.8253 21.885 11.6476 22.0143C11.4698 22.1436 11.2274 22.2082 10.9204 22.2082C10.6133 22.2082 10.3629 22.1436 10.1689 22.0143C9.97502 21.8689 9.80534 21.6669 9.6599 21.4083L4.52102 12.1002H5.10278V23.3475C5.10278 23.8 4.98158 24.1555 4.73918 24.4141C4.51294 24.6726 4.1655 24.8019 3.69686 24.8019Z" fill="#292D32"/>
<path d="M26.2324 14.344H40.7764" stroke="#292D32" stroke-width="2.424" stroke-linecap="round" stroke-linejoin="round"/>
<path d="M26.2324 22.424H40.7764" stroke="#292D32" stroke-width="2.424" stroke-linecap="round" stroke-linejoin="round"/>
<path d="M11.6885 30.504H40.7765" stroke="#292D32" stroke-width="2.424" stroke-linecap="round" stroke-linejoin="round"/>
<path d="M11.6885 38.584H40.7765" stroke="#292D32" stroke-width="2.424" stroke-linecap="round" stroke-linejoin="round"/>
</svg>
