<svg width="48" height="48" viewBox="0 0 48 48" fill="none" xmlns="http://www.w3.org/2000/svg">
<mask id="mask0_1879_9959" style="mask-type:alpha" maskUnits="userSpaceOnUse" x="0" y="0" width="48" height="48">
<rect width="48" height="48" fill="#D9D9D9"/>
</mask>
<g mask="url(#mask0_1879_9959)">
<path d="M40.146 38.9999H29.4922C29.4922 38.6281 29.4803 38.2499 29.4566 37.8653C29.4329 37.4807 29.4037 37.1025 29.3691 36.7307H40.146C40.3255 36.7307 40.473 36.673 40.5884 36.5576C40.7037 36.4422 40.7614 36.2948 40.7614 36.1153V11.8846C40.7614 11.7051 40.7037 11.5577 40.5884 11.4423C40.473 11.3269 40.3255 11.2692 40.146 11.2692H7.91536C7.7487 11.2692 7.60445 11.3269 7.48261 11.4423C7.36081 11.5577 7.29991 11.7051 7.29991 11.8846V14.5192C6.92815 14.4846 6.5521 14.4554 6.17176 14.4317C5.79143 14.408 5.4111 14.3962 5.03076 14.3962V11.8846C5.03076 11.1013 5.3157 10.4247 5.88556 9.85485C6.45543 9.28495 7.13203 9 7.91536 9H40.146C40.9393 9 41.6184 9.28495 42.1833 9.85485C42.7482 10.4247 43.0306 11.1013 43.0306 11.8846V36.1153C43.0306 36.8986 42.7482 37.5752 42.1833 38.1451C41.6184 38.715 40.9393 38.9999 40.146 38.9999ZM5.03076 38.9999V34.6653C6.18673 34.6653 7.17443 35.0889 7.99386 35.936C8.8133 36.7831 9.22301 37.8044 9.22301 38.9999H5.03076ZM14.3384 38.9999C14.3384 36.3958 13.4358 34.173 11.6307 32.3315C9.82561 30.4899 7.62563 29.5628 5.03076 29.55V27.2808C8.25473 27.2808 10.9902 28.4242 13.2371 30.7112C15.4841 32.9982 16.6076 35.7611 16.6076 38.9999H14.3384ZM22.1076 38.9999C22.1076 36.6306 21.6634 34.3979 20.7749 32.3018C19.8864 30.2057 18.6704 28.3775 17.1269 26.8173C15.5833 25.257 13.7748 24.0275 11.7016 23.1288C9.62834 22.2301 7.40473 21.7807 5.03076 21.7807V19.5116C7.7128 19.5116 10.2274 20.0247 12.5746 21.0511C14.9218 22.0774 16.9694 23.4703 18.7173 25.2299C20.4652 26.9894 21.8454 29.0561 22.858 31.43C23.8705 33.8038 24.3768 36.3271 24.3768 38.9999H22.1076Z" fill="url(#paint0_linear_1879_9959)"/>
</g>
<defs>
<linearGradient id="paint0_linear_1879_9959" x1="5.03076" y1="23.9295" x2="43.0306" y2="23.9295" gradientUnits="userSpaceOnUse">
<stop stop-color="#79DB92"/>
<stop offset="1" stop-color="#9CCE7C"/>
</linearGradient>
</defs>
</svg>
