<svg width="20" height="12" viewBox="0 0 20 12" fill="none" xmlns="http://www.w3.org/2000/svg">
<path d="M9.99988 11.0555C9.81468 11.0555 9.64339 11.0255 9.486 10.9653C9.32859 10.9051 9.17581 10.8009 9.02767 10.6528L0.972086 2.59721C0.703586 2.32871 0.569336 2.00464 0.569336 1.625C0.569336 1.24536 0.703586 0.921291 0.972086 0.652791C1.24061 0.384264 1.56932 0.25 1.95821 0.25C2.3471 0.25 2.67579 0.384264 2.94429 0.652791L9.99988 7.70838L17.0555 0.652791C17.324 0.384264 17.648 0.25 18.0277 0.25C18.4073 0.25 18.7313 0.384264 18.9999 0.652791C19.2684 0.921291 19.4027 1.24999 19.4027 1.63888C19.4027 2.02776 19.2684 2.35647 18.9999 2.625L10.9721 10.6528C10.8239 10.8009 10.6712 10.9051 10.5138 10.9653C10.3564 11.0255 10.1851 11.0555 9.99988 11.0555Z" fill="#333333"/>
</svg>
