<svg xmlns="http://www.w3.org/2000/svg" width="60" height="60" viewBox="0 0 60 60" fill="none">
  <circle cx="30" cy="30" r="30" fill="url(#paint0_linear_108_1611)"/>
  <path d="M18.9393 38.9393C18.3536 39.5251 18.3536 40.4749 18.9393 41.0607C19.5251 41.6464 20.4749 41.6464 21.0607 41.0607L18.9393 38.9393ZM42.5 19C42.5 18.1716 41.8284 17.5 41 17.5L27.5 17.5C26.6716 17.5 26 18.1716 26 19C26 19.8284 26.6716 20.5 27.5 20.5H39.5V32.5C39.5 33.3284 40.1716 34 41 34C41.8284 34 42.5 33.3284 42.5 32.5L42.5 19ZM21.0607 41.0607L42.0607 20.0607L39.9393 17.9393L18.9393 38.9393L21.0607 41.0607Z" fill="#446347"/>
  <defs>
    <linearGradient id="paint0_linear_108_1611" x1="6.98739e-07" y1="29.8592" x2="60" y2="29.8592" gradientUnits="userSpaceOnUse">
      <stop stop-color="#79DB92"/>
      <stop offset="1" stop-color="#9CCE7C"/>
    </linearGradient>
  </defs>
</svg>