<svg xmlns="http://www.w3.org/2000/svg" width="56" height="55" fill="none"><path fill="#1E1E1E" d="M0 0h56v55H0z"/><g clip-path="url(#clip0_0_1)"><path fill="#fff" d="M-201-1432h1440v5192H-201z"/><mask id="a" style="mask-type:luminance" maskUnits="userSpaceOnUse" x="-201" y="-403" width="1440" height="1024"><path d="M-201-403h1440V621H-201V-403z" fill="#fff"/></mask><g stroke="#9CCE7C" stroke-width="1.5" mask="url(#a)"><path d="M90.16.15l-108.04-31.7M90.16.15L-11.29 105.8M88.5 95.97L-17.88-31.55"/></g><g><g filter="url(#filter0_d_0_1)"><rect x="-97" y="-71" width="250" height="250" rx="10" fill="#fff"/></g><mask id="b" style="mask-type:alpha" maskUnits="userSpaceOnUse" x="0" y="0" width="56" height="55"><path fill="#D9D9D9" d="M.5 0h55v55H.5z"/></mask><g mask="url(#b)"><path d="M22.042 44.802a31.75 31.75 0 0 1-1.805-3.924 33.646 33.646 0 0 1-1.289-4.211h-6.76a19.018 19.018 0 0 0 4.153 4.984 16.489 16.489 0 0 0 5.7 3.151zM10.24 32.083h7.791a30.266 30.266 0 0 1-.344-4.583 30.266 30.266 0 0 1 .344-4.583H10.24a18.24 18.24 0 0 0-.573 4.583 18.241 18.241 0 0 0 .573 4.583zm1.947-13.75h6.761a33.648 33.648 0 0 1 1.289-4.21 31.755 31.755 0 0 1 1.805-3.925 16.489 16.489 0 0 0-5.7 3.151 19.018 19.018 0 0 0-4.154 4.984zm11.459 0h8.708a27.118 27.118 0 0 0-1.776-4.755A29.091 29.091 0 0 0 28 9.281a29.099 29.099 0 0 0-2.578 4.297 27.118 27.118 0 0 0-1.776 4.755zm13.406 0h6.76a19.016 19.016 0 0 0-4.153-4.984 16.49 16.49 0 0 0-5.7-3.151 31.77 31.77 0 0 1 1.804 3.924c.516 1.356.945 2.76 1.29 4.211zM28 50.417c-3.132 0-6.092-.602-8.88-1.805-2.788-1.203-5.223-2.846-7.305-4.927-2.081-2.082-3.724-4.517-4.927-7.305-1.203-2.788-1.805-5.748-1.805-8.88 0-3.17.602-6.14 1.805-8.909 1.203-2.769 2.846-5.194 4.927-7.276 2.082-2.081 4.517-3.724 7.305-4.927 2.788-1.203 5.748-1.805 8.88-1.805 3.17 0 6.14.602 8.909 1.805 2.769 1.203 5.194 2.846 7.276 4.927 2.081 2.082 3.724 4.507 4.927 7.276 1.203 2.77 1.805 5.739 1.805 8.909a22.941 22.941 0 0 1-.115 2.292h-4.64c.076-.382.124-.755.143-1.118.019-.362.028-.754.028-1.174a18.239 18.239 0 0 0-.572-4.583h-7.792a30.267 30.267 0 0 1 .344 4.583v1.174c0 .363-.02.736-.058 1.118h-4.583c.038-.382.057-.755.057-1.118V27.5a30.267 30.267 0 0 0-.343-4.583H22.614a30.267 30.267 0 0 0-.344 4.583 30.268 30.268 0 0 0 .344 4.583h7.677v4.584h-6.646a27.121 27.121 0 0 0 1.776 4.755A29.098 29.098 0 0 0 28 45.719a38.6 38.6 0 0 0 2.292-3.782v8.365a22.427 22.427 0 0 1-2.292.115zm18.219-1.433l-6.76-6.76v5.099h-4.584V34.375h12.948v4.583h-5.156l6.76 6.76-3.208 3.266z" fill="#4C4C4C"/></g></g></g><defs><filter id="filter0_d_0_1" x="-112" y="-82" width="294" height="294" filterUnits="userSpaceOnUse" color-interpolation-filters="sRGB"><feFlood flood-opacity="0" result="BackgroundImageFix"/><feColorMatrix in="SourceAlpha" values="0 0 0 0 0 0 0 0 0 0 0 0 0 0 0 0 0 0 127 0" result="hardAlpha"/><feOffset dx="7" dy="11"/><feGaussianBlur stdDeviation="11"/><feComposite in2="hardAlpha" operator="out"/><feColorMatrix values="0 0 0 0 0.395833 0 0 0 0 0.395833 0 0 0 0 0.395833 0 0 0 0.25 0"/><feBlend in2="BackgroundImageFix" result="effect1_dropShadow_0_1"/><feBlend in="SourceGraphic" in2="effect1_dropShadow_0_1" result="shape"/></filter><clipPath id="clip0_0_1"><path fill="#fff" transform="translate(-201 -1432)" d="M0 0h1440v5192H0z"/></clipPath></defs></svg>