<svg width="646" height="440" viewBox="0 0 646 440" fill="none" xmlns="http://www.w3.org/2000/svg">
<path d="M62.0837 427L83.9941 439.65V414.35L62.0837 427ZM151.916 427V429.191H154.107V427H151.916ZM151.916 353.6V351.409H149.725V353.6H151.916ZM250.513 355.791C251.723 355.791 252.704 354.81 252.704 353.6C252.704 352.39 251.723 351.409 250.513 351.409V355.791ZM248.687 353.235C248.687 354.445 249.668 355.426 250.878 355.426C252.088 355.426 253.069 354.445 253.069 353.235H248.687ZM250.878 279.835V277.644H248.687V279.835H250.878ZM349.475 282.026C350.685 282.026 351.666 281.045 351.666 279.835C351.666 278.625 350.685 277.644 349.475 277.644V282.026ZM347.284 279.47C347.284 280.68 348.265 281.661 349.475 281.661C350.685 281.661 351.666 280.68 351.666 279.47H347.284ZM349.475 206.07V203.879H347.284V206.07H349.475ZM448.072 208.261C449.282 208.261 450.263 207.28 450.263 206.07C450.263 204.86 449.282 203.879 448.072 203.879V208.261ZM544.478 131.94C544.478 133.15 545.459 134.131 546.669 134.131C547.879 134.131 548.86 133.15 548.86 131.94H544.478ZM546.669 58.54V56.349H544.478V58.54H546.669ZM645.266 58.54L623.355 45.8901V71.19L645.266 58.54ZM445.881 205.705C445.881 206.915 446.862 207.896 448.072 207.896C449.282 207.896 450.263 206.915 450.263 205.705H445.881ZM448.072 132.305V130.114H445.881V132.305H448.072ZM546.669 134.496C547.879 134.496 548.86 133.515 548.86 132.305C548.86 131.095 547.879 130.114 546.669 130.114V134.496ZM81.8031 429.191H151.916V424.809H81.8031V429.191ZM154.107 427V353.6H149.725V427H154.107ZM151.916 355.791H250.513V351.409H151.916V355.791ZM253.069 353.235V279.835H248.687V353.235H253.069ZM250.878 282.026H349.475V277.644H250.878V282.026ZM351.666 279.47V206.07H347.284V279.47H351.666ZM349.475 208.261H448.072V203.879H349.475V208.261ZM548.86 131.94V58.54H544.478V131.94H548.86ZM546.669 60.7311H625.546V56.349H546.669V60.7311ZM450.263 205.705V132.305H445.881V205.705H450.263ZM448.072 134.496H546.669V130.114H448.072V134.496Z" fill="url(#paint0_linear_1879_10140)"/>
<path d="M2.60431 390.825V374.231H9.56889C10.3168 374.231 11.0023 374.387 11.6255 374.699C12.2488 375.01 12.7941 375.423 13.2615 375.937C13.7289 376.451 14.0873 377.028 14.3366 377.667C14.5859 378.306 14.7105 378.96 14.7105 379.63C14.7105 380.549 14.5002 381.43 14.0795 382.271C13.6744 383.097 13.0901 383.767 12.3267 384.281C11.5788 384.795 10.7063 385.052 9.70912 385.052H5.22187V390.825H2.60431ZM5.22187 382.738H9.54552C10.0441 382.738 10.4804 382.606 10.8543 382.341C11.2282 382.061 11.5165 381.687 11.719 381.219C11.9372 380.752 12.0462 380.222 12.0462 379.63C12.0462 379.022 11.9216 378.485 11.6723 378.017C11.423 377.55 11.0958 377.192 10.6907 376.942C10.3012 376.677 9.87272 376.545 9.40529 376.545H5.22187V382.738ZM16.8618 373.764H19.4326V387.296C19.4326 387.919 19.5261 388.316 19.713 388.488C19.9 388.659 20.1337 388.745 20.4142 388.745C20.7258 388.745 21.014 388.714 21.2789 388.651C21.5594 388.589 21.8009 388.511 22.0034 388.417L22.3773 390.451C22.0034 390.607 21.5594 390.739 21.0452 390.848C20.531 390.957 20.0714 391.012 19.6663 391.012C18.7938 391.012 18.1082 390.77 17.6096 390.287C17.1111 389.789 16.8618 389.103 16.8618 388.231V373.764ZM22.9799 387.249C22.9799 386.47 23.198 385.792 23.6343 385.216C24.0861 384.624 24.7015 384.172 25.4806 383.86C26.2596 383.533 27.1633 383.369 28.1916 383.369C28.737 383.369 29.2901 383.408 29.851 383.486C30.4275 383.564 30.9338 383.689 31.3701 383.86V383.089C31.3701 382.232 31.113 381.562 30.5989 381.079C30.0847 380.596 29.3446 380.354 28.3786 380.354C27.693 380.354 27.0464 380.479 26.4388 380.728C25.8312 380.962 25.1846 381.297 24.499 381.733L23.6343 380.004C24.4445 379.459 25.2547 379.053 26.0649 378.789C26.8906 378.524 27.7554 378.391 28.6591 378.391C30.295 378.391 31.5804 378.828 32.5153 379.7C33.4657 380.557 33.9409 381.78 33.9409 383.369V387.927C33.9409 388.223 33.9877 388.433 34.0811 388.558C34.1902 388.682 34.3694 388.752 34.6187 388.768V390.825C34.385 390.871 34.1746 390.903 33.9877 390.918C33.8007 390.934 33.6449 390.942 33.5202 390.942C32.9749 390.942 32.562 390.809 32.2816 390.544C32.0011 390.279 31.8375 389.968 31.7908 389.609L31.7207 388.908C31.1909 389.594 30.5132 390.124 29.6874 390.498C28.8616 390.871 28.028 391.058 27.1867 391.058C26.3765 391.058 25.652 390.895 25.0132 390.568C24.3744 390.225 23.8758 389.765 23.5174 389.189C23.1591 388.612 22.9799 387.966 22.9799 387.249ZM30.7625 387.997C30.9494 387.794 31.0974 387.592 31.2065 387.389C31.3156 387.187 31.3701 387.007 31.3701 386.852V385.449C30.9338 385.278 30.4742 385.153 29.9912 385.075C29.5082 384.982 29.033 384.935 28.5656 384.935C27.6307 384.935 26.8673 385.122 26.2752 385.496C25.6987 385.87 25.4105 386.384 25.4105 387.039C25.4105 387.397 25.504 387.74 25.6909 388.067C25.8935 388.394 26.1739 388.659 26.5323 388.862C26.9062 389.064 27.3659 389.165 27.9112 389.165C28.4721 389.165 29.0096 389.056 29.5238 388.838C30.0379 388.62 30.4508 388.34 30.7625 387.997ZM48.0209 390.825H45.4501V383.977C45.4501 382.84 45.2631 382.006 44.8892 381.476C44.5308 380.947 43.9933 380.682 43.2766 380.682C42.778 380.682 42.2794 380.806 41.7808 381.056C41.2978 381.305 40.8616 381.648 40.472 382.084C40.0825 382.505 39.8021 382.995 39.6307 383.556V390.825H37.0599V378.602H39.397V381.056C39.7086 380.51 40.1137 380.043 40.6123 379.653C41.1264 379.248 41.7029 378.937 42.3417 378.718C42.9805 378.5 43.6583 378.391 44.375 378.391C45.1073 378.391 45.7072 378.524 46.1746 378.789C46.6576 379.053 47.0315 379.42 47.2964 379.887C47.5769 380.339 47.7638 380.869 47.8573 381.476C47.9664 382.068 48.0209 382.699 48.0209 383.369V390.825ZM56.5439 391.058C55.5934 391.058 54.7287 390.895 53.9497 390.568C53.1862 390.225 52.524 389.765 51.9631 389.189C51.4022 388.597 50.966 387.927 50.6544 387.179C50.3583 386.415 50.2103 385.605 50.2103 384.748C50.2103 383.595 50.4752 382.544 51.0049 381.593C51.5347 380.627 52.2747 379.856 53.2252 379.279C54.1756 378.687 55.2896 378.391 56.5672 378.391C57.8449 378.391 58.9433 378.687 59.8626 379.279C60.7974 379.856 61.5219 380.619 62.0361 381.57C62.5502 382.52 62.8073 383.541 62.8073 384.631C62.8073 384.818 62.7995 384.998 62.7839 385.169C62.7684 385.325 62.7528 385.457 62.7372 385.566H52.9447C52.9915 386.283 53.1862 386.914 53.529 387.459C53.8874 387.989 54.3392 388.41 54.8845 388.721C55.4298 389.017 56.0141 389.165 56.6373 389.165C57.3229 389.165 57.9695 388.994 58.5771 388.651C59.2004 388.308 59.6211 387.857 59.8392 387.296L62.0361 387.927C61.7712 388.519 61.3661 389.056 60.8208 389.539C60.291 390.007 59.66 390.381 58.9277 390.661C58.1954 390.926 57.4008 391.058 56.5439 391.058ZM52.8746 383.86H60.2599C60.2131 383.159 60.0106 382.544 59.6522 382.014C59.3094 381.468 58.8654 381.048 58.3201 380.752C57.7903 380.44 57.1983 380.284 56.5439 380.284C55.9051 380.284 55.313 380.44 54.7677 380.752C54.2379 381.048 53.8017 381.468 53.4589 382.014C53.1161 382.544 52.9213 383.159 52.8746 383.86ZM64.0162 387.249C64.0162 386.47 64.2344 385.792 64.6706 385.216C65.1225 384.624 65.7379 384.172 66.5169 383.86C67.296 383.533 68.1996 383.369 69.228 383.369C69.7733 383.369 70.3264 383.408 70.8873 383.486C71.4638 383.564 71.9702 383.689 72.4064 383.86V383.089C72.4064 382.232 72.1494 381.562 71.6352 381.079C71.121 380.596 70.3809 380.354 69.4149 380.354C68.7294 380.354 68.0828 380.479 67.4751 380.728C66.8675 380.962 66.2209 381.297 65.5353 381.733L64.6706 380.004C65.4808 379.459 66.291 379.053 67.1012 378.789C67.927 378.524 68.7917 378.391 69.6954 378.391C71.3314 378.391 72.6168 378.828 73.5516 379.7C74.5021 380.557 74.9773 381.78 74.9773 383.369V387.927C74.9773 388.223 75.024 388.433 75.1175 388.558C75.2266 388.682 75.4057 388.752 75.655 388.768V390.825C75.4213 390.871 75.211 390.903 75.024 390.918C74.837 390.934 74.6812 390.942 74.5566 390.942C74.0113 390.942 73.5984 390.809 73.3179 390.544C73.0375 390.279 72.8739 389.968 72.8271 389.609L72.757 388.908C72.2273 389.594 71.5495 390.124 70.7237 390.498C69.8979 390.871 69.0644 391.058 68.223 391.058C67.4128 391.058 66.6883 390.895 66.0495 390.568C65.4107 390.225 64.9121 389.765 64.5538 389.189C64.1954 388.612 64.0162 387.966 64.0162 387.249ZM71.7988 387.997C71.9858 387.794 72.1338 387.592 72.2428 387.389C72.3519 387.187 72.4064 387.007 72.4064 386.852V385.449C71.9702 385.278 71.5106 385.153 71.0275 385.075C70.5445 384.982 70.0693 384.935 69.6019 384.935C68.6671 384.935 67.9036 385.122 67.3115 385.496C66.7351 385.87 66.4468 386.384 66.4468 387.039C66.4468 387.397 66.5403 387.74 66.7273 388.067C66.9298 388.394 67.2103 388.659 67.5686 388.862C67.9426 389.064 68.4022 389.165 68.9475 389.165C69.5084 389.165 70.046 389.056 70.5601 388.838C71.0743 388.62 71.4872 388.34 71.7988 387.997ZM83.6352 391.058C82.6847 391.058 81.82 390.895 81.041 390.568C80.2775 390.225 79.6153 389.757 79.0544 389.165C78.4935 388.573 78.0573 387.896 77.7456 387.132C77.4496 386.369 77.3016 385.558 77.3016 384.701C77.3016 383.549 77.5587 382.497 78.0728 381.546C78.6026 380.596 79.3349 379.833 80.2697 379.256C81.2201 378.68 82.342 378.391 83.6352 378.391C84.8816 378.391 85.9645 378.672 86.8837 379.233C87.8186 379.778 88.5041 380.51 88.9404 381.43L86.4397 382.224C86.1592 381.71 85.7619 381.313 85.2478 381.032C84.7492 380.736 84.1961 380.588 83.5884 380.588C82.9029 380.588 82.2796 380.767 81.7187 381.126C81.1734 381.468 80.7371 381.951 80.4099 382.575C80.0983 383.182 79.9425 383.891 79.9425 384.701C79.9425 385.481 80.1061 386.189 80.4333 386.828C80.7605 387.451 81.1968 387.95 81.7421 388.324C82.303 388.682 82.9262 388.862 83.6118 388.862C84.0325 388.862 84.4376 388.791 84.8271 388.651C85.2322 388.495 85.5827 388.293 85.8788 388.044C86.1748 387.779 86.3851 387.49 86.5098 387.179L89.0339 387.927C88.769 388.534 88.3717 389.072 87.8419 389.539C87.3278 390.007 86.7123 390.381 85.9956 390.661C85.2945 390.926 84.5077 391.058 83.6352 391.058ZM91.1511 390.825V378.602H93.722V390.825H91.1511ZM91.1511 376.592V373.764H93.722V376.592H91.1511ZM102.304 391.058C101.338 391.058 100.473 390.895 99.7094 390.568C98.9459 390.225 98.2837 389.757 97.7228 389.165C97.1775 388.573 96.7568 387.903 96.4608 387.155C96.1647 386.392 96.0167 385.582 96.0167 384.725C96.0167 383.868 96.1647 383.058 96.4608 382.294C96.7568 381.531 97.1775 380.861 97.7228 380.284C98.2837 379.692 98.9459 379.233 99.7094 378.905C100.488 378.563 101.353 378.391 102.304 378.391C103.254 378.391 104.111 378.563 104.874 378.905C105.653 379.233 106.316 379.692 106.861 380.284C107.422 380.861 107.85 381.531 108.146 382.294C108.442 383.058 108.59 383.868 108.59 384.725C108.59 385.582 108.442 386.392 108.146 387.155C107.85 387.903 107.422 388.573 106.861 389.165C106.316 389.757 105.653 390.225 104.874 390.568C104.111 390.895 103.254 391.058 102.304 391.058ZM98.6577 384.748C98.6577 385.527 98.8213 386.228 99.1484 386.852C99.4756 387.475 99.9119 387.966 100.457 388.324C101.003 388.682 101.618 388.862 102.304 388.862C102.974 388.862 103.581 388.682 104.126 388.324C104.687 387.95 105.131 387.451 105.459 386.828C105.786 386.189 105.949 385.488 105.949 384.725C105.949 383.946 105.786 383.245 105.459 382.621C105.131 381.998 104.687 381.507 104.126 381.149C103.581 380.775 102.974 380.588 102.304 380.588C101.618 380.588 101.003 380.775 100.457 381.149C99.9119 381.523 99.4756 382.022 99.1484 382.645C98.8213 383.252 98.6577 383.954 98.6577 384.748ZM103.168 376.849L101.486 376.335L102.818 373.764H105.272L103.168 376.849ZM121.832 390.825H119.261V383.977C119.261 382.84 119.074 382.006 118.7 381.476C118.341 380.947 117.804 380.682 117.087 380.682C116.589 380.682 116.09 380.806 115.591 381.056C115.108 381.305 114.672 381.648 114.283 382.084C113.893 382.505 113.613 382.995 113.441 383.556V390.825H110.871V378.602H113.208V381.056C113.519 380.51 113.924 380.043 114.423 379.653C114.937 379.248 115.514 378.937 116.152 378.718C116.791 378.5 117.469 378.391 118.186 378.391C118.918 378.391 119.518 378.524 119.985 378.789C120.468 379.053 120.842 379.42 121.107 379.887C121.387 380.339 121.574 380.869 121.668 381.476C121.777 382.068 121.832 382.699 121.832 383.369V390.825Z" fill="white"/>
<path d="M125.302 322.172V305.579H131.192C132.984 305.579 134.479 305.953 135.679 306.701C136.879 307.433 137.775 308.43 138.367 309.692C138.974 310.939 139.278 312.325 139.278 313.852C139.278 315.535 138.943 317 138.273 318.246C137.619 319.492 136.684 320.458 135.469 321.144C134.253 321.83 132.828 322.172 131.192 322.172H125.302ZM136.614 313.852C136.614 312.684 136.396 311.655 135.96 310.767C135.539 309.864 134.923 309.162 134.113 308.664C133.319 308.15 132.345 307.893 131.192 307.893H127.92V319.859H131.192C132.36 319.859 133.342 319.594 134.137 319.064C134.947 318.534 135.562 317.818 135.983 316.914C136.404 316.01 136.614 314.99 136.614 313.852ZM147.244 322.406C146.293 322.406 145.428 322.242 144.649 321.915C143.886 321.573 143.224 321.113 142.663 320.536C142.102 319.944 141.666 319.274 141.354 318.526C141.058 317.763 140.91 316.953 140.91 316.096C140.91 314.943 141.175 313.891 141.705 312.941C142.234 311.975 142.974 311.204 143.925 310.627C144.875 310.035 145.989 309.739 147.267 309.739C148.545 309.739 149.643 310.035 150.562 310.627C151.497 311.204 152.222 311.967 152.736 312.917C153.25 313.868 153.507 314.888 153.507 315.979C153.507 316.166 153.499 316.345 153.484 316.517C153.468 316.672 153.452 316.805 153.437 316.914H143.644C143.691 317.631 143.886 318.262 144.229 318.807C144.587 319.337 145.039 319.757 145.584 320.069C146.13 320.365 146.714 320.513 147.337 320.513C148.023 320.513 148.669 320.342 149.277 319.999C149.9 319.656 150.321 319.204 150.539 318.643L152.736 319.274C152.471 319.866 152.066 320.404 151.52 320.887C150.991 321.354 150.36 321.728 149.627 322.009C148.895 322.274 148.1 322.406 147.244 322.406ZM143.574 315.208H150.96C150.913 314.507 150.71 313.891 150.352 313.361C150.009 312.816 149.565 312.395 149.02 312.099C148.49 311.788 147.898 311.632 147.244 311.632C146.605 311.632 146.013 311.788 145.467 312.099C144.938 312.395 144.501 312.816 144.159 313.361C143.816 313.891 143.621 314.507 143.574 315.208ZM156.191 312.24H154.555V310.253H156.191V309.762C156.191 309.124 156.292 308.516 156.495 307.939C156.697 307.347 157.001 306.825 157.406 306.374C157.811 305.906 158.302 305.54 158.879 305.275C159.471 305.01 160.156 304.878 160.935 304.878C161.512 304.878 162.049 304.94 162.548 305.065C163.062 305.189 163.53 305.361 163.95 305.579C164.386 305.781 164.768 306 165.095 306.233L164.044 308.15C163.701 307.838 163.265 307.581 162.735 307.378C162.205 307.176 161.66 307.075 161.099 307.075C160.569 307.075 160.125 307.199 159.767 307.449C159.424 307.698 159.167 308.025 158.996 308.43C158.84 308.835 158.762 309.256 158.762 309.692V310.253H165.166V322.172H162.595V312.24H158.762V322.172H156.191V312.24ZM179.209 322.172H176.638V315.325C176.638 314.187 176.451 313.354 176.077 312.824C175.719 312.294 175.182 312.029 174.465 312.029C173.966 312.029 173.468 312.154 172.969 312.403C172.486 312.653 172.05 312.995 171.66 313.432C171.271 313.852 170.99 314.343 170.819 314.904V322.172H168.248V309.949H170.585V312.403C170.897 311.858 171.302 311.391 171.801 311.001C172.315 310.596 172.891 310.284 173.53 310.066C174.169 309.848 174.847 309.739 175.563 309.739C176.296 309.739 176.895 309.871 177.363 310.136C177.846 310.401 178.22 310.767 178.485 311.235C178.765 311.687 178.952 312.216 179.046 312.824C179.155 313.416 179.209 314.047 179.209 314.717V322.172ZM182.193 322.172V309.949H184.764V322.172H182.193ZM182.193 307.939V305.111H184.764V307.939H182.193ZM193.392 322.406C192.442 322.406 191.577 322.242 190.798 321.915C190.035 321.573 189.372 321.105 188.812 320.513C188.251 319.921 187.814 319.243 187.503 318.48C187.207 317.716 187.059 316.906 187.059 316.049C187.059 314.896 187.316 313.844 187.83 312.894C188.36 311.944 189.092 311.18 190.027 310.604C190.977 310.027 192.099 309.739 193.392 309.739C194.639 309.739 195.722 310.019 196.641 310.58C197.576 311.126 198.261 311.858 198.698 312.777L196.197 313.572C195.916 313.058 195.519 312.66 195.005 312.38C194.506 312.084 193.953 311.936 193.346 311.936C192.66 311.936 192.037 312.115 191.476 312.473C190.931 312.816 190.494 313.299 190.167 313.922C189.856 314.53 189.7 315.239 189.7 316.049C189.7 316.828 189.863 317.537 190.19 318.176C190.518 318.799 190.954 319.298 191.499 319.672C192.06 320.03 192.683 320.209 193.369 320.209C193.79 320.209 194.195 320.139 194.584 319.999C194.989 319.843 195.34 319.64 195.636 319.391C195.932 319.126 196.142 318.838 196.267 318.526L198.791 319.274C198.526 319.882 198.129 320.42 197.599 320.887C197.085 321.354 196.47 321.728 195.753 322.009C195.052 322.274 194.265 322.406 193.392 322.406ZM200.908 322.172V309.949H203.479V322.172H200.908ZM200.908 307.939V305.111H203.479V307.939H200.908ZM212.061 322.406C211.095 322.406 210.23 322.242 209.467 321.915C208.703 321.573 208.041 321.105 207.48 320.513C206.935 319.921 206.514 319.251 206.218 318.503C205.922 317.74 205.774 316.929 205.774 316.073C205.774 315.216 205.922 314.405 206.218 313.642C206.514 312.878 206.935 312.208 207.48 311.632C208.041 311.04 208.703 310.58 209.467 310.253C210.246 309.91 211.11 309.739 212.061 309.739C213.011 309.739 213.868 309.91 214.632 310.253C215.411 310.58 216.073 311.04 216.618 311.632C217.179 312.208 217.607 312.878 217.903 313.642C218.2 314.405 218.348 315.216 218.348 316.073C218.348 316.929 218.2 317.74 217.903 318.503C217.607 319.251 217.179 319.921 216.618 320.513C216.073 321.105 215.411 321.573 214.632 321.915C213.868 322.242 213.011 322.406 212.061 322.406ZM208.415 316.096C208.415 316.875 208.578 317.576 208.906 318.199C209.233 318.823 209.669 319.313 210.214 319.672C210.76 320.03 211.375 320.209 212.061 320.209C212.731 320.209 213.338 320.03 213.884 319.672C214.445 319.298 214.889 318.799 215.216 318.176C215.543 317.537 215.707 316.836 215.707 316.073C215.707 315.293 215.543 314.592 215.216 313.969C214.889 313.346 214.445 312.855 213.884 312.497C213.338 312.123 212.731 311.936 212.061 311.936C211.375 311.936 210.76 312.123 210.214 312.497C209.669 312.871 209.233 313.369 208.906 313.992C208.578 314.6 208.415 315.301 208.415 316.096ZM212.925 308.196L211.243 307.682L212.575 305.111H215.029L212.925 308.196ZM231.589 322.172H229.018V315.325C229.018 314.187 228.831 313.354 228.457 312.824C228.099 312.294 227.561 312.029 226.844 312.029C226.346 312.029 225.847 312.154 225.349 312.403C224.866 312.653 224.429 312.995 224.04 313.432C223.65 313.852 223.37 314.343 223.198 314.904V322.172H220.628V309.949H222.965V312.403C223.276 311.858 223.681 311.391 224.18 311.001C224.694 310.596 225.271 310.284 225.91 310.066C226.548 309.848 227.226 309.739 227.943 309.739C228.675 309.739 229.275 309.871 229.742 310.136C230.225 310.401 230.599 310.767 230.864 311.235C231.145 311.687 231.332 312.216 231.425 312.824C231.534 313.416 231.589 314.047 231.589 314.717V322.172Z" fill="white"/>
<path d="M180.809 248.408V231.814H186.698C188.49 231.814 189.986 232.188 191.185 232.936C192.385 233.668 193.281 234.666 193.873 235.928C194.481 237.174 194.785 238.561 194.785 240.088C194.785 241.77 194.45 243.235 193.78 244.481C193.125 245.728 192.19 246.694 190.975 247.379C189.76 248.065 188.334 248.408 186.698 248.408H180.809ZM192.12 240.088C192.12 238.919 191.902 237.891 191.466 237.003C191.045 236.099 190.43 235.398 189.62 234.899C188.825 234.385 187.851 234.128 186.698 234.128H183.426V246.094H186.698C187.867 246.094 188.848 245.829 189.643 245.299C190.453 244.77 191.069 244.053 191.489 243.149C191.91 242.246 192.12 241.225 192.12 240.088ZM197.188 248.408V236.185H199.759V248.408H197.188ZM197.188 234.175V231.347H199.759V234.175H197.188ZM207.195 248.641C206.167 248.641 205.193 248.478 204.274 248.151C203.355 247.808 202.568 247.301 201.913 246.632L202.872 244.902C203.573 245.525 204.274 245.977 204.975 246.258C205.692 246.538 206.401 246.678 207.102 246.678C207.819 246.678 208.403 246.546 208.855 246.281C209.307 246 209.532 245.595 209.532 245.066C209.532 244.676 209.416 244.388 209.182 244.201C208.948 244.014 208.605 243.85 208.154 243.71C207.717 243.57 207.188 243.414 206.564 243.243C205.692 242.978 204.96 242.705 204.367 242.425C203.775 242.129 203.331 241.77 203.035 241.35C202.739 240.929 202.591 240.391 202.591 239.737C202.591 238.942 202.794 238.265 203.199 237.704C203.604 237.143 204.165 236.714 204.882 236.418C205.614 236.122 206.455 235.974 207.406 235.974C208.294 235.974 209.112 236.115 209.86 236.395C210.623 236.66 211.293 237.081 211.87 237.657L210.771 239.363C210.226 238.865 209.665 238.498 209.088 238.265C208.527 238.031 207.92 237.914 207.265 237.914C206.892 237.914 206.533 237.961 206.19 238.054C205.848 238.132 205.559 238.288 205.326 238.522C205.108 238.74 204.998 239.051 204.998 239.457C204.998 239.784 205.092 240.049 205.279 240.251C205.466 240.454 205.746 240.625 206.12 240.765C206.494 240.906 206.954 241.061 207.499 241.233C208.45 241.513 209.26 241.794 209.93 242.074C210.6 242.339 211.114 242.69 211.472 243.126C211.846 243.547 212.033 244.131 212.033 244.879C212.033 246.063 211.589 246.99 210.701 247.66C209.828 248.314 208.66 248.641 207.195 248.641ZM219.867 248.641C218.917 248.641 218.052 248.478 217.273 248.151C216.51 247.808 215.848 247.348 215.287 246.772C214.726 246.18 214.29 245.51 213.978 244.762C213.682 243.998 213.534 243.188 213.534 242.331C213.534 241.178 213.799 240.127 214.328 239.176C214.858 238.21 215.598 237.439 216.549 236.862C217.499 236.27 218.613 235.974 219.891 235.974C221.168 235.974 222.267 236.27 223.186 236.862C224.121 237.439 224.845 238.202 225.36 239.153C225.874 240.103 226.131 241.124 226.131 242.214C226.131 242.401 226.123 242.581 226.107 242.752C226.092 242.908 226.076 243.04 226.061 243.149H216.268C216.315 243.866 216.51 244.497 216.853 245.042C217.211 245.572 217.663 245.993 218.208 246.304C218.753 246.6 219.338 246.748 219.961 246.748C220.646 246.748 221.293 246.577 221.901 246.234C222.524 245.891 222.945 245.44 223.163 244.879L225.36 245.51C225.095 246.102 224.69 246.639 224.144 247.122C223.615 247.59 222.984 247.964 222.251 248.244C221.519 248.509 220.724 248.641 219.867 248.641ZM216.198 241.443H223.583C223.537 240.742 223.334 240.127 222.976 239.597C222.633 239.051 222.189 238.631 221.644 238.335C221.114 238.023 220.522 237.867 219.867 237.867C219.229 237.867 218.637 238.023 218.091 238.335C217.561 238.631 217.125 239.051 216.782 239.597C216.44 240.127 216.245 240.742 216.198 241.443ZM239.189 248.408H236.618V241.56C236.618 240.423 236.431 239.589 236.057 239.059C235.699 238.53 235.161 238.265 234.445 238.265C233.946 238.265 233.447 238.389 232.949 238.639C232.466 238.888 232.03 239.231 231.64 239.667C231.251 240.088 230.97 240.578 230.799 241.139V248.408H228.228V236.185H230.565V238.639C230.877 238.093 231.282 237.626 231.78 237.236C232.294 236.831 232.871 236.52 233.51 236.301C234.149 236.083 234.826 235.974 235.543 235.974C236.275 235.974 236.875 236.107 237.343 236.372C237.826 236.636 238.2 237.003 238.464 237.47C238.745 237.922 238.932 238.452 239.025 239.059C239.134 239.651 239.189 240.282 239.189 240.952V248.408ZM235.403 234.034C234.935 234.034 234.53 233.949 234.187 233.777C233.86 233.606 233.556 233.442 233.276 233.287C233.011 233.115 232.707 233.03 232.365 233.03C232.022 233.03 231.765 233.115 231.593 233.287C231.437 233.458 231.336 233.637 231.289 233.824C231.243 234.011 231.219 234.12 231.219 234.151H229.77C229.77 234.027 229.809 233.824 229.887 233.544C229.965 233.248 230.098 232.944 230.285 232.632C230.487 232.305 230.744 232.032 231.056 231.814C231.383 231.581 231.788 231.464 232.271 231.464C232.738 231.464 233.128 231.549 233.44 231.721C233.751 231.892 234.047 232.064 234.328 232.235C234.624 232.406 234.959 232.492 235.333 232.492C235.722 232.492 236.003 232.406 236.174 232.235C236.345 232.048 236.454 231.861 236.501 231.674C236.564 231.487 236.595 231.378 236.595 231.347H238.067C238.067 231.456 238.02 231.651 237.927 231.931C237.849 232.212 237.709 232.515 237.506 232.843C237.304 233.17 237.031 233.45 236.688 233.684C236.345 233.918 235.917 234.034 235.403 234.034ZM247.665 248.641C246.699 248.641 245.834 248.478 245.071 248.151C244.307 247.808 243.645 247.34 243.084 246.748C242.539 246.156 242.118 245.486 241.822 244.738C241.526 243.975 241.378 243.165 241.378 242.308C241.378 241.451 241.526 240.641 241.822 239.877C242.118 239.114 242.539 238.444 243.084 237.867C243.645 237.275 244.307 236.816 245.071 236.488C245.85 236.146 246.715 235.974 247.665 235.974C248.616 235.974 249.472 236.146 250.236 236.488C251.015 236.816 251.677 237.275 252.222 237.867C252.783 238.444 253.212 239.114 253.508 239.877C253.804 240.641 253.952 241.451 253.952 242.308C253.952 243.165 253.804 243.975 253.508 244.738C253.212 245.486 252.783 246.156 252.222 246.748C251.677 247.34 251.015 247.808 250.236 248.151C249.472 248.478 248.616 248.641 247.665 248.641ZM244.019 242.331C244.019 243.11 244.183 243.811 244.51 244.435C244.837 245.058 245.273 245.549 245.819 245.907C246.364 246.265 246.98 246.445 247.665 246.445C248.335 246.445 248.943 246.265 249.488 245.907C250.049 245.533 250.493 245.034 250.82 244.411C251.147 243.772 251.311 243.071 251.311 242.308C251.311 241.529 251.147 240.828 250.82 240.204C250.493 239.581 250.049 239.09 249.488 238.732C248.943 238.358 248.335 238.171 247.665 238.171C246.98 238.171 246.364 238.358 245.819 238.732C245.273 239.106 244.837 239.605 244.51 240.228C244.183 240.835 244.019 241.537 244.019 242.331ZM269.251 248.525C267.927 248.525 266.805 248.299 265.886 247.847C264.982 247.395 264.25 246.78 263.689 246C263.144 245.221 262.739 244.333 262.474 243.336C262.225 242.339 262.1 241.303 262.1 240.228V231.814H264.717V240.228C264.717 240.991 264.795 241.731 264.951 242.448C265.107 243.149 265.356 243.78 265.699 244.341C266.042 244.902 266.501 245.346 267.078 245.673C267.67 246 268.394 246.164 269.251 246.164C270.124 246.164 270.848 246 271.425 245.673C272.017 245.331 272.477 244.879 272.804 244.318C273.147 243.741 273.396 243.102 273.552 242.401C273.708 241.7 273.785 240.976 273.785 240.228V231.814H276.426V240.228C276.426 241.365 276.286 242.44 276.006 243.453C275.741 244.45 275.32 245.331 274.744 246.094C274.183 246.842 273.45 247.434 272.547 247.87C271.643 248.306 270.545 248.525 269.251 248.525ZM280.959 231.814L285.54 238.335L290.121 231.814H293.019L287.036 240.228L292.832 248.408H289.934L285.54 242.121L281.146 248.408H278.225L284.021 240.228L278.038 231.814H280.959ZM307.942 231.814L296.561 248.408H293.709L305.091 231.814H307.942ZM317.386 248.525C316.061 248.525 314.94 248.299 314.02 247.847C313.117 247.395 312.384 246.78 311.824 246C311.278 245.221 310.873 244.333 310.608 243.336C310.359 242.339 310.234 241.303 310.234 240.228V231.814H312.852V240.228C312.852 240.991 312.93 241.731 313.086 242.448C313.241 243.149 313.491 243.78 313.833 244.341C314.176 244.902 314.636 245.346 315.212 245.673C315.804 246 316.529 246.164 317.386 246.164C318.258 246.164 318.983 246 319.559 245.673C320.151 245.331 320.611 244.879 320.938 244.318C321.281 243.741 321.53 243.102 321.686 242.401C321.842 241.7 321.92 240.976 321.92 240.228V231.814H324.561V240.228C324.561 241.365 324.421 242.44 324.14 243.453C323.875 244.45 323.455 245.331 322.878 246.094C322.317 246.842 321.585 247.434 320.681 247.87C319.777 248.306 318.679 248.525 317.386 248.525ZM328.042 248.408V231.814H330.66V248.408H328.042Z" fill="white"/>
<path d="M270.32 164.959C270.32 163.947 270.499 162.957 270.858 161.991C271.216 161.01 271.738 160.122 272.424 159.327C273.125 158.517 273.974 157.878 274.971 157.411C275.968 156.928 277.098 156.686 278.36 156.686C279.856 156.686 281.149 157.029 282.239 157.714C283.33 158.384 284.14 159.249 284.67 160.309L282.613 161.688C282.302 161.018 281.904 160.488 281.421 160.098C280.954 159.709 280.44 159.436 279.879 159.28C279.334 159.124 278.796 159.047 278.266 159.047C277.394 159.047 276.63 159.226 275.976 159.584C275.322 159.927 274.768 160.387 274.317 160.963C273.88 161.539 273.545 162.186 273.312 162.903C273.094 163.62 272.984 164.336 272.984 165.053C272.984 165.848 273.117 166.619 273.382 167.367C273.647 168.099 274.013 168.753 274.48 169.33C274.963 169.891 275.532 170.335 276.186 170.662C276.841 170.989 277.557 171.153 278.336 171.153C278.866 171.153 279.419 171.059 279.996 170.872C280.572 170.685 281.102 170.397 281.585 170.008C282.084 169.603 282.473 169.073 282.754 168.418L284.927 169.657C284.584 170.483 284.047 171.184 283.315 171.76C282.598 172.337 281.788 172.773 280.884 173.069C279.996 173.365 279.116 173.513 278.243 173.513C277.074 173.513 276.007 173.272 275.041 172.789C274.075 172.29 273.242 171.636 272.54 170.826C271.839 170 271.294 169.081 270.904 168.068C270.515 167.039 270.32 166.003 270.32 164.959ZM292.49 173.607C291.524 173.607 290.66 173.443 289.896 173.116C289.133 172.773 288.471 172.306 287.91 171.714C287.364 171.122 286.944 170.452 286.648 169.704C286.352 168.94 286.204 168.13 286.204 167.273C286.204 166.416 286.352 165.606 286.648 164.843C286.944 164.079 287.364 163.409 287.91 162.833C288.471 162.241 289.133 161.781 289.896 161.454C290.675 161.111 291.54 160.94 292.49 160.94C293.441 160.94 294.298 161.111 295.061 161.454C295.84 161.781 296.502 162.241 297.048 162.833C297.609 163.409 298.037 164.079 298.333 164.843C298.629 165.606 298.777 166.416 298.777 167.273C298.777 168.13 298.629 168.94 298.333 169.704C298.037 170.452 297.609 171.122 297.048 171.714C296.502 172.306 295.84 172.773 295.061 173.116C294.298 173.443 293.441 173.607 292.49 173.607ZM288.845 167.297C288.845 168.076 289.008 168.777 289.335 169.4C289.662 170.023 290.099 170.514 290.644 170.872C291.189 171.231 291.805 171.41 292.49 171.41C293.16 171.41 293.768 171.231 294.313 170.872C294.874 170.498 295.318 170 295.645 169.377C295.973 168.738 296.136 168.037 296.136 167.273C296.136 166.494 295.973 165.793 295.645 165.17C295.318 164.547 294.874 164.056 294.313 163.697C293.768 163.323 293.16 163.137 292.49 163.137C291.805 163.137 291.189 163.323 290.644 163.697C290.099 164.071 289.662 164.57 289.335 165.193C289.008 165.801 288.845 166.502 288.845 167.297ZM312.018 173.373H309.448V166.525C309.448 165.388 309.261 164.554 308.887 164.025C308.528 163.495 307.991 163.23 307.274 163.23C306.775 163.23 306.277 163.355 305.778 163.604C305.295 163.853 304.859 164.196 304.47 164.632C304.08 165.053 303.8 165.544 303.628 166.105V173.373H301.057V161.15H303.394V163.604C303.706 163.059 304.111 162.591 304.61 162.202C305.124 161.797 305.7 161.485 306.339 161.267C306.978 161.049 307.656 160.94 308.373 160.94C309.105 160.94 309.705 161.072 310.172 161.337C310.655 161.602 311.029 161.968 311.294 162.435C311.574 162.887 311.761 163.417 311.855 164.025C311.964 164.617 312.018 165.248 312.018 165.918V173.373ZM319.349 173.607C318.321 173.607 317.347 173.443 316.428 173.116C315.509 172.773 314.722 172.267 314.068 171.597L315.026 169.867C315.727 170.491 316.428 170.942 317.129 171.223C317.846 171.503 318.555 171.644 319.256 171.644C319.973 171.644 320.557 171.511 321.009 171.246C321.461 170.966 321.687 170.561 321.687 170.031C321.687 169.641 321.57 169.353 321.336 169.166C321.102 168.979 320.759 168.816 320.308 168.675C319.871 168.535 319.342 168.379 318.718 168.208C317.846 167.943 317.114 167.671 316.522 167.39C315.929 167.094 315.485 166.736 315.189 166.315C314.893 165.894 314.745 165.357 314.745 164.702C314.745 163.908 314.948 163.23 315.353 162.669C315.758 162.108 316.319 161.68 317.036 161.384C317.768 161.088 318.609 160.94 319.56 160.94C320.448 160.94 321.266 161.08 322.014 161.36C322.777 161.625 323.447 162.046 324.024 162.622L322.925 164.328C322.38 163.83 321.819 163.464 321.242 163.23C320.682 162.996 320.074 162.879 319.42 162.879C319.046 162.879 318.687 162.926 318.344 163.02C318.002 163.098 317.713 163.253 317.48 163.487C317.262 163.705 317.153 164.017 317.153 164.422C317.153 164.749 317.246 165.014 317.433 165.217C317.62 165.419 317.9 165.59 318.274 165.731C318.648 165.871 319.108 166.027 319.653 166.198C320.604 166.479 321.414 166.759 322.084 167.039C322.754 167.304 323.268 167.655 323.626 168.091C324 168.512 324.187 169.096 324.187 169.844C324.187 171.028 323.743 171.955 322.855 172.625C321.983 173.28 320.814 173.607 319.349 173.607ZM333.261 172.742C333.043 172.851 332.77 172.968 332.443 173.093C332.116 173.217 331.742 173.326 331.321 173.42C330.916 173.513 330.495 173.56 330.059 173.56C329.529 173.56 329.038 173.467 328.586 173.28C328.135 173.093 327.769 172.797 327.488 172.391C327.223 171.971 327.091 171.433 327.091 170.779V163.137H325.478V161.15H327.091V157.13H329.662V161.15H332.326V163.137H329.662V169.961C329.693 170.382 329.825 170.693 330.059 170.896C330.308 171.098 330.612 171.2 330.97 171.2C331.329 171.2 331.671 171.137 331.999 171.013C332.326 170.888 332.567 170.787 332.723 170.709L333.261 172.742ZM341.912 163.37C340.915 163.386 340.027 163.612 339.248 164.048C338.485 164.484 337.939 165.1 337.612 165.894V173.373H335.041V161.15H337.425V163.884C337.846 163.043 338.399 162.373 339.085 161.874C339.77 161.36 340.495 161.08 341.258 161.033C341.414 161.033 341.538 161.033 341.632 161.033C341.741 161.033 341.834 161.041 341.912 161.056V163.37ZM343.666 168.629V161.15H346.237V168.115C346.237 169.205 346.431 170.031 346.821 170.592C347.226 171.137 347.81 171.41 348.574 171.41C349.057 171.41 349.524 171.309 349.976 171.106C350.443 170.904 350.864 170.607 351.238 170.218C351.628 169.813 351.939 169.33 352.173 168.769V161.15H354.744V170.475C354.744 170.771 354.798 170.981 354.907 171.106C355.016 171.231 355.196 171.301 355.445 171.316V173.373C355.18 173.42 354.962 173.451 354.79 173.467C354.619 173.482 354.455 173.49 354.3 173.49C353.832 173.49 353.443 173.365 353.131 173.116C352.819 172.851 352.64 172.516 352.594 172.111L352.547 170.896C352.001 171.784 351.293 172.462 350.42 172.929C349.548 173.381 348.589 173.607 347.545 173.607C346.268 173.607 345.302 173.186 344.647 172.345C343.993 171.503 343.666 170.265 343.666 168.629ZM363.563 173.607C362.613 173.607 361.748 173.443 360.969 173.116C360.206 172.773 359.544 172.306 358.983 171.714C358.422 171.122 357.985 170.444 357.674 169.68C357.378 168.917 357.23 168.107 357.23 167.25C357.23 166.097 357.487 165.045 358.001 164.095C358.531 163.144 359.263 162.381 360.198 161.804C361.148 161.228 362.27 160.94 363.563 160.94C364.81 160.94 365.893 161.22 366.812 161.781C367.747 162.326 368.432 163.059 368.869 163.978L366.368 164.772C366.087 164.258 365.69 163.861 365.176 163.581C364.677 163.285 364.124 163.137 363.517 163.137C362.831 163.137 362.208 163.316 361.647 163.674C361.102 164.017 360.665 164.5 360.338 165.123C360.027 165.731 359.871 166.44 359.871 167.25C359.871 168.029 360.034 168.738 360.362 169.377C360.689 170 361.125 170.498 361.67 170.872C362.231 171.231 362.854 171.41 363.54 171.41C363.961 171.41 364.366 171.34 364.755 171.2C365.16 171.044 365.511 170.841 365.807 170.592C366.103 170.327 366.313 170.039 366.438 169.727L368.962 170.475C368.697 171.083 368.3 171.62 367.77 172.088C367.256 172.555 366.641 172.929 365.924 173.209C365.223 173.474 364.436 173.607 363.563 173.607ZM376.504 173.607C375.554 173.607 374.689 173.443 373.91 173.116C373.147 172.773 372.484 172.306 371.923 171.714C371.363 171.122 370.926 170.444 370.615 169.68C370.319 168.917 370.171 168.107 370.171 167.25C370.171 166.097 370.428 165.045 370.942 164.095C371.472 163.144 372.204 162.381 373.139 161.804C374.089 161.228 375.211 160.94 376.504 160.94C377.751 160.94 378.833 161.22 379.753 161.781C380.688 162.326 381.373 163.059 381.809 163.978L379.309 164.772C379.028 164.258 378.631 163.861 378.117 163.581C377.618 163.285 377.065 163.137 376.457 163.137C375.772 163.137 375.149 163.316 374.588 163.674C374.042 164.017 373.606 164.5 373.279 165.123C372.967 165.731 372.812 166.44 372.812 167.25C372.812 168.029 372.975 168.738 373.302 169.377C373.63 170 374.066 170.498 374.611 170.872C375.172 171.231 375.795 171.41 376.481 171.41C376.901 171.41 377.307 171.34 377.696 171.2C378.101 171.044 378.452 170.841 378.748 170.592C379.044 170.327 379.254 170.039 379.379 169.727L381.903 170.475C381.638 171.083 381.241 171.62 380.711 172.088C380.197 172.555 379.581 172.929 378.865 173.209C378.164 173.474 377.377 173.607 376.504 173.607ZM384.02 173.373V161.15H386.591V173.373H384.02ZM384.02 159.14V156.312H386.591V159.14H384.02ZM395.173 173.607C394.207 173.607 393.342 173.443 392.578 173.116C391.815 172.773 391.153 172.306 390.592 171.714C390.046 171.122 389.626 170.452 389.33 169.704C389.034 168.94 388.886 168.13 388.886 167.273C388.886 166.416 389.034 165.606 389.33 164.843C389.626 164.079 390.046 163.409 390.592 162.833C391.153 162.241 391.815 161.781 392.578 161.454C393.357 161.111 394.222 160.94 395.173 160.94C396.123 160.94 396.98 161.111 397.743 161.454C398.522 161.781 399.185 162.241 399.73 162.833C400.291 163.409 400.719 164.079 401.015 164.843C401.311 165.606 401.459 166.416 401.459 167.273C401.459 168.13 401.311 168.94 401.015 169.704C400.719 170.452 400.291 171.122 399.73 171.714C399.185 172.306 398.522 172.773 397.743 173.116C396.98 173.443 396.123 173.607 395.173 173.607ZM391.527 167.297C391.527 168.076 391.69 168.777 392.017 169.4C392.345 170.023 392.781 170.514 393.326 170.872C393.872 171.231 394.487 171.41 395.173 171.41C395.843 171.41 396.45 171.231 396.995 170.872C397.556 170.498 398 170 398.328 169.377C398.655 168.738 398.818 168.037 398.818 167.273C398.818 166.494 398.655 165.793 398.328 165.17C398 164.547 397.556 164.056 396.995 163.697C396.45 163.323 395.843 163.137 395.173 163.137C394.487 163.137 393.872 163.323 393.326 163.697C392.781 164.071 392.345 164.57 392.017 165.193C391.69 165.801 391.527 166.502 391.527 167.297ZM396.037 159.397L394.355 158.883L395.687 156.312H398.141L396.037 159.397ZM414.701 173.373H412.13V166.525C412.13 165.388 411.943 164.554 411.569 164.025C411.21 163.495 410.673 163.23 409.956 163.23C409.458 163.23 408.959 163.355 408.46 163.604C407.977 163.853 407.541 164.196 407.152 164.632C406.762 165.053 406.482 165.544 406.31 166.105V173.373H403.74V161.15H406.077V163.604C406.388 163.059 406.793 162.591 407.292 162.202C407.806 161.797 408.383 161.485 409.021 161.267C409.66 161.049 410.338 160.94 411.055 160.94C411.787 160.94 412.387 161.072 412.854 161.337C413.337 161.602 413.711 161.968 413.976 162.435C414.257 162.887 414.443 163.417 414.537 164.025C414.646 164.617 414.701 165.248 414.701 165.918V173.373Z" fill="white"/>
<path d="M417.55 85.8677H412.034V100.147H409.393V85.8677H403.854V83.554H417.55V85.8677ZM422.522 100.381C421.572 100.381 420.707 100.218 419.928 99.8904C419.164 99.5476 418.502 99.088 417.941 98.5115C417.38 97.9194 416.944 97.2494 416.632 96.5016C416.336 95.7381 416.188 94.9279 416.188 94.071C416.188 92.918 416.453 91.8663 416.983 90.9159C417.513 89.9499 418.253 89.1786 419.203 88.6021C420.154 88.0101 421.268 87.714 422.545 87.714C423.823 87.714 424.921 88.0101 425.841 88.6021C426.775 89.1786 427.5 89.9421 428.014 90.8925C428.528 91.8429 428.785 92.8635 428.785 93.9541C428.785 94.1411 428.778 94.3203 428.762 94.4917C428.746 94.6475 428.731 94.7799 428.715 94.889H418.923C418.97 95.6057 419.164 96.2367 419.507 96.782C419.865 97.3118 420.317 97.7324 420.863 98.0441C421.408 98.3401 421.992 98.4881 422.615 98.4881C423.301 98.4881 423.948 98.3167 424.555 97.9739C425.178 97.6312 425.599 97.1793 425.817 96.6184L428.014 97.2494C427.749 97.8415 427.344 98.379 426.799 98.8621C426.269 99.3295 425.638 99.7034 424.906 99.9839C424.174 100.249 423.379 100.381 422.522 100.381ZM418.853 93.1829H426.238C426.191 92.4817 425.989 91.8663 425.63 91.3366C425.288 90.7912 424.843 90.3706 424.298 90.0745C423.768 89.7629 423.176 89.6071 422.522 89.6071C421.883 89.6071 421.291 89.7629 420.746 90.0745C420.216 90.3706 419.78 90.7912 419.437 91.3366C419.094 91.8663 418.899 92.4817 418.853 93.1829ZM435.229 100.381C434.201 100.381 433.227 100.218 432.308 99.8904C431.389 99.5476 430.602 99.0412 429.948 98.3713L430.906 96.6418C431.607 97.265 432.308 97.7169 433.009 97.9973C433.726 98.2778 434.435 98.418 435.136 98.418C435.853 98.418 436.437 98.2856 436.889 98.0207C437.341 97.7402 437.567 97.3351 437.567 96.8054C437.567 96.4159 437.45 96.1276 437.216 95.9407C436.982 95.7537 436.639 95.5901 436.188 95.4499C435.751 95.3096 435.222 95.1538 434.598 94.9825C433.726 94.7176 432.994 94.4449 432.402 94.1645C431.809 93.8684 431.365 93.5101 431.069 93.0894C430.773 92.6687 430.625 92.1312 430.625 91.4768C430.625 90.6822 430.828 90.0044 431.233 89.4435C431.638 88.8826 432.199 88.4541 432.916 88.1581C433.648 87.8621 434.489 87.714 435.44 87.714C436.328 87.714 437.146 87.8543 437.894 88.1347C438.657 88.3996 439.327 88.8203 439.904 89.3968L438.805 91.1028C438.26 90.6043 437.699 90.2381 437.122 90.0044C436.562 89.7707 435.954 89.6538 435.3 89.6538C434.926 89.6538 434.567 89.7006 434.224 89.7941C433.882 89.872 433.593 90.0278 433.36 90.2615C433.142 90.4796 433.033 90.7912 433.033 91.1963C433.033 91.5235 433.126 91.7884 433.313 91.991C433.5 92.1935 433.78 92.3649 434.154 92.5051C434.528 92.6453 434.988 92.8011 435.533 92.9725C436.484 93.253 437.294 93.5334 437.964 93.8139C438.634 94.0788 439.148 94.4293 439.506 94.8656C439.88 95.2863 440.067 95.8706 440.067 96.6184C440.067 97.8026 439.623 98.7296 438.735 99.3996C437.863 100.054 436.694 100.381 435.229 100.381ZM449.141 99.5164C448.923 99.6255 448.65 99.7424 448.323 99.867C447.996 99.9917 447.622 100.101 447.201 100.194C446.796 100.288 446.375 100.334 445.939 100.334C445.409 100.334 444.918 100.241 444.466 100.054C444.015 99.867 443.648 99.571 443.368 99.1659C443.103 98.7452 442.971 98.2077 442.971 97.5533V89.9109H441.358V87.9244H442.971V83.9046H445.542V87.9244H448.206V89.9109H445.542V96.7353C445.573 97.156 445.705 97.4676 445.939 97.6701C446.188 97.8727 446.492 97.9739 446.85 97.9739C447.209 97.9739 447.551 97.9116 447.879 97.787C448.206 97.6623 448.447 97.5611 448.603 97.4832L449.141 99.5164ZM450.921 100.147V87.9244H453.492V100.147H450.921ZM450.921 85.9145V83.0866H453.492V85.9145H450.921ZM467.543 100.147H464.972V93.2997C464.972 92.1623 464.785 91.3288 464.411 90.799C464.052 90.2693 463.515 90.0044 462.798 90.0044C462.3 90.0044 461.801 90.1291 461.302 90.3783C460.819 90.6276 460.383 90.9704 459.994 91.4067C459.604 91.8274 459.324 92.3181 459.152 92.8791V100.147H456.581V87.9244H458.919V90.3783C459.23 89.833 459.635 89.3656 460.134 88.9761C460.648 88.571 461.225 88.2594 461.863 88.0412C462.502 87.8231 463.18 87.714 463.897 87.714C464.629 87.714 465.229 87.8465 465.696 88.1113C466.179 88.3762 466.553 88.7424 466.818 89.2098C467.098 89.6616 467.285 90.1914 467.379 90.799C467.488 91.3911 467.543 92.0221 467.543 92.6921V100.147ZM475.364 100.264C474.539 100.264 473.783 100.101 473.097 99.7735C472.412 99.4307 471.82 98.9711 471.321 98.3946C470.838 97.8181 470.456 97.156 470.176 96.4081C469.911 95.6602 469.779 94.8734 469.779 94.0476C469.779 93.1751 469.919 92.3571 470.199 91.5936C470.48 90.8302 470.869 90.1602 471.368 89.5837C471.882 88.9917 472.482 88.532 473.167 88.2048C473.853 87.8776 474.616 87.714 475.458 87.714C476.439 87.714 477.296 87.9478 478.029 88.4152C478.777 88.8826 479.392 89.4902 479.875 90.2381V87.9244H482.142V99.7969C482.142 100.981 481.854 101.986 481.277 102.812C480.716 103.638 479.945 104.269 478.963 104.705C477.982 105.141 476.876 105.359 475.645 105.359C474.289 105.359 473.167 105.126 472.279 104.658C471.391 104.191 470.636 103.552 470.012 102.742L471.461 101.386C471.929 102.041 472.529 102.539 473.261 102.882C474.009 103.225 474.803 103.396 475.645 103.396C476.346 103.396 476.993 103.264 477.585 102.999C478.192 102.749 478.675 102.352 479.034 101.807C479.392 101.277 479.571 100.607 479.571 99.7969V97.9272C479.135 98.6595 478.535 99.236 477.772 99.6567C477.008 100.062 476.206 100.264 475.364 100.264ZM476.206 98.1843C476.595 98.1843 476.969 98.122 477.328 97.9973C477.686 97.8571 478.013 97.6779 478.309 97.4598C478.621 97.2261 478.886 96.969 479.104 96.6885C479.322 96.3925 479.478 96.0809 479.571 95.7537V92.5519C479.369 92.0221 479.08 91.5625 478.706 91.173C478.332 90.7679 477.912 90.4562 477.444 90.2381C476.977 90.02 476.502 89.9109 476.019 89.9109C475.458 89.9109 474.951 90.0356 474.5 90.2849C474.063 90.5186 473.689 90.838 473.378 91.2431C473.066 91.6326 472.825 92.0766 472.653 92.5752C472.482 93.0738 472.396 93.588 472.396 94.1177C472.396 94.6786 472.49 95.2006 472.677 95.6836C472.879 96.1666 473.152 96.6028 473.495 96.9924C473.837 97.3663 474.243 97.6623 474.71 97.8805C475.177 98.083 475.676 98.1843 476.206 98.1843Z" fill="white"/>
<path d="M481.712 27V10.4065H487.601C489.393 10.4065 490.889 10.7805 492.088 11.5283C493.288 12.2606 494.184 13.2578 494.776 14.5198C495.384 15.7663 495.688 17.153 495.688 18.6799C495.688 20.3626 495.353 21.8272 494.683 23.0737C494.028 24.3201 493.093 25.2861 491.878 25.9717C490.663 26.6572 489.237 27 487.601 27H481.712ZM493.023 18.6799C493.023 17.5113 492.805 16.483 492.369 15.5949C491.948 14.6912 491.333 13.9901 490.523 13.4915C489.728 12.9773 488.754 12.7203 487.601 12.7203H484.329V24.6863H487.601C488.77 24.6863 489.751 24.4214 490.546 23.8916C491.356 23.3619 491.972 22.6452 492.392 21.7415C492.813 20.8378 493.023 19.8173 493.023 18.6799ZM503.653 27.2337C502.703 27.2337 501.838 27.0701 501.059 26.7429C500.295 26.4001 499.633 25.9405 499.072 25.364C498.511 24.772 498.075 24.102 497.763 23.3541C497.467 22.5907 497.319 21.7805 497.319 20.9235C497.319 19.7705 497.584 18.7188 498.114 17.7684C498.644 16.8024 499.384 16.0312 500.334 15.4547C501.285 14.8626 502.399 14.5666 503.676 14.5666C504.954 14.5666 506.052 14.8626 506.972 15.4547C507.907 16.0312 508.631 16.7946 509.145 17.745C509.659 18.6955 509.916 19.716 509.916 20.8067C509.916 20.9936 509.909 21.1728 509.893 21.3442C509.877 21.5 509.862 21.6324 509.846 21.7415H500.054C500.101 22.4582 500.295 23.0892 500.638 23.6346C500.996 24.1643 501.448 24.585 501.994 24.8966C502.539 25.1926 503.123 25.3407 503.746 25.3407C504.432 25.3407 505.079 25.1693 505.686 24.8265C506.309 24.4837 506.73 24.0319 506.948 23.471L509.145 24.102C508.88 24.6941 508.475 25.2316 507.93 25.7146C507.4 26.182 506.769 26.5559 506.037 26.8364C505.305 27.1013 504.51 27.2337 503.653 27.2337ZM499.984 20.0354H507.369C507.322 19.3343 507.12 18.7188 506.761 18.1891C506.419 17.6438 505.975 17.2231 505.429 16.9271C504.899 16.6154 504.307 16.4596 503.653 16.4596C503.014 16.4596 502.422 16.6154 501.877 16.9271C501.347 17.2231 500.911 17.6438 500.568 18.1891C500.225 18.7188 500.03 19.3343 499.984 20.0354ZM516.36 27.2337C515.332 27.2337 514.358 27.0701 513.439 26.7429C512.52 26.4001 511.733 25.8938 511.079 25.2238L512.037 23.4943C512.738 24.1176 513.439 24.5694 514.14 24.8499C514.857 25.1303 515.566 25.2705 516.267 25.2705C516.984 25.2705 517.568 25.1381 518.02 24.8732C518.472 24.5928 518.698 24.1877 518.698 23.6579C518.698 23.2684 518.581 22.9802 518.347 22.7932C518.113 22.6062 517.771 22.4426 517.319 22.3024C516.882 22.1622 516.353 22.0064 515.729 21.835C514.857 21.5701 514.125 21.2975 513.533 21.017C512.94 20.721 512.496 20.3626 512.2 19.9419C511.904 19.5213 511.756 18.9837 511.756 18.3293C511.756 17.5347 511.959 16.8569 512.364 16.296C512.769 15.7351 513.33 15.3067 514.047 15.0106C514.779 14.7146 515.62 14.5666 516.571 14.5666C517.459 14.5666 518.277 14.7068 519.025 14.9873C519.788 15.2521 520.458 15.6728 521.035 16.2493L519.936 17.9554C519.391 17.4568 518.83 17.0907 518.254 16.8569C517.693 16.6232 517.085 16.5064 516.431 16.5064C516.057 16.5064 515.698 16.5531 515.356 16.6466C515.013 16.7245 514.724 16.8803 514.491 17.114C514.273 17.3322 514.164 17.6438 514.164 18.0489C514.164 18.3761 514.257 18.6409 514.444 18.8435C514.631 19.046 514.911 19.2174 515.285 19.3577C515.659 19.4979 516.119 19.6537 516.664 19.8251C517.615 20.1055 518.425 20.386 519.095 20.6664C519.765 20.9313 520.279 21.2819 520.637 21.7181C521.011 22.1388 521.198 22.7231 521.198 23.471C521.198 24.6551 520.754 25.5822 519.866 26.2521C518.994 26.9065 517.825 27.2337 516.36 27.2337ZM530.435 27.2337C529.453 27.2337 528.588 27 527.841 26.5326C527.093 26.0652 526.501 25.4575 526.064 24.7096V31.978H523.494V14.7769H525.761V16.9738C526.228 16.2415 526.836 15.6572 527.584 15.221C528.331 14.7847 529.165 14.5666 530.084 14.5666C530.926 14.5666 531.697 14.738 532.398 15.0807C533.099 15.4079 533.707 15.8676 534.221 16.4596C534.735 17.0517 535.132 17.7295 535.413 18.4929C535.709 19.2408 535.857 20.0354 535.857 20.8768C535.857 22.0453 535.623 23.1126 535.156 24.0786C534.704 25.0446 534.065 25.8159 533.239 26.3924C532.429 26.9533 531.494 27.2337 530.435 27.2337ZM529.593 25.0368C530.139 25.0368 530.63 24.92 531.066 24.6863C531.518 24.4526 531.899 24.1409 532.211 23.7514C532.538 23.3619 532.787 22.9178 532.959 22.4193C533.13 21.9207 533.216 21.4065 533.216 20.8768C533.216 20.3159 533.122 19.7861 532.935 19.2875C532.749 18.789 532.476 18.3527 532.118 17.9788C531.775 17.6048 531.37 17.3088 530.902 17.0907C530.45 16.8725 529.952 16.7635 529.406 16.7635C529.079 16.7635 528.736 16.8258 528.378 16.9504C528.02 17.0751 527.685 17.2465 527.373 17.4646C527.062 17.6827 526.789 17.9398 526.555 18.2358C526.321 18.5319 526.158 18.8435 526.064 19.1707V22.3725C526.283 22.8711 526.571 23.3229 526.929 23.728C527.287 24.1176 527.7 24.437 528.168 24.6863C528.635 24.92 529.11 25.0368 529.593 25.0368ZM538.192 9.93911H540.763V23.471C540.763 24.0942 540.857 24.4915 541.044 24.6629C541.231 24.8343 541.464 24.92 541.745 24.92C542.056 24.92 542.345 24.8888 542.609 24.8265C542.89 24.7642 543.131 24.6863 543.334 24.5928L543.708 26.6261C543.334 26.7819 542.89 26.9143 542.376 27.0234C541.862 27.1324 541.402 27.187 540.997 27.187C540.124 27.187 539.439 26.9455 538.94 26.4625C538.442 25.9639 538.192 25.2783 538.192 24.4058V9.93911ZM545.199 27V14.7769H547.769V27H545.199ZM545.199 12.767V9.93911H547.769V12.767H545.199ZM556.398 27.2337C555.447 27.2337 554.583 27.0701 553.804 26.7429C553.04 26.4001 552.378 25.9405 551.817 25.364C551.256 24.772 550.82 24.102 550.508 23.3541C550.212 22.5907 550.064 21.7805 550.064 20.9235C550.064 19.7705 550.329 18.7188 550.859 17.7684C551.388 16.8024 552.129 16.0312 553.079 15.4547C554.029 14.8626 555.143 14.5666 556.421 14.5666C557.699 14.5666 558.797 14.8626 559.716 15.4547C560.651 16.0312 561.376 16.7946 561.89 17.745C562.404 18.6955 562.661 19.716 562.661 20.8067C562.661 20.9936 562.653 21.1728 562.638 21.3442C562.622 21.5 562.607 21.6324 562.591 21.7415H552.799C552.845 22.4582 553.04 23.0892 553.383 23.6346C553.741 24.1643 554.193 24.585 554.738 24.8966C555.284 25.1926 555.868 25.3407 556.491 25.3407C557.177 25.3407 557.823 25.1693 558.431 24.8265C559.054 24.4837 559.475 24.0319 559.693 23.471L561.89 24.102C561.625 24.6941 561.22 25.2316 560.675 25.7146C560.145 26.182 559.514 26.5559 558.782 26.8364C558.049 27.1013 557.255 27.2337 556.398 27.2337ZM552.728 20.0354H560.114C560.067 19.3343 559.864 18.7188 559.506 18.1891C559.163 17.6438 558.719 17.2231 558.174 16.9271C557.644 16.6154 557.052 16.4596 556.398 16.4596C555.759 16.4596 555.167 16.6154 554.621 16.9271C554.092 17.2231 553.655 17.6438 553.313 18.1891C552.97 18.7188 552.775 19.3343 552.728 20.0354ZM569.596 27.1169C568.77 27.1169 568.015 26.9533 567.329 26.6261C566.643 26.2833 566.051 25.8237 565.553 25.2472C565.07 24.6707 564.688 24.0085 564.408 23.2606C564.143 22.5128 564.01 21.7259 564.01 20.9001C564.01 20.0276 564.151 19.2096 564.431 18.4462C564.711 17.6827 565.101 17.0128 565.6 16.4363C566.114 15.8442 566.714 15.3846 567.399 15.0574C568.085 14.7302 568.848 14.5666 569.689 14.5666C570.671 14.5666 571.528 14.8003 572.26 15.2677C573.008 15.7351 573.624 16.3428 574.107 17.0907V14.7769H576.374V26.6494C576.374 27.8336 576.085 28.8385 575.509 29.6643C574.948 30.4901 574.177 31.1211 573.195 31.5574C572.214 31.9936 571.107 32.2118 569.876 32.2118C568.521 32.2118 567.399 31.978 566.511 31.5106C565.623 31.0432 564.867 30.4044 564.244 29.5942L565.693 28.2387C566.16 28.8931 566.76 29.3916 567.493 29.7344C568.24 30.0772 569.035 30.2486 569.876 30.2486C570.578 30.2486 571.224 30.1161 571.816 29.8513C572.424 29.602 572.907 29.2047 573.265 28.6593C573.624 28.1296 573.803 27.4596 573.803 26.6494V24.7797C573.367 25.512 572.767 26.0885 572.003 26.5092C571.24 26.9143 570.437 27.1169 569.596 27.1169ZM570.437 25.0368C570.827 25.0368 571.201 24.9745 571.559 24.8499C571.917 24.7096 572.245 24.5305 572.541 24.3123C572.852 24.0786 573.117 23.8215 573.335 23.5411C573.553 23.245 573.709 22.9334 573.803 22.6062V19.4044C573.6 18.8747 573.312 18.415 572.938 18.0255C572.564 17.6204 572.143 17.3088 571.676 17.0907C571.209 16.8725 570.733 16.7635 570.25 16.7635C569.689 16.7635 569.183 16.8881 568.731 17.1374C568.295 17.3711 567.921 17.6905 567.609 18.0956C567.298 18.4851 567.056 18.9292 566.885 19.4278C566.714 19.9264 566.628 20.4405 566.628 20.9703C566.628 21.5312 566.721 22.0531 566.908 22.5361C567.111 23.0191 567.384 23.4554 567.726 23.8449C568.069 24.2188 568.474 24.5149 568.942 24.733C569.409 24.9356 569.908 25.0368 570.437 25.0368ZM579.34 22.2557V14.7769H581.91V21.7415C581.91 22.8322 582.105 23.6579 582.495 24.2188C582.9 24.7642 583.484 25.0368 584.247 25.0368C584.73 25.0368 585.198 24.9356 585.65 24.733C586.117 24.5305 586.538 24.2344 586.912 23.8449C587.301 23.4398 587.613 22.9568 587.847 22.3959V14.7769H590.417V24.102C590.417 24.398 590.472 24.6084 590.581 24.733C590.69 24.8577 590.869 24.9278 591.119 24.9433V27C590.854 27.0467 590.636 27.0779 590.464 27.0935C590.293 27.1091 590.129 27.1169 589.973 27.1169C589.506 27.1169 589.116 26.9922 588.805 26.7429C588.493 26.478 588.314 26.1431 588.267 25.738L588.221 24.5227C587.675 25.4108 586.966 26.0885 586.094 26.5559C585.221 27.0078 584.263 27.2337 583.219 27.2337C581.941 27.2337 580.975 26.813 580.321 25.9717C579.667 25.1303 579.34 23.8916 579.34 22.2557ZM599.237 27.2337C598.287 27.2337 597.422 27.0701 596.643 26.7429C595.879 26.4001 595.217 25.9405 594.656 25.364C594.095 24.772 593.659 24.102 593.348 23.3541C593.052 22.5907 592.904 21.7805 592.904 20.9235C592.904 19.7705 593.168 18.7188 593.698 17.7684C594.228 16.8024 594.968 16.0312 595.918 15.4547C596.869 14.8626 597.983 14.5666 599.26 14.5666C600.538 14.5666 601.637 14.8626 602.556 15.4547C603.491 16.0312 604.215 16.7946 604.729 17.745C605.243 18.6955 605.501 19.716 605.501 20.8067C605.501 20.9936 605.493 21.1728 605.477 21.3442C605.462 21.5 605.446 21.6324 605.43 21.7415H595.638C595.685 22.4582 595.879 23.0892 596.222 23.6346C596.581 24.1643 597.032 24.585 597.578 24.8966C598.123 25.1926 598.707 25.3407 599.331 25.3407C600.016 25.3407 600.663 25.1693 601.27 24.8265C601.894 24.4837 602.314 24.0319 602.532 23.471L604.729 24.102C604.464 24.6941 604.059 25.2316 603.514 25.7146C602.984 26.182 602.353 26.5559 601.621 26.8364C600.889 27.1013 600.094 27.2337 599.237 27.2337ZM595.568 20.0354H602.953C602.906 19.3343 602.704 18.7188 602.345 18.1891C602.003 17.6438 601.559 17.2231 601.013 16.9271C600.484 16.6154 599.891 16.4596 599.237 16.4596C598.598 16.4596 598.006 16.6154 597.461 16.9271C596.931 17.2231 596.495 17.6438 596.152 18.1891C595.809 18.7188 595.615 19.3343 595.568 20.0354Z" fill="white"/>
<defs>
<linearGradient id="paint0_linear_1879_10140" x1="62.0837" y1="241.905" x2="645.266" y2="241.905" gradientUnits="userSpaceOnUse">
<stop stop-color="#79DB92"/>
<stop offset="1" stop-color="#9CCE7C"/>
</linearGradient>
</defs>
</svg>
