<svg width="48" height="48" viewBox="0 0 48 48" fill="none" xmlns="http://www.w3.org/2000/svg">
<mask id="mask0_1879_9941" style="mask-type:alpha" maskUnits="userSpaceOnUse" x="0" y="0" width="48" height="48">
<rect width="48" height="48" fill="#D9D9D9"/>
</mask>
<g mask="url(#mask0_1879_9941)">
<path d="M12.5769 30.3269H29.8846V28.0577H12.5769V30.3269ZM33.1538 30.3269H35.423V28.0577H33.1538V30.3269ZM12.5769 24.2115H14.8461V21.9423H12.5769V24.2115ZM18.1154 24.2115H35.423V21.9423H18.1154V24.2115ZM7.88465 38.9999C7.10035 38.9999 6.4235 38.7152 5.8541 38.1458C5.2847 37.5764 5 36.8996 5 36.1153V11.8846C5 11.1003 5.2847 10.4235 5.8541 9.8541C6.4235 9.2847 7.10035 9 7.88465 9H40.1153C40.8996 9 41.5764 9.2847 42.1458 9.8541C42.7152 10.4235 42.9999 11.1003 42.9999 11.8846V36.1153C42.9999 36.8996 42.7152 37.5764 42.1458 38.1458C41.5764 38.7152 40.8996 38.9999 40.1153 38.9999H7.88465ZM7.88465 36.7307H40.1153C40.2691 36.7307 40.4102 36.6666 40.5384 36.5384C40.6666 36.4102 40.7307 36.2691 40.7307 36.1153V11.8846C40.7307 11.7308 40.6666 11.5897 40.5384 11.4615C40.4102 11.3333 40.2691 11.2692 40.1153 11.2692H7.88465C7.73078 11.2692 7.58973 11.3333 7.4615 11.4615C7.3333 11.5897 7.2692 11.7308 7.2692 11.8846V36.1153C7.2692 36.2691 7.3333 36.4102 7.4615 36.5384C7.58973 36.6666 7.73078 36.7307 7.88465 36.7307Z" fill="url(#paint0_linear_1879_9941)"/>
</g>
<defs>
<linearGradient id="paint0_linear_1879_9941" x1="5" y1="23.9295" x2="42.9999" y2="23.9295" gradientUnits="userSpaceOnUse">
<stop stop-color="#79DB92"/>
<stop offset="1" stop-color="#9CCE7C"/>
</linearGradient>
</defs>
</svg>
