<svg width="49" height="48" viewBox="0 0 49 48" fill="none" xmlns="http://www.w3.org/2000/svg">
<mask id="mask0_1879_9953" style="mask-type:alpha" maskUnits="userSpaceOnUse" x="0" y="0" width="49" height="48">
<rect x="0.333252" width="48" height="48" fill="#D9D9D9"/>
</mask>
<g mask="url(#mask0_1879_9953)">
<path d="M32.814 44.9999V42.7307H34.4485C34.6024 42.7307 34.7434 42.6666 34.8717 42.5384C34.9999 42.4102 35.064 42.2691 35.064 42.1153V9.67305H13.6025V23.5192H11.3333V5.88465C11.3333 5.10035 11.618 4.4235 12.1874 3.8541C12.7568 3.2847 13.4336 3 14.2179 3H34.4485C35.2328 3 35.9097 3.2847 36.4791 3.8541C37.0485 4.4235 37.3332 5.10035 37.3332 5.88465V42.1153C37.3332 42.8996 37.0485 43.5764 36.4791 44.1458C35.9097 44.7152 35.2328 45 34.4485 45L32.814 44.9999ZM11.3333 44.9999V38.8655C13.0512 38.8655 14.5031 39.4584 15.689 40.6443C16.8748 41.8301 17.4678 43.282 17.4678 45L11.3333 44.9999ZM21.1217 44.9999C21.1217 42.2691 20.173 39.955 18.2756 38.0576C16.3781 36.1602 14.064 35.2115 11.3333 35.2115V32.9423C14.6655 32.9423 17.5082 34.1188 19.8613 36.4719C22.2143 38.825 23.3909 41.6677 23.3909 44.9999L21.1217 44.9999ZM27.0448 44.9999C27.0448 40.6281 25.5209 36.9166 22.4731 33.8653C19.4253 30.814 15.712 29.2884 11.3333 29.2884V27.0193C13.8208 27.0193 16.1584 27.4916 18.346 28.4364C20.5336 29.3811 22.4362 30.6624 24.0538 32.2801C25.6713 33.8979 26.9524 35.8007 27.897 37.9886C28.8416 40.1765 29.3139 42.5136 29.3139 44.9999L27.0448 44.9999ZM13.6025 7.40385H35.064V5.88465C35.064 5.73078 34.9999 5.58974 34.8717 5.4615C34.7434 5.3333 34.6024 5.2692 34.4485 5.2692H14.2179C14.064 5.2692 13.923 5.3333 13.7948 5.4615C13.6666 5.58974 13.6025 5.73078 13.6025 5.88465V7.40385Z" fill="url(#paint0_linear_1879_9953)"/>
</g>
<defs>
<linearGradient id="paint0_linear_1879_9953" x1="11.3333" y1="23.9014" x2="37.3332" y2="23.9014" gradientUnits="userSpaceOnUse">
<stop stop-color="#79DB92"/>
<stop offset="1" stop-color="#9CCE7C"/>
</linearGradient>
</defs>
</svg>
