<svg width="474" height="441" viewBox="0 0 474 441" fill="none" xmlns="http://www.w3.org/2000/svg">
<g clip-path="url(#clip0_129_5666)">
<path d="M237.58 440.048C368.24 440.048 474.16 378.895 474.16 303.458C474.16 228.022 368.24 166.868 237.58 166.868C106.92 166.868 1 228.022 1 303.458C1 378.895 106.92 440.048 237.58 440.048Z" fill="#F0F0F0"/>
<path d="M373.19 387.808C392.581 387.808 408.3 378.733 408.3 367.538C408.3 356.343 392.581 347.268 373.19 347.268C353.799 347.268 338.08 356.343 338.08 367.538C338.08 378.733 353.799 387.808 373.19 387.808Z" fill="#E0E0E0"/>
<path d="M54.52 344.998L15.25 322.288C13.86 321.488 13.86 320.188 15.25 319.388L231.68 194.438C232.455 194.047 233.312 193.843 234.18 193.843C235.048 193.843 235.905 194.047 236.68 194.438L276 217.108C277.38 217.908 277.38 219.208 276 220.008L59.54 344.998C58.7621 345.393 57.9022 345.598 57.03 345.598C56.1578 345.598 55.2979 345.393 54.52 344.998Z" fill="#E0E0E0"/>
<path d="M190.73 309.458L222.35 291.168C225.61 289.288 227.23 286.828 227.24 284.358C227.25 281.888 227.24 279.958 227.24 279.958L189.2 258.398C188.283 257.802 187.519 256.998 186.972 256.051C186.424 255.104 186.108 254.041 186.05 252.948V213.998L130.82 245.908V284.908C130.883 286 131.201 287.061 131.748 288.007C132.295 288.954 133.056 289.759 133.97 290.358L167.12 309.498C173.64 313.218 184.21 313.218 190.73 309.458Z" fill="#79DB92"/>
<g opacity="0.5">
<path d="M190.73 309.458L222.35 291.168C225.61 289.288 227.23 286.828 227.24 284.358C227.25 281.888 227.24 279.958 227.24 279.958L189.2 258.398C188.283 257.802 187.519 256.998 186.972 256.051C186.424 255.104 186.108 254.041 186.05 252.948V213.998L130.82 245.908V284.908C130.883 286 131.201 287.061 131.748 288.007C132.295 288.954 133.056 289.759 133.97 290.358L167.12 309.498C173.64 313.218 184.21 313.218 190.73 309.458Z" fill="black"/>
</g>
<path d="M144.08 291.768V296.148L134 290.308C133.085 289.711 132.323 288.906 131.777 287.959C131.232 287.012 130.917 285.95 130.86 284.858V245.858L141.38 239.788C141.6 242.468 141.83 245.228 142.05 247.918L134.67 252.188V282.638C134.725 283.733 135.04 284.798 135.587 285.748C136.135 286.697 136.9 287.503 137.82 288.098L144.08 291.768Z" fill="#79DB92"/>
<path opacity="0.7" d="M144.08 291.768V296.148L134 290.308C133.085 289.711 132.323 288.906 131.777 287.959C131.232 287.012 130.917 285.95 130.86 284.858V245.858L141.38 239.788C141.6 242.468 141.83 245.228 142.05 247.918L134.67 252.188V282.638C134.725 283.733 135.04 284.798 135.587 285.748C136.135 286.697 136.9 287.503 137.82 288.098L144.08 291.768Z" fill="black"/>
<path d="M134.63 282.668C134.688 283.761 135.004 284.824 135.552 285.771C136.099 286.718 136.863 287.522 137.78 288.118L167.12 305.058C173.64 308.818 184.2 308.818 190.72 305.058L222.36 286.778C228.88 283.018 228.88 276.918 222.36 273.158L193.01 256.158C192.096 255.559 191.335 254.754 190.788 253.807C190.241 252.861 189.923 251.8 189.86 250.708V220.298L134.63 252.208V282.668Z" fill="#79DB92"/>
<path opacity="0.3" d="M134.63 282.668C134.688 283.761 135.004 284.824 135.552 285.771C136.099 286.718 136.863 287.522 137.78 288.118L167.12 305.058C173.64 308.818 184.2 308.818 190.72 305.058L222.36 286.778C228.88 283.018 228.88 276.918 222.36 273.158L193.01 256.158C192.096 255.559 191.335 254.754 190.788 253.807C190.241 252.861 189.923 251.8 189.86 250.708V220.298L134.63 252.208V282.668Z" fill="black"/>
<path opacity="0.7" d="M199.42 259.908L193.01 256.208C192.096 255.609 191.335 254.804 190.788 253.857C190.241 252.911 189.923 251.85 189.86 250.758V220.298L134.63 252.208V282.668C134.688 283.761 135.004 284.824 135.552 285.771C136.099 286.718 136.863 287.522 137.78 288.118L144.08 291.758L199.42 259.908Z" fill="#79DB92"/>
<path opacity="0.6" d="M199.42 259.908L193.01 256.208C192.096 255.609 191.335 254.804 190.788 253.857C190.241 252.911 189.923 251.85 189.86 250.758V220.298L134.63 252.208V282.668C134.688 283.761 135.004 284.824 135.552 285.771C136.099 286.718 136.863 287.522 137.78 288.118L144.08 291.758L199.42 259.908Z" fill="black"/>
<path d="M227.24 279.998V284.388C227.24 286.858 225.61 289.318 222.35 291.208L190.73 309.478C187.265 311.334 183.391 312.297 179.46 312.278V307.898C183.39 307.912 187.263 306.95 190.73 305.098L222.35 286.808C225.61 284.908 227.24 282.438 227.24 279.998Z" fill="#79DB92"/>
<path opacity="0.2" d="M227.24 279.998V284.388C227.24 286.858 225.61 289.318 222.35 291.208L190.73 309.478C187.265 311.334 183.391 312.297 179.46 312.278V307.898C183.39 307.912 187.263 306.95 190.73 305.098L222.35 286.808C225.61 284.908 227.24 282.438 227.24 279.998Z" fill="black"/>
<path d="M46 324.728C47.1926 325.303 48.5032 325.589 49.8267 325.565C51.1501 325.541 52.4494 325.206 53.62 324.588L267.16 201.278C268.307 200.531 269.261 199.525 269.946 198.34C270.631 197.155 271.026 195.825 271.1 194.458V7.51821C271.051 6.1937 270.691 4.89928 270.05 3.73909C269.409 2.57889 268.505 1.58529 267.41 0.838212C266.216 0.263707 264.903 -0.0228856 263.578 0.00142733C262.253 0.0257402 260.952 0.360282 259.78 0.978212L46.2 124.288C45.0561 125.037 44.1044 126.045 43.4217 127.23C42.739 128.414 42.3445 129.743 42.27 131.108V318.048C42.3225 319.377 42.6876 320.674 43.3357 321.835C43.9838 322.995 44.8966 323.987 46 324.728Z" fill="#79DB92"/>
<path opacity="0.3" d="M46 324.728C47.1926 325.303 48.5032 325.589 49.8267 325.565C51.1501 325.541 52.4494 325.206 53.62 324.588L267.16 201.278C268.307 200.531 269.261 199.525 269.946 198.34C270.631 197.155 271.026 195.825 271.1 194.458V7.51821C271.051 6.1937 270.691 4.89928 270.05 3.73909C269.409 2.57889 268.505 1.58529 267.41 0.838212C266.216 0.263707 264.903 -0.0228856 263.578 0.00142733C262.253 0.0257402 260.952 0.360282 259.78 0.978212L46.2 124.288C45.0561 125.037 44.1044 126.045 43.4217 127.23C42.739 128.414 42.3445 129.743 42.27 131.108V318.048C42.3225 319.377 42.6876 320.674 43.3357 321.835C43.9838 322.995 44.8966 323.987 46 324.728Z" fill="black"/>
<path d="M53.5799 324.578L267.16 201.268C268.307 200.524 269.262 199.519 269.947 198.336C270.632 197.152 271.027 195.824 271.1 194.458V7.5082C271.1 4.9982 269.34 3.9882 267.16 5.2382L53.5899 128.548C52.4427 129.292 51.4877 130.297 50.803 131.481C50.1182 132.664 49.7231 133.993 49.6499 135.358V322.358C49.6499 324.818 51.4099 325.838 53.5799 324.578Z" fill="#79DB92"/>
<path d="M53.5799 324.578L267.16 201.268C268.307 200.524 269.262 199.519 269.947 198.336C270.632 197.152 271.027 195.824 271.1 194.458V7.5082C271.1 4.9982 269.34 3.9882 267.16 5.2382L53.5899 128.548C52.4427 129.292 51.4877 130.297 50.803 131.481C50.1182 132.664 49.7231 133.993 49.6499 135.358V322.358C49.6499 324.818 51.4099 325.838 53.5799 324.578Z" fill="#79DB92"/>
<path opacity="0.5" d="M53.5799 324.578L267.16 201.268C268.307 200.524 269.262 199.519 269.947 198.336C270.632 197.152 271.027 195.824 271.1 194.458V7.5082C271.1 4.9982 269.34 3.9882 267.16 5.2382L53.5899 128.548C52.4427 129.292 51.4877 130.297 50.803 131.481C50.1182 132.664 49.7231 133.993 49.6499 135.358V322.358C49.6499 324.818 51.4099 325.838 53.5799 324.578Z" fill="black"/>
<path d="M53 324.878C51.8893 325.351 50.6908 325.582 49.4839 325.556C48.277 325.531 47.0894 325.248 46 324.728C44.8887 323.982 43.9702 322.983 43.32 321.813C42.6699 320.643 42.3066 319.336 42.26 317.998V296.998L49.64 301.268V322.268C49.64 324.608 51.1 325.638 53 324.878Z" fill="#79DB92"/>
<path opacity="0.7" d="M53 324.878C51.8893 325.351 50.6908 325.582 49.4839 325.556C48.277 325.531 47.0894 325.248 46 324.728C44.8887 323.982 43.9702 322.983 43.32 321.813C42.6699 320.643 42.3066 319.336 42.26 317.998V296.998L49.64 301.268V322.268C49.64 324.608 51.1 325.638 53 324.878Z" fill="black"/>
<path d="M49.6499 301.278V322.278C49.6499 324.788 51.4099 325.808 53.5799 324.548L267.16 201.268C268.307 200.524 269.262 199.519 269.947 198.336C270.632 197.152 271.027 195.824 271.1 194.458V173.458L49.6499 301.278Z" fill="#79DB92"/>
<g opacity="0.5">
<path d="M49.6499 301.278V322.278C49.6499 324.788 51.4099 325.808 53.5799 324.548L267.16 201.268C268.307 200.524 269.262 199.519 269.947 198.336C270.632 197.152 271.027 195.824 271.1 194.458V173.458L49.6499 301.278Z" fill="black"/>
</g>
<path d="M57 285.768V137.768C57.0458 136.951 57.2833 136.155 57.6933 135.447C58.1033 134.738 58.6742 134.136 59.36 133.688L261.36 17.0782C262.67 16.3282 263.72 16.9382 263.72 18.4482V166.448C263.675 167.267 263.438 168.064 263.028 168.775C262.618 169.485 262.047 170.089 261.36 170.538L59.36 287.138C58.08 287.888 57 287.278 57 285.768Z" fill="#FAFAFA"/>
<path d="M160.37 245.878C159.295 246.58 158.4 247.525 157.759 248.637C157.118 249.749 156.748 250.996 156.68 252.278C156.68 254.628 158.33 255.588 160.37 254.408C161.445 253.707 162.34 252.762 162.981 251.65C163.622 250.538 163.992 249.29 164.06 248.008C164.06 245.658 162.41 244.708 160.37 245.878Z" fill="#79DB92"/>
<path opacity="0.5" d="M160.37 245.878C159.295 246.58 158.4 247.525 157.759 248.637C157.118 249.749 156.748 250.996 156.68 252.278C156.68 254.628 158.33 255.588 160.37 254.408C161.445 253.707 162.34 252.762 162.981 251.65C163.622 250.538 163.992 249.29 164.06 248.008C164.06 245.658 162.41 244.708 160.37 245.878Z" fill="white"/>
<path d="M50.8 131.468C50.1052 132.652 49.7072 133.987 49.64 135.358V301.288L42.26 296.998V131.108C42.315 129.733 42.7175 128.395 43.43 127.218L50.8 131.468Z" fill="#79DB92"/>
<path opacity="0.7" d="M50.8 131.468C50.1052 132.652 49.7072 133.987 49.64 135.358V301.288L42.26 296.998V131.108C42.315 129.733 42.7175 128.395 43.43 127.218L50.8 131.468Z" fill="black"/>
<path d="M127.43 367.348L180.79 398.248C181.719 398.722 182.747 398.969 183.79 398.969C184.833 398.969 185.861 398.722 186.79 398.248L344.46 307.338C346.11 306.338 346.11 304.838 344.46 303.888L291.07 272.998C290.141 272.524 289.113 272.277 288.07 272.277C287.027 272.277 285.999 272.524 285.07 272.998L127.43 363.898C125.78 364.848 125.78 366.388 127.43 367.348Z" fill="#E0E0E0"/>
<path d="M341.2 298.418C341.167 298.047 341.036 297.69 340.82 297.386C340.603 297.082 340.31 296.841 339.97 296.688L289.83 267.748C288.9 267.276 287.872 267.031 286.83 267.031C285.787 267.031 284.76 267.276 283.83 267.748L130.83 356.218C130.488 356.37 130.192 356.61 129.974 356.914C129.756 357.219 129.624 357.576 129.59 357.948V363.208C129.623 363.58 129.756 363.935 129.974 364.238C130.192 364.541 130.488 364.779 130.83 364.928L181 393.868C181.93 394.338 182.958 394.583 184 394.583C185.042 394.583 186.07 394.338 187 393.868L340 305.538C340.339 305.386 340.631 305.146 340.847 304.844C341.063 304.542 341.195 304.188 341.23 303.818C341.21 303.188 341.2 298.998 341.2 298.418Z" fill="#79DB92"/>
<path opacity="0.5" d="M341.2 298.418C341.167 298.047 341.036 297.69 340.82 297.386C340.603 297.082 340.31 296.841 339.97 296.688L289.83 267.748C288.9 267.276 287.872 267.031 286.83 267.031C285.787 267.031 284.76 267.276 283.83 267.748L130.83 356.218C130.488 356.37 130.192 356.61 129.974 356.914C129.756 357.219 129.624 357.576 129.59 357.948V363.208C129.623 363.58 129.756 363.935 129.974 364.238C130.192 364.541 130.488 364.779 130.83 364.928L181 393.868C181.93 394.338 182.958 394.583 184 394.583C185.042 394.583 186.07 394.338 187 393.868L340 305.538C340.339 305.386 340.631 305.146 340.847 304.844C341.063 304.542 341.195 304.188 341.23 303.818C341.21 303.188 341.2 298.998 341.2 298.418Z" fill="black"/>
<path d="M181 388.478L130.89 359.668C129.24 358.718 129.24 357.178 130.89 356.218L283.89 267.748C284.82 267.276 285.847 267.031 286.89 267.031C287.932 267.031 288.96 267.276 289.89 267.748L340 296.688C341.65 297.688 341.65 299.188 340 300.138L187 388.468C186.071 388.942 185.044 389.19 184.001 389.192C182.958 389.194 181.93 388.949 181 388.478Z" fill="#79DB92"/>
<path opacity="0.3" d="M181 388.478L130.89 359.668C129.24 358.718 129.24 357.178 130.89 356.218L283.89 267.748C284.82 267.276 285.847 267.031 286.89 267.031C287.932 267.031 288.96 267.276 289.89 267.748L340 296.688C341.65 297.688 341.65 299.188 340 300.138L187 388.468C186.071 388.942 185.044 389.19 184.001 389.192C182.958 389.194 181.93 388.949 181 388.478Z" fill="black"/>
<path d="M183.78 389.188V394.568C182.803 394.555 181.842 394.319 180.97 393.878L130.88 364.938C130.539 364.785 130.245 364.544 130.027 364.24C129.809 363.936 129.676 363.58 129.64 363.208V357.938C129.676 358.31 129.809 358.666 130.027 358.97C130.245 359.274 130.539 359.515 130.88 359.668L181 388.488C181.858 388.937 182.811 389.177 183.78 389.188Z" fill="#79DB92"/>
<path opacity="0.7" d="M183.78 389.188V394.568C182.803 394.555 181.842 394.319 180.97 393.878L130.88 364.938C130.539 364.785 130.245 364.544 130.027 364.24C129.809 363.936 129.676 363.58 129.64 363.208V357.938C129.676 358.31 129.809 358.666 130.027 358.97C130.245 359.274 130.539 359.515 130.88 359.668L181 388.488C181.858 388.937 182.811 389.177 183.78 389.188Z" fill="black"/>
<path d="M247.77 304.998L253.48 308.298C253.594 308.358 253.721 308.389 253.85 308.388L259.11 305.458L253 301.998L247.77 304.998Z" fill="#374F49"/>
<path d="M254.65 300.998L260.38 304.318C260.488 304.362 260.603 304.386 260.72 304.388H260.93L266 301.498L259.84 297.998L254.65 300.998Z" fill="#374F49"/>
<path d="M236.2 311.698L241.93 315.008C242.038 315.052 242.153 315.076 242.27 315.078L250.8 310.268L244.65 306.818L236.2 311.698Z" fill="#374F49"/>
<path d="M229.33 315.658L235.06 318.968C235.165 319.023 235.282 319.05 235.4 319.048L240.67 316.118L234.52 312.658L229.33 315.658Z" fill="#374F49"/>
<path d="M197.94 367.588L203.2 364.648L197.06 361.198L191.86 364.198L197.6 367.508C197.705 367.563 197.822 367.59 197.94 367.588Z" fill="#374F49"/>
<path d="M222.46 319.628L228.16 322.918C228.273 322.983 228.4 323.017 228.53 323.018L233.8 320.088L227.65 316.628L222.46 319.628Z" fill="#374F49"/>
<path d="M260.74 306.498L255.54 309.498L261.26 312.798C261.372 312.852 261.495 312.88 261.62 312.878L266.88 309.948L260.74 306.498Z" fill="#374F49"/>
<path d="M241.53 333.448L246.8 330.518L240.66 327.058L235.46 330.058L241.18 333.368C241.289 333.422 241.409 333.449 241.53 333.448Z" fill="#374F49"/>
<path d="M268.49 308.908L273.76 305.978L267.61 302.528L262.42 305.528L268.15 308.838C268.256 308.889 268.373 308.913 268.49 308.908Z" fill="#374F49"/>
<path d="M234.66 337.418L239.93 334.478L233.78 330.998L228.58 333.998L234.29 337.288C234.4 337.363 234.527 337.408 234.66 337.418Z" fill="#374F49"/>
<path d="M227.79 341.378L233.05 338.448L226.91 334.998L221.71 337.998L227.45 341.308C227.556 341.358 227.673 341.382 227.79 341.378Z" fill="#374F49"/>
<path d="M255.28 325.508L266.28 319.238L252.37 311.298L246.45 314.718L253.72 318.908C253.776 318.937 253.824 318.98 253.859 319.032C253.894 319.085 253.915 319.145 253.92 319.208C253.915 319.265 253.896 319.319 253.864 319.366C253.833 319.413 253.79 319.452 253.74 319.478L249.15 322.128L254.85 325.408C254.978 325.488 255.13 325.523 255.28 325.508Z" fill="#374F49"/>
<path d="M208.71 327.568L214.44 330.878C214.548 330.924 214.663 330.947 214.78 330.948L220.05 328.018L213.91 324.568L208.71 327.568Z" fill="#374F49"/>
<path d="M248.4 329.478L253.67 326.548L247.53 323.088L242.33 326.088L248.03 329.378C248.141 329.446 248.269 329.481 248.4 329.478Z" fill="#374F49"/>
<path d="M170.1 365.718L175.37 362.788L169.23 359.328L164.03 362.328L169.73 365.628C169.844 365.688 169.971 365.718 170.1 365.718Z" fill="#374F49"/>
<path d="M153.73 359.308L159.48 362.628C159.581 362.669 159.69 362.69 159.8 362.688H160L165.06 359.768L158.91 356.318L153.73 359.308Z" fill="#374F49"/>
<path d="M179.68 369.158H179.89L184.94 366.248L178.8 362.788L173.6 365.788L179.34 369.098C179.447 369.146 179.563 369.166 179.68 369.158Z" fill="#374F49"/>
<path d="M184.19 375.518L189.46 372.588L183.31 369.138L178.12 372.138L183.82 375.428C183.934 375.488 184.061 375.519 184.19 375.518Z" fill="#374F49"/>
<path d="M160.6 355.338L166.34 358.648C166.442 358.702 166.555 358.729 166.67 358.728L171.94 355.788L165.8 352.338L160.6 355.338Z" fill="#374F49"/>
<path d="M191.06 371.558L196.33 368.618L190.19 365.168L184.99 368.168L190.72 371.478C190.825 371.532 190.942 371.559 191.06 371.558Z" fill="#374F49"/>
<path d="M181.22 343.438L186.95 346.748C187.056 346.798 187.172 346.822 187.29 346.818L192.56 343.888L186.42 340.438L181.22 343.438Z" fill="#374F49"/>
<path d="M188.09 339.468L193.81 342.768C193.92 342.83 194.044 342.861 194.17 342.858L199.43 339.928L193.29 336.468L188.09 339.468Z" fill="#374F49"/>
<path d="M195 335.498L200.71 338.798C200.823 338.86 200.951 338.891 201.08 338.888L206.35 335.958L200.2 332.498L195 335.498Z" fill="#374F49"/>
<path d="M174.35 347.408L180.05 350.698C180.163 350.76 180.291 350.791 180.42 350.788L185.69 347.858L179.54 344.408L174.35 347.408Z" fill="#374F49"/>
<path d="M201.84 331.538L207.57 334.848C207.677 334.896 207.793 334.919 207.91 334.918L213.18 331.988L207 328.538L201.84 331.538Z" fill="#374F49"/>
<path d="M167.47 351.368L173.2 354.678C173.309 354.73 173.429 354.758 173.55 354.758L178.82 351.828L172.67 348.378L167.47 351.368Z" fill="#374F49"/>
<path d="M215.58 323.598L221.32 326.918C221.425 326.958 221.537 326.979 221.65 326.978L226.92 324.048L220.78 320.598L215.58 323.598Z" fill="#374F49"/>
<path d="M232.75 322.648L238.46 325.948C238.573 326.009 238.701 326.04 238.83 326.038H239.04L244.09 323.128L238 319.658L232.75 322.648Z" fill="#374F49"/>
<path d="M269.84 292.268L275.55 295.568C275.661 295.627 275.784 295.658 275.91 295.658L281.18 292.728L275 289.268L269.84 292.268Z" fill="#374F49"/>
<path d="M276.71 288.308L282.43 291.598C282.536 291.661 282.657 291.692 282.78 291.688L288.05 288.758L281.91 285.308L276.71 288.308Z" fill="#374F49"/>
<path d="M225.88 326.618L231.6 329.918C231.71 329.98 231.834 330.011 231.96 330.008L237.22 327.068L231.08 323.618L225.88 326.618Z" fill="#374F49"/>
<path d="M283.59 284.338L289.29 287.628C289.404 287.688 289.531 287.719 289.66 287.718L294.93 284.788L288.78 281.338L283.59 284.338Z" fill="#374F49"/>
<path d="M245.7 322.068H245.91L250.97 319.148L244.82 315.698L239.62 318.698L245.34 321.988C245.451 322.047 245.575 322.074 245.7 322.068Z" fill="#374F49"/>
<path d="M277.6 296.758L283.31 300.048C283.423 300.11 283.551 300.141 283.68 300.138L288.95 297.208L282.8 293.758L277.6 296.758Z" fill="#374F49"/>
<path d="M291.35 288.818L297.05 292.108C297.162 292.174 297.29 292.208 297.42 292.208L302.69 289.278L296.55 285.818L291.35 288.818Z" fill="#374F49"/>
<path d="M290.55 296.178L295.82 293.248L289.68 289.788L284.48 292.788L290.21 296.098C290.315 296.152 290.432 296.179 290.55 296.178Z" fill="#374F49"/>
<path d="M311.74 292.658C311.845 292.7 311.957 292.721 312.07 292.718H312.28L317.33 289.798L303.42 281.858L298.22 284.858L311.74 292.658Z" fill="#374F49"/>
<path d="M219 330.588L224.71 333.888C224.822 333.943 224.945 333.97 225.07 333.968H225.28L230.34 331.048L224.2 327.598L219 330.588Z" fill="#374F49"/>
<path d="M298.32 300.658H298.53L303.59 297.738L297.44 294.288L292.24 297.288L297.96 300.588C298.071 300.643 298.196 300.667 298.32 300.658Z" fill="#374F49"/>
<path d="M305.19 296.688L310.46 293.758L304.32 290.308L299.12 293.308L304.81 296.588C304.925 296.657 305.056 296.691 305.19 296.688Z" fill="#374F49"/>
<path d="M184.64 350.428L190.35 353.718C190.463 353.78 190.591 353.811 190.72 353.808L195.99 350.878L189.84 347.428L184.64 350.428Z" fill="#374F49"/>
<path d="M170.9 358.368L176.6 361.658C176.714 361.719 176.841 361.75 176.97 361.748H177.19L182.24 358.828L176.1 355.368L170.9 358.368Z" fill="#374F49"/>
<path d="M193.43 361.218L198.69 358.288L192.55 354.838L187.35 357.838L193.09 361.148C193.196 361.198 193.313 361.222 193.43 361.218Z" fill="#374F49"/>
<path d="M186.55 365.188L191.82 362.258L185.67 358.808L180.48 361.808L186.21 365.118C186.318 365.162 186.433 365.186 186.55 365.188Z" fill="#374F49"/>
<path d="M200.3 357.248H200.51L205.56 354.338L199.42 350.878L194.22 353.878L199.93 357.168C200.044 357.226 200.172 357.253 200.3 357.248Z" fill="#374F49"/>
<path d="M212.13 334.558L217.85 337.858C217.962 337.912 218.085 337.939 218.21 337.938H218.42L223.47 335.018L217.33 331.568L212.13 334.558Z" fill="#374F49"/>
<path d="M214 349.318L219.27 346.388L213.13 342.938L207.93 345.938L213.63 349.238C213.745 349.294 213.872 349.322 214 349.318Z" fill="#374F49"/>
<path d="M207.17 353.288L212.44 350.358L206.29 346.898L201.09 349.898L206.83 353.208C206.936 353.261 207.052 353.288 207.17 353.288Z" fill="#374F49"/>
<path d="M198.39 342.488L204.09 345.788C204.207 345.85 204.338 345.881 204.47 345.878L209.73 342.948L203.59 339.488L198.39 342.488Z" fill="#374F49"/>
<path d="M177.77 354.398L183.48 357.688C183.593 357.75 183.721 357.781 183.85 357.778L189.11 354.848L183 351.398L177.77 354.398Z" fill="#374F49"/>
<path d="M205.26 338.528L210.97 341.818C211.083 341.879 211.211 341.91 211.34 341.908L216.6 338.998L210.46 335.538L205.26 338.528Z" fill="#374F49"/>
<path d="M191.52 346.458L197.22 349.748C197.333 349.813 197.46 349.847 197.59 349.848H197.81L202.86 346.928L196.72 343.478L191.52 346.458Z" fill="#374F49"/>
<path d="M220.91 345.348L226.18 342.418L220 338.998L214.8 341.998L220.52 345.298C220.643 345.348 220.778 345.365 220.91 345.348Z" fill="#374F49"/>
<path d="M261.52 297.078L267.26 300.388C267.362 300.438 267.476 300.462 267.59 300.458L272.86 297.528L266.72 294.078L261.52 297.078Z" fill="#374F49"/>
<path d="M152.05 360.278L146.85 363.278L152.59 366.588C152.696 366.639 152.812 366.663 152.93 366.658H153.14L158.2 363.738L152.05 360.278Z" fill="#374F49"/>
<path d="M162.35 363.298L154.62 367.758L160.36 371.068C160.465 371.123 160.582 371.15 160.7 371.148H160.91L168.5 366.768L162.35 363.298Z" fill="#374F49"/>
<path d="M143.71 354.208L137.43 357.828L143.14 361.128C143.25 361.19 143.374 361.221 143.5 361.218L149.85 357.658L143.71 354.208Z" fill="#374F49"/>
<path d="M176.44 373.098L170.16 376.728L175.86 380.018C175.972 380.084 176.1 380.118 176.23 380.118L182.59 376.558L176.44 373.098Z" fill="#374F49"/>
<path d="M171.93 366.738L162.39 372.248L168.13 375.558C168.233 375.608 168.346 375.632 168.46 375.628H168.68L178.07 370.198L171.93 366.738Z" fill="#374F49"/>
<path d="M154.45 354.898L159.72 351.968L153.57 348.508L148.37 351.508L154.08 354.808C154.193 354.87 154.321 354.901 154.45 354.898Z" fill="#374F49"/>
<path d="M177.93 381.218L183.64 384.508C183.749 384.572 183.874 384.603 184 384.598L191.8 380.208L185.65 376.758L177.93 381.218Z" fill="#374F49"/>
<path d="M161.32 350.928L166.59 347.998L160.45 344.548L155.25 347.548L160.98 350.858C161.086 350.907 161.203 350.931 161.32 350.928Z" fill="#374F49"/>
<path d="M191.8 333.328H192L197.06 330.408L190.93 326.998L185.73 329.998L191.45 333.298C191.562 333.336 191.682 333.346 191.8 333.328Z" fill="#374F49"/>
<path d="M198.68 329.368L203.94 326.428L197.8 322.998L192.6 325.998L198.32 329.298C198.433 329.348 198.556 329.372 198.68 329.368Z" fill="#374F49"/>
<path d="M184.93 337.298H185.14L190.2 334.378L184.05 330.928L178.86 333.928L184.56 337.218C184.675 337.275 184.802 337.302 184.93 337.298Z" fill="#374F49"/>
<path d="M175.07 342.998H175.28L180.34 340.078L174.19 336.628L169 339.628L174.71 342.928C174.822 342.983 174.946 343.007 175.07 342.998Z" fill="#374F49"/>
<path d="M168.19 346.998L173.46 344.068L167.32 340.618L162.12 343.618L167.85 346.928C167.956 346.978 168.073 347.002 168.19 346.998Z" fill="#374F49"/>
<path d="M314.66 302.278L320.4 305.588C320.503 305.638 320.616 305.662 320.73 305.658H320.94L326 302.738L319.85 299.288L314.66 302.278Z" fill="#374F49"/>
<path d="M278.84 322.998L284.55 326.288C284.663 326.353 284.79 326.387 284.92 326.388L290.19 323.458L284 319.998L278.84 322.998Z" fill="#374F49"/>
<path d="M300.91 310.208L306.62 313.508C306.731 313.567 306.854 313.598 306.98 313.598H307.2L319.12 306.718L313 303.238L300.91 310.208Z" fill="#374F49"/>
<path d="M285.72 318.998L291.42 322.288C291.533 322.353 291.66 322.387 291.79 322.388L297.06 319.458L290.91 315.998L285.72 318.998Z" fill="#374F49"/>
<path d="M292.59 314.998L298.27 318.268C298.389 318.345 298.528 318.383 298.67 318.378L303.93 315.448L297.79 311.998L292.59 314.998Z" fill="#374F49"/>
<path d="M205.55 325.398H205.76L210.82 322.488L204.67 318.998L199.47 321.998L205.18 325.288C205.289 325.361 205.418 325.399 205.55 325.398Z" fill="#374F49"/>
<path d="M319 290.818L313.8 293.818L327.32 301.628C327.421 301.67 327.53 301.691 327.64 301.688H327.85L332.9 298.768L319 290.818Z" fill="#374F49"/>
<path d="M195.29 371.188L200.99 374.478C201.102 374.544 201.23 374.578 201.36 374.578L207.71 371.018L201.57 367.558L195.29 371.188Z" fill="#374F49"/>
<path d="M203.25 366.598L208.94 369.878C209.054 369.947 209.186 369.981 209.32 369.978H209.53L248.59 347.428L242.44 343.998L203.25 366.598Z" fill="#374F49"/>
<path d="M204.81 363.618L210.08 360.688L203.93 357.238L198.73 360.238L204.46 363.548C204.569 363.598 204.689 363.622 204.81 363.618Z" fill="#374F49"/>
<path d="M187.33 375.788L193.04 379.078C193.15 379.14 193.274 379.171 193.4 379.168L199.76 375.608L193.61 372.158L187.33 375.788Z" fill="#374F49"/>
<path d="M244.12 342.998L249.83 346.298C249.942 346.353 250.065 346.38 250.19 346.378H250.41L256.55 342.838L250.4 339.378L244.12 342.998Z" fill="#374F49"/>
<path d="M260 333.808L265.72 337.118C265.828 337.173 265.948 337.2 266.07 337.198H266.28L272.42 333.658L266.28 330.198L260 333.808Z" fill="#374F49"/>
<path d="M252.08 338.398L257.81 341.718C257.918 341.762 258.033 341.786 258.15 341.788L264.51 338.228L258.36 334.778L252.08 338.398Z" fill="#374F49"/>
<path d="M268 329.218L273.71 332.508C273.823 332.569 273.951 332.6 274.08 332.598H274.29L281.87 328.218L275.73 324.758L268 329.218Z" fill="#374F49"/>
<path d="M275.36 304.998H275.57L280.63 302.078L274.49 298.628L269.29 301.628L275.01 304.938C275.12 304.985 275.24 305.005 275.36 304.998Z" fill="#374F49"/>
<path d="M284 317.878H284.22L289.27 314.958L283.13 311.508L277.93 314.508L283.65 317.808C283.76 317.858 283.879 317.882 284 317.878Z" fill="#374F49"/>
<path d="M259.79 331.878L274.1 323.718L268 320.268L253.76 328.488L259.5 331.798C259.591 331.842 259.689 331.869 259.79 331.878Z" fill="#374F49"/>
<path d="M299.22 309.108H299.43L304.48 306.188L298.34 302.738L293.14 305.738L298.88 309.048C298.987 309.096 299.103 309.116 299.22 309.108Z" fill="#374F49"/>
<path d="M306.09 305.138H306.3L311.35 302.218L305.21 298.768L300.01 301.768L305.74 305.068C305.849 305.119 305.969 305.143 306.09 305.138Z" fill="#374F49"/>
<path d="M252.91 335.838L258.18 332.908L252 329.458L246.8 332.458L252.51 335.758C252.634 335.818 252.772 335.845 252.91 335.838Z" fill="#374F49"/>
<path d="M291.45 304.628H291.66L296.72 301.718L290.57 298.258L285.37 301.258L291.07 304.548C291.188 304.607 291.318 304.634 291.45 304.628Z" fill="#374F49"/>
<path d="M218.55 355.678L223.82 352.748L217.68 349.298L212.48 352.298L218.21 355.608C218.316 355.658 218.432 355.682 218.55 355.678Z" fill="#374F49"/>
<path d="M246.05 339.808L251.31 336.878L245.17 333.428L239.97 336.428L245.72 339.738C245.823 339.786 245.936 339.81 246.05 339.808Z" fill="#374F49"/>
<path d="M211.68 359.648H211.89L216.95 356.728L210.8 353.278L205.61 356.278L211.34 359.588C211.449 359.629 211.564 359.649 211.68 359.648Z" fill="#374F49"/>
<path d="M225.43 351.718L230.69 348.788L224.55 345.328L219.35 348.328L225.1 351.648C225.205 351.69 225.317 351.714 225.43 351.718Z" fill="#374F49"/>
<path d="M232.3 347.748H232.51L237.56 344.828L231.42 341.378L226.22 344.378L231.93 347.668C232.044 347.726 232.172 347.753 232.3 347.748Z" fill="#374F49"/>
<path d="M239.17 343.778H239.38L244.44 340.868L238.3 337.418L233.1 340.418L238.83 343.738C238.94 343.772 239.055 343.786 239.17 343.778Z" fill="#374F49"/>
<path d="M222.28 315.738L227.55 312.798L221.41 309.348L216.21 312.348L221.91 315.638C222.023 315.701 222.15 315.736 222.28 315.738Z" fill="#374F49"/>
<path d="M313 301.178H313.21L318.27 298.258L312.12 294.808L306.93 297.808L312.66 301.118C312.767 301.164 312.884 301.184 313 301.178Z" fill="#374F49"/>
<path d="M236 307.798L241.27 304.868L235.12 301.418L229.92 304.418L235.63 307.708C235.743 307.77 235.871 307.801 236 307.798Z" fill="#374F49"/>
<path d="M251.29 298.998L256.56 296.068L250.42 292.608L245.22 295.608L250.93 298.908C251.04 298.969 251.164 299 251.29 298.998Z" fill="#374F49"/>
<path d="M244.42 302.998L249.69 300.068L243.54 296.618L238.35 299.618L244.06 302.918C244.172 302.973 244.295 303 244.42 302.998Z" fill="#374F49"/>
<path d="M215.41 319.698L220.68 316.768L214.53 313.318L209.34 316.318L215.05 319.618C215.162 319.673 215.285 319.7 215.41 319.698Z" fill="#374F49"/>
<path d="M229.16 311.768H229.37L234.37 308.858L228.23 305.398L223.03 308.398L228.74 311.688C228.869 311.755 229.015 311.782 229.16 311.768Z" fill="#374F49"/>
<path d="M258.17 294.998L263.43 292.068L257.29 288.608L252.09 291.608L257.8 294.908C257.913 294.97 258.041 295.001 258.17 294.998Z" fill="#374F49"/>
<path d="M285.11 277.158L290.37 274.228L287 272.418L281.8 275.418L284.73 277.068C284.847 277.13 284.978 277.161 285.11 277.158Z" fill="#374F49"/>
<path d="M296.53 283.758L301.8 280.818L295.65 277.368L290.46 280.368L296.17 283.668C296.281 283.728 296.404 283.759 296.53 283.758Z" fill="#374F49"/>
<path d="M264.49 289.058H264.7L269.75 286.138L266.42 284.338L261.22 287.338L264.13 288.988C264.243 289.039 264.366 289.063 264.49 289.058Z" fill="#374F49"/>
<path d="M271.36 285.098H271.58L276.63 282.178L273.29 280.378L268.09 283.378L271 284.998C271.109 285.064 271.233 285.098 271.36 285.098Z" fill="#374F49"/>
<path d="M278.24 281.128L283.5 278.198L280.16 276.388L274.96 279.388L277.9 281.038C278.004 281.096 278.121 281.127 278.24 281.128Z" fill="#374F49"/>
<g opacity="0.8">
<path d="M286.06 22.1582V170.618C286.01 171.693 285.707 172.74 285.176 173.675C284.644 174.61 283.898 175.406 283 175.998L82.8801 291.698C82.5792 291.885 82.2341 291.989 81.8801 291.998C81.745 291.993 81.6109 291.973 81.4801 291.938C81.3901 291.919 81.3028 291.889 81.2201 291.848L81.0601 291.758L80.8801 291.638C80.8138 291.596 80.7533 291.546 80.7001 291.488C80.4606 291.259 80.27 290.983 80.1401 290.678C79.9196 290.188 79.807 289.656 79.8101 289.118V141.408C79.8701 140.338 80.181 139.297 80.7178 138.369C81.2546 137.442 82.0022 136.653 82.9001 136.068L283 20.3782C283.3 20.1709 283.646 20.039 284.008 19.9938C284.37 19.9485 284.738 19.9912 285.08 20.1182C285.172 20.1584 285.259 20.2087 285.34 20.2682C285.416 20.3251 285.483 20.3924 285.54 20.4682C285.575 20.5002 285.606 20.5373 285.63 20.5782C285.671 20.6302 285.704 20.6874 285.73 20.7482C285.813 20.8676 285.877 20.9992 285.92 21.1382C285.955 21.2248 285.979 21.3156 285.99 21.4082C285.995 21.4176 285.997 21.4278 285.997 21.4382C285.997 21.4486 285.995 21.4588 285.99 21.4682C286.016 21.563 286.033 21.6601 286.04 21.7582C286.05 21.8982 286.06 21.9982 286.06 22.1582Z" fill="#45645C"/>
<path d="M284.34 20.9982C284.444 20.9929 284.547 21.0135 284.64 21.0582H284.69L284.78 21.1782L284.85 21.2882V21.3382L284.95 21.6282C284.954 21.6514 284.954 21.675 284.95 21.6982C284.95 21.7982 284.95 21.8982 284.95 21.9982V170.618C284.893 171.514 284.63 172.385 284.18 173.162C283.731 173.939 283.108 174.602 282.36 175.098L82.3801 290.828C82.2259 290.932 82.0459 290.991 81.8601 290.998H81.6501H81.5901L81.4501 290.898V290.848C81.3067 290.714 81.1941 290.55 81.1201 290.368C80.9582 290.007 80.8763 289.614 80.8801 289.218V141.408C80.9386 140.514 81.2027 139.645 81.6519 138.87C82.1012 138.095 82.7234 137.434 83.4701 136.938L283.47 21.2482C283.731 21.0812 284.031 20.9847 284.34 20.9682M284.34 19.9682C283.856 19.9845 283.384 20.1257 282.97 20.3782L82.8801 136.068C81.9822 136.653 81.2346 137.442 80.6978 138.369C80.161 139.297 79.85 140.338 79.7901 141.408V289.118C79.787 289.656 79.8995 290.188 80.1201 290.678C80.25 290.983 80.4405 291.259 80.6801 291.488C80.7333 291.546 80.7938 291.596 80.8601 291.638L81.0401 291.758L81.2001 291.848C81.2828 291.889 81.3701 291.919 81.4601 291.938C81.5908 291.973 81.725 291.993 81.8601 291.998C82.2135 291.985 82.5577 291.882 82.8601 291.698L283 175.998C283.899 175.414 284.647 174.625 285.183 173.698C285.72 172.77 286.031 171.729 286.09 170.658V22.1582C286.09 22.0282 286.09 21.8982 286.09 21.7782C286.083 21.6801 286.066 21.583 286.04 21.4882C286.045 21.4789 286.047 21.4686 286.047 21.4582C286.047 21.4479 286.045 21.4376 286.04 21.4282C286.029 21.3356 286.005 21.2448 285.97 21.1582C285.927 21.0192 285.863 20.8877 285.78 20.7682C285.754 20.7074 285.721 20.6502 285.68 20.5982C285.656 20.5573 285.625 20.5202 285.59 20.4882C285.533 20.4124 285.466 20.3451 285.39 20.2882C285.309 20.2287 285.222 20.1784 285.13 20.1382C284.907 20.0368 284.665 19.9856 284.42 19.9882L284.34 19.9682Z" fill="#45645C"/>
<g opacity="0.7">
<path d="M286.06 22.1582V170.618C286.01 171.693 285.707 172.74 285.176 173.675C284.644 174.61 283.898 175.406 283 175.998L82.8801 291.698C82.5792 291.885 82.2341 291.989 81.8801 291.998C81.745 291.993 81.6109 291.973 81.4801 291.938C81.3901 291.919 81.3028 291.889 81.2201 291.848L81.0601 291.758L80.8801 291.638C80.8138 291.596 80.7533 291.546 80.7001 291.488C80.4606 291.259 80.27 290.983 80.1401 290.678C79.9196 290.188 79.807 289.656 79.8101 289.118V141.408C79.8701 140.338 80.181 139.297 80.7178 138.369C81.2546 137.442 82.0022 136.653 82.9001 136.068L283 20.3782C283.3 20.1709 283.646 20.039 284.008 19.9938C284.37 19.9485 284.738 19.9912 285.08 20.1182C285.172 20.1584 285.259 20.2087 285.34 20.2682C285.416 20.3251 285.483 20.3924 285.54 20.4682C285.575 20.5002 285.606 20.5373 285.63 20.5782C285.671 20.6302 285.704 20.6874 285.73 20.7482C285.813 20.8676 285.877 20.9992 285.92 21.1382C285.955 21.2248 285.979 21.3156 285.99 21.4082C285.995 21.4176 285.997 21.4278 285.997 21.4382C285.997 21.4486 285.995 21.4588 285.99 21.4682C286.016 21.563 286.033 21.6601 286.04 21.7582C286.05 21.8982 286.06 21.9982 286.06 22.1582Z" fill="#45645C"/>
</g>
</g>
<path d="M285.05 20.1182C284.708 19.9912 284.34 19.9485 283.978 19.9938C283.616 20.039 283.27 20.1709 282.97 20.3782L82.8801 136.068C81.9822 136.653 81.2346 137.442 80.6978 138.369C80.161 139.297 79.8501 140.338 79.7901 141.408V151.488L75.8601 149.188V139.188C75.9162 138.121 76.2235 137.082 76.757 136.156C77.2904 135.229 78.035 134.442 78.9301 133.858L279 18.1582C279.318 17.9238 279.695 17.782 280.088 17.7485C280.482 17.7149 280.877 17.791 281.23 17.9682C281.83 18.3082 284.39 19.7682 285.05 20.1182Z" fill="#79DB92"/>
<path d="M286.05 22.1382C286.05 20.1882 284.67 19.4082 282.97 20.3882L82.88 136.078C81.9812 136.66 81.2327 137.446 80.6957 138.373C80.1587 139.299 79.8484 140.339 79.79 141.408V151.498L286.05 32.2582V22.1382Z" fill="#79DB92"/>
<g opacity="0.4">
<path d="M283 20.3782L82.88 136.068C81.9767 136.638 81.2306 137.426 80.71 138.358L76.79 136.088C77.3012 135.166 78.0418 134.391 78.94 133.838L279 18.1482C279.321 17.9166 279.7 17.7774 280.095 17.7457C280.49 17.714 280.886 17.7909 281.24 17.9682C281.79 18.3082 284.35 19.7582 285 20.1082C284.669 19.9936 284.315 19.9583 283.968 20.0052C283.621 20.0521 283.289 20.1799 283 20.3782Z" fill="white"/>
</g>
<path opacity="0.15" d="M75.8501 149.198V139.198C75.8945 138.105 76.2182 137.041 76.7901 136.108L80.7201 138.368C80.1527 139.295 79.8356 140.352 79.8001 141.438V151.498L75.8501 149.198Z" fill="black"/>
<path d="M267.48 33.6182C266.926 34.0586 266.481 34.6204 266.18 35.2603C265.878 35.9002 265.727 36.6009 265.74 37.3082C265.74 38.7882 266.52 39.5382 267.48 38.9782C268.034 38.5405 268.479 37.9806 268.781 37.3422C269.083 36.7038 269.233 36.0043 269.22 35.2982C269.22 33.8182 268.44 33.0582 267.48 33.6182Z" fill="#45645C"/>
<path d="M273.75 29.9982C273.196 30.4365 272.75 30.9963 272.446 31.6344C272.143 32.2724 271.99 32.9717 272 33.6782C272 35.1582 272.78 35.9082 273.74 35.3582C274.295 34.9194 274.742 34.3579 275.044 33.7176C275.345 33.0774 275.495 32.3759 275.48 31.6682C275.49 30.1882 274.72 29.4382 273.75 29.9982Z" fill="#45645C"/>
<path d="M280 26.3682C279.446 26.806 279.001 27.3659 278.699 28.0043C278.397 28.6427 278.247 29.3422 278.26 30.0482C278.26 31.5282 279.04 32.2782 280 31.7282C280.566 31.2879 281.021 30.7212 281.328 30.0735C281.636 29.4257 281.787 28.715 281.77 27.9982C281.77 26.5582 281 25.8082 280 26.3682Z" fill="#45645C"/>
<path opacity="0.9" d="M80.93 291.708L80.54 291.488C80.26 291.318 79.93 291.128 79.54 290.948C79.37 290.848 79.2 290.748 79.02 290.658L78.21 290.188L77.54 289.808L77.15 289.598C76.9505 289.49 76.774 289.344 76.63 289.168C76.4511 288.987 76.3086 288.773 76.21 288.538C75.975 288.027 75.8555 287.471 75.86 286.908V149.188L79.79 151.488V289.118C79.8049 289.654 79.9167 290.182 80.12 290.678C80.2499 290.983 80.4404 291.259 80.68 291.488C80.7257 291.553 80.7878 291.605 80.86 291.638C80.878 291.666 80.9018 291.69 80.93 291.708Z" fill="#374F49"/>
<path d="M146.69 202.878C146.69 202.878 139.4 198.168 138.46 198.138L117.77 197.488L125.99 201.868V202.228L146.69 202.878Z" fill="#263834"/>
<path d="M111.2 217.068V204.068L146.69 159.998V177.198L126 201.868V202.228L146.7 202.878V220.078L111.2 217.068Z" fill="#FAFAFA"/>
<path d="M146.69 159.998L138.46 155.258L102.98 199.368L111.2 204.098L146.69 159.998Z" fill="#45645C"/>
<path d="M102.98 199.368V212.328L111.2 217.058V204.098L102.98 199.368Z" fill="#374F49"/>
<path d="M168.16 211.548L157.16 217.908L184.62 117.268L195.24 111.138L168.16 211.548Z" fill="#FAFAFA"/>
<path d="M195.23 111.138L187 106.398L176.38 112.528L184.61 117.268L195.23 111.138Z" fill="#45645C"/>
<path d="M176.38 112.528L184.61 117.268L157.15 217.908L148.92 213.168L176.38 112.528Z" fill="#374F49"/>
<path d="M197.47 164.068L205.69 168.808L226.38 143.898L218.16 139.158L197.47 164.068Z" fill="#263834"/>
<path d="M226.39 143.898L205.69 143.128V125.928L241.18 129.058V142.058L205.69 186.058V168.858L226.39 144.318V143.898Z" fill="#FAFAFA"/>
<path d="M197.47 121.188L205.69 125.928L241.18 129.058L232.95 124.318L197.47 121.188Z" fill="#45645C"/>
<path d="M205.69 125.928V143.128L197.47 138.388V121.188" fill="#374F49"/>
<path d="M197.47 164.068L205.69 168.808V186.008L197.47 181.268V164.068Z" fill="#374F49"/>
<g opacity="0.8">
<path d="M350.66 47.7682V196.218C350.601 197.289 350.29 198.33 349.753 199.258C349.217 200.185 348.469 200.974 347.57 201.558L262.29 250.768C261.989 250.955 261.644 251.059 261.29 251.068C261.154 251.069 261.02 251.048 260.89 251.008C260.8 250.989 260.713 250.959 260.63 250.918L260.47 250.828L260.28 250.708C260.219 250.664 260.162 250.613 260.11 250.558C259.87 250.329 259.68 250.053 259.55 249.748C259.329 249.258 259.217 248.726 259.22 248.188V100.488C259.279 99.4166 259.59 98.3739 260.127 97.4445C260.663 96.5151 261.411 95.725 262.31 95.1382L347.57 45.9982C347.869 45.7877 348.214 45.6531 348.577 45.606C348.939 45.559 349.307 45.6009 349.65 45.7282C349.742 45.7684 349.829 45.8187 349.91 45.8782C349.987 45.9381 350.054 46.0089 350.11 46.0882C350.148 46.1199 350.182 46.157 350.21 46.1982C350.252 46.2453 350.286 46.2994 350.31 46.3582C350.39 46.478 350.451 46.6096 350.49 46.7482C350.524 46.8386 350.547 46.9326 350.56 47.0282C350.564 47.0376 350.567 47.0479 350.567 47.0582C350.567 47.0686 350.564 47.0789 350.56 47.0882C350.587 47.1794 350.604 47.2733 350.61 47.3682C350.65 47.4982 350.66 47.6282 350.66 47.7682Z" fill="#45645C"/>
<path d="M348.94 46.5682C349.044 46.5664 349.147 46.5904 349.24 46.6382L349.29 46.6882L349.38 46.7982L349.45 46.9082L349.55 47.1982C349.554 47.2214 349.554 47.245 349.55 47.2682C349.555 47.3715 349.555 47.475 349.55 47.5782V196.218C349.495 197.115 349.233 197.986 348.783 198.764C348.334 199.541 347.71 200.204 346.96 200.698L261.68 249.898C261.526 250.002 261.346 250.061 261.16 250.068H260.95H260.87L260.74 249.978L260.69 249.928C260.547 249.794 260.434 249.63 260.36 249.448C260.198 249.087 260.116 248.694 260.12 248.298V100.488C260.184 99.5835 260.459 98.7064 260.923 97.9268C261.387 97.1473 262.026 96.4868 262.79 95.9982L348.07 46.8382C348.334 46.6769 348.632 46.5809 348.94 46.5582M348.94 45.5582C348.454 45.5747 347.982 45.7196 347.57 45.9782L262.29 95.1382C261.391 95.725 260.643 96.5151 260.107 97.4445C259.57 98.3739 259.259 99.4166 259.2 100.488V248.188C259.197 248.726 259.309 249.258 259.53 249.748C259.66 250.053 259.85 250.329 260.09 250.558C260.142 250.613 260.199 250.664 260.26 250.708L260.45 250.828L260.61 250.918C260.693 250.959 260.78 250.989 260.87 251.008C261 251.048 261.134 251.069 261.27 251.068C261.624 251.059 261.969 250.955 262.27 250.768L347.55 201.558C348.448 200.974 349.196 200.185 349.733 199.258C350.27 198.33 350.581 197.289 350.64 196.218V47.7682C350.64 47.6282 350.64 47.4982 350.64 47.3782C350.634 47.2833 350.617 47.1894 350.59 47.0982C350.594 47.0888 350.597 47.0786 350.597 47.0682C350.597 47.0578 350.594 47.0476 350.59 47.0382C350.577 46.9426 350.554 46.8486 350.52 46.7582C350.481 46.6196 350.42 46.488 350.34 46.3682C350.316 46.3094 350.282 46.2553 350.24 46.2082C350.212 46.167 350.178 46.1299 350.14 46.0982C350.084 46.0189 350.017 45.9481 349.94 45.8882C349.859 45.8287 349.772 45.7784 349.68 45.7382C349.457 45.6358 349.215 45.5846 348.97 45.5882L348.94 45.5582Z" fill="#45645C"/>
<g opacity="0.8">
<path d="M350.66 47.7682V196.218C350.601 197.289 350.29 198.33 349.753 199.258C349.217 200.185 348.469 200.974 347.57 201.558L262.29 250.768C261.989 250.955 261.644 251.059 261.29 251.068C261.154 251.069 261.02 251.048 260.89 251.008C260.8 250.989 260.713 250.959 260.63 250.918L260.47 250.828L260.28 250.708C260.219 250.664 260.162 250.613 260.11 250.558C259.87 250.329 259.68 250.053 259.55 249.748C259.329 249.258 259.217 248.726 259.22 248.188V100.488C259.279 99.4166 259.59 98.3739 260.127 97.4445C260.663 96.5151 261.411 95.725 262.31 95.1382L347.57 45.9982C347.869 45.7877 348.214 45.6531 348.577 45.606C348.939 45.559 349.307 45.6009 349.65 45.7282C349.742 45.7684 349.829 45.8187 349.91 45.8782C349.987 45.9381 350.054 46.0089 350.11 46.0882C350.148 46.1199 350.182 46.157 350.21 46.1982C350.252 46.2453 350.286 46.2994 350.31 46.3582C350.39 46.478 350.451 46.6096 350.49 46.7482C350.524 46.8386 350.547 46.9326 350.56 47.0282C350.564 47.0376 350.567 47.0479 350.567 47.0582C350.567 47.0686 350.564 47.0789 350.56 47.0882C350.587 47.1794 350.604 47.2733 350.61 47.3682C350.65 47.4982 350.66 47.6282 350.66 47.7682Z" fill="#45645C"/>
</g>
</g>
<path d="M349.65 45.7182C349.307 45.5909 348.939 45.549 348.577 45.596C348.214 45.6431 347.869 45.7777 347.57 45.9882L262.29 95.1382C261.391 95.725 260.643 96.5151 260.107 97.4445C259.57 98.3739 259.259 99.4166 259.2 100.488V110.558L255.27 108.258V98.2582C255.326 97.1909 255.633 96.1518 256.167 95.2257C256.7 94.2995 257.445 93.5123 258.34 92.9282L343.64 43.7682C343.957 43.5322 344.335 43.3902 344.729 43.3583C345.124 43.3265 345.519 43.4062 345.87 43.5882C346.43 43.9082 349 45.3782 349.65 45.7182Z" fill="#79DB92"/>
<path d="M350.65 47.7482C350.65 45.7482 349.27 45.0082 347.57 45.9882L262.29 95.1482C261.391 95.7301 260.643 96.5163 260.106 97.4426C259.569 98.3689 259.259 99.4091 259.2 100.478V110.568L350.64 57.8582L350.65 47.7482Z" fill="#79DB92"/>
<g opacity="0.4">
<path d="M347.57 45.9982L262.29 95.1382C261.387 95.7082 260.641 96.4955 260.12 97.4282L256.2 95.1582C256.711 94.2358 257.452 93.4608 258.35 92.9082L343.64 43.7582C343.96 43.524 344.338 43.3824 344.734 43.3489C345.129 43.3153 345.525 43.3912 345.88 43.5682C346.43 43.9082 348.99 45.3682 349.64 45.7182C349.299 45.5897 348.931 45.548 348.57 45.5969C348.209 45.6458 347.865 45.7837 347.57 45.9982Z" fill="white"/>
</g>
<path opacity="0.15" d="M255.26 108.268V98.2682C255.304 97.1749 255.628 96.1111 256.2 95.1782L260.13 97.4382C259.563 98.3646 259.246 99.4225 259.21 100.508V110.588L255.26 108.268Z" fill="black"/>
<path d="M332.09 59.2182C331.533 59.6565 331.086 60.2177 330.782 60.8579C330.479 61.4981 330.327 62.1998 330.34 62.9082C330.34 64.3882 331.12 65.1382 332.09 64.5882C332.644 64.1479 333.089 63.5861 333.391 62.9462C333.692 62.3063 333.843 61.6056 333.83 60.8982C333.83 59.4182 333.05 58.6682 332.09 59.2182Z" fill="#45645C"/>
<path d="M338.36 55.5982C337.803 56.0339 337.355 56.5932 337.051 57.2319C336.747 57.8706 336.596 58.5711 336.61 59.2782C336.61 60.7582 337.39 61.5182 338.36 60.9582C338.914 60.5179 339.359 59.9561 339.66 59.3162C339.962 58.6763 340.113 57.9756 340.1 57.2682C340.1 55.7882 339.32 54.9982 338.36 55.5982Z" fill="#45645C"/>
<path d="M344.63 51.9982C344.074 52.4365 343.627 52.9979 343.325 53.6383C343.023 54.2787 342.874 54.9804 342.89 55.6882C342.89 57.1682 343.66 57.9182 344.63 57.3582C345.184 56.9205 345.629 56.3605 345.931 55.7222C346.233 55.0838 346.383 54.3843 346.37 53.6782C346.37 52.1582 345.59 51.4082 344.63 51.9982Z" fill="#45645C"/>
<path opacity="0.9" d="M260.33 250.778L259.95 250.558C259.67 250.388 259.34 250.208 259 250.018L258.48 249.728L257.67 249.258L256.99 248.878C256.81 248.768 256.67 248.698 256.61 248.668C256.409 248.558 256.23 248.412 256.08 248.238C255.908 248.053 255.77 247.84 255.67 247.608C255.436 247.1 255.317 246.547 255.32 245.988V108.258L259.25 110.558V248.188C259.265 248.724 259.377 249.252 259.58 249.748C259.71 250.053 259.901 250.329 260.14 250.558C260.185 250.621 260.243 250.672 260.31 250.708C260.313 250.732 260.32 250.756 260.33 250.778Z" fill="#374F49"/>
<path d="M266.78 118.938C266.785 118.736 266.836 118.538 266.93 118.358L269.15 113.778C269.177 113.727 269.211 113.68 269.25 113.638H269.31C269.335 113.62 269.364 113.609 269.395 113.609C269.426 113.609 269.456 113.62 269.48 113.638C269.532 113.703 269.558 113.785 269.55 113.868V115.408C269.569 115.568 269.569 115.729 269.55 115.888C269.512 116.034 269.459 116.175 269.39 116.308L268.22 118.728L269.39 119.798C269.46 119.866 269.515 119.948 269.55 120.038C269.571 120.181 269.571 120.326 269.55 120.468V121.998C269.55 122.105 269.526 122.211 269.48 122.308C269.442 122.392 269.384 122.464 269.31 122.518H269.25C269.25 122.518 269.19 122.518 269.15 122.518L266.93 120.518C266.876 120.468 266.834 120.405 266.808 120.336C266.782 120.266 266.773 120.192 266.78 120.118V118.938Z" fill="#79DB92"/>
<path d="M274.88 107.438C274.923 107.284 274.98 107.133 275.05 106.988C275.124 106.84 275.239 106.715 275.38 106.628L276.21 106.148C276.236 106.129 276.268 106.118 276.3 106.118C276.332 106.118 276.364 106.129 276.39 106.148C276.438 106.215 276.463 106.296 276.46 106.378C276.464 106.435 276.464 106.492 276.46 106.548L272.66 122.748C272.62 122.899 272.566 123.047 272.5 123.188C272.426 123.342 272.307 123.471 272.16 123.558L271.36 124.018C271.349 124.029 271.336 124.038 271.321 124.044C271.306 124.05 271.291 124.054 271.275 124.054C271.259 124.054 271.244 124.05 271.229 124.044C271.214 124.038 271.201 124.029 271.19 124.018C271.163 123.989 271.143 123.954 271.131 123.916C271.119 123.878 271.115 123.838 271.12 123.798C271.111 123.742 271.111 123.685 271.12 123.628L274.88 107.438Z" fill="#79DB92"/>
<path d="M280.77 111.998C280.761 112.198 280.706 112.393 280.61 112.568L278.39 117.158C278.367 117.211 278.333 117.259 278.29 117.298H278.24C278.215 117.319 278.183 117.331 278.15 117.331C278.117 117.331 278.085 117.319 278.06 117.298C278.033 117.269 278.013 117.234 278.001 117.196C277.989 117.158 277.985 117.118 277.99 117.078V115.538C277.972 115.379 277.972 115.218 277.99 115.058C278.032 114.914 278.086 114.774 278.15 114.638L279.32 112.218L278.15 111.138C278.081 111.073 278.027 110.995 277.99 110.908C277.969 110.766 277.969 110.621 277.99 110.478V108.998C277.989 108.891 278.013 108.785 278.06 108.688C278.098 108.602 278.161 108.529 278.24 108.478C278.24 108.478 278.24 108.478 278.29 108.478C278.306 108.471 278.323 108.467 278.34 108.467C278.357 108.467 278.374 108.471 278.39 108.478L280.61 110.478C280.665 110.526 280.708 110.587 280.736 110.654C280.764 110.722 280.776 110.795 280.77 110.868V111.998Z" fill="#79DB92"/>
<path d="M286.93 110.938C286.958 110.911 286.996 110.895 287.035 110.895C287.074 110.895 287.112 110.911 287.14 110.938C287.172 110.975 287.197 111.018 287.212 111.064C287.228 111.111 287.234 111.159 287.23 111.208V112.908C287.229 113.04 287.198 113.17 287.14 113.288C287.101 113.396 287.027 113.487 286.93 113.548L285.88 114.158C285.852 114.186 285.814 114.201 285.775 114.201C285.736 114.201 285.698 114.186 285.67 114.158C285.638 114.121 285.614 114.079 285.598 114.032C285.583 113.986 285.577 113.937 285.58 113.888V112.188C285.581 112.056 285.612 111.927 285.67 111.808C285.71 111.701 285.783 111.609 285.88 111.548L286.93 110.938Z" fill="#79DB92"/>
<path d="M290.43 108.918C290.46 108.895 290.497 108.882 290.535 108.882C290.573 108.882 290.61 108.895 290.64 108.918C290.672 108.955 290.697 108.998 290.712 109.044C290.728 109.091 290.734 109.14 290.73 109.188V110.888C290.729 111.02 290.698 111.15 290.64 111.268C290.601 111.376 290.527 111.467 290.43 111.528L289.38 112.138C289.352 112.166 289.314 112.181 289.275 112.181C289.236 112.181 289.198 112.166 289.17 112.138C289.138 112.101 289.114 112.059 289.098 112.012C289.083 111.966 289.077 111.917 289.08 111.868V110.168C289.081 110.036 289.112 109.907 289.17 109.788C289.21 109.681 289.283 109.589 289.38 109.528L290.43 108.918Z" fill="#79DB92"/>
<path d="M293.92 106.898C293.952 106.874 293.99 106.861 294.03 106.861C294.07 106.861 294.109 106.874 294.14 106.898C294.173 106.937 294.198 106.981 294.213 107.029C294.229 107.077 294.234 107.128 294.23 107.178V108.868C294.23 109 294.199 109.13 294.14 109.248C294.094 109.357 294.018 109.451 293.92 109.518L292.92 110.118C292.889 110.144 292.85 110.159 292.81 110.159C292.77 110.159 292.731 110.144 292.7 110.118C292.667 110.082 292.642 110.039 292.626 109.993C292.611 109.946 292.605 109.897 292.61 109.848V108.148C292.611 108.016 292.642 107.887 292.7 107.768C292.743 107.66 292.82 107.568 292.92 107.508L293.92 106.898Z" fill="#79DB92"/>
<path d="M267.71 131.308L319 101.728C319.61 101.378 320.1 101.628 320.1 102.278C320.074 102.647 319.96 103.004 319.769 103.32C319.578 103.637 319.314 103.903 319 104.098L267.76 133.688C267.16 134.038 266.66 133.788 266.66 133.128C266.682 132.764 266.788 132.41 266.97 132.094C267.153 131.778 267.406 131.509 267.71 131.308Z" fill="#79DB92"/>
<path d="M284.15 150.298L335.4 120.708C336 120.358 336.49 120.608 336.49 121.268C336.464 121.634 336.351 121.989 336.162 122.304C335.973 122.618 335.712 122.884 335.4 123.078L284.15 152.668C283.55 153.018 283.06 152.768 283.06 152.118C283.086 151.751 283.199 151.394 283.388 151.078C283.577 150.762 283.838 150.495 284.15 150.298Z" fill="#E0E0E0"/>
<path d="M284.15 159.788L308.68 145.638C309.28 145.288 309.77 145.538 309.77 146.188C309.744 146.556 309.631 146.912 309.442 147.228C309.253 147.544 308.992 147.812 308.68 148.008L284.15 162.158C283.55 162.508 283.06 162.258 283.06 161.608C283.086 161.241 283.199 160.884 283.388 160.568C283.577 160.252 283.838 159.985 284.15 159.788Z" fill="#E0E0E0"/>
<path d="M284.15 169.278L308.68 155.128C309.28 154.778 309.77 155.028 309.77 155.688C309.742 156.055 309.629 156.411 309.44 156.727C309.251 157.043 308.991 157.31 308.68 157.508L284.15 171.658C283.55 171.998 283.06 171.758 283.06 171.098C283.088 170.731 283.201 170.375 283.39 170.059C283.579 169.744 283.839 169.476 284.15 169.278Z" fill="#E0E0E0"/>
<path d="M323.2 99.2782L343.62 87.4382C344.22 87.0982 344.71 87.3382 344.71 87.9982C344.682 88.3654 344.569 88.721 344.38 89.037C344.191 89.3529 343.931 89.6204 343.62 89.8182L323.2 101.648C322.59 101.998 322.1 101.748 322.1 101.088C322.127 100.721 322.24 100.365 322.431 100.05C322.623 99.7356 322.886 99.4709 323.2 99.2782Z" fill="#79DB92"/>
<path d="M267.71 235.718L319 206.128C319.61 205.778 320.1 206.028 320.1 206.688C320.073 207.057 319.959 207.414 319.768 207.73C319.577 208.046 319.314 208.313 319 208.508L267.76 238.088C267.16 238.438 266.66 238.188 266.66 237.538C266.681 237.174 266.787 236.82 266.969 236.504C267.152 236.188 267.405 235.919 267.71 235.718Z" fill="#79DB92"/>
<path d="M323.2 203.678L343.62 191.848C344.22 191.498 344.71 191.748 344.71 192.408C344.684 192.775 344.571 193.129 344.382 193.444C344.193 193.758 343.932 194.024 343.62 194.218L323.2 206.058C322.59 206.398 322.1 206.158 322.1 205.498C322.127 205.13 322.241 204.773 322.432 204.457C322.624 204.14 322.887 203.874 323.2 203.678Z" fill="#79DB92"/>
<path d="M323.2 175.258L343.62 163.428C344.22 163.078 344.71 163.318 344.71 163.978C344.684 164.346 344.571 164.702 344.382 165.018C344.193 165.334 343.932 165.602 343.62 165.798L323.2 177.628C322.59 177.978 322.1 177.728 322.1 177.078C322.127 176.71 322.24 176.352 322.431 176.036C322.623 175.72 322.886 175.453 323.2 175.258Z" fill="#79DB92"/>
<path d="M323.2 184.748L343.62 172.918C344.22 172.568 344.71 172.808 344.71 173.468C344.684 173.836 344.571 174.192 344.382 174.508C344.193 174.824 343.932 175.092 343.62 175.288L323.2 187.118C322.59 187.468 322.1 187.218 322.1 186.568C322.127 186.2 322.24 185.842 322.431 185.526C322.623 185.21 322.886 184.943 323.2 184.748Z" fill="#79DB92"/>
<path d="M267.71 226.238L319 196.648C319.61 196.298 320.1 196.548 320.1 197.208C320.068 197.571 319.952 197.922 319.761 198.233C319.57 198.544 319.31 198.806 319 198.998L267.76 228.578C267.16 228.928 266.66 228.678 266.66 228.028C266.686 227.669 266.794 227.321 266.976 227.01C267.158 226.7 267.409 226.436 267.71 226.238Z" fill="#F5F5F5"/>
<path d="M305.79 185.278L317.26 178.658C317.87 178.308 318.36 178.558 318.36 179.208C318.334 179.577 318.22 179.934 318.029 180.25C317.838 180.567 317.574 180.833 317.26 181.028L305.79 187.648C305.19 187.998 304.7 187.748 304.7 187.098C304.726 186.731 304.839 186.374 305.028 186.058C305.217 185.742 305.479 185.475 305.79 185.278Z" fill="#79DB92"/>
<path d="M267.71 140.828L297.6 123.558C298.2 123.208 298.69 123.458 298.69 124.108C298.664 124.476 298.552 124.832 298.362 125.148C298.173 125.464 297.912 125.732 297.6 125.928L267.71 143.198C267.11 143.548 266.61 143.298 266.61 142.648C266.637 142.28 266.75 141.922 266.941 141.606C267.133 141.29 267.396 141.023 267.71 140.828Z" fill="#79DB92"/>
<path opacity="0.6" d="M267.71 140.828L297.6 123.558C298.2 123.208 298.69 123.458 298.69 124.108C298.664 124.476 298.552 124.832 298.362 125.148C298.173 125.464 297.912 125.732 297.6 125.928L267.71 143.198C267.11 143.548 266.61 143.298 266.61 142.648C266.637 142.28 266.75 141.922 266.941 141.606C267.133 141.29 267.396 141.023 267.71 140.828Z" fill="white"/>
<path d="M267.71 150.298L277.85 144.438C278.46 144.088 278.95 144.338 278.95 144.988C278.924 145.357 278.81 145.714 278.619 146.03C278.428 146.347 278.164 146.613 277.85 146.808L267.71 152.668C267.11 153.018 266.61 152.778 266.61 152.118C266.637 151.75 266.75 151.392 266.941 151.076C267.133 150.76 267.396 150.493 267.71 150.298Z" fill="#79DB92"/>
<path opacity="0.6" d="M267.71 150.298L277.85 144.438C278.46 144.088 278.95 144.338 278.95 144.988C278.924 145.357 278.81 145.714 278.619 146.03C278.428 146.347 278.164 146.613 277.85 146.808L267.71 152.668C267.11 153.018 266.61 152.778 266.61 152.118C266.637 151.75 266.75 151.392 266.941 151.076C267.133 150.76 267.396 150.493 267.71 150.298Z" fill="white"/>
<path d="M267.71 159.788L277.85 153.928C278.46 153.578 278.95 153.828 278.95 154.488C278.924 154.856 278.81 155.211 278.619 155.526C278.427 155.841 278.164 156.106 277.85 156.298L267.71 162.168C267.11 162.518 266.61 162.268 266.61 161.608C266.637 161.24 266.751 160.883 266.942 160.567C267.134 160.25 267.397 159.984 267.71 159.788Z" fill="#79DB92"/>
<path opacity="0.6" d="M267.71 159.788L277.85 153.928C278.46 153.578 278.95 153.828 278.95 154.488C278.924 154.856 278.81 155.211 278.619 155.526C278.427 155.841 278.164 156.106 277.85 156.298L267.71 162.168C267.11 162.518 266.61 162.268 266.61 161.608C266.637 161.24 266.751 160.883 266.942 160.567C267.134 160.25 267.397 159.984 267.71 159.788Z" fill="white"/>
<path d="M267.71 169.288L277.85 163.418C278.46 163.068 278.95 163.318 278.95 163.978C278.923 164.347 278.809 164.704 278.618 165.02C278.427 165.336 278.164 165.603 277.85 165.798L267.71 171.658C267.11 172.008 266.61 171.758 266.61 171.098C266.637 170.731 266.75 170.375 266.942 170.06C267.133 169.746 267.396 169.481 267.71 169.288Z" fill="#79DB92"/>
<path opacity="0.6" d="M267.71 169.288L277.85 163.418C278.46 163.068 278.95 163.318 278.95 163.978C278.923 164.347 278.809 164.704 278.618 165.02C278.427 165.336 278.164 165.603 277.85 165.798L267.71 171.658C267.11 172.008 266.61 171.758 266.61 171.098C266.637 170.731 266.75 170.375 266.942 170.06C267.133 169.746 267.396 169.481 267.71 169.288Z" fill="white"/>
<path d="M267.71 178.778L277.85 172.918C278.46 172.568 278.95 172.808 278.95 173.468C278.924 173.837 278.81 174.194 278.619 174.51C278.428 174.827 278.164 175.093 277.85 175.288L267.71 181.148C267.11 181.498 266.61 181.248 266.61 180.598C266.637 180.23 266.75 179.872 266.941 179.556C267.133 179.24 267.396 178.973 267.71 178.778Z" fill="#79DB92"/>
<path opacity="0.6" d="M267.71 178.778L277.85 172.918C278.46 172.568 278.95 172.808 278.95 173.468C278.924 173.837 278.81 174.194 278.619 174.51C278.428 174.827 278.164 175.093 277.85 175.288L267.71 181.148C267.11 181.498 266.61 181.248 266.61 180.598C266.637 180.23 266.75 179.872 266.941 179.556C267.133 179.24 267.396 178.973 267.71 178.778Z" fill="white"/>
<path d="M301.85 121.108L314.85 113.628C315.46 113.278 315.95 113.518 315.95 114.178C315.923 114.547 315.809 114.904 315.618 115.22C315.427 115.536 315.164 115.803 314.85 115.998L301.85 123.478C301.24 123.828 300.75 123.578 300.75 122.918C300.777 122.551 300.89 122.195 301.081 121.88C301.273 121.566 301.536 121.301 301.85 121.108Z" fill="#79DB92"/>
<path opacity="0.6" d="M301.85 121.108L314.85 113.628C315.46 113.278 315.95 113.518 315.95 114.178C315.923 114.547 315.809 114.904 315.618 115.22C315.427 115.536 315.164 115.803 314.85 115.998L301.85 123.478C301.24 123.828 300.75 123.578 300.75 122.918C300.777 122.551 300.89 122.195 301.081 121.88C301.273 121.566 301.536 121.301 301.85 121.108Z" fill="white"/>
<path d="M296.48 171.638L326.37 154.368C326.98 154.018 327.47 154.268 327.47 154.928C327.444 155.296 327.33 155.651 327.139 155.966C326.947 156.281 326.684 156.546 326.37 156.738L296.48 173.998C295.88 174.348 295.39 174.108 295.39 173.448C295.418 173.082 295.531 172.728 295.72 172.414C295.91 172.1 296.17 171.834 296.48 171.638Z" fill="#F5F5F5"/>
<path d="M313.73 171.218L343.62 153.998C344.22 153.648 344.71 153.898 344.71 154.548C344.684 154.916 344.572 155.272 344.382 155.588C344.193 155.904 343.932 156.172 343.62 156.368L313.73 173.638C313.12 173.988 312.63 173.738 312.63 173.078C312.649 172.702 312.759 172.336 312.95 172.012C313.142 171.688 313.41 171.416 313.73 171.218Z" fill="#F5F5F5"/>
<path d="M330.62 151.918L343.62 144.438C344.22 144.088 344.71 144.338 344.71 144.988C344.684 145.356 344.571 145.712 344.382 146.028C344.193 146.344 343.932 146.612 343.62 146.808L330.62 154.288C330.01 154.638 329.52 154.388 329.52 153.738C329.547 153.37 329.66 153.012 329.851 152.696C330.043 152.38 330.306 152.113 330.62 151.918Z" fill="#F5F5F5"/>
<path d="M284.15 140.808L314 123.538C314.61 123.188 315.1 123.438 315.1 124.088C315.073 124.457 314.96 124.814 314.769 125.13C314.578 125.447 314.314 125.713 314 125.908L284.11 143.178C283.51 143.528 283.02 143.278 283.02 142.628C283.051 142.257 283.169 141.898 283.366 141.582C283.562 141.266 283.831 141 284.15 140.808Z" fill="#79DB92"/>
<path opacity="0.6" d="M284.15 140.808L314 123.538C314.61 123.188 315.1 123.438 315.1 124.088C315.073 124.457 314.96 124.814 314.769 125.13C314.578 125.447 314.314 125.713 314 125.908L284.11 143.178C283.51 143.528 283.02 143.278 283.02 142.628C283.051 142.257 283.169 141.898 283.366 141.582C283.562 141.266 283.831 141 284.15 140.808Z" fill="white"/>
<path d="M318.29 121.088L331.29 113.608C331.9 113.258 332.39 113.508 332.39 114.158C332.364 114.527 332.25 114.884 332.059 115.2C331.868 115.517 331.604 115.783 331.29 115.978L318.29 123.458C317.68 123.808 317.19 123.558 317.19 122.908C317.217 122.54 317.33 122.182 317.521 121.866C317.713 121.55 317.976 121.283 318.29 121.088Z" fill="#79DB92"/>
<path opacity="0.6" d="M318.29 121.088L331.29 113.608C331.9 113.258 332.39 113.508 332.39 114.158C332.364 114.527 332.25 114.884 332.059 115.2C331.868 115.517 331.604 115.783 331.29 115.978L318.29 123.458C317.68 123.808 317.19 123.558 317.19 122.908C317.217 122.54 317.33 122.182 317.521 121.866C317.713 121.55 317.976 121.283 318.29 121.088Z" fill="white"/>
<path d="M413.74 54.8382V43.4482L404.13 42.6082C403.992 42.5969 403.853 42.6246 403.73 42.6882C403.36 42.8982 394.26 48.0982 394.14 48.1782C394.05 48.2311 393.972 48.3037 393.913 48.3905C393.855 48.4773 393.816 48.5762 393.801 48.6798C393.786 48.7835 393.794 48.8893 393.825 48.9894C393.856 49.0895 393.909 49.1814 393.98 49.2582L404.17 60.3082L413.74 54.8382Z" fill="#79DB92"/>
<path d="M404.17 60.3082L394 49.2582C393.906 49.1528 393.846 49.0218 393.827 48.882C393.808 48.7422 393.831 48.5999 393.894 48.4733C393.956 48.3467 394.054 48.2415 394.177 48.1711C394.299 48.1008 394.439 48.0684 394.58 48.0782L404.19 48.9182L404.17 60.3082Z" fill="#79DB92"/>
<path d="M413.74 43.4482L404.17 48.9182L394.56 48.0782C394.448 48.068 394.334 48.0852 394.23 48.1282C395 47.6782 403.38 42.8782 403.73 42.6982C403.85 42.6265 403.99 42.595 404.13 42.6082L413.74 43.4482Z" fill="#79DB92"/>
<path opacity="0.5" d="M413.74 43.4482L404.17 48.9182L394.56 48.0782C394.448 48.068 394.334 48.0852 394.23 48.1282C395 47.6782 403.38 42.8782 403.73 42.6982C403.85 42.6265 403.99 42.595 404.13 42.6082L413.74 43.4482Z" fill="white"/>
<path d="M404.19 36.0682C404.255 34.8656 404.603 33.6953 405.206 32.6527C405.809 31.6101 406.65 30.7246 407.66 30.0682L410.48 28.4382C411.554 27.8959 412.741 27.6133 413.945 27.6133C415.149 27.6133 416.335 27.8959 417.41 28.4382L447.48 45.8082C448.488 46.4657 449.327 47.3517 449.928 48.3942C450.529 49.4368 450.876 50.6065 450.94 51.8082V86.5382C450.873 87.7393 450.525 88.9078 449.924 89.9498C449.323 90.9919 448.486 91.8784 447.48 92.5382L444.66 94.1582C443.587 94.7052 442.399 94.9904 441.195 94.9904C439.99 94.9904 438.803 94.7052 437.73 94.1582L428.85 89.0382L417.31 82.3682L407.66 76.7982C406.65 76.1425 405.808 75.2571 405.205 74.2144C404.602 73.1716 404.254 72.0011 404.19 70.7982V36.0682Z" fill="#79DB92"/>
<path opacity="0.2" d="M450.94 86.5382C450.873 87.7392 450.524 88.9077 449.924 89.9498C449.323 90.9919 448.486 91.8784 447.48 92.5382L444.66 94.1582C443.683 94.6509 442.613 94.9306 441.52 94.9788C440.427 95.0271 439.336 94.8428 438.32 94.4382C439.95 95.0582 441.19 94.1382 441.19 92.1582V57.4382C441.15 56.2322 440.806 55.0559 440.19 54.0182L449.94 48.3882C450.556 49.4259 450.9 50.6022 450.94 51.8082V86.5382Z" fill="black"/>
<path opacity="0.5" d="M404.3 35.0882C404.71 33.6182 406.05 33.1482 407.65 34.0882L437.73 51.4582C438.746 52.0831 439.586 52.9574 440.17 53.9982L449.92 48.3782C449.343 47.3191 448.503 46.427 447.48 45.7882L417.41 28.4482C416.335 27.9059 415.148 27.6234 413.945 27.6234C412.741 27.6234 411.554 27.9059 410.48 28.4482L407.65 30.0782C406.782 30.6438 406.038 31.3794 405.462 32.2404C404.886 33.1015 404.491 34.0702 404.3 35.0882Z" fill="white"/>
<path d="M422.69 48.7582L411.24 47.1582L412.84 68.2782L422.69 81.0782V48.7582Z" fill="#45645C"/>
<path d="M422.69 48.7582L434.14 60.3782L432.54 79.6582L422.69 81.0782V48.7582Z" fill="#374F49"/>
<path d="M427.41 76.2482L430 77.7682L422.71 51.9982L415.4 69.3182L418 70.8282L419.58 67.0682L425.81 70.6682L427.41 76.2482ZM420.55 64.8082L422.71 59.6582L424.88 67.3082L420.55 64.8082Z" fill="#FAFAFA"/>
<path d="M413.74 119.678V108.288L404.13 107.458C403.992 107.442 403.852 107.47 403.73 107.538C403.36 107.738 394.26 112.948 394.14 113.018C394.05 113.071 393.972 113.144 393.913 113.231C393.855 113.317 393.816 113.416 393.801 113.52C393.786 113.624 393.794 113.729 393.825 113.829C393.856 113.93 393.909 114.021 393.98 114.098L404.17 125.148L413.74 119.678Z" fill="#79DB92"/>
<path d="M404.17 125.148L394 114.098C393.906 113.993 393.846 113.862 393.827 113.722C393.808 113.582 393.831 113.44 393.894 113.313C393.956 113.187 394.054 113.081 394.177 113.011C394.299 112.941 394.439 112.908 394.58 112.918L404.19 113.758L404.17 125.148Z" fill="#EBEBEB"/>
<path d="M413.74 108.288L404.17 113.768L394.56 112.928C394.452 112.902 394.338 112.902 394.23 112.928C395 112.478 403.38 107.678 403.73 107.498C403.85 107.425 403.991 107.396 404.13 107.418L413.74 108.288Z" fill="#79DB92"/>
<path d="M413.74 108.288L404.17 113.768L394.56 112.928C394.452 112.902 394.338 112.902 394.23 112.928C395 112.478 403.38 107.678 403.73 107.498C403.85 107.425 403.991 107.396 404.13 107.418L413.74 108.288Z" fill="#F5F5F5"/>
<path d="M404.19 100.918C404.254 99.7154 404.602 98.5448 405.205 97.5021C405.808 96.4593 406.65 95.574 407.66 94.9182L410.48 93.2882C411.553 92.7412 412.74 92.4561 413.945 92.4561C415.149 92.4561 416.337 92.7412 417.41 93.2882L447.48 110.648C448.488 111.306 449.327 112.192 449.928 113.234C450.529 114.277 450.876 115.446 450.94 116.648V151.388C450.874 152.59 450.527 153.759 449.926 154.801C449.325 155.843 448.487 156.73 447.48 157.388L444.66 158.998C443.585 159.541 442.399 159.823 441.195 159.823C439.991 159.823 438.804 159.541 437.73 158.998L428.85 153.868L417.31 147.208L407.66 141.638C406.651 140.981 405.811 140.095 405.209 139.053C404.606 138.01 404.257 136.84 404.19 135.638V100.918Z" fill="#EBEBEB"/>
<path d="M450.94 151.388C450.874 152.59 450.527 153.759 449.926 154.801C449.325 155.843 448.487 156.73 447.48 157.388L444.66 158.998C443.682 159.488 442.612 159.767 441.52 159.815C440.427 159.863 439.337 159.68 438.32 159.278C439.95 159.888 441.19 158.968 441.19 156.998V122.278C441.15 121.075 440.806 119.902 440.19 118.868L449.94 113.238C450.556 114.272 450.9 115.445 450.94 116.648V151.388Z" fill="#E0E0E0"/>
<path d="M404.3 99.9282C404.71 98.4582 406.05 97.9882 407.65 98.9282L437.73 116.298C438.754 116.935 439.595 117.827 440.17 118.888L449.92 113.258C449.342 112.203 448.501 111.314 447.48 110.678L417.41 93.2882C416.335 92.7459 415.148 92.4633 413.945 92.4633C412.741 92.4633 411.554 92.7459 410.48 93.2882L407.65 94.9182C406.782 95.4838 406.038 96.2193 405.462 97.0804C404.886 97.9414 404.491 98.9102 404.3 99.9282Z" fill="#F5F5F5"/>
<path d="M422.69 122.148L425.22 117.398L434.14 122.548L422.69 144.088L411.24 109.328L420.16 114.478L422.69 122.148Z" fill="#79DB92"/>
<path opacity="0.15" d="M422.69 122.148L425.22 117.398L434.14 122.548L422.69 144.088L411.24 109.328L420.16 114.478L422.69 122.148Z" fill="black"/>
<path d="M422.69 122.148L420.16 114.478L416.16 112.188C419.36 121.878 422.67 131.928 422.67 131.928L429.17 119.698L425.17 117.398L422.69 122.148Z" fill="#374F49"/>
<path d="M413.74 184.518V173.138L404.13 172.298C403.992 172.287 403.853 172.315 403.73 172.378C403.36 172.578 394.26 177.788 394.14 177.858C394.042 177.913 393.958 177.989 393.896 178.082C393.833 178.175 393.793 178.281 393.78 178.393C393.766 178.504 393.779 178.617 393.817 178.722C393.856 178.827 393.918 178.922 394 178.998L404.19 189.998L413.74 184.518Z" fill="#79DB92"/>
<path d="M404.17 189.998L394 178.998C393.906 178.893 393.846 178.762 393.827 178.622C393.808 178.482 393.831 178.34 393.894 178.213C393.956 178.087 394.054 177.982 394.177 177.911C394.299 177.841 394.439 177.808 394.58 177.818L404.19 178.658L404.17 189.998Z" fill="#374F49"/>
<path d="M413.74 173.128L404.17 178.608L394.56 177.768C394.452 177.742 394.338 177.742 394.23 177.768C395 177.308 403.38 172.518 403.73 172.328C403.852 172.26 403.992 172.232 404.13 172.248L413.74 173.128Z" fill="#79DB92"/>
<path d="M413.74 173.128L404.17 178.608L394.56 177.768C394.452 177.742 394.338 177.742 394.23 177.768C395 177.308 403.38 172.518 403.73 172.328C403.852 172.26 403.992 172.232 404.13 172.248L413.74 173.128Z" fill="#45645C"/>
<path d="M404.19 165.758C404.254 164.555 404.602 163.385 405.205 162.342C405.808 161.299 406.65 160.414 407.66 159.758L410.48 158.128C411.553 157.581 412.74 157.296 413.945 157.296C415.149 157.296 416.337 157.581 417.41 158.128L447.48 175.488C448.487 176.147 449.325 177.033 449.926 178.075C450.527 179.118 450.874 180.287 450.94 181.488V216.228C450.876 217.43 450.529 218.6 449.928 219.642C449.327 220.685 448.488 221.571 447.48 222.228L444.66 223.858C443.587 224.405 442.399 224.69 441.195 224.69C439.99 224.69 438.803 224.405 437.73 223.858L428.85 218.738L417.31 212.068L407.66 206.498C406.65 205.842 405.809 204.956 405.206 203.914C404.603 202.871 404.255 201.701 404.19 200.498V165.758Z" fill="#374F49"/>
<path d="M450.94 216.228C450.876 217.43 450.529 218.6 449.928 219.642C449.327 220.685 448.488 221.571 447.48 222.228L444.66 223.858C443.683 224.351 442.613 224.631 441.52 224.679C440.427 224.727 439.336 224.543 438.32 224.138C439.95 224.758 441.19 223.838 441.19 221.858V187.118C441.15 185.915 440.806 184.742 440.19 183.708L449.94 178.078C450.556 179.112 450.9 180.285 450.94 181.488V216.228Z" fill="#263834"/>
<path d="M404.3 164.768C404.71 163.298 406.05 162.838 407.65 163.768L437.73 181.138C438.756 181.768 439.598 182.658 440.17 183.718L449.92 178.098C449.343 177.039 448.503 176.147 447.48 175.508L417.41 158.138C416.335 157.596 415.148 157.313 413.945 157.313C412.741 157.313 411.554 157.596 410.48 158.138L407.65 159.768C406.783 160.333 406.04 161.067 405.464 161.926C404.888 162.785 404.492 163.752 404.3 164.768Z" fill="#45645C"/>
<path d="M429.39 192.288C430.1 188.698 429.8 185.388 428.39 183.508C428.088 183.067 427.684 182.706 427.212 182.455C426.74 182.204 426.214 182.072 425.68 182.068H425.43C424.47 182.16 423.552 182.505 422.77 183.068C420.77 179.288 418.77 176.958 417.34 176.958H417.14C416.947 176.995 416.764 177.076 416.607 177.194C416.449 177.311 416.32 177.463 416.23 177.638C415.54 178.788 415.5 181.268 416.03 184.548C414.787 184.203 413.463 184.295 412.28 184.808C411.903 185.031 411.596 185.353 411.391 185.74C411.186 186.126 411.092 186.562 411.12 186.998C411.12 189.168 413.03 192.148 416 194.998C415.29 198.588 415.59 201.908 417 203.788C417.307 204.192 417.691 204.532 418.13 204.788C418.613 205.067 419.162 205.212 419.72 205.208C420.078 205.206 420.435 205.156 420.78 205.058C421.466 204.836 422.108 204.498 422.68 204.058C424.3 207.058 425.9 209.228 427.19 209.978C427.491 210.165 427.836 210.269 428.19 210.278H428.39C428.583 210.241 428.766 210.161 428.923 210.043C429.081 209.925 429.21 209.773 429.3 209.598C429.99 208.448 430.03 205.948 429.5 202.658C430.023 202.765 430.556 202.821 431.09 202.828C431.802 202.86 432.51 202.701 433.14 202.368C433.517 202.148 433.826 201.828 434.032 201.443C434.238 201.058 434.335 200.624 434.31 200.188C434.27 198.118 432.35 195.128 429.39 192.288ZM425.96 198.088C425.61 198.718 425.23 199.288 424.85 199.838C424.19 199.518 423.49 199.158 422.75 198.728C422.01 198.298 421.31 197.848 420.63 197.398C420.24 196.398 419.85 195.338 419.48 194.238C419.11 193.138 418.79 192.118 418.48 191.118C418.76 190.498 419.06 189.878 419.4 189.268C419.733 188.664 420.1 188.08 420.5 187.518C421.16 187.838 421.86 188.188 422.61 188.618C423.36 189.048 424.13 189.538 424.84 190.028C425.22 191.022 425.6 192.072 425.98 193.178C426.32 194.178 426.63 195.178 426.91 196.108C426.64 196.768 426.32 197.428 426 198.088H425.96ZM426.96 192.978C426.73 192.308 426.5 191.668 426.27 191.028C426.94 191.538 427.57 192.028 428.16 192.578C427.982 193.293 427.765 193.997 427.51 194.688C427.32 194.128 427.13 193.558 426.94 192.998L426.96 192.978ZM422.77 187.338C422.26 187.038 421.77 186.778 421.27 186.528C421.703 185.988 422.182 185.487 422.7 185.028C423.17 185.978 423.65 187.028 424.12 188.158C423.66 187.878 423.21 187.598 422.75 187.338H422.77ZM418.52 188.218C418.34 188.548 418.17 188.878 418 189.218C417.73 188.218 417.51 187.218 417.32 186.278C418 186.465 418.667 186.692 419.32 186.958C419 187.358 418.75 187.778 418.5 188.218H418.52ZM418.52 194.438C418.75 195.108 418.99 195.758 419.23 196.438C418.51 195.898 417.84 195.358 417.23 194.808C417.425 194.047 417.659 193.296 417.93 192.558C418.12 193.158 418.33 193.788 418.54 194.438H418.52ZM422.61 200.018C423.11 200.308 423.61 200.568 424.09 200.818C423.681 201.338 423.229 201.823 422.74 202.268C422.28 201.348 421.82 200.338 421.37 199.268L422.61 200.018ZM426.86 199.128C427.06 198.768 427.25 198.398 427.43 198.018C427.72 199.118 427.96 200.158 428.15 201.118C427.45 200.918 426.762 200.677 426.09 200.398C426.37 199.998 426.63 199.578 426.88 199.128H426.86ZM425.5 189.128C424.82 187.418 424.12 185.848 423.42 184.428C423.926 184.059 424.49 183.779 425.09 183.598C425.369 183.513 425.659 183.47 425.95 183.468C426.349 183.464 426.742 183.564 427.09 183.758C427.355 183.918 427.587 184.129 427.77 184.378C428.72 185.638 428.98 188.288 428.38 191.378C427.466 190.576 426.512 189.822 425.52 189.118L425.5 189.128ZM420 185.928C419.053 185.496 418.073 185.138 417.07 184.858C416.57 181.758 416.63 179.628 417.13 178.798C417.175 178.709 417.238 178.631 417.316 178.569C417.393 178.507 417.483 178.462 417.58 178.438H417.67C417.863 178.449 418.049 178.511 418.21 178.618C419.16 179.168 420.53 180.948 422.02 183.728C421.266 184.383 420.588 185.121 420 185.928ZM417.38 190.588C416.931 191.656 416.564 192.756 416.28 193.878C413.71 191.398 412.19 188.988 412.19 187.528C412.177 187.256 412.241 186.985 412.376 186.748C412.51 186.511 412.709 186.317 412.95 186.188C413.476 185.925 414.062 185.801 414.65 185.828C415.198 185.836 415.744 185.896 416.28 186.008C416.54 187.428 416.9 188.998 417.36 190.588H417.38ZM420 198.318C420.65 199.958 421.34 201.488 422 202.878C421.308 203.427 420.477 203.773 419.6 203.878C419.218 203.917 418.832 203.856 418.481 203.7C418.131 203.544 417.827 203.298 417.6 202.988C416.6 201.718 416.39 199.068 416.98 195.988C417.943 196.82 418.951 197.598 420 198.318ZM425.42 201.428C426.389 201.874 427.392 202.242 428.42 202.528C428.92 205.638 428.86 207.778 428.36 208.608C428.316 208.698 428.253 208.777 428.176 208.839C428.098 208.901 428.007 208.946 427.91 208.968C427 209.128 425.29 207.108 423.42 203.578C424.154 202.933 424.818 202.213 425.4 201.428H425.42ZM428.09 196.628C428.512 195.603 428.862 194.551 429.14 193.478C431.71 195.948 433.23 198.358 433.23 199.818C433.241 200.09 433.175 200.36 433.041 200.597C432.907 200.833 432.709 201.028 432.47 201.158C431.444 201.59 430.301 201.661 429.23 201.358C428.93 199.898 428.54 198.308 428.07 196.628H428.09Z" fill="#79DB92"/>
<path d="M424.72 194.848C424.72 196.348 423.81 197.028 422.72 196.388C422.107 195.94 421.607 195.355 421.26 194.68C420.913 194.005 420.728 193.257 420.72 192.498C420.72 191.008 421.63 190.318 422.72 190.968C423.334 191.414 423.834 191.997 424.181 192.67C424.529 193.344 424.713 194.09 424.72 194.848Z" fill="#79DB92"/>
<g opacity="0.65">
<path d="M429.39 192.288C430.1 188.698 429.8 185.388 428.39 183.508C428.088 183.067 427.684 182.706 427.212 182.455C426.74 182.204 426.214 182.072 425.68 182.068H425.43C424.47 182.16 423.552 182.505 422.77 183.068C420.77 179.288 418.77 176.958 417.34 176.958H417.14C416.947 176.995 416.764 177.076 416.607 177.194C416.449 177.311 416.32 177.463 416.23 177.638C415.54 178.788 415.5 181.268 416.03 184.548C414.787 184.203 413.463 184.295 412.28 184.808C411.903 185.031 411.596 185.353 411.391 185.74C411.186 186.126 411.092 186.562 411.12 186.998C411.12 189.168 413.03 192.148 416 194.998C415.29 198.588 415.59 201.908 417 203.788C417.307 204.192 417.691 204.532 418.13 204.788C418.613 205.067 419.162 205.212 419.72 205.208C420.078 205.206 420.435 205.156 420.78 205.058C421.466 204.836 422.108 204.498 422.68 204.058C424.3 207.058 425.9 209.228 427.19 209.978C427.491 210.165 427.836 210.269 428.19 210.278H428.39C428.583 210.241 428.766 210.161 428.923 210.043C429.081 209.925 429.21 209.773 429.3 209.598C429.99 208.448 430.03 205.948 429.5 202.658C430.023 202.765 430.556 202.821 431.09 202.828C431.802 202.86 432.51 202.701 433.14 202.368C433.517 202.148 433.826 201.828 434.032 201.443C434.238 201.058 434.335 200.624 434.31 200.188C434.27 198.118 432.35 195.128 429.39 192.288ZM425.96 198.088C425.61 198.718 425.23 199.288 424.85 199.838C424.19 199.518 423.49 199.158 422.75 198.728C422.01 198.298 421.31 197.848 420.63 197.398C420.24 196.398 419.85 195.338 419.48 194.238C419.11 193.138 418.79 192.118 418.48 191.118C418.76 190.498 419.06 189.878 419.4 189.268C419.733 188.664 420.1 188.08 420.5 187.518C421.16 187.838 421.86 188.188 422.61 188.618C423.36 189.048 424.13 189.538 424.84 190.028C425.22 191.022 425.6 192.072 425.98 193.178C426.32 194.178 426.63 195.178 426.91 196.108C426.64 196.768 426.32 197.428 426 198.088H425.96ZM426.96 192.978C426.73 192.308 426.5 191.668 426.27 191.028C426.94 191.538 427.57 192.028 428.16 192.578C427.982 193.293 427.765 193.997 427.51 194.688C427.32 194.128 427.13 193.558 426.94 192.998L426.96 192.978ZM422.77 187.338C422.26 187.038 421.77 186.778 421.27 186.528C421.703 185.988 422.182 185.487 422.7 185.028C423.17 185.978 423.65 187.028 424.12 188.158C423.66 187.878 423.21 187.598 422.75 187.338H422.77ZM418.52 188.218C418.34 188.548 418.17 188.878 418 189.218C417.73 188.218 417.51 187.218 417.32 186.278C418 186.465 418.667 186.692 419.32 186.958C419 187.358 418.75 187.778 418.5 188.218H418.52ZM418.52 194.438C418.75 195.108 418.99 195.758 419.23 196.438C418.51 195.898 417.84 195.358 417.23 194.808C417.425 194.047 417.659 193.296 417.93 192.558C418.12 193.158 418.33 193.788 418.54 194.438H418.52ZM422.61 200.018C423.11 200.308 423.61 200.568 424.09 200.818C423.681 201.338 423.229 201.823 422.74 202.268C422.28 201.348 421.82 200.338 421.37 199.268L422.61 200.018ZM426.86 199.128C427.06 198.768 427.25 198.398 427.43 198.018C427.72 199.118 427.96 200.158 428.15 201.118C427.45 200.918 426.762 200.677 426.09 200.398C426.37 199.998 426.63 199.578 426.88 199.128H426.86ZM425.5 189.128C424.82 187.418 424.12 185.848 423.42 184.428C423.926 184.059 424.49 183.779 425.09 183.598C425.369 183.513 425.659 183.47 425.95 183.468C426.349 183.464 426.742 183.564 427.09 183.758C427.355 183.918 427.587 184.129 427.77 184.378C428.72 185.638 428.98 188.288 428.38 191.378C427.466 190.576 426.512 189.822 425.52 189.118L425.5 189.128ZM420 185.928C419.053 185.496 418.073 185.138 417.07 184.858C416.57 181.758 416.63 179.628 417.13 178.798C417.175 178.709 417.238 178.631 417.316 178.569C417.393 178.507 417.483 178.462 417.58 178.438H417.67C417.863 178.449 418.049 178.511 418.21 178.618C419.16 179.168 420.53 180.948 422.02 183.728C421.266 184.383 420.588 185.121 420 185.928ZM417.38 190.588C416.931 191.656 416.564 192.756 416.28 193.878C413.71 191.398 412.19 188.988 412.19 187.528C412.177 187.256 412.241 186.985 412.376 186.748C412.51 186.511 412.709 186.317 412.95 186.188C413.476 185.925 414.062 185.801 414.65 185.828C415.198 185.836 415.744 185.896 416.28 186.008C416.54 187.428 416.9 188.998 417.36 190.588H417.38ZM420 198.318C420.65 199.958 421.34 201.488 422 202.878C421.308 203.427 420.477 203.773 419.6 203.878C419.218 203.917 418.832 203.856 418.481 203.7C418.131 203.544 417.827 203.298 417.6 202.988C416.6 201.718 416.39 199.068 416.98 195.988C417.943 196.82 418.951 197.598 420 198.318ZM425.42 201.428C426.389 201.874 427.392 202.242 428.42 202.528C428.92 205.638 428.86 207.778 428.36 208.608C428.316 208.698 428.253 208.777 428.176 208.839C428.098 208.901 428.007 208.946 427.91 208.968C427 209.128 425.29 207.108 423.42 203.578C424.154 202.933 424.818 202.213 425.4 201.428H425.42ZM428.09 196.628C428.512 195.603 428.862 194.551 429.14 193.478C431.71 195.948 433.23 198.358 433.23 199.818C433.241 200.09 433.175 200.36 433.041 200.597C432.907 200.833 432.709 201.028 432.47 201.158C431.444 201.59 430.301 201.661 429.23 201.358C428.93 199.898 428.54 198.308 428.07 196.628H428.09Z" fill="white"/>
<path d="M424.72 194.848C424.72 196.348 423.81 197.028 422.72 196.388C422.107 195.94 421.607 195.355 421.259 194.68C420.912 194.005 420.727 193.258 420.72 192.498C420.72 191.008 421.63 190.318 422.72 190.968C423.333 191.414 423.834 191.997 424.181 192.671C424.528 193.344 424.713 194.09 424.72 194.848Z" fill="white"/>
</g>
<path d="M381.65 233.618C385.55 234.378 387.33 235.718 389.56 241.138C391.79 246.558 395.74 259.758 396.67 263.378C397.08 265.008 386.81 279.528 387.25 279.308C387.38 279.248 383.25 272.308 383.25 272.308L388.25 262.658L384.66 253.888L381.65 233.618Z" fill="#FFA7D4"/>
<path d="M380.32 233.708C380.32 233.708 383.89 233.068 386.25 235.028C388.61 236.988 388.97 238.288 390.56 242.318C392.15 246.348 394.78 254.718 394.78 254.718C394.78 254.718 394.02 259.218 386.69 260.098L380.41 245.998C380.41 245.998 378.22 237.398 380.32 233.708Z" fill="#79DB92"/>
<path d="M373 349.808C372.785 351.079 372.864 352.382 373.23 353.618C373.88 355.127 374.949 356.418 376.31 357.338C377.298 358.252 378.16 359.295 378.87 360.438C379.572 361.689 380.474 362.818 381.54 363.778C382.38 364.498 384.72 364.558 385.86 364.088C387 363.618 387.37 363.188 387.3 361.378C387.23 359.568 381.75 358.948 381.75 358.948L373 349.808Z" fill="#45645C"/>
<path d="M386.55 355.998C387.02 356.178 387.13 357.068 387.21 358.838C387.26 360.178 387.82 362.148 385.98 362.988C385.158 363.317 384.257 363.397 383.39 363.219C382.523 363.041 381.727 362.614 381.1 361.988C379.84 360.408 378.99 358.988 377.2 357.098C375.65 355.428 374.03 354.858 373.34 351.528C372.89 349.378 373.24 348.528 374.69 347.878C376.69 347.028 379.79 349.798 381.34 350.228C382.68 350.558 386.08 355.808 386.55 355.998Z" fill="#79DB92"/>
<path opacity="0.2" d="M386.55 355.998C387.02 356.178 387.13 357.068 387.21 358.838C387.26 360.178 387.82 362.148 385.98 362.988C385.158 363.317 384.257 363.397 383.39 363.219C382.523 363.041 381.727 362.614 381.1 361.988C379.84 360.408 378.99 358.988 377.2 357.098C375.65 355.428 374.03 354.858 373.34 351.528C372.89 349.378 373.24 348.528 374.69 347.878C376.69 347.028 379.79 349.798 381.34 350.228C382.68 350.558 386.08 355.808 386.55 355.998Z" fill="black"/>
<path d="M381.34 350.178L381.08 350.088C380.178 350.138 379.306 350.425 378.551 350.921C377.796 351.416 377.185 352.101 376.78 352.908C376.52 353.488 377.33 353.908 377.78 353.488C378.213 352.707 378.83 352.044 379.577 351.556C380.325 351.068 381.181 350.77 382.07 350.688C381.862 350.472 381.614 350.299 381.34 350.178Z" fill="#FAFAFA"/>
<path d="M382.63 351.188C381.781 351.279 380.969 351.583 380.269 352.073C379.57 352.562 379.006 353.221 378.63 353.988C378.36 354.568 379.18 354.988 379.63 354.568C379.992 353.886 380.5 353.292 381.119 352.83C381.739 352.368 382.453 352.05 383.21 351.898L382.63 351.188Z" fill="#FAFAFA"/>
<path d="M348 377.218C347.69 378.728 348.24 379.508 350.17 380.628C352.716 381.885 355.654 382.09 358.35 381.198C361.55 380.268 363.08 378.868 364.41 378.538C365.74 378.208 369.03 378.178 370.34 377.788C371.65 377.398 371.64 376.738 371.63 375.158L348 377.218Z" fill="#45645C"/>
<path d="M370.36 367.538C370.756 368.703 371.09 369.888 371.36 371.088C371.63 372.398 372.01 374.598 371.55 375.588C371.09 376.578 369.3 377.218 366.55 377.198C364.75 377.198 361.94 378.408 360.01 379.478C358.078 380.433 355.889 380.738 353.77 380.348C351.29 380.058 348.72 378.618 348.32 377.588C347.92 376.558 347.82 375.798 353.66 373.308C353.71 373.308 360.43 370.808 363.26 367.688L370.36 367.538Z" fill="#79DB92"/>
<g opacity="0.2">
<path d="M370.36 367.538C370.756 368.703 371.09 369.888 371.36 371.088C371.63 372.398 372.01 374.598 371.55 375.588C371.09 376.578 369.3 377.218 366.55 377.198C364.75 377.198 361.94 378.408 360.01 379.478C358.078 380.433 355.889 380.738 353.77 380.348C351.29 380.058 348.72 378.618 348.32 377.588C347.92 376.558 347.82 375.798 353.66 373.308C353.71 373.308 360.43 370.808 363.26 367.688L370.36 367.538Z" fill="black"/>
</g>
<path d="M359.14 379.858C359.14 379.858 358.64 374.858 354.56 373.418C350.88 372.118 347.66 374.848 348.02 377.218C348.26 378.818 352.74 382.448 359.14 379.858Z" fill="#FAFAFA"/>
<path d="M355.59 372.478C356.626 372.573 357.603 373.005 358.37 373.708C359.55 374.708 359.58 375.358 359.58 375.358C359.67 375.452 359.788 375.514 359.916 375.537C360.044 375.56 360.176 375.542 360.294 375.485C360.411 375.429 360.507 375.337 360.57 375.223C360.632 375.108 360.656 374.977 360.64 374.848C360.64 374.848 360.37 372.318 357.04 371.798C356.757 371.745 356.465 371.782 356.205 371.904C355.945 372.026 355.73 372.227 355.59 372.478Z" fill="#FAFAFA"/>
<path d="M357.92 371.358C358.964 371.366 359.967 371.766 360.73 372.478C361.91 373.478 361.91 374.238 361.91 374.238C362 374.336 362.118 374.402 362.249 374.428C362.379 374.453 362.514 374.436 362.633 374.379C362.753 374.321 362.851 374.228 362.914 374.11C362.976 373.993 362.999 373.859 362.98 373.728C362.98 373.728 362.7 371.208 359.37 370.728C359.093 370.668 358.803 370.696 358.543 370.809C358.283 370.922 358.065 371.114 357.92 371.358Z" fill="#FAFAFA"/>
<path d="M360.23 369.998C361.271 369.935 362.298 370.263 363.11 370.918C364.35 371.828 364.41 372.598 364.41 372.598C364.508 372.676 364.626 372.723 364.751 372.732C364.876 372.742 365 372.713 365.109 372.651C365.217 372.588 365.303 372.494 365.357 372.381C365.411 372.268 365.429 372.142 365.41 372.018C365.41 372.018 364.96 369.518 361.61 369.228C361.329 369.2 361.046 369.258 360.799 369.396C360.552 369.534 360.353 369.744 360.23 369.998Z" fill="#FAFAFA"/>
<path d="M386.55 353.118V356.518C385.734 357.042 384.79 357.333 383.821 357.359C382.851 357.386 381.893 357.147 381.05 356.668C380.96 356.458 380.68 353.118 380.68 353.118H386.55Z" fill="#FFA7D4"/>
<path d="M370.36 365.188V367.728C370.36 368.648 369.28 370.018 366.46 369.918C364.46 369.848 363.1 369.318 363.18 367.688V365.338L370.36 365.188Z" fill="#FFA7D4"/>
<path d="M390.22 324.248C390.03 317.078 388.56 313.928 388.56 313.928C388.56 313.928 389.11 305.068 390.3 294.218C392.11 277.708 391.3 274.498 388.02 267.068C388.02 267.068 360.22 264.248 359.37 275.808C358.31 290.198 358.19 319.468 358.57 324.548C358.95 329.628 358.95 324.938 360.18 335.228C361.18 343.358 363.18 365.338 363.18 365.338C364.297 365.905 365.536 366.188 366.789 366.162C368.041 366.136 369.268 365.801 370.36 365.188C370.36 365.188 372.64 338.298 372.36 332.438C372.333 329.426 372.099 326.419 371.66 323.438C371.66 323.438 374.91 300.258 375.41 296.528C375.41 296.528 375.87 303.208 376.25 308.288C376.63 313.368 376.6 317.468 377.67 327.978C378.51 336.228 380.54 354.028 380.54 354.028C381.517 354.428 382.573 354.597 383.626 354.521C384.68 354.444 385.701 354.125 386.61 353.588C386.61 353.588 390.37 330.058 390.22 324.248Z" fill="#45645C"/>
<path d="M374.25 353.998C374.25 353.998 374.4 349.998 379.77 349.468L380.08 349.648C379.475 348.68 378.536 347.968 377.44 347.648C376.714 347.384 375.923 347.357 375.181 347.571C374.439 347.785 373.784 348.228 373.31 348.838C372.37 349.998 373.32 353.168 374.25 353.998Z" fill="#FAFAFA"/>
<path d="M367.4 229.878L368.71 240.628L378.16 239.768L377.08 227.848L367.4 229.878Z" fill="#FFA7D4"/>
<path d="M387.37 238.818C386.37 235.988 383.95 233.028 380.32 233.708C379.37 233.878 378.54 234.018 377.65 234.198C377.57 236.678 372.91 237.958 368.26 236.458C366.86 236.858 365.58 237.258 364.42 237.678C361.1 238.868 359.76 244.388 359.69 253.628C359.62 262.868 358.31 281.418 358.31 281.418C358.31 281.418 365.31 285.128 378.39 282.758C391.47 280.388 391.24 275.938 391.24 275.938C391.24 275.938 390.98 270.518 385.08 261.418C390.09 248.098 388.91 242.998 387.37 238.818Z" fill="#374F49"/>
<path d="M360.39 216.238C359.821 214.954 359.587 213.546 359.711 212.146C359.836 210.747 360.313 209.402 361.1 208.238C364.27 203.238 370.38 202.408 377.63 204.348C380.153 205.125 382.377 206.66 383.997 208.744C385.618 210.828 386.558 213.361 386.69 215.998C387.03 221.308 372.22 225.228 372.56 228.868L360.39 216.238Z" fill="#263834"/>
<path d="M360.07 218.248C360.07 218.248 358.07 221.478 358.34 221.808C358.839 222.113 359.387 222.33 359.96 222.448L360.07 218.248Z" fill="#F28FC5"/>
<path d="M366.2 207.998C364.2 209.108 360.72 211.148 360.02 218.678C359.3 226.408 361.09 229.038 362.16 230.018C362.89 230.678 366.55 230.828 368.45 230.178C370.81 229.378 375.92 226.678 378.23 222.638C380.96 217.888 381.38 211.638 378.02 209.278C376.317 208.086 374.341 207.343 372.275 207.119C370.208 206.896 368.118 207.198 366.2 207.998Z" fill="#FFA7D4"/>
<path d="M366.3 217.138C364.999 216.65 363.855 215.817 362.992 214.728C362.129 213.64 361.578 212.336 361.4 210.958C360.64 206.058 366.76 203.958 366.76 203.958L366.3 217.138Z" fill="#263834"/>
<path d="M365.61 208.378C365.61 208.378 364.02 215.458 366.27 219.838C366.27 219.838 367.44 217.058 369.82 217.788C372.2 218.518 372.08 221.678 370.26 223.348C369.795 223.825 369.205 224.161 368.557 224.317C367.909 224.473 367.231 224.442 366.6 224.228C367.405 226.228 368.606 228.044 370.13 229.568C370.13 229.568 377.13 232.708 383.27 225.828C388.8 219.578 387.77 208.688 379.27 206.118C370.77 203.548 365.61 208.378 365.61 208.378Z" fill="#263834"/>
<path d="M394.78 236.098C392.23 236.098 389.785 235.086 387.981 233.284C386.177 231.482 385.163 229.038 385.16 226.488V210.388C387.71 210.388 390.155 211.4 391.959 213.202C393.763 215.004 394.777 217.449 394.78 219.998V236.098Z" fill="#263834"/>
<path d="M386.24 208.298C386.032 208.364 385.838 208.471 385.671 208.611C385.504 208.752 385.366 208.925 385.266 209.119C385.165 209.313 385.104 209.525 385.086 209.743C385.068 209.961 385.093 210.18 385.16 210.388L388.32 209.388C388.256 209.179 388.152 208.985 388.012 208.817C387.873 208.649 387.701 208.51 387.508 208.409C387.314 208.307 387.103 208.245 386.885 208.226C386.667 208.207 386.448 208.232 386.24 208.298Z" fill="#263834"/>
<path d="M340.52 254.698C339.14 253.128 338.92 249.698 337.09 247.288C335.26 244.878 335.6 242.508 334.45 243.578C333.3 244.648 334.16 248.578 334.16 248.578C334.16 248.578 332.03 252.528 331.85 254.578C331.67 256.628 337.02 261.668 337.02 261.668L340.52 254.698Z" fill="#FFA7D4"/>
<path d="M334.45 248.278C334.45 248.278 332.28 251.278 322.54 247.348C319.84 246.258 321.66 252.048 324.96 254.448C328.02 256.668 331.84 257.348 334.9 259.448C334.91 259.128 334.45 248.278 334.45 248.278Z" fill="#FFA7D4"/>
<path d="M365.25 237.388C362.47 238.388 360.04 239.478 357.45 244.388C354.12 250.648 348.06 262.908 348.06 262.908L340.52 254.738C340.52 254.738 339.42 253.188 337.37 256.558C335.32 259.928 336.23 260.868 336.23 260.868C336.23 260.868 345.01 272.628 346.63 274.128C348.25 275.628 350.89 274.458 352.63 272.128C354.37 269.798 363.29 253.588 363.29 253.588C363.29 253.588 369.17 243.308 365.25 237.388Z" fill="#FFA7D4"/>
<path d="M366.59 236.998C364.823 237.159 363.124 237.758 361.647 238.741C360.17 239.724 358.961 241.06 358.13 242.628C354.81 248.628 351.31 255.408 351.31 255.408C351.31 255.408 353.72 261.208 359.85 261.658C359.85 261.058 364.85 252.158 366.76 248.348C368.67 244.538 368.47 238.668 366.59 236.998Z" fill="#79DB92"/>
<path d="M375.45 296.538L375.98 290.918C379.004 290.469 381.896 289.374 384.46 287.708C384.46 287.708 382.66 290.598 377.7 291.918L376.58 297.388L376.29 308.298L375.45 296.538Z" fill="#374F49"/>
</g>
<defs>
<clipPath id="clip0_129_5666">
<rect width="473.16" height="440.05" fill="white"/>
</clipPath>
</defs>
</svg>
